# Blender 3.4.0
# www.blender.org
mtllib doorway_hr_1_wide.mtl
o doorway_hr_1_wide
v 2.000000 -0.000000 0.200000
v 2.000000 3.000000 0.200001
v -2.000000 -0.000000 0.200001
v 0.800000 2.500000 0.200000
v -0.800000 2.500000 0.200000
v -0.800000 0.000000 0.200000
v 0.800000 0.000000 0.200000
v -0.800000 0.000000 -0.200000
v -1.100000 2.700000 0.210000
v -2.000000 -0.000000 -0.200000
v -2.000000 3.000000 -0.200000
v 2.000000 -0.000000 -0.200001
v -0.800000 2.500000 -0.200000
v 0.800000 2.500000 -0.200000
v 0.800000 0.000000 -0.200000
v 1.100000 2.500000 -0.210000
v 1.100000 2.700000 -0.210000
v 1.100000 2.500000 0.210000
v 1.100000 2.700000 0.210000
v -1.100000 2.500000 -0.210000
v -1.100000 2.700000 -0.210000
v -1.100000 2.500000 0.210000
v -2.000000 3.000000 0.200001
v 2.000000 3.000000 -0.200001
vn 1.0000 -0.0000 -0.0000
vn -0.0000 -0.0000 1.0000
vn -1.0000 -0.0000 -0.0000
vn -0.0000 -0.0000 -1.0000
vn -0.0000 -1.0000 -0.0000
vn -0.0000 1.0000 -0.0000
vt 0.992611 0.000000
vt 1.500000 0.450000
vt 0.992611 1.000000
vt 0.007389 0.000000
vt 0.692743 0.833333
vt 0.307363 0.833328
vt 0.307257 0.833333
vt 0.307363 0.000000
vt 0.307257 0.000000
vt 0.692743 0.000000
vt 0.427363 0.000000
vt 0.692743 0.000000
vt 0.150000 0.775000
vt 0.150000 0.421250
vt 0.203750 0.225000
vt 0.992611 0.000000
vt 0.500000 0.550000
vt 0.992611 1.000000
vt 0.007389 0.000000
vt 0.427363 0.833327
vt 0.692743 0.833333
vt 0.572766 0.833328
vt 0.307257 0.833333
vt 0.572765 0.000000
vt 0.307257 0.000000
vt 0.100000 0.526250
vt 0.100000 0.775000
vt 0.098750 0.775000
vt 0.150000 0.526250
vt 0.150000 0.775000
vt 0.098750 0.775000
vt 0.100000 0.225000
vt 0.100000 0.421250
vt 0.203750 0.775000
vt 0.150000 0.225000
vt 0.150000 0.421250
vt 0.203750 0.775000
vt 0.100000 0.526250
vt 0.100000 0.225000
vt 0.098750 0.225000
vt 0.150000 0.526250
vt 0.150000 0.225000
vt 0.098750 0.225000
vt 0.100000 0.775000
vt 0.100000 0.421250
vt 0.203750 0.225000
vt 0.500000 0.450000
vt 0.007389 1.000000
vt 1.500000 0.550000
vt 0.007389 1.000000
s 1
usemtl wall_hr_2
f 5/6/1 6/8/1 8/11/1 13/20/1
f 5/7/2 23/48/2 3/4/2 6/9/2
f 7/10/3 4/5/3 14/22/3 15/24/3
f 14/23/4 24/50/4 12/19/4 15/25/4
f 4/5/2 2/3/2 23/48/2 5/7/2
f 7/10/2 1/1/2 2/3/2 4/5/2
f 13/21/4 11/18/4 24/50/4 14/23/4
f 8/12/4 10/16/4 11/18/4 13/21/4
s 0
usemtl concrete_hr_1
f 18/32/2 19/35/2 9/13/2 22/44/2
f 16/26/1 17/29/1 19/36/1 18/33/1
f 22/45/3 9/14/3 21/41/3 20/38/3
f 20/39/4 21/42/4 17/30/4 16/27/4
f 18/34/5 22/46/5 20/40/5 16/28/5
f 9/15/6 19/37/6 17/31/6 21/43/6
s 1
usemtl concrete_hr_3
f 2/2/6 24/49/6 11/17/6 23/47/6
o door_hm_1_piece_1
v -0.799999 0.000000 0.000000
v -0.799999 2.500000 -0.000001
v -0.199999 2.500000 -0.000001
v -0.199999 0.000000 0.000000
v -0.199999 2.500000 0.049999
v -0.799999 2.500000 0.049999
v -0.799999 0.000000 0.050000
v -0.199999 0.000000 0.050000
vn -0.0000 -0.0000 -1.0000
vn -0.0000 -0.0000 1.0000
vn -1.0000 -0.0000 -0.0000
vn -0.0000 -1.0000 -0.0000
vn -0.0000 1.0000 -0.0000
vn 1.0000 -0.0000 -0.0000
vt 0.000000 0.000000
vt 0.031579 0.000000
vt 0.000000 1.000000
vt 0.031579 1.000000
vt 0.000000 1.000000
vt 0.368421 1.000000
vt 0.031579 1.000000
vt 0.368421 0.000000
vt 0.368421 1.000000
vt 0.031579 0.000000
vt 0.368421 1.000000
vt 0.368421 0.980263
vt 0.000000 1.000000
vt 0.000000 1.000000
vt 0.000000 0.980263
vt 0.000000 0.000000
vt 0.000000 0.980263
vt 0.368421 0.000000
vt 0.368421 0.980263
vt 0.000000 0.000000
s 0
usemtl door_hm_1
f 25/51/7 26/55/7 27/56/7 28/58/7
f 31/66/8 32/68/8 29/61/8 30/64/8
f 26/54/9 25/52/9 31/66/9 30/64/9
f 25/53/10 28/59/10 32/69/10 31/67/10
f 27/56/11 26/55/11 30/65/11 29/62/11
f 27/57/12 29/63/12 32/70/12 28/60/12
o door_hm_1_piece_2
v 0.800001 0.000000 0.000000
v 0.800001 2.500000 -0.000001
v -0.199999 2.500000 -0.000001
v -0.199999 0.000000 0.000000
v 0.800001 0.000000 0.050000
v 0.800001 2.500000 0.049999
v -0.199999 2.500000 0.049999
v -0.199999 0.000000 0.050000
vn -0.0000 -0.0000 -1.0000
vn -0.0000 -0.0000 1.0000
vn -0.0000 1.0000 -0.0000
vn 1.0000 -0.0000 -0.0000
vn -0.0000 -1.0000 -0.0000
vn -1.0000 -0.0000 -0.0000
vt 1.000000 0.000000
vt 0.031579 0.000000
vt 1.000000 1.000000
vt 1.000000 1.000000
vt 0.031579 1.000000
vt 0.368421 1.000000
vt 0.031579 1.000000
vt 0.368421 0.000000
vt 0.368421 1.000000
vt 0.031579 0.000000
vt 1.000000 0.000000
vt 0.000000 0.000000
vt 1.000000 0.980263
vt 1.000000 1.000000
vt 1.000000 0.980263
vt 0.000000 1.000000
vt 0.368421 1.000000
vt 0.368421 0.980263
vt 0.000000 1.000000
vt 0.368421 0.000000
vt 0.368421 0.980263
vt 0.000000 0.000000
s 0
usemtl door_hm_1
f 36/78/13 35/76/13 34/74/13 33/71/13
f 40/90/14 37/81/14 38/84/14 39/87/14
f 34/74/15 35/76/15 39/88/15 38/85/15
f 33/72/16 34/75/16 38/86/16 37/82/16
f 36/79/17 33/73/17 37/83/17 40/91/17
f 35/77/18 36/80/18 40/92/18 39/89/18
