# Blender 3.4.0
# www.blender.org
mtllib doorway_rx_1.mtl
o doorway_rx_1
v 2.000000 -0.000000 0.200000
v 2.000000 3.000000 0.200001
v -2.000000 -0.000000 0.200001
v -2.000000 3.000000 0.200001
v 0.500000 2.100000 0.200000
v -0.500000 2.100000 0.200000
v -0.500000 0.000000 0.200000
v 0.500000 0.000000 0.200000
v -0.500000 0.000000 -0.200000
v -0.500000 2.100000 -0.200000
v 0.500000 0.000000 -0.200000
v 0.500000 2.100000 -0.200000
v -2.000000 -0.000000 -0.200000
v -2.000000 3.000000 -0.200001
v 2.000000 -0.000000 -0.200000
v 2.000000 3.000000 -0.200001
v -0.500000 2.100000 -0.200000
v 0.500000 2.100000 -0.200000
v 0.500000 0.000000 -0.200000
vn 1.0000 0.0006 -0.0032
vn -0.0000 -0.0000 1.0000
vn -1.0000 -0.0000 -0.0064
vn 0.0063 -1.0000 0.0006
vn -0.0063 -1.0000 -0.0006
vn -0.0000 -1.0000 -0.0000
vn -0.0127 -0.9999 -0.0000
vn -0.0000 -0.0000 -1.0000
vn -0.0000 1.0000 -0.0000
vt 1.000000 0.000000
vt 1.000000 1.000000
vt 1.000000 0.450000
vt 0.000000 0.000000
vt 0.000000 1.000000
vt 0.000000 0.450000
vt 0.625000 0.700521
vt 0.625000 0.635417
vt 0.375000 0.700521
vt 0.375000 0.635417
vt 0.375000 0.000000
vt 0.625000 0.000000
vt 0.472656 -0.000000
vt 0.375000 0.000000
vt 0.472653 0.700520
vt 0.374742 0.765625
vt 0.527352 0.000000
vt 0.527352 0.700521
vt 0.625258 0.765625
vt 0.000000 0.000000
vt 0.000000 1.000000
vt 0.000000 0.550000
vt 1.000000 0.000000
vt 1.000000 1.000000
vt 1.000000 0.550000
vt 0.375000 0.700521
vt 0.625000 0.700521
vt 0.625000 0.000000
s 1
usemtl wall_rx_1
f 6/9/1 7/11/1 9/13/1 10/15/1
f 8/12/2 1/1/2 2/2/2 4/5/2 3/4/2 7/11/2 6/9/2 5/7/2
f 8/12/3 5/7/3 12/18/3 11/17/3
f 6/10/4 10/16/5 12/19/6 5/8/7
f 9/14/8 13/20/8 14/21/8 16/24/8 15/23/8 19/28/8 18/27/8 17/26/8
usemtl concrete_hr_3
f 2/3/9 16/25/9 14/22/9 4/6/9
o door_hr_12
v -0.500004 0.000000 0.050000
v -0.500004 2.100000 0.049999
v -0.500004 -0.000000 -0.000000
v -0.500004 2.100000 -0.000001
v 0.499996 0.000000 0.050000
v 0.499996 2.100000 0.049999
v 0.499996 -0.000000 -0.000000
v 0.499996 2.100000 -0.000001
vn -1.0000 -0.0000 -0.0000
vn -0.0000 -0.0000 -1.0000
vn 1.0000 -0.0000 -0.0000
vn -0.0000 -0.0000 1.0000
vn -0.0000 -1.0000 -0.0000
vn -0.0000 1.0000 -0.0000
vt 0.943662 0.000000
vt 0.000000 0.000000
vt 0.992958 0.023636
vt 0.943662 1.000000
vt 0.000000 1.000000
vt 0.992958 0.498182
vt 0.992958 0.000000
vt 0.000000 0.000000
vt 0.943662 0.023636
vt 0.992958 1.000000
vt 0.000000 1.000000
vt 0.943662 0.498182
vt 0.943662 0.000000
vt 0.922535 0.000000
vt 0.992958 0.500000
vt 0.943662 1.000000
vt 0.922535 1.000000
vt 0.992958 0.974545
vt 0.922535 0.000000
vt 0.992958 0.000000
vt 0.943662 0.500000
vt 0.922535 1.000000
vt 0.992958 1.000000
vt 0.943662 0.974545
s 0
usemtl door_hr_12
f 20/29/10 21/32/10 23/38/10 22/35/10
f 22/36/11 23/39/11 27/50/11 26/47/11
f 26/48/12 27/51/12 25/44/12 24/41/12
f 24/42/13 25/45/13 21/33/13 20/30/13
f 22/37/14 26/49/14 24/43/14 20/31/14
f 27/52/15 23/40/15 21/34/15 25/46/15
