# Blender 3.4.0
# www.blender.org
mtllib fence_e_pillar_1_corner.mtl
o fence_e_pillar_1_corner
v 0.019996 0.270001 0.140000
v 0.019996 2.200001 0.140000
v -0.020004 0.180000 0.200000
v -0.020004 2.300000 0.200000
v 0.019996 0.180000 0.200000
v 0.019996 2.300000 0.200000
v -0.020004 0.270001 0.140000
v -0.020004 2.200001 0.140000
v -0.000005 2.200000 0.140001
v -0.000004 0.270000 0.140001
v -0.001005 2.200000 0.140001
v -0.001004 0.270000 0.140001
v -0.020004 0.180000 0.020000
v 0.019996 0.180000 0.020000
v 0.019996 0.270001 0.020000
v 0.019996 2.300000 0.020000
v 0.019996 2.200001 0.020000
v -0.001005 2.200000 -0.000000
v -0.001005 0.270000 -0.000000
v 0.140000 0.270001 -0.019996
v 0.140000 2.200001 -0.019996
v 0.200000 0.180000 0.020004
v 0.200000 2.300000 0.020004
v 0.200000 0.180000 -0.019996
v 0.200000 2.300000 -0.019996
v 0.140000 0.270001 0.020004
v 0.140000 2.200001 0.020004
v 0.140001 2.200000 0.000005
v 0.140001 0.270000 0.000004
v 0.140001 2.200000 0.001005
v 0.140001 0.270000 0.001004
v -0.020004 0.180000 -0.019996
v -0.020004 0.270001 -0.019996
v -0.020004 0.270001 0.020004
v -0.020004 2.300000 0.020004
v -0.020004 2.300000 -0.019996
v -0.020004 2.200001 -0.019996
v -0.020004 2.200001 0.020004
v 0.000001 2.200000 0.001005
v 0.000001 0.270000 0.001005
v 0.000001 2.200000 0.000005
v 0.000001 0.270000 0.000004
vn -0.0000 -0.0000 -1.0000
vn -0.0000 -0.0000 1.0000
vn -0.0000 -1.0000 -0.0000
vn -0.0000 1.0000 -0.0000
vn -1.0000 -0.0000 -0.0000
vn 1.0000 -0.0000 -0.0000
vt 0.506923 0.258125
vt 0.478847 0.258125
vt 0.478847 0.506923
vt 0.506923 0.740625
vt 0.478847 0.506923
vt 0.478847 0.740625
vt 0.516923 0.235625
vt 0.463847 0.516923
vt 0.463847 0.235625
vt 0.516923 0.765625
vt 0.463847 0.516923
vt 0.463847 0.765625
vt 0.506923 0.235625
vt 0.463847 0.506923
vt 0.463847 0.235625
vt 0.506923 0.765625
vt 0.463847 0.506923
vt 0.463847 0.765625
vt 0.516923 0.258125
vt 0.478847 0.258125
vt 0.478847 0.516923
vt 0.516923 0.740625
vt 0.478847 0.740625
vt 0.478847 0.516923
vt -1.033356 1.766077
vt 1.696076 -0.963356
vt -1.033356 1.766077
vt 1.696076 -0.963356
vt 0.508846 0.516923
vt 0.516923 0.235625
vt 0.508846 0.235625
vt 0.508847 0.506923
vt 0.508847 0.235625
vt 0.508847 0.258125
vt 0.508847 0.506923
vt 0.508847 0.506923
vt 0.508847 0.765625
vt 0.508847 0.506923
vt 0.508847 0.740625
vt -0.835364 1.964069
vt 1.894068 -0.765364
vt 0.518846 0.258125
vt 0.476922 0.258125
vt 0.518846 0.476922
vt 0.518846 0.740625
vt 0.518846 0.476922
vt 0.476922 0.740625
vt 0.508846 0.235625
vt 0.508846 0.461922
vt 0.461922 0.235625
vt 0.508846 0.765625
vt 0.508846 0.461922
vt 0.461922 0.765625
vt 0.518846 0.235625
vt 0.518846 0.461922
vt 0.461922 0.235625
vt 0.518846 0.765625
vt 0.518846 0.461922
vt 0.461922 0.765625
vt 0.508846 0.258125
vt 0.476922 0.258125
vt 0.508846 0.476922
vt 0.508846 0.740625
vt 0.476922 0.740625
vt 0.508846 0.476922
vt -1.034069 1.765364
vt 1.695363 -0.964069
vt -1.034069 1.765364
vt 1.695363 -0.964069
vt 0.518846 0.516923
vt 0.516923 0.235625
vt 0.518846 0.235625
vt 0.516923 0.258125
vt 0.518846 0.516923
vt 0.518846 0.258125
vt 0.516923 0.258125
vt 0.508846 0.516923
vt 0.508846 0.258125
vt 0.508846 0.516923
vt 0.516923 0.765625
vt 0.508846 0.765625
vt 0.518846 0.516923
vt 0.516923 0.765625
vt 0.518846 0.765625
vt 0.518846 0.516923
vt 0.516923 0.740625
vt 0.518846 0.740625
vt 0.516923 0.740625
vt 0.508846 0.516923
vt 0.508846 0.740625
vt -0.836078 1.963354
vt 1.893354 -0.766078
vt -0.835364 1.964069
vt -0.836078 1.963354
vt 1.894068 -0.765364
vt 1.893354 -0.766078
s 0
usemtl metal_hr_2
f 2/4/1 1/1/1 7/19/1 8/22/1
f 5/13/2 6/16/2 4/10/2 3/7/2
f 13/29/3 14/32/3 5/14/3 3/8/3
f 16/36/4 35/79/4 4/11/4 6/17/4
f 8/23/5 7/20/5 3/9/5 4/12/5
f 38/90/5 8/23/5 4/12/5 35/81/5
f 15/34/6 1/2/6 5/15/6 14/33/6
f 1/2/6 2/6/6 6/18/6 5/15/6
f 17/38/3 2/5/3 8/24/3 38/89/3
f 7/20/5 34/78/5 13/31/5 3/9/5
f 1/3/4 15/35/4 34/77/4 7/21/4
f 2/6/6 17/39/6 16/37/6 6/18/6
f 21/45/5 20/42/5 26/60/5 27/63/5
f 24/54/6 25/57/6 23/51/6 22/48/6
f 13/29/3 32/70/3 24/55/3 22/49/3
f 36/82/4 35/79/4 23/52/4 25/58/4
f 27/64/2 26/61/2 22/50/2 23/53/2
f 38/88/2 27/64/2 23/53/2 35/80/2
f 33/73/1 20/43/1 24/56/1 32/71/1
f 20/43/1 21/47/1 25/59/1 24/56/1
f 37/85/3 21/46/3 27/65/3 38/89/3
f 26/61/2 34/76/2 13/30/2 22/50/2
f 20/44/4 33/74/4 34/77/4 26/62/4
f 21/47/1 37/86/1 36/83/1 25/59/1
f 32/72/5 13/31/5 34/78/5 33/75/5
f 37/87/5 38/90/5 35/81/5 36/84/5
usemtl grate_hm_1
f 11/27/5 18/40/5 19/41/5 12/28/5
f 9/25/6 10/26/6 42/95/6 41/93/6
f 30/68/2 39/91/2 40/92/2 31/69/2
f 28/66/1 29/67/1 42/96/1 41/94/1
