# Blender 3.4.0
# www.blender.org
mtllib fence_e_pillar_1.mtl
o fence_e_pillar_1
v 0.140000 0.270001 -0.020004
v -0.140000 0.270001 0.019996
v -0.140000 2.200001 0.019996
v 0.140000 0.270001 0.019996
v 0.140000 2.200001 0.019996
v 0.200000 0.180000 -0.020004
v -0.200000 0.180000 -0.020004
v -0.200000 2.300000 -0.020004
v 0.200000 2.300000 -0.020004
v 0.200000 2.300000 0.019996
v 0.200000 0.180000 0.019996
v -0.200000 0.180000 0.019996
v -0.200000 2.300000 0.019996
v -0.140000 0.270001 -0.020004
v -0.140000 2.200001 -0.020004
v 0.140000 2.200001 -0.020004
v -0.140001 2.200000 -0.000005
v -0.140001 0.270000 -0.000004
v 0.140000 2.200000 -0.000005
v 0.140000 0.270000 -0.000005
v -0.140001 2.200000 -0.001005
v -0.140001 0.270000 -0.001004
v 0.140000 2.200000 -0.001005
v 0.140000 0.270000 -0.001005
vn -0.0000 1.0000 -0.0000
vn 1.0000 -0.0000 -0.0000
vn -1.0000 -0.0000 -0.0000
vn -0.0000 -1.0000 -0.0000
vn -0.0000 -0.0000 -1.0000
vn -0.0000 -0.0000 1.0000
vt 0.495000 0.535017
vt 0.535017 0.256090
vt 0.495000 0.256090
vt 0.505000 0.465017
vt 0.505000 0.256090
vt 0.465017 0.256090
vt 0.505000 0.738590
vt 0.465017 0.738590
vt 0.505000 0.465017
vt 0.505000 0.535017
vt 0.535017 0.256090
vt 0.505000 0.256090
vt 0.535017 0.738590
vt 0.505000 0.535017
vt 0.505000 0.738590
vt 0.495000 0.233590
vt 0.495000 0.550017
vt 0.550017 0.233590
vt 0.495000 0.233590
vt 0.495000 0.450017
vt 0.450017 0.233590
vt 0.495000 0.763590
vt 0.495000 0.450017
vt 0.450017 0.763590
vt 0.495000 0.763590
vt 0.495000 0.550017
vt 0.550017 0.763590
vt 0.505000 0.763590
vt 0.505000 0.550017
vt 0.550017 0.763590
vt 0.505000 0.233590
vt 0.505000 0.550017
vt 0.550017 0.233590
vt 0.505000 0.233590
vt 0.505000 0.450017
vt 0.450017 0.233590
vt 0.505000 0.763590
vt 0.505000 0.450017
vt 0.450017 0.763590
vt 0.495000 0.465017
vt 0.495000 0.256090
vt 0.465017 0.256090
vt 0.495000 0.738590
vt 0.465017 0.738590
vt 0.495000 0.465017
vt 0.535017 0.738590
vt 0.495000 0.535017
vt 0.495000 0.738590
vt -0.579016 2.073992
vt 2.073992 -0.579016
vt -0.974998 1.678011
vt 1.678010 -0.974998
vt -0.579016 2.073992
vt 2.073992 -0.579016
vt -0.974998 1.678010
vt 1.678011 -0.974997
s 0
usemtl metal_hr_2
f 2/4/1 4/10/1 1/1/1 14/40/1
f 6/16/2 9/25/2 10/28/2 11/31/2
f 3/7/2 2/5/2 14/41/2 15/43/2
f 12/34/3 13/37/3 8/22/3 7/19/3
f 6/17/4 11/32/4 12/35/4 7/20/4
f 10/29/1 9/26/1 8/23/1 13/38/1
f 14/42/5 1/2/5 6/18/5 7/21/5
f 15/44/5 14/42/5 7/21/5 8/24/5
f 16/46/5 15/44/5 8/24/5 9/27/5
f 1/2/5 16/46/5 9/27/5 6/18/5
f 5/13/6 4/11/6 11/33/6 10/30/6
f 4/11/6 2/6/6 12/36/6 11/33/6
f 3/8/6 5/13/6 10/30/6 13/39/6
f 2/6/6 3/8/6 13/39/6 12/36/6
f 5/14/4 3/9/4 15/45/4 16/47/4
f 4/12/3 5/15/3 16/48/3 1/3/3
usemtl grate_hm_1
f 17/49/6 18/50/6 20/52/6 19/51/6
f 21/53/5 23/55/5 24/56/5 22/54/5
