# Blender 3.4.0
# www.blender.org
mtllib gate_1.mtl
o gate_1
v -3.000000 0.133000 0.000000
v -3.000000 1.600000 0.000000
v 2.000000 0.133000 -0.000000
v 2.000000 1.600000 -0.000000
v -3.000000 0.133000 0.050000
v -3.000000 1.600000 0.050000
v 2.000000 0.133000 0.050000
v 2.000000 1.600000 0.050000
v -3.000000 0.133000 0.000000
v 2.000000 0.133000 -0.000000
v -3.000000 0.133000 0.050000
v 2.000000 0.133000 0.050000
v 0.540000 0.133000 -0.000000
v 0.540000 0.133000 0.050000
v 1.913000 0.133000 0.050000
v 1.913000 0.133000 -0.000000
v -2.908500 0.133000 0.000000
v -2.908500 0.133000 0.050000
v 0.447075 0.133000 0.050000
v 0.447075 0.133000 -0.000000
v -2.908500 -0.000000 0.000000
v -3.000000 -0.000000 0.000000
v 2.000000 -0.000000 0.050000
v 2.000000 -0.000000 -0.000000
v 1.913000 -0.000000 0.050000
v -3.000000 -0.000000 0.050000
v 0.447075 -0.000000 0.050000
v 0.540000 -0.000000 0.050000
v 0.540000 -0.000000 -0.000000
v 1.913000 -0.000000 -0.000000
v -2.908500 -0.000000 0.050000
v 0.447075 -0.000000 -0.000000
vn -1.0000 -0.0000 -0.0000
vn -0.0000 1.0000 -0.0000
vn -0.0000 -0.0000 -1.0000
vn 1.0000 -0.0000 -0.0000
vn -0.0000 -0.0000 1.0000
vn -0.0000 -1.0000 -0.0000
vt 0.065885 0.083125
vt 0.000000 0.083125
vt 1.000000 0.973186
vt 0.065885 1.000000
vt 0.000000 0.973186
vt 0.000000 1.000000
vt 1.000000 0.083125
vt 0.065885 0.083125
vt 0.000000 0.973186
vt 1.000000 0.973186
vt 1.000000 1.000000
vt 0.065885 1.000000
vt 0.074219 0.083125
vt 0.000000 0.083125
vt 1.000000 1.000000
vt 0.074219 1.000000
vt 0.000000 1.000000
vt 0.074219 0.083125
vt 1.000000 0.083125
vt 0.000000 1.000000
vt 0.074219 1.000000
vt 1.000000 1.000000
vt 0.009766 0.080442
vt 0.005929 0.083596
vt 0.994141 0.083125
vt 0.009766 0.080442
vt 0.019578 0.080442
vt 0.005929 0.083596
vt 0.994141 0.083125
vt 0.019578 0.080442
vt 0.707500 0.083125
vt 0.009766 0.080442
vt 0.707500 0.083125
vt 0.019578 0.080442
vt 0.019578 0.080442
vt 0.978250 0.083125
vt 0.978250 0.083125
vt 0.009766 0.080442
vt 0.009766 0.080442
vt 0.022727 0.083596
vt 0.022727 0.083596
vt 0.019578 0.080442
vt 0.019578 0.080442
vt 0.688175 0.083125
vt 0.009766 0.080442
vt 0.688175 0.083125
vt 0.009766 0.000000
vt 0.022727 -0.000000
vt 0.009766 0.000000
vt 0.005929 0.000000
vt 0.994141 0.000000
vt 0.019578 0.000000
vt 0.994141 0.000000
vt 0.009766 0.000000
vt 0.019578 0.000000
vt 0.978250 0.000000
vt 0.019578 0.000000
vt 0.005929 0.000000
vt 0.019578 0.000000
vt 0.688175 0.000000
vt 0.707500 -0.000000
vt 0.019578 0.000000
vt 0.707500 -0.000000
vt 0.009766 0.000000
vt 0.978250 -0.000000
vt 0.009766 0.000000
vt 0.022727 -0.000000
vt 0.019578 0.000000
vt 0.009766 0.000000
vt 0.688175 0.000000
s 0
usemtl gate_hr_1
f 1/1/1 5/13/1 6/16/1 2/4/1
f 4/10/2 2/5/2 6/17/2 8/22/2
f 3/7/3 1/2/3 2/6/3 4/11/3
f 7/18/4 3/8/4 4/12/4 8/21/4
f 5/14/5 7/19/5 8/22/5 6/17/5
f 7/20/6 5/15/6 1/3/6 3/9/6
f 30/65/3 16/37/3 10/25/3 24/53/3
f 25/55/1 15/35/1 16/38/1 30/66/1
f 26/57/1 11/27/1 9/23/1 22/49/1
f 27/59/1 19/43/1 20/45/1 32/69/1
f 23/51/5 12/29/5 15/36/5 25/56/5
f 28/61/5 14/33/5 19/44/5 27/60/5
f 31/67/5 18/41/5 11/28/5 26/58/5
f 32/70/3 20/46/3 13/31/3 29/63/3
f 24/54/4 10/26/4 12/30/4 23/52/4
f 21/47/4 17/39/4 18/42/4 31/68/4
f 22/50/3 9/24/3 17/40/3 21/48/3
f 29/64/4 13/32/4 14/34/4 28/62/4
