# Blender 3.4.0
# www.blender.org
mtllib platform_b_handrail_2.mtl
o platform_b_handrail_2
v 0.060001 1.160000 0.020000
v 0.060001 1.160000 -0.020000
v 0.060001 -0.000000 0.020000
v 0.060001 -0.000000 -0.020000
v 0.000001 1.160000 0.020000
v 0.000001 1.160000 -0.020000
v 0.000001 -0.000000 0.020000
v 0.000001 -0.000000 -0.020000
v 0.060001 1.160000 -1.580000
v 0.060001 1.160000 -1.620000
v 0.060001 -0.000000 -1.580000
v 0.060001 -0.000000 -1.620000
v 0.000001 1.160000 -1.580000
v 0.000001 1.160000 -1.620000
v 0.000001 -0.000000 -1.580000
v 0.000001 -0.000000 -1.620000
v 0.000001 -0.000000 1.580000
v 0.000001 -0.000000 1.620000
v 0.000001 1.160000 1.580000
v 0.000001 1.160000 1.620000
v 0.060001 -0.000000 1.580000
v 0.060001 -0.000000 1.620000
v 0.060001 1.160000 1.580000
v 0.060001 1.160000 1.620000
v -0.010000 1.160000 -1.700000
v -0.010000 1.160000 1.700000
v -0.010000 1.200000 -1.700000
v -0.010000 1.200000 1.700000
v 0.070000 1.160000 -1.700000
v 0.070000 1.160000 1.700000
v 0.070000 1.200000 -1.700000
v 0.070000 1.200000 1.700000
v 0.120000 0.780000 -1.580000
v 0.120000 0.780000 1.580000
v 0.120000 0.820000 -1.580000
v 0.120000 0.820000 1.580000
v 0.140000 0.780000 -1.580000
v 0.140000 0.780000 1.580000
v 0.140000 0.820000 -1.580000
v 0.140000 0.820000 1.580000
v 0.120000 0.380000 -1.580000
v 0.120000 0.380000 1.580000
v 0.120000 0.420000 -1.580000
v 0.120000 0.420000 1.580000
v 0.140000 0.380000 -1.580000
v 0.140000 0.380000 1.580000
v 0.140000 0.420000 -1.580000
v 0.140000 0.420000 1.580000
v 0.160001 0.860333 -1.580000
v 0.160001 0.299666 -1.580000
v 0.100001 0.860333 -1.620000
v 0.100001 0.299666 -1.620000
v 0.100001 0.299666 -1.580000
v 0.100001 0.860333 -1.580000
v 0.160001 0.299666 -1.620000
v 0.160001 0.860333 -1.620000
v 0.100001 0.299666 0.020000
v 0.100001 0.860333 0.020000
v 0.160001 0.860333 0.020000
v 0.160001 0.299666 0.020000
v 0.100001 0.860333 -0.020000
v 0.100001 0.299666 -0.020000
v 0.160001 0.299666 -0.020000
v 0.160001 0.860333 -0.020000
v 0.100001 0.860333 1.580000
v 0.100001 0.299666 1.580000
v 0.100001 0.299666 1.620000
v 0.100001 0.860333 1.620000
v 0.160001 0.299666 1.580000
v 0.160001 0.860333 1.580000
v 0.160001 0.860333 1.620000
v 0.160001 0.299666 1.620000
vn 0.9871 -0.1603 -0.0000
vn 0.9486 -0.3165 -0.0000
vn -0.0000 -0.0000 -1.0000
vn -0.9871 -0.1603 -0.0000
vn -0.9486 -0.3165 -0.0000
vn -0.0000 -0.0000 1.0000
vn -1.0000 -0.0000 -0.0000
vn -0.0000 1.0000 -0.0000
vn 1.0000 -0.0000 -0.0000
vn -0.0000 -1.0000 -0.0000
vn 0.9486 0.3165 -0.0000
vn 0.9871 0.1603 -0.0000
vn -0.9486 0.3165 -0.0000
vn -0.9871 0.1603 -0.0000
vt 0.990625 0.489323
vt 0.859375 0.487847
vt 0.515625 0.473958
vt 0.859375 0.543403
vt 1.115625 0.487847
vt 0.734375 0.489323
vt 1.115625 0.543403
vt 0.259375 0.473958
vt 0.259375 0.487847
vt 0.990625 0.572657
vt 0.259375 0.543403
vt 0.515625 0.557292
vt 0.734375 0.572657
vt 0.515625 0.487847
vt 0.259375 0.557292
vt 0.515625 0.543403
vt 0.259375 0.487847
vt 1.115625 0.489323
vt 0.259375 0.543403
vt 0.515625 0.473958
vt 0.859375 0.489323
vt 0.515625 0.487847
vt 0.259375 0.473958
vt 0.515625 0.543403
vt 0.259375 0.487847
vt 1.115625 0.572657
vt 0.259375 0.543403
vt 0.515625 0.557292
vt 0.859375 0.572657
vt 0.515625 0.487847
vt 0.259375 0.557292
vt 0.515625 0.543403
vt 0.259375 0.557292
vt 0.515625 0.543403
vt 0.734375 0.572657
vt 0.515625 0.487847
vt 0.259375 0.543403
vt 0.515625 0.557292
vt 0.259375 0.487847
vt 0.990625 0.572657
vt 1.115625 0.543403
vt 0.259375 0.473958
vt 1.115625 0.487847
vt 0.734375 0.489323
vt 0.515625 0.473958
vt 0.859375 0.543403
vt 0.990625 0.489323
vt 0.859375 0.487847
vt 1.018828 0.512195
vt 1.018828 0.475610
vt 0.602890 0.475610
vt 0.172773 0.512195
vt 0.172773 0.475610
vt 0.602890 0.475610
vt 1.018828 0.573171
vt 1.018828 0.475610
vt 0.588711 0.475610
vt 0.172773 0.573171
vt 0.172773 0.475610
vt 0.588711 0.475610
vt 1.018828 0.512195
vt 1.018828 0.597561
vt 0.602890 0.597561
vt 0.172773 0.512195
vt 0.172773 0.597561
vt 0.602890 0.597561
vt 1.018828 0.597561
vt 1.018828 0.573171
vt 0.588711 0.597561
vt 0.172773 0.597561
vt 0.172773 0.573171
vt 0.588711 0.597561
vt 0.945410 0.512195
vt 0.945410 0.664516
vt 0.246191 0.512195
vt 0.246191 0.664516
vt 0.945410 0.573171
vt 0.945410 0.664516
vt 0.246191 0.573171
vt 0.246191 0.664516
vt 0.945410 0.512195
vt 0.945410 0.692945
vt 0.246191 0.512195
vt 0.246191 0.692945
vt 0.945410 0.692945
vt 0.945410 0.573171
vt 0.246191 0.692945
vt 0.246191 0.573171
vt 0.945410 0.512195
vt 0.945410 0.664516
vt 0.246191 0.512195
vt 0.246191 0.664516
vt 0.945410 0.573171
vt 0.945410 0.664516
vt 0.246191 0.573171
vt 0.246191 0.664516
vt 0.945410 0.512195
vt 0.945410 0.692945
vt 0.246191 0.512195
vt 0.246191 0.692945
vt 0.945410 0.692945
vt 0.945410 0.573171
vt 0.246191 0.692945
vt 0.246191 0.573171
vt 0.325573 0.487847
vt 1.049427 0.491059
vt 0.449427 0.487847
vt 0.925573 0.491059
vt 0.325573 0.543403
vt 0.449427 0.559028
vt 0.449427 0.543403
vt 0.325573 0.559028
vt 0.925573 0.574393
vt 0.449427 0.487847
vt 1.049427 0.574392
vt 0.325573 0.487847
vt 0.449427 0.543403
vt 0.325573 0.475694
vt 0.325573 0.543403
vt 0.449427 0.475694
vt 0.800573 0.574393
vt 0.449427 0.487847
vt 0.924427 0.574392
vt 0.325573 0.487847
vt 0.924427 0.491059
vt 0.925573 0.487847
vt 0.800573 0.491059
vt 1.049427 0.487847
vt 0.325573 0.543403
vt 0.449427 0.559028
vt 0.449427 0.543403
vt 0.325573 0.559028
vt 0.325573 0.475694
vt 1.049427 0.543403
vt 0.449427 0.475694
vt 0.925573 0.543403
vt 0.449427 0.559028
vt 0.325573 0.543403
vt 0.325573 0.559028
vt 0.449427 0.543403
vt 0.800573 0.574393
vt 0.449427 0.487847
vt 0.924427 0.574392
vt 0.325573 0.487847
vt 0.325573 0.475694
vt 1.049427 0.543403
vt 0.449427 0.475694
vt 0.925573 0.543403
vt 0.924427 0.491059
vt 0.925573 0.487847
vt 0.800573 0.491059
vt 1.049427 0.487847
s 1
usemtl steel_beams_hr_1
f 63/134/1 60/128/1 3/5/2 4/7/2
f 62/132/3 63/133/3 4/8/3 8/15/3
f 61/129/4 58/124/4 5/9/5 6/11/5
f 60/127/6 57/121/6 7/13/6 3/6/6
f 52/112/3 55/118/3 12/23/3 16/31/3
f 51/109/4 54/116/4 13/25/5 14/27/5
f 50/108/6 53/113/6 15/29/6 11/21/6
f 55/117/1 50/107/1 11/22/2 12/24/2
f 65/138/4 68/144/4 20/39/5 19/37/5
f 69/146/1 72/152/1 22/43/2 21/41/2
f 66/139/3 69/145/3 21/42/3 17/33/3
f 72/151/6 67/141/6 18/35/6 22/44/6
f 25/49/7 26/52/7 28/58/7 27/55/7
f 27/56/8 28/59/8 32/70/8 31/67/8
f 31/68/9 32/71/9 30/64/9 29/61/9
f 29/62/10 30/65/10 26/53/10 25/50/10
f 27/57/3 31/69/3 29/63/3 25/51/3
f 32/72/6 28/60/6 26/54/6 30/66/6
f 33/73/7 34/75/7 36/79/7 35/77/7
f 35/78/8 36/80/8 40/87/8 39/85/8
f 39/86/9 40/88/9 38/83/9 37/81/9
f 37/82/10 38/84/10 34/76/10 33/74/10
f 41/89/7 42/91/7 44/95/7 43/93/7
f 43/94/8 44/96/8 48/103/8 47/101/8
f 47/102/9 48/104/9 46/99/9 45/97/9
f 45/98/10 46/100/10 42/92/10 41/90/10
f 10/19/11 9/17/11 49/105/12 56/119/12
f 56/119/12 49/105/12 50/107/1 55/117/1
f 9/18/6 13/26/6 54/115/6 49/106/6
f 49/106/6 54/115/6 53/113/6 50/108/6
f 16/32/13 15/30/13 53/114/14 52/111/14
f 52/111/14 53/114/14 54/116/4 51/109/4
f 14/28/3 10/20/3 56/120/3 51/110/3
f 51/110/3 56/120/3 55/118/3 52/112/3
f 1/1/6 5/10/6 58/123/6 59/125/6
f 59/125/6 58/123/6 57/121/6 60/127/6
f 8/16/13 7/14/13 57/122/14 62/131/14
f 62/131/14 57/122/14 58/124/4 61/129/4
f 6/12/3 2/3/3 64/135/3 61/130/3
f 61/130/3 64/135/3 63/133/3 62/132/3
f 2/4/11 1/2/11 59/126/12 64/136/12
f 64/136/12 59/126/12 60/128/1 63/134/1
f 24/47/6 20/40/6 68/143/6 71/149/6
f 71/149/6 68/143/6 67/141/6 72/151/6
f 19/38/3 23/45/3 70/147/3 65/137/3
f 65/137/3 70/147/3 69/145/3 66/139/3
f 23/46/11 24/48/11 71/150/12 70/148/12
f 70/148/12 71/150/12 72/152/1 69/146/1
f 17/34/13 18/36/13 67/142/14 66/140/14
f 66/140/14 67/142/14 68/144/4 65/138/4
