# Blender 3.4.0
# www.blender.org
mtllib roof_bx_1.mtl
o roof_bx_1
v -1.920000 0.320001 2.000000
v 1.920000 0.320001 2.000000
v -1.920000 0.320001 -2.000000
v 1.920000 0.320001 -2.000000
v -1.450000 0.300001 -1.450000
v 1.450000 0.300001 -1.450000
v -1.450000 0.300001 1.450000
v 1.450000 0.300001 1.450000
v -1.920000 0.080001 -2.000000
v 1.920000 0.080001 -2.000000
v 1.920000 0.080001 2.000000
v -1.920000 0.080001 2.000000
v -1.850000 0.000001 -1.850000
v 1.850000 0.000001 -1.850000
v 1.850000 0.000001 1.850000
v -1.850000 0.000001 1.850000
v -2.000000 0.320001 1.920000
v 2.000000 0.320001 1.920000
v 2.000000 0.320001 -1.920000
v -2.000000 0.320001 -1.920000
v -2.000000 0.080001 -1.920000
v 2.000000 0.080001 -1.920000
v 2.000000 0.080001 1.920000
v -2.000000 0.080001 1.920000
v 2.000000 0.400001 2.000000
v 2.000000 0.400001 -2.000000
v -2.000000 0.400001 -2.000000
v -2.000000 0.400001 2.000000
v 2.000000 0.000001 -2.000000
v 2.000000 0.000001 2.000000
v -2.000000 0.000001 2.000000
v -2.000000 0.000001 -2.000000
v 1.950000 0.270001 1.870000
v 1.950000 0.270001 -1.870000
v 1.950000 0.130001 -1.870000
v 1.950000 0.130001 1.870000
v 1.870000 0.270001 -1.950000
v -1.870000 0.270001 -1.950000
v -1.870000 0.130001 -1.950000
v 1.870000 0.130001 -1.950000
v -1.870000 0.270001 1.950000
v 1.870000 0.270001 1.950000
v 1.870000 0.130001 1.950000
v -1.870000 0.130001 1.950000
v -1.950000 0.270001 -1.870000
v -1.950000 0.270001 1.870000
v -1.950000 0.130001 1.870000
v -1.950000 0.130001 -1.870000
v 0.000000 1.400001 2.000000
v 0.000000 1.400001 -2.000000
v 0.000000 1.300001 -1.450000
v 0.000000 1.300001 1.450000
v 0.000000 1.320001 2.000000
v 0.000000 1.320001 -2.000000
v 0.000000 1.270001 -1.950000
v 0.000000 1.270001 1.950000
v 1.005997 0.130001 1.950000
v 1.005997 0.320001 2.000000
v 1.005997 0.080001 -2.000000
v 1.005997 0.270001 -1.950000
v 1.005997 0.080001 2.000000
v 1.005997 0.320001 -2.000000
v 1.005997 0.300001 1.450000
v 1.005997 0.000001 1.850000
v 1.005997 0.000001 2.000000
v 1.005997 0.400001 -2.000000
v 1.005997 0.270001 1.950000
v 1.005997 0.130001 -1.950000
v 1.005997 0.300001 -1.450000
v 1.005997 0.000001 -1.850000
v 1.005997 0.000001 -2.000000
v 1.005997 0.400001 2.000000
v -1.006000 0.400001 -2.000000
v -1.006000 0.000001 2.000000
v -1.006000 0.000001 1.850000
v -1.006000 0.300001 1.450000
v -1.006000 0.320001 -2.000000
v -1.006000 0.080001 2.000000
v -1.006000 0.270001 -1.950000
v -1.006000 0.080001 -2.000000
v -1.006000 0.320001 2.000000
v -1.006000 0.130001 1.950000
v -1.006000 0.400001 2.000000
v -1.006000 0.000001 -2.000000
v -1.006000 0.000001 -1.850000
v -1.006000 0.300001 -1.450000
v -1.006000 0.130001 -1.950000
v -1.006000 0.270001 1.950000
v 0.927027 0.478500 -1.300000
v 0.927027 0.478500 1.300000
v 0.146884 1.253992 -1.300000
v 0.146885 1.253992 1.300000
v 0.096735 1.203843 -1.300000
v 0.876878 0.428351 -1.300000
v 0.876878 0.428350 1.300000
v 0.096735 1.203842 1.300000
v -0.876879 0.428352 -1.300000
v -0.096735 1.203843 -1.300000
v -0.876879 0.428352 1.300000
v -0.096735 1.203843 1.300000
v -0.146885 1.253993 -1.300000
v -0.146885 1.253992 1.300000
v -0.927029 0.478501 1.300000
v -0.927028 0.478502 -1.300000
v 0.150001 0.300000 -1.900000
v 0.150001 0.300000 1.900000
v 0.150001 0.269000 -1.900000
v 0.150001 0.269000 1.900000
v 0.100001 0.042000 -1.900000
v 0.100001 0.042000 1.900000
v 0.135001 0.245499 -1.900000
v 0.135001 0.245500 1.900000
v 0.120001 0.057750 -1.900000
v 0.120001 0.057750 1.900000
v -0.150000 0.300000 1.900000
v -0.150001 0.300000 -1.900000
v -0.150000 0.269000 1.900000
v -0.150001 0.269000 -1.900000
v -0.100000 0.042000 1.900000
v -0.100001 0.042000 -1.900000
v -0.135000 0.245499 1.900000
v -0.135001 0.245500 -1.900000
v -0.120000 0.057750 1.900000
v -0.120001 0.057750 -1.900000
v -0.000000 0.300000 -1.900000
v 0.000000 0.300000 1.900000
v -0.100001 0.042000 -1.900000
v -0.100000 0.042000 1.900000
v -0.000000 0.042000 -1.900000
v 0.000000 0.042000 1.900000
v 0.110835 1.218027 -1.300000
v 0.890977 0.442535 -1.300000
v 0.890978 0.442534 1.300000
v 0.110835 1.218026 1.300000
v 0.124934 1.232211 -1.300000
v 0.905077 0.456719 -1.300000
v 0.905077 0.456719 1.300000
v 0.124935 1.232211 1.300000
v -0.110835 1.218027 1.300000
v -0.890978 0.442535 1.300000
v -0.890978 0.442534 -1.300000
v -0.110835 1.218026 -1.300000
v -0.124935 1.232211 1.300000
v -0.905077 0.456719 1.300000
v -0.905077 0.456719 -1.300000
v -0.124935 1.232211 -1.300000
v 0.143906 1.185152 -1.253368
v 0.857906 0.475409 -1.253369
v 0.857906 0.475409 1.253369
v 0.143907 1.185152 1.253369
v 0.158006 1.199337 -1.253368
v 0.872006 0.489594 -1.253369
v 0.872006 0.489593 1.253369
v 0.158006 1.199336 1.253369
v -0.143906 1.185152 1.253369
v -0.857906 0.475409 1.253369
v -0.857906 0.475409 -1.253369
v -0.143906 1.185152 -1.253369
v -0.158006 1.199337 1.253369
v -0.872006 0.489594 1.253369
v -0.872006 0.489593 -1.253369
v -0.158006 1.199336 -1.253369
v -0.152366 1.193663 1.253369
v -0.866366 0.483920 1.253369
v -0.866366 0.483919 -1.253369
v -0.152366 1.193663 -1.253369
v -0.149546 1.190826 1.253369
v -0.863546 0.481083 1.253369
v -0.863546 0.481083 -1.253369
v -0.149546 1.190826 -1.253369
v 0.152366 1.193663 -1.253368
v 0.866366 0.483920 -1.253369
v 0.866366 0.483919 1.253369
v 0.152366 1.193663 1.253369
v 0.149546 1.190826 -1.253368
v 0.863546 0.481083 -1.253369
v 0.863546 0.481082 1.253369
v 0.149547 1.190826 1.253369
v 0.148520 1.222866 -1.276684
v 0.895591 0.480248 -1.276684
v 0.895592 0.480248 1.276685
v 0.148521 1.222866 1.276685
v -0.148520 1.222866 1.276684
v -0.895591 0.480248 1.276684
v -0.895591 0.480248 -1.276685
v -0.148520 1.222866 -1.276685
vn -0.0000 -1.0000 -0.0000
vn -0.0000 1.0000 -0.0000
vn -0.0017 -0.8748 0.4845
vn -0.0000 -0.8000 0.6000
vn -0.1327 -0.6457 0.7519
vn 0.0017 -0.8748 -0.4845
vn -0.0000 -0.8000 -0.6000
vn 0.1327 -0.6457 -0.7520
vn -0.6000 -0.8000 -0.0000
vn -0.0000 -0.0000 1.0000
vn -0.0000 -0.0000 -1.0000
vn 0.6000 -0.8000 -0.0000
vn 1.0000 -0.0000 -0.0000
vn -1.0000 -0.0000 -0.0000
vn 0.7071 -0.7071 -0.0000
vn 0.7071 -0.0000 0.7071
vn 0.7071 -0.0000 -0.7071
vn -0.0000 -0.7071 -0.7071
vn -0.0000 0.7071 -0.7071
vn -0.7071 -0.0000 -0.7071
vn -0.0000 -0.7071 0.7071
vn -0.0000 0.7071 0.7071
vn -0.7071 -0.0000 0.7071
vn 0.7071 0.7071 -0.0000
vn -0.7071 -0.7071 -0.0000
vn -0.7071 0.7071 -0.0000
vn 0.5750 -0.5785 0.5785
vn -0.5750 -0.5785 -0.5785
vn 0.7050 -0.7092 -0.0000
vn 0.7050 0.7092 -0.0000
vn -0.7050 -0.7092 -0.0000
vn 0.0974 0.0968 -0.9905
vn -0.0000 -0.4472 -0.8944
vn -0.0980 0.0962 -0.9905
vn -0.5750 -0.5785 0.5785
vn -0.0000 -0.8748 0.4844
vn 0.1327 -0.6457 0.7520
vn -0.7050 0.7092 -0.0000
vn -0.0000 -0.8748 -0.4844
vn -0.1327 -0.6457 -0.7520
vn 0.5750 -0.5785 -0.5785
vn -0.0000 -0.4472 0.8944
vn 0.0980 0.0962 0.9905
vn -0.0974 0.0968 0.9905
vn -0.1373 -0.7934 -0.5930
vn -0.2141 -0.6946 -0.6868
vn 0.2141 -0.6946 -0.6868
vn 0.1373 -0.7924 -0.5943
vn 0.1373 -0.7934 0.5930
vn 0.2141 -0.6946 0.6868
vn -0.2141 -0.6946 0.6868
vn -0.1373 -0.7924 0.5943
vn 0.8429 -0.5380 -0.0000
vn 0.9968 -0.0796 -0.0000
vn 0.6187 -0.7856 -0.0000
vn -0.8429 -0.5380 -0.0000
vn -0.9968 -0.0796 -0.0000
vn -0.6187 -0.7856 -0.0000
vn -0.0000 -0.0000 -0.0000
vn -0.7092 0.7050 -0.0000
vn -0.7092 -0.7050 -0.0000
vn 0.6479 0.6518 -0.3942
vn 0.6479 0.6518 0.3942
vn 0.3684 0.9297 -0.0000
vn 0.9275 0.3739 -0.0000
vn -0.6479 0.6518 0.3942
vn -0.6479 0.6518 -0.3942
vn -0.3684 0.9297 -0.0000
vn -0.9275 0.3739 -0.0000
vn 0.7092 0.7050 -0.0000
vn 0.7092 -0.7050 -0.0000
vt 0.020000 0.495363
vt 0.980000 0.495363
vt 0.020000 0.495363
vt 0.980000 0.000000
vt 0.980000 0.495363
vt 0.137500 0.137500
vt 0.862500 0.137500
vt 0.137500 0.862500
vt 0.862500 0.862500
vt 0.020000 0.435363
vt 0.980000 0.435363
vt 0.980000 0.435363
vt 0.020000 0.435363
vt 0.037500 0.037500
vt 0.962500 0.037500
vt 0.962500 0.962500
vt 0.037500 0.962500
vt 0.495363 0.980000
vt 0.000000 0.980000
vt 0.000000 0.495363
vt 0.495363 0.980000
vt 1.000000 0.495363
vt 0.495363 0.020000
vt 1.000000 0.495363
vt 0.495363 0.020000
vt 0.000000 0.020000
vt 0.000000 0.495363
vt 0.000000 0.435363
vt 0.435363 0.020000
vt 1.000000 0.435363
vt 0.435363 0.020000
vt 1.000000 0.435363
vt 0.435363 0.980000
vt 0.000000 0.435363
vt 0.435363 0.980000
vt -0.524999 -0.500391
vt 1.000000 0.515363
vt 0.515363 1.000000
vt 1.475000 -0.500391
vt 0.515363 0.000000
vt 1.000000 0.515363
vt 0.000000 0.515363
vt 0.515363 0.000000
vt 1.475000 1.499609
vt 0.515363 1.000000
vt -0.525000 1.499609
vt 0.000000 0.515363
vt 1.000000 0.000000
vt 1.000000 0.415363
vt 0.415363 0.000000
vt 1.000000 1.000000
vt 0.415363 1.000000
vt 1.000000 0.415363
vt 0.000000 0.415363
vt 0.415363 1.000000
vt 0.000000 1.000000
vt 0.000000 0.000000
vt 0.415363 0.000000
vt 0.000000 0.415363
vt 0.033203 0.989583
vt 0.482863 0.967500
vt 0.987500 0.482863
vt 0.966797 0.989583
vt 0.482863 0.032500
vt 0.987500 0.482863
vt 0.966797 0.942708
vt 0.987500 0.447863
vt 0.447863 0.032500
vt 0.033203 0.942708
vt 0.987500 0.447863
vt 0.447863 0.967500
vt 0.967500 0.482863
vt 0.967500 0.012500
vt 0.966797 0.989583
vt 0.033203 0.989583
vt 0.032500 0.482863
vt 0.033203 0.942708
vt 0.032500 0.447863
vt 0.967500 0.447863
vt 0.966797 0.942708
vt 0.033203 0.989583
vt 0.032500 0.482863
vt 0.966797 0.989583
vt 0.967500 0.482863
vt 0.966797 0.942708
vt 0.967500 0.447863
vt 0.032500 0.447863
vt 0.033203 0.942708
vt 0.966797 0.989583
vt 0.012500 0.032500
vt 0.012500 0.482863
vt 0.033203 0.989583
vt 0.012500 0.967500
vt 0.012500 0.482863
vt 0.033203 0.942708
vt 0.012500 0.447863
vt 0.447863 0.967500
vt 0.966797 0.942708
vt 0.012500 0.447863
vt 0.447863 0.032500
vt 0.500000 0.765363
vt -0.525000 0.499609
vt 1.475000 0.499609
vt 0.500000 0.765363
vt 0.500000 0.137500
vt 0.500000 0.740363
vt 0.500000 0.862500
vt 0.500000 0.740363
vt 0.500000 0.745363
vt 0.500000 1.000000
vt 0.500000 -0.000000
vt 0.500000 0.745363
vt 0.500000 0.358974
vt 0.500000 0.012500
vt 0.500000 0.732863
vt 0.500000 0.358974
vt 0.500000 0.987500
vt 0.751499 0.447863
vt 0.751121 0.942708
vt 0.751499 0.495363
vt 0.751499 1.000000
vt 0.751499 0.435363
vt 0.770846 0.000000
vt 0.751499 0.012500
vt 0.751121 0.989583
vt 0.751499 0.435363
vt 0.751499 0.000000
vt 0.751499 0.495363
vt 0.751499 0.490363
vt 0.751499 0.862500
vt 0.751499 0.962500
vt 0.751499 1.000000
vt 0.751499 0.415363
vt 1.475000 -0.003389
vt 0.751499 0.515363
vt 0.751499 0.482863
vt 0.770846 0.000000
vt 0.751499 0.987500
vt 0.751121 0.989583
vt 0.751499 0.447863
vt 0.751121 0.942708
vt 0.751499 0.490363
vt 0.751499 0.137500
vt 0.751499 0.037500
vt 0.751499 0.415363
vt 0.751499 0.000000
vt -0.524999 -0.003389
vt 0.751499 0.515363
vt 1.475000 1.002609
vt 0.248500 0.515363
vt 0.248500 0.415363
vt 0.248500 1.000000
vt 0.248500 0.962500
vt 0.248500 0.490363
vt 0.248500 0.862500
vt 0.248500 0.000000
vt 0.248500 0.495363
vt 0.248500 0.435363
vt 0.248500 0.482863
vt 0.229154 0.000000
vt 0.248500 0.012500
vt 0.248878 0.989583
vt 0.248500 0.435363
vt 0.248500 0.495363
vt 0.248500 0.447863
vt 0.248878 0.942708
vt -0.525000 1.002609
vt 0.248500 0.515363
vt 0.248500 0.415363
vt 0.248500 0.000000
vt 0.248500 0.037500
vt 0.248500 0.490363
vt 0.248500 0.137500
vt 0.248500 0.447863
vt 0.248878 0.942708
vt 0.229154 0.000000
vt 0.248500 0.482863
vt 0.248878 0.989583
vt 1.125000 0.036096
vt 0.731757 0.175000
vt 0.731757 0.534987
vt -0.174999 0.036096
vt 0.731757 0.825000
vt 0.731757 0.534988
vt 1.125000 0.426167
vt 0.536721 0.728860
vt 0.536721 0.175000
vt -0.175000 0.426167
vt 0.536721 0.825000
vt 0.536721 0.728860
vt 0.524184 0.716323
vt 0.524184 0.175000
vt 0.719219 0.175000
vt 0.719219 0.522450
vt 0.719220 0.825000
vt 0.719220 0.522450
vt 0.524184 0.825000
vt 0.524184 0.716323
vt 0.280780 0.175000
vt 0.522450 0.175000
vt 0.280780 0.522450
vt 0.475816 0.175000
vt 0.475816 0.716323
vt 0.716323 0.175000
vt 0.280780 0.825000
vt 0.522451 0.825000
vt 0.280780 0.522451
vt 0.475816 0.825000
vt 0.716323 0.825000
vt 0.475816 0.716323
vt 1.125000 0.573052
vt 0.463279 0.728860
vt 0.728860 0.175000
vt -0.175000 0.573052
vt 0.728861 0.825000
vt 0.463279 0.728861
vt -0.175000 0.963124
vt 0.534988 0.825000
vt 0.268243 0.534988
vt 1.125000 0.963124
vt 0.534988 0.175000
vt 0.268243 0.534988
vt 0.975000 1.000000
vt 0.025000 1.000000
vt 0.025000 1.000000
vt 0.975000 1.000000
vt 0.975000 0.989667
vt 0.025000 0.989667
vt 0.975000 0.914000
vt 0.025000 1.000000
vt 0.025000 0.914000
vt 0.975000 1.000000
vt 0.975000 0.981833
vt 0.025000 0.981834
vt 0.975000 0.919250
vt 0.975000 0.924479
vt 0.025000 0.919250
vt 0.025000 0.924479
vt 0.975000 1.000000
vt 0.025000 1.000000
vt 0.025000 1.000000
vt 0.975000 1.000000
vt 0.975000 0.989667
vt 0.025000 0.989667
vt 0.975000 0.914000
vt 0.025000 1.000000
vt 0.025000 0.914000
vt 0.975000 1.000000
vt 0.975000 0.981833
vt 0.025000 0.981834
vt 0.975000 0.919250
vt 0.975000 0.924479
vt 0.025000 0.919250
vt 0.025000 0.924479
vt 0.975000 0.953125
vt 0.025000 0.953125
vt 0.025000 0.953125
vt 0.975000 0.953125
vt 0.975000 1.000000
vt 0.025000 1.000000
vt 0.975000 0.966146
vt 0.025000 0.966146
vt 0.025000 0.966146
vt 0.975000 0.966146
vt 0.000000 1.000000
vt 0.000000 0.000000
vt 1.000000 0.000000
vt 1.000000 1.000000
vt 0.000000 1.000000
vt 0.000000 0.000000
vt 1.000000 0.000000
vt 1.000000 1.000000
vt 0.000000 1.000000
vt 0.000000 0.000000
vt 1.000000 0.000000
vt 1.000000 1.000000
vt 0.000000 1.000000
vt 0.000000 0.000000
vt 1.000000 0.000000
vt 1.000000 1.000000
vt 0.017935 0.957608
vt 0.017935 0.042392
vt 0.982065 0.042392
vt 0.982065 0.957608
vt 0.017935 0.957608
vt 0.017935 0.042392
vt 0.982065 0.042392
vt 0.982065 0.957608
vt 0.017935 0.957608
vt 0.017935 0.042392
vt 0.982065 0.042392
vt 0.982065 0.957608
vt 0.017935 0.957608
vt 0.017935 0.042392
vt 0.982065 0.042392
vt 0.982065 0.957608
vt 0.017935 0.957608
vt 0.017935 0.042392
vt 0.982065 0.042392
vt 0.982065 0.957608
vt 0.017935 0.957608
vt 0.017935 0.042392
vt 0.982065 0.042392
vt 0.982065 0.957608
vt 0.017935 0.957608
vt 0.017935 0.042392
vt 0.982065 0.042392
vt 0.982065 0.957608
vt 0.017935 0.957608
vt 0.017935 0.042392
vt 0.982065 0.042392
vt 0.982065 0.957608
vt 0.008968 0.978804
vt 0.008968 0.021196
vt 0.991032 0.021196
vt 0.991032 0.978804
vt 0.008968 0.978804
vt 0.008968 0.021196
vt 0.991032 0.021196
vt 0.991032 0.978804
s 1
usemtl concrete_hr_1
f 14/15/1 70/144/1 71/146/1 29/48/1
f 69/143/1 6/7/1 8/9/1 63/130/1
f 85/171/1 13/14/1 32/57/1 84/170/1
f 64/131/1 15/16/1 30/51/1 65/132/1
f 15/16/1 14/15/1 29/48/1 30/51/1
f 86/173/3 5/6/4 13/14/4 85/171/5
f 13/14/1 16/17/1 31/56/1 32/57/1
f 63/130/6 8/9/7 15/16/7 64/131/8
f 8/9/9 6/7/9 14/15/9 15/16/9
f 58/120/10 2/2/10 25/37/10 72/148/10
f 77/157/11 3/3/11 27/42/11 73/150/11
f 59/122/11 10/11/11 29/49/11 71/145/11
f 78/158/10 12/13/10 31/54/10 74/151/10
f 3/3/11 9/10/11 32/59/11 27/42/11
f 12/13/10 1/1/10 28/47/10 31/54/10
f 10/11/11 4/5/11 26/41/11 29/49/11
f 2/2/10 11/12/10 30/53/10 25/37/10
f 5/6/12 7/8/12 16/17/12 13/14/12
f 18/21/13 19/23/13 26/40/13 25/38/13
f 20/25/14 17/18/14 28/45/14 27/43/14
f 22/31/13 23/33/13 30/52/13 29/50/13
f 21/29/14 20/25/14 27/43/14 32/58/14
f 17/18/14 24/35/14 31/55/14 28/45/14
f 19/23/13 22/31/13 29/50/13 26/40/13
f 23/33/13 18/21/13 25/38/13 30/52/13
f 24/35/14 21/29/14 32/58/14 31/55/14
f 33/61/15 34/64/15 19/23/15 18/21/15
f 34/65/16 35/67/16 22/30/16 19/24/16
f 18/22/17 23/32/17 36/70/17 33/62/17
f 79/159/18 38/76/18 3/3/18 77/157/18
f 68/140/19 40/79/19 10/11/19 59/122/19
f 38/76/17 39/78/17 9/10/17 3/3/17
f 4/5/20 10/11/20 40/79/20 37/72/20
f 67/136/21 42/84/21 2/2/21 58/120/21
f 82/165/22 44/87/22 12/13/22 78/158/22
f 44/87/16 41/82/16 1/1/16 12/13/16
f 42/84/23 43/86/23 11/12/23 2/2/23
f 35/68/24 36/71/24 23/33/24 22/31/24
f 45/90/25 46/93/25 17/19/25 20/26/25
f 20/27/23 21/28/23 48/99/23 45/91/23
f 24/34/20 17/20/20 46/94/20 47/96/20
f 47/97/26 48/100/26 21/29/26 24/35/26
f 88/177/27 56/115/27 53/109/27 81/164/27
f 60/124/28 55/114/28 54/111/28 62/127/28
f 75/153/1 64/131/1 65/132/1 74/152/1
f 82/165/22 78/158/22 61/126/22 57/118/22
f 68/140/19 59/122/19 80/163/19 87/174/19
f 62/128/11 54/112/11 50/104/11 66/135/11
f 81/164/10 53/109/10 49/101/10 83/168/10
f 78/158/10 74/151/10 65/133/10 61/126/10
f 59/122/11 71/145/11 84/169/11 80/163/11
f 98/202/29 51/105/29 52/107/29 100/208/29
f 100/208/29 52/107/29 76/155/29 86/173/29 51/105/29 98/202/29 97/199/29 99/205/29
f 94/193/31 93/192/31 51/105/31 69/143/31 63/130/31 52/107/31 96/197/31 95/195/31
f 52/107/31 51/105/31 93/192/31 96/197/31
f 76/154/32 52/108/33 63/129/34
f 53/109/10 58/120/10 72/148/10 49/101/10
f 56/117/35 67/138/35 58/121/35 53/110/35
f 43/86/22 57/118/22 61/126/22 11/12/22
f 37/73/18 60/124/18 62/127/18 4/4/18
f 11/12/10 61/126/10 65/133/10 30/53/10
f 4/5/11 62/128/11 66/135/11 26/41/11
f 6/7/4 69/143/36 70/144/37 14/15/4
f 5/6/1 86/173/1 76/155/1 7/8/1
f 16/17/1 75/153/1 74/152/1 31/56/1
f 7/8/7 76/155/39 75/153/40 16/17/7
f 1/1/10 81/164/10 83/168/10 28/47/10
f 9/10/11 80/163/11 84/169/11 32/59/11
f 39/78/19 87/174/19 80/163/19 9/10/19
f 41/82/21 88/177/21 81/164/21 1/1/21
f 55/114/41 79/161/41 77/156/41 54/111/41
f 54/112/11 77/157/11 73/150/11 50/104/11
f 51/106/42 86/172/43 69/142/44
f 63/130/45 64/131/46 75/153/47 76/155/48
f 86/173/49 85/171/50 70/144/51 69/143/52
s 0
f 90/183/26 89/180/26 94/193/26 95/195/26
f 91/186/10 93/191/10 94/194/10 89/181/10
f 93/192/15 91/187/15 92/189/15 96/197/15
f 90/184/11 95/196/11 96/198/11 92/190/11
f 99/206/24 97/200/24 104/221/24 103/218/24
f 97/201/10 98/203/10 101/212/10 104/222/10
f 100/209/25 102/215/25 101/213/25 98/204/25
f 102/216/11 100/210/11 99/207/11 103/219/11
s 1
f 70/144/1 85/171/1 84/170/1 71/146/1
usemtl wall_hr_2
f 79/162/11 87/175/11 39/77/11 38/75/11
f 33/60/13 36/69/13 35/66/13 34/63/13
f 67/139/10 57/119/10 43/85/10 42/83/10
f 45/89/14 48/98/14 47/95/14 46/92/14
f 88/176/10 67/137/10 56/116/10
f 60/123/11 79/160/11 55/113/11
f 37/74/11 40/80/11 68/141/11 60/125/11
f 41/81/10 44/88/10 82/166/10 88/178/10
f 108/228/13 107/227/13 105/223/13 106/225/13
f 112/234/53 111/233/53 107/227/53 108/228/53
f 114/237/54 113/235/54 111/233/54 112/234/54
f 110/231/55 109/229/55 113/236/55 114/238/55
f 118/244/14 117/243/14 115/239/14 116/241/14
f 122/250/56 121/249/56 117/243/56 118/244/56
f 124/253/57 123/251/57 121/249/57 122/250/57
f 120/247/58 119/245/58 123/252/58 124/254/58
f 125/255/2 116/242/2 115/240/2 126/257/2
f 105/224/2 125/256/2 126/258/2 106/226/2
f 127/259/59 128/260/59 119/246/59 120/248/59
f 129/261/1 130/263/1 128/260/1 127/259/1
f 109/230/1 110/232/1 130/264/1 129/262/1
f 68/141/11 87/175/11 79/162/11 60/125/11
f 82/166/10 57/119/10 67/139/10 88/178/10
s 0
usemtl window_hs_3
f 149/283/60 177/311/60 176/310/60 148/282/60
f 153/287/60 152/286/60 172/306/60 173/307/60
f 155/289/61 167/301/61 170/304/61 158/292/61
f 159/293/61 162/296/61 166/300/61 163/297/61
f 147/281/31 131/265/31 132/266/31 148/282/31
f 149/283/31 133/267/31 134/268/31 150/284/31
f 150/284/31 134/268/31 131/265/31 147/281/31
f 148/282/31 132/266/31 133/267/31 149/283/31
f 179/313/62 180/314/62 136/270/62 135/269/62
f 181/315/63 182/316/63 138/272/63 137/271/63
f 182/316/64 179/313/64 135/269/64 138/272/64
f 180/314/65 181/315/65 137/271/65 136/270/65
f 155/289/29 139/273/29 140/274/29 156/290/29
f 157/291/29 141/275/29 142/276/29 158/292/29
f 158/292/29 142/276/29 139/273/29 155/289/29
f 156/290/29 140/274/29 141/275/29 157/291/29
f 183/317/66 184/318/66 144/278/66 143/277/66
f 185/319/67 186/320/67 146/280/67 145/279/67
f 186/320/68 183/317/68 143/277/68 146/280/68
f 184/318/69 185/319/69 145/279/69 144/278/69
f 163/297/38 166/300/38 165/299/38 164/298/38
f 160/294/11 159/293/11 163/297/11 164/298/11
f 161/295/70 160/294/70 164/298/70 165/299/70
f 162/296/10 161/295/10 165/299/10 166/300/10
f 167/301/29 168/302/29 169/303/29 170/304/29
f 156/290/11 168/302/11 167/301/11 155/289/11
f 157/291/70 169/303/70 168/302/70 156/290/70
f 158/292/10 170/304/10 169/303/10 157/291/10
f 171/305/30 174/308/30 173/307/30 172/306/30
f 154/288/11 153/287/11 173/307/11 174/308/11
f 151/285/71 154/288/71 174/308/71 171/305/71
f 152/286/10 151/285/10 171/305/10 172/306/10
f 175/309/31 176/310/31 177/311/31 178/312/31
f 150/284/11 178/312/11 177/311/11 149/283/11
f 147/281/71 175/309/71 178/312/71 150/284/71
f 148/282/10 176/310/10 175/309/10 147/281/10
f 152/286/64 153/287/64 181/315/64 180/314/64
f 154/288/65 151/285/65 179/313/65 182/316/65
f 153/287/62 154/288/62 182/316/62 181/315/62
f 151/285/63 152/286/63 180/314/63 179/313/63
f 160/294/68 161/295/68 185/319/68 184/318/68
f 162/296/69 159/293/69 183/317/69 186/320/69
f 161/295/66 162/296/66 186/320/66 185/319/66
f 159/293/67 160/294/67 184/318/67 183/317/67
s 1
usemtl roof_hr_3
f 72/147/2 25/36/2 26/39/2 66/134/2
f 72/147/30 66/134/30 89/179/30 90/182/30
f 89/179/30 66/134/30 50/103/30 49/102/30 72/147/30 90/182/30 92/188/30 91/185/30
f 104/220/38 73/149/38 83/167/38 103/217/38
f 83/167/38 49/102/38 50/103/38 73/149/38 104/220/38 101/211/38 102/214/38 103/217/38
f 28/46/2 83/167/2 73/149/2 27/44/2
