# Blender 3.4.0
# www.blender.org
mtllib roof_bx_1_corner_1.mtl
o roof_bx_1_corner_1
v -2.320000 0.320001 2.000000
v 1.920000 0.320001 2.000000
v -2.320000 0.320001 -2.400000
v 1.920000 0.320001 -2.400000
v -1.450000 0.300001 -1.450000
v 1.450000 0.300001 -1.450000
v -1.450000 0.300001 1.450000
v 1.450000 0.300001 1.450000
v -2.320000 0.080001 -2.400000
v 1.920000 0.080001 -2.400000
v 1.920000 0.080001 2.000000
v -2.320000 0.080001 2.000000
v -1.850000 0.000001 -1.850000
v 1.850000 0.000001 -1.850000
v 1.850000 0.000001 1.850000
v -1.850000 0.000001 1.850000
v -2.400000 0.320001 1.920000
v 2.000000 0.320001 1.920000
v 2.000000 0.320001 -2.320000
v -2.400000 0.320001 -2.320000
v -2.400000 0.080001 -2.320000
v 2.000000 0.080001 -2.320000
v 2.000000 0.080001 1.920000
v -2.400000 0.080001 1.920000
v 2.000000 0.400001 2.000000
v 2.000000 0.400001 -2.400000
v -2.400000 0.400001 -2.400000
v -2.400000 0.400001 2.000000
v 2.000000 0.000001 -2.400000
v 2.000000 0.000001 2.000000
v -2.400000 0.000001 2.000000
v -2.400000 0.000001 -2.400000
v 1.950000 0.270001 1.870000
v 1.950000 0.270001 -2.270000
v 1.950000 0.130001 -2.270000
v 1.950000 0.130001 1.870000
v 1.870000 0.270001 -2.350000
v -2.270000 0.270001 -2.350000
v -2.270000 0.130001 -2.350000
v 1.870000 0.130001 -2.350000
v -2.270000 0.270001 1.950000
v 1.870000 0.270001 1.950000
v 1.870000 0.130001 1.950000
v -2.270000 0.130001 1.950000
v -2.350000 0.270001 -2.270000
v -2.350000 0.270001 1.870000
v -2.350000 0.130001 1.870000
v -2.350000 0.130001 -2.270000
v 0.000000 1.400001 2.000000
v 0.000000 1.400001 -2.400000
v 0.000000 1.300001 -1.450000
v 0.000000 1.300001 1.450000
v 0.000000 1.320001 2.000000
v 0.000000 1.320001 -2.400000
v 0.000000 1.270001 -2.350000
v 0.000000 1.270001 1.950000
v 1.005997 0.130001 1.950000
v 1.005997 0.320001 2.000000
v 1.005997 0.080001 -2.400000
v 1.005997 0.270001 -2.350000
v 1.005997 0.080001 2.000000
v 1.005997 0.320001 -2.400000
v 1.005997 0.300001 1.450000
v 1.005997 0.000001 1.850000
v 1.005997 0.000001 2.000000
v 1.005997 0.400001 -2.400000
v 1.005997 0.270001 1.950000
v 1.005997 0.130001 -2.350000
v 1.005997 0.300001 -1.450000
v 1.005997 0.000001 -1.850000
v 1.005997 0.000001 -2.400000
v 1.005997 0.400001 2.000000
v -1.006000 0.400001 -2.400000
v -1.006000 0.000001 2.000000
v -1.006000 0.000001 1.850000
v -1.006000 0.300001 1.450000
v -1.006000 0.320001 -2.400000
v -1.006000 0.080001 2.000000
v -1.006000 0.270001 -2.350000
v -1.006000 0.080001 -2.400000
v -1.006000 0.320001 2.000000
v -1.006000 0.130001 1.950000
v -1.006000 0.400001 2.000000
v -1.006000 0.000001 -2.400000
v -1.006000 0.000001 -1.850000
v -1.006000 0.300001 -1.450000
v -1.006000 0.130001 -2.350000
v -1.006000 0.270001 1.950000
v 0.927027 0.478500 -1.300000
v 0.927027 0.478500 1.300000
v 0.146884 1.253992 -1.300000
v 0.146885 1.253992 1.300000
v 0.096735 1.203843 -1.300000
v 0.876878 0.428351 -1.300000
v 0.876878 0.428350 1.300000
v 0.096735 1.203842 1.300000
v -0.876879 0.428352 -1.300000
v -0.096735 1.203843 -1.300000
v -0.876879 0.428352 1.300000
v -0.096735 1.203843 1.300000
v -0.146885 1.253993 -1.300000
v -0.146885 1.253992 1.300000
v -0.927029 0.478501 1.300000
v -0.927028 0.478502 -1.300000
v 0.150001 0.300000 -1.900000
v 0.150001 0.300000 1.900000
v 0.150001 0.269000 -1.900000
v 0.150001 0.269000 1.900000
v 0.100001 0.042000 -1.900000
v 0.100001 0.042000 1.900000
v 0.135001 0.245499 -1.900000
v 0.135001 0.245500 1.900000
v 0.120001 0.057750 -1.900000
v 0.120001 0.057750 1.900000
v -0.150000 0.300000 1.900000
v -0.150001 0.300000 -1.900000
v -0.150000 0.269000 1.900000
v -0.150001 0.269000 -1.900000
v -0.100000 0.042000 1.900000
v -0.100001 0.042000 -1.900000
v -0.135000 0.245499 1.900000
v -0.135001 0.245500 -1.900000
v -0.120000 0.057750 1.900000
v -0.120001 0.057750 -1.900000
v -0.000000 0.300000 -1.900000
v 0.000000 0.300000 1.900000
v -0.100001 0.042000 -1.900000
v -0.100000 0.042000 1.900000
v -0.000000 0.042000 -1.900000
v 0.000000 0.042000 1.900000
v 0.110835 1.218027 -1.300000
v 0.890977 0.442535 -1.300000
v 0.890978 0.442534 1.300000
v 0.110835 1.218026 1.300000
v 0.124934 1.232211 -1.300000
v 0.905077 0.456719 -1.300000
v 0.905077 0.456719 1.300000
v 0.124935 1.232211 1.300000
v -0.110835 1.218027 1.300000
v -0.890978 0.442535 1.300000
v -0.890978 0.442534 -1.300000
v -0.110835 1.218026 -1.300000
v -0.124935 1.232211 1.300000
v -0.905077 0.456719 1.300000
v -0.905077 0.456719 -1.300000
v -0.124935 1.232211 -1.300000
v 0.143906 1.185152 -1.253368
v 0.857906 0.475409 -1.253369
v 0.857906 0.475409 1.253369
v 0.143907 1.185152 1.253369
v 0.158006 1.199337 -1.253368
v 0.872006 0.489594 -1.253369
v 0.872006 0.489593 1.253369
v 0.158006 1.199336 1.253369
v -0.143906 1.185152 1.253369
v -0.857906 0.475409 1.253369
v -0.857906 0.475409 -1.253369
v -0.143906 1.185152 -1.253369
v -0.158006 1.199337 1.253369
v -0.872006 0.489594 1.253369
v -0.872006 0.489593 -1.253369
v -0.158006 1.199336 -1.253369
v -0.152366 1.193663 1.253369
v -0.866366 0.483920 1.253369
v -0.866366 0.483919 -1.253369
v -0.152366 1.193663 -1.253369
v -0.149546 1.190826 1.253369
v -0.863546 0.481083 1.253369
v -0.863546 0.481083 -1.253369
v -0.149546 1.190826 -1.253369
v 0.152366 1.193663 -1.253368
v 0.866366 0.483920 -1.253369
v 0.866366 0.483919 1.253369
v 0.152366 1.193663 1.253369
v 0.149546 1.190826 -1.253368
v 0.863546 0.481083 -1.253369
v 0.863546 0.481082 1.253369
v 0.149547 1.190826 1.253369
v 0.148520 1.222866 -1.276684
v 0.895591 0.480248 -1.276684
v 0.895592 0.480248 1.276685
v 0.148521 1.222866 1.276685
v -0.148520 1.222866 1.276684
v -0.895591 0.480248 1.276684
v -0.895591 0.480248 -1.276685
v -0.148520 1.222866 -1.276685
vn -0.0000 -1.0000 -0.0000
vn -0.0000 1.0000 -0.0000
vn -0.0017 -0.8748 0.4845
vn -0.0000 -0.8000 0.6000
vn -0.1327 -0.6457 0.7519
vn 0.0017 -0.8748 -0.4845
vn -0.0000 -0.8000 -0.6000
vn 0.1327 -0.6457 -0.7520
vn -0.6000 -0.8000 -0.0000
vn -0.0000 -0.0000 1.0000
vn -0.0000 -0.0000 -1.0000
vn 0.6000 -0.8000 -0.0000
vn 1.0000 -0.0000 -0.0000
vn -1.0000 -0.0000 -0.0000
vn 0.7071 -0.7071 -0.0000
vn 0.7071 -0.0000 0.7071
vn 0.7071 -0.0000 -0.7071
vn -0.0000 -0.7071 -0.7071
vn -0.0000 0.7071 -0.7071
vn -0.7071 -0.0000 -0.7071
vn -0.0000 -0.7071 0.7071
vn -0.0000 0.7071 0.7071
vn -0.7071 -0.0000 0.7071
vn 0.7071 0.7071 -0.0000
vn -0.7071 -0.7071 -0.0000
vn -0.7071 0.7071 -0.0000
vn 0.5750 -0.5785 0.5785
vn -0.5750 -0.5785 -0.5785
vn 0.7050 -0.7092 -0.0000
vn 0.7050 0.7092 -0.0000
vn -0.7050 -0.7092 -0.0000
vn 0.0974 0.0968 -0.9905
vn -0.0000 -0.4472 -0.8944
vn -0.0980 0.0962 -0.9905
vn -0.5750 -0.5785 0.5785
vn -0.0000 -0.8748 0.4844
vn 0.1327 -0.6457 0.7520
vn -0.7050 0.7092 -0.0000
vn -0.0000 -0.8748 -0.4844
vn -0.1327 -0.6457 -0.7520
vn 0.5750 -0.5785 -0.5785
vn -0.0000 -0.4472 0.8944
vn 0.0980 0.0962 0.9905
vn -0.0974 0.0968 0.9905
vn -0.1373 -0.7934 -0.5930
vn -0.2141 -0.6946 -0.6868
vn 0.2141 -0.6946 -0.6868
vn 0.1373 -0.7924 -0.5943
vn 0.1373 -0.7934 0.5930
vn 0.2141 -0.6946 0.6868
vn -0.2141 -0.6946 0.6868
vn -0.1373 -0.7924 0.5943
vn 0.8429 -0.5380 -0.0000
vn 0.9968 -0.0796 -0.0000
vn 0.6187 -0.7856 -0.0000
vn -0.8429 -0.5380 -0.0000
vn -0.9968 -0.0796 -0.0000
vn -0.6187 -0.7856 -0.0000
vn -0.0000 -0.0000 -0.0000
vn -0.7092 0.7050 -0.0000
vn -0.7092 -0.7050 -0.0000
vn 0.6479 0.6518 -0.3942
vn 0.6479 0.6518 0.3942
vn 0.3684 0.9297 -0.0000
vn 0.9275 0.3739 -0.0000
vn -0.6479 0.6518 0.3942
vn -0.6479 0.6518 -0.3942
vn -0.3684 0.9297 -0.0000
vn -0.9275 0.3739 -0.0000
vn 0.7092 0.7050 -0.0000
vn 0.7092 -0.7050 -0.0000
vt -0.030000 0.495363
vt -0.080000 0.495363
vt 0.980000 0.495363
vt -0.080000 0.545362
vt -0.080000 0.495363
vt 1.030000 0.495363
vt 0.980001 -0.050000
vt 0.980000 0.495363
vt 0.137500 0.137500
vt 0.862500 0.137500
vt 0.137500 0.862500
vt 0.862500 0.862500
vt -0.080000 0.435363
vt -0.080000 0.385362
vt 0.980000 0.435363
vt 0.980000 0.385362
vt 1.030000 0.435363
vt 0.980000 0.435363
vt -0.080000 0.435363
vt -0.030000 0.435363
vt 0.037500 0.037500
vt 0.962500 0.037500
vt 0.962500 0.962500
vt 0.037500 0.962500
vt 0.495363 0.980000
vt -0.050000 0.980000
vt -0.050000 0.495363
vt 0.495363 0.980000
vt 1.000000 0.495363
vt 0.495363 -0.080000
vt 1.049999 0.495362
vt 0.495363 -0.080000
vt -0.050000 -0.080000
vt -0.100000 0.495362
vt 0.435363 -0.080000
vt -0.100000 0.435362
vt 0.385363 -0.080000
vt 1.049999 0.435362
vt 0.435363 -0.080000
vt 1.000000 0.435363
vt 0.435363 0.980000
vt 0.435363 0.980000
vt -0.050000 0.435363
vt 0.385363 0.980000
vt -0.599999 -0.512891
vt 1.000000 0.515363
vt 0.515363 1.000000
vt 1.600000 -0.512891
vt 0.515363 -0.100000
vt 1.000000 0.515363
vt -0.100000 0.515363
vt 0.515363 -0.100000
vt 1.600000 1.687109
vt 0.515363 1.000000
vt -0.600000 1.687109
vt -0.100000 0.515363
vt 1.000000 -0.100000
vt 1.000000 0.415363
vt 0.415363 -0.100000
vt 1.000000 1.000000
vt 0.415363 1.000000
vt 1.000000 0.415363
vt -0.100000 0.415363
vt 0.415363 1.000000
vt -0.100000 1.000000
vt -0.100000 -0.100000
vt 0.415363 -0.100000
vt -0.100000 0.415363
vt 0.033203 0.989583
vt 0.482863 0.967500
vt 0.987500 0.482863
vt 1.066646 0.989583
vt 0.482863 -0.067500
vt 1.037499 0.482862
vt 1.066646 0.942708
vt 1.037500 0.447862
vt 0.447863 -0.067500
vt 0.033203 0.942708
vt 0.987500 0.447863
vt 0.447863 0.967500
vt 1.017500 0.482863
vt 0.967501 -0.037500
vt 0.966797 0.989583
vt -0.066646 0.989583
vt -0.067500 0.532862
vt -0.067500 0.482863
vt -0.066646 0.942708
vt -0.067500 0.447863
vt -0.067500 0.397862
vt 0.967500 0.397862
vt 1.017500 0.447863
vt 0.966797 0.942708
vt -0.017500 0.482863
vt -0.066646 0.989583
vt -0.067500 0.482863
vt 0.966797 0.989583
vt 0.967500 0.482863
vt 0.966797 0.942708
vt 0.967500 0.447863
vt -0.067500 0.447863
vt -0.017500 0.447863
vt -0.066646 0.942708
vt 1.066646 0.989583
vt -0.037500 -0.067500
vt -0.087500 0.482862
vt 0.033203 0.989583
vt -0.037500 0.967500
vt -0.037500 0.482863
vt 0.033203 0.942708
vt -0.037500 0.447863
vt 0.397863 0.967500
vt 1.066646 0.942708
vt -0.087500 0.447862
vt 0.397863 -0.067500
vt 0.500000 0.765363
vt -0.600000 0.487109
vt 1.600001 0.487110
vt 0.500000 0.765363
vt 0.500000 0.137500
vt 0.500000 0.740363
vt 0.500000 0.862500
vt 0.500000 0.740363
vt 0.500000 0.745363
vt 0.500000 1.000000
vt 0.533267 -0.066534
vt 0.466734 -0.066534
vt 0.500000 0.745363
vt 0.533267 -0.054034
vt 0.500000 0.352992
vt 0.466734 -0.054034
vt 0.500000 0.732863
vt 0.500000 0.352991
vt 0.500000 0.987500
vt 0.751499 0.447863
vt 0.751121 0.942708
vt 0.751499 0.495363
vt 0.751499 1.000000
vt 0.751500 0.385363
vt 0.751499 0.435363
vt 0.784766 -0.054034
vt 0.764074 0.002992
vt 0.751499 -0.037500
vt 0.751121 0.989583
vt 0.751499 0.435363
vt 0.784766 -0.066534
vt 0.751500 -0.050000
vt 0.751499 0.495363
vt 0.751499 0.490363
vt 0.751499 0.862500
vt 0.751499 0.962500
vt 0.751499 1.000000
vt 0.751499 0.415363
vt 1.600000 -0.015889
vt 0.751499 0.515363
vt 0.751499 0.482863
vt 0.764074 0.002991
vt 0.751499 0.987500
vt 0.751121 0.989583
vt 0.751500 0.397863
vt 0.751121 0.942708
vt 0.751499 0.490363
vt 0.751499 0.137500
vt 0.751499 0.037500
vt 0.751499 0.415363
vt 0.751499 -0.100000
vt -0.599999 -0.015889
vt 0.751499 0.515363
vt 1.600000 0.990109
vt 0.248500 0.515363
vt 0.248500 0.415363
vt 0.248500 1.000000
vt 0.248500 0.962500
vt 0.248500 0.490363
vt 0.248500 0.862500
vt 0.248500 0.545363
vt 0.215234 -0.066534
vt 0.248500 0.495363
vt 0.248500 0.435363
vt 0.248500 0.532863
vt 0.248878 0.989583
vt 0.235925 0.002992
vt 0.215234 -0.054034
vt 0.248500 0.435363
vt 0.248500 0.385362
vt 0.248500 0.495363
vt 0.248500 0.447863
vt 0.248878 0.942708
vt -0.599999 0.990109
vt 0.248500 0.515363
vt 0.248500 0.415363
vt 0.248500 -0.100000
vt 0.248500 0.037500
vt 0.248500 0.490363
vt 0.248500 0.137500
vt 0.248878 0.942708
vt 0.248500 0.397862
vt 0.235925 0.002991
vt 0.248500 0.482863
vt 0.248878 0.989583
vt 1.050000 0.023596
vt 0.731757 0.175000
vt 0.731757 0.534987
vt -0.250000 0.023596
vt 0.731757 0.825000
vt 0.731757 0.534988
vt 1.050000 0.413667
vt 0.536721 0.728860
vt 0.536721 0.175000
vt -0.250000 0.413667
vt 0.536721 0.825000
vt 0.536721 0.728860
vt 0.524184 0.716323
vt 0.524184 0.175000
vt 0.719219 0.175000
vt 0.719219 0.522450
vt 0.719220 0.825000
vt 0.719220 0.522450
vt 0.524184 0.825000
vt 0.524184 0.716323
vt 0.280780 0.175000
vt 0.522450 0.175000
vt 0.280780 0.522450
vt 0.475816 0.175000
vt 0.475816 0.716323
vt 0.716323 0.175000
vt 0.280780 0.825000
vt 0.522451 0.825000
vt 0.280780 0.522451
vt 0.475816 0.825000
vt 0.716323 0.825000
vt 0.475816 0.716323
vt 1.050000 0.560552
vt 0.463279 0.728860
vt 0.728860 0.175000
vt -0.250000 0.560552
vt 0.728861 0.825000
vt 0.463279 0.728861
vt -0.250000 0.950624
vt 0.534988 0.825000
vt 0.268243 0.534988
vt 1.050000 0.950624
vt 0.534988 0.175000
vt 0.268243 0.534988
vt 0.975000 1.000000
vt 0.025000 1.000000
vt 0.025000 1.000000
vt 0.975000 1.000000
vt 0.975000 0.989667
vt 0.025000 0.989667
vt 0.975000 0.914000
vt 0.025000 1.000000
vt 0.025000 0.914000
vt 0.975000 1.000000
vt 0.975000 0.981833
vt 0.025000 0.981834
vt 0.975000 0.919250
vt 0.975000 0.924479
vt 0.025000 0.919250
vt 0.025000 0.924479
vt 0.975000 1.000000
vt 0.025000 1.000000
vt 0.025000 1.000000
vt 0.975000 1.000000
vt 0.975000 0.989667
vt 0.025000 0.989667
vt 0.975000 0.914000
vt 0.025000 1.000000
vt 0.025000 0.914000
vt 0.975000 1.000000
vt 0.975000 0.981833
vt 0.025000 0.981834
vt 0.975000 0.919250
vt 0.975000 0.924479
vt 0.025000 0.919250
vt 0.025000 0.924479
vt 0.975000 0.953125
vt 0.025000 0.953125
vt 0.025000 0.953125
vt 0.975000 0.953125
vt 0.975000 1.000000
vt 0.025000 1.000000
vt 0.975000 0.966146
vt 0.025000 0.966146
vt 0.025000 0.966146
vt 0.975000 0.966146
vt 0.000000 1.000000
vt 0.000000 0.000000
vt 1.000000 0.000000
vt 1.000000 1.000000
vt 0.000000 1.000000
vt 0.000000 0.000000
vt 1.000000 0.000000
vt 1.000000 1.000000
vt 0.000000 1.000000
vt 0.000000 0.000000
vt 1.000000 0.000000
vt 1.000000 1.000000
vt 0.000000 1.000000
vt 0.000000 0.000000
vt 1.000000 0.000000
vt 1.000000 1.000000
vt 0.017935 0.957608
vt 0.017935 0.042392
vt 0.982065 0.042392
vt 0.982065 0.957608
vt 0.017935 0.957608
vt 0.017935 0.042392
vt 0.982065 0.042392
vt 0.982065 0.957608
vt 0.017935 0.957608
vt 0.017935 0.042392
vt 0.982065 0.042392
vt 0.982065 0.957608
vt 0.017935 0.957608
vt 0.017935 0.042392
vt 0.982065 0.042392
vt 0.982065 0.957608
vt 0.017935 0.957608
vt 0.017935 0.042392
vt 0.982065 0.042392
vt 0.982065 0.957608
vt 0.017935 0.957608
vt 0.017935 0.042392
vt 0.982065 0.042392
vt 0.982065 0.957608
vt 0.017935 0.957608
vt 0.017935 0.042392
vt 0.982065 0.042392
vt 0.982065 0.957608
vt 0.017935 0.957608
vt 0.017935 0.042392
vt 0.982065 0.042392
vt 0.982065 0.957608
vt 0.008968 0.978804
vt 0.008968 0.021196
vt 0.991032 0.021196
vt 0.991032 0.978804
vt 0.008968 0.978804
vt 0.008968 0.021196
vt 0.991032 0.021196
vt 0.991032 0.978804
s 1
usemtl concrete_hr_1
f 14/22/1 70/163/1 71/165/1 29/57/1
f 69/162/1 6/10/1 8/12/1 63/149/1
f 85/192/1 13/21/1 32/66/1 84/191/1
f 64/150/1 15/23/1 30/60/1 65/151/1
f 15/23/1 14/22/1 29/57/1 30/60/1
f 86/194/3 5/9/4 13/21/4 85/192/5
f 13/21/1 16/24/1 31/65/1 32/66/1
f 63/149/6 8/12/7 15/23/7 64/150/8
f 8/12/9 6/10/9 14/22/9 15/23/9
f 58/136/10 2/3/10 25/46/10 72/167/10
f 77/177/11 3/5/11 27/51/11 73/169/11
f 59/139/11 10/15/11 29/58/11 71/164/11
f 78/178/10 12/19/10 31/63/10 74/170/10
f 3/5/11 9/13/11 32/68/11 27/51/11
f 12/19/10 1/2/10 28/56/10 31/63/10
f 10/15/11 4/8/11 26/50/11 29/58/11
f 2/3/10 11/18/10 30/62/10 25/46/10
f 5/9/12 7/11/12 16/24/12 13/21/12
f 18/28/13 19/30/13 26/49/13 25/47/13
f 20/32/14 17/25/14 28/54/14 27/52/14
f 22/39/13 23/41/13 30/61/13 29/59/13
f 21/35/14 20/32/14 27/52/14 32/67/14
f 17/25/14 24/42/14 31/64/14 28/54/14
f 19/30/13 22/39/13 29/59/13 26/49/13
f 23/41/13 18/28/13 25/47/13 30/61/13
f 24/42/14 21/35/14 32/67/14 31/64/14
f 33/70/15 34/73/15 19/30/15 18/28/15
f 34/74/16 35/76/16 22/38/16 19/31/16
f 18/29/17 23/40/17 36/79/17 33/71/17
f 79/179/18 38/85/18 3/4/18 77/175/18
f 68/159/19 40/90/19 10/16/19 59/138/19
f 38/86/17 39/88/17 9/13/17 3/5/17
f 4/6/20 10/17/20 40/91/20 37/81/20
f 67/155/21 42/97/21 2/3/21 58/136/21
f 82/186/22 44/100/22 12/19/22 78/178/22
f 44/101/16 41/93/16 1/1/16 12/20/16
f 42/97/23 43/99/23 11/18/23 2/3/23
f 35/77/24 36/80/24 23/41/24 22/39/24
f 45/104/25 46/107/25 17/26/25 20/33/25
f 20/34/23 21/36/23 48/113/23 45/105/23
f 24/43/20 17/27/20 46/108/20 47/110/20
f 47/111/26 48/114/26 21/37/26 24/44/26
f 88/198/27 56/131/27 53/123/27 81/185/27
f 60/140/28 55/128/28 54/125/28 62/145/28
f 75/172/1 64/150/1 65/151/1 74/171/1
f 82/186/22 78/178/22 61/144/22 57/134/22
f 68/159/19 59/138/19 80/184/19 87/196/19
f 62/147/11 54/127/11 50/118/11 66/154/11
f 81/185/10 53/123/10 49/115/10 83/189/10
f 78/178/10 74/170/10 65/152/10 61/144/10
f 59/139/11 71/164/11 84/190/11 80/183/11
f 98/223/29 51/119/29 52/121/29 100/229/29
f 100/229/29 52/121/29 76/174/29 86/194/29 51/119/29 98/223/29 97/220/29 99/226/29
f 94/214/31 93/213/31 51/119/31 69/162/31 63/149/31 52/121/31 96/218/31 95/216/31
f 52/121/31 51/119/31 93/213/31 96/218/31
f 76/173/32 52/122/33 63/148/34
f 53/123/10 58/136/10 72/167/10 49/115/10
f 56/133/35 67/157/35 58/137/35 53/124/35
f 43/99/22 57/134/22 61/144/22 11/18/22
f 37/82/18 60/142/18 62/146/18 4/7/18
f 11/18/10 61/144/10 65/152/10 30/62/10
f 4/8/11 62/147/11 66/154/11 26/50/11
f 6/10/4 69/162/36 70/163/37 14/22/4
f 5/9/1 86/194/1 76/174/1 7/11/1
f 16/24/1 75/172/1 74/171/1 31/65/1
f 7/11/7 76/174/39 75/172/40 16/24/7
f 1/2/10 81/185/10 83/189/10 28/56/10
f 9/13/11 80/183/11 84/190/11 32/68/11
f 39/89/19 87/196/19 80/184/19 9/14/19
f 41/95/21 88/198/21 81/185/21 1/2/21
f 55/130/41 79/182/41 77/176/41 54/126/41
f 54/127/11 77/177/11 73/169/11 50/118/11
f 51/120/42 86/193/43 69/161/44
f 63/149/45 64/150/46 75/172/47 76/174/48
f 86/194/49 85/192/50 70/163/51 69/162/52
s 0
f 90/204/26 89/201/26 94/214/26 95/216/26
f 91/207/10 93/212/10 94/215/10 89/202/10
f 93/213/15 91/208/15 92/210/15 96/218/15
f 90/205/11 95/217/11 96/219/11 92/211/11
f 99/227/24 97/221/24 104/242/24 103/239/24
f 97/222/10 98/224/10 101/233/10 104/243/10
f 100/230/25 102/236/25 101/234/25 98/225/25
f 102/237/11 100/231/11 99/228/11 103/240/11
s 1
f 70/163/1 85/192/1 84/191/1 71/165/1
usemtl wall_hr_2
f 79/180/11 87/195/11 39/87/11 38/84/11
f 33/69/13 36/78/13 35/75/13 34/72/13
f 67/158/10 57/135/10 43/98/10 42/96/10
f 45/103/14 48/112/14 47/109/14 46/106/14
f 68/160/11 87/195/11 79/180/11 60/143/11
f 88/197/10 67/156/10 56/132/10
f 60/141/11 79/181/11 55/129/11
f 37/83/11 40/92/11 68/160/11 60/143/11
f 41/94/10 44/102/10 82/187/10 88/199/10
f 82/187/10 57/135/10 67/158/10 88/199/10
f 108/249/13 107/248/13 105/244/13 106/246/13
f 112/255/53 111/254/53 107/248/53 108/249/53
f 114/258/54 113/256/54 111/254/54 112/255/54
f 110/252/55 109/250/55 113/257/55 114/259/55
f 118/265/14 117/264/14 115/260/14 116/262/14
f 122/271/56 121/270/56 117/264/56 118/265/56
f 124/274/57 123/272/57 121/270/57 122/271/57
f 120/268/58 119/266/58 123/273/58 124/275/58
f 125/276/2 116/263/2 115/261/2 126/278/2
f 105/245/2 125/277/2 126/279/2 106/247/2
f 127/280/59 128/281/59 119/267/59 120/269/59
f 129/282/1 130/284/1 128/281/1 127/280/1
f 109/251/1 110/253/1 130/285/1 129/283/1
s 0
usemtl window_hs_3
f 149/304/60 177/332/60 176/331/60 148/303/60
f 153/308/60 152/307/60 172/327/60 173/328/60
f 155/310/61 167/322/61 170/325/61 158/313/61
f 159/314/61 162/317/61 166/321/61 163/318/61
f 147/302/31 131/286/31 132/287/31 148/303/31
f 149/304/31 133/288/31 134/289/31 150/305/31
f 150/305/31 134/289/31 131/286/31 147/302/31
f 148/303/31 132/287/31 133/288/31 149/304/31
f 179/334/62 180/335/62 136/291/62 135/290/62
f 181/336/63 182/337/63 138/293/63 137/292/63
f 182/337/64 179/334/64 135/290/64 138/293/64
f 180/335/65 181/336/65 137/292/65 136/291/65
f 155/310/29 139/294/29 140/295/29 156/311/29
f 157/312/29 141/296/29 142/297/29 158/313/29
f 158/313/29 142/297/29 139/294/29 155/310/29
f 156/311/29 140/295/29 141/296/29 157/312/29
f 183/338/66 184/339/66 144/299/66 143/298/66
f 185/340/67 186/341/67 146/301/67 145/300/67
f 186/341/68 183/338/68 143/298/68 146/301/68
f 184/339/69 185/340/69 145/300/69 144/299/69
f 163/318/38 166/321/38 165/320/38 164/319/38
f 160/315/11 159/314/11 163/318/11 164/319/11
f 161/316/70 160/315/70 164/319/70 165/320/70
f 162/317/10 161/316/10 165/320/10 166/321/10
f 167/322/29 168/323/29 169/324/29 170/325/29
f 156/311/11 168/323/11 167/322/11 155/310/11
f 157/312/70 169/324/70 168/323/70 156/311/70
f 158/313/10 170/325/10 169/324/10 157/312/10
f 171/326/30 174/329/30 173/328/30 172/327/30
f 154/309/11 153/308/11 173/328/11 174/329/11
f 151/306/71 154/309/71 174/329/71 171/326/71
f 152/307/10 151/306/10 171/326/10 172/327/10
f 175/330/31 176/331/31 177/332/31 178/333/31
f 150/305/11 178/333/11 177/332/11 149/304/11
f 147/302/71 175/330/71 178/333/71 150/305/71
f 148/303/10 176/331/10 175/330/10 147/302/10
f 152/307/64 153/308/64 181/336/64 180/335/64
f 154/309/65 151/306/65 179/334/65 182/337/65
f 153/308/62 154/309/62 182/337/62 181/336/62
f 151/306/63 152/307/63 180/335/63 179/334/63
f 160/315/68 161/316/68 185/340/68 184/339/68
f 162/317/69 159/314/69 183/338/69 186/341/69
f 161/316/66 162/317/66 186/341/66 185/340/66
f 159/314/67 160/315/67 184/339/67 183/338/67
s 1
usemtl roof_hr_3
f 72/166/2 25/45/2 26/48/2 66/153/2
f 72/166/30 66/153/30 89/200/30 90/203/30
f 89/200/30 66/153/30 50/117/30 49/116/30 72/166/30 90/203/30 92/209/30 91/206/30
f 104/241/38 73/168/38 83/188/38 103/238/38
f 83/188/38 49/116/38 50/117/38 73/168/38 104/241/38 101/232/38 102/235/38 103/238/38
f 28/55/2 83/188/2 73/168/2 27/53/2
