# Blender 3.4.0
# www.blender.org
mtllib wooden_crate_3.mtl
o wooden_crate_3
v 0.340000 0.000000 -0.250000
v 0.340000 0.000000 0.140000
v -0.340000 0.000000 -0.250000
v -0.340000 0.000000 0.140000
v 0.340000 0.300000 -0.250000
v 0.340000 0.300000 0.140000
v 0.340000 0.315973 -0.160533
v 0.340000 0.321582 -0.055000
v 0.340000 0.315973 0.050533
v -0.340000 0.300000 0.140000
v -0.340000 0.300000 -0.250000
v -0.340000 0.315973 0.050533
v -0.340000 0.321582 -0.055000
v -0.340000 0.315973 -0.160533
vn -0.0000 -0.0000 1.0000
vn -0.0000 -0.0000 -1.0000
vn -0.0000 -1.0000 -0.0000
vn 1.0000 -0.0000 -0.0000
vn -1.0000 -0.0000 -0.0000
vn -0.0000 0.9844 -0.1758
vn -0.0000 0.9934 -0.1146
vn -0.0000 1.0000 -0.0000
vn -0.0000 0.9934 0.1146
vn -0.0000 0.9844 0.1758
vt 1.000000 -0.000000
vt 0.096875 0.315020
vt 0.430000 0.000000
vt 1.000000 0.298387
vt 0.430000 0.314516
vt 0.096667 0.000000
vt 0.096667 1.000000
vt 0.430000 0.000000
vt 0.430000 0.298387
vt 0.430000 1.000000
vt 0.096667 0.000000
vt 1.000000 0.298387
vt 0.930000 0.262183
vt 1.000000 1.000000
vt 0.430000 0.306452
vt 1.000000 0.596774
vt 0.596667 0.262183
vt 1.000000 0.600806
vt 0.096667 0.306452
vt 0.853333 0.274316
vt 1.000000 0.910449
vt 0.763333 0.277808
vt 1.000000 0.800403
vt 0.673333 0.274316
vt 1.000000 0.690357
vt 0.430000 0.596774
vt 0.096667 0.306452
vt 0.430000 0.600806
vt 0.596667 0.262183
vt 0.430000 0.298387
vt 0.430000 0.306452
vt 0.430000 1.000000
vt 0.930000 0.262183
vt 0.430000 0.690357
vt 0.673333 0.274316
vt 0.430000 0.800403
vt 0.763333 0.277808
vt 0.430000 0.910449
vt 0.853333 0.274316
s 1
usemtl wooden_crate__hs_1
f 2/4/1 6/16/1 10/26/1 4/9/1
f 3/8/2 11/30/2 5/12/2 1/1/2
f 2/5/3 4/10/3 3/7/3 1/2/3
f 5/13/4 7/20/4 8/22/4 9/24/4 6/17/4
f 11/31/5 3/8/5 4/11/5 10/27/5
f 5/14/6 11/32/6 14/38/7 7/21/7
f 7/21/7 14/38/7 13/36/8 8/23/8
f 8/23/8 13/36/8 12/34/9 9/25/9
f 9/25/9 12/34/9 10/28/10 6/18/10
f 1/3/4 5/15/4 6/19/4 2/6/4
f 14/39/5 11/33/5 10/29/5 12/35/5 13/37/5
