# Blender 3.4.0
# www.blender.org
mtllib beam_4.mtl
o beam_4
v 2.000000 -0.000000 0.100000
v 2.000000 -0.000000 -0.100000
v 2.000000 -0.250000 0.100000
v 2.000000 -0.250000 -0.100000
v 2.000000 -0.037209 0.042326
v 2.000000 -0.062500 0.020000
v 2.000000 -0.041619 0.031163
v 2.000000 -0.050876 0.022991
v -2.000000 -0.220720 -0.095039
v -2.000000 -0.224834 -0.098671
v -2.000000 -0.218760 -0.090077
v -2.000000 -0.230000 -0.100000
v 2.000000 -0.062500 -0.020000
v 2.000000 -0.037209 -0.042326
v 2.000000 -0.050876 -0.022991
v 2.000000 -0.041619 -0.031163
v -2.000000 -0.224834 0.098670
v -2.000000 -0.220720 0.095038
v -2.000000 -0.230000 0.100000
v -2.000000 -0.218760 0.090077
v 2.000000 -0.187500 0.020000
v 2.000000 -0.212791 0.042326
v 2.000000 -0.199124 0.022991
v 2.000000 -0.208381 0.031163
v -2.000000 -0.025166 -0.098671
v -2.000000 -0.029281 -0.095039
v -2.000000 -0.020000 -0.100000
v -2.000000 -0.031241 -0.090077
v 2.000000 -0.212791 -0.042326
v 2.000000 -0.187500 -0.020000
v 2.000000 -0.208381 -0.031163
v 2.000000 -0.199124 -0.022991
v -2.000000 -0.029281 0.095038
v -2.000000 -0.025166 0.098670
v -2.000000 -0.031241 0.090077
v -2.000000 -0.020000 0.100000
v 2.000000 -0.020000 0.100000
v 2.000000 -0.031241 0.090077
v 2.000000 -0.025166 0.098671
v 2.000000 -0.029281 0.095039
v -2.000000 -0.199124 -0.022991
v -2.000000 -0.208381 -0.031163
v -2.000000 -0.187500 -0.020000
v -2.000000 -0.212791 -0.042326
v -2.000000 -0.208381 0.031163
v 2.000000 -0.031241 -0.090077
v 2.000000 -0.020000 -0.100000
v 2.000000 -0.029281 -0.095038
v 2.000000 -0.025166 -0.098670
v -2.000000 -0.199124 0.022991
v -2.000000 -0.212791 0.042326
v -2.000000 -0.187500 0.020000
v -2.000000 -0.041619 -0.031163
v -2.000000 -0.050876 -0.022991
v 2.000000 -0.218760 0.090077
v 2.000000 -0.230000 0.100000
v 2.000000 -0.220720 0.095039
v 2.000000 -0.224834 0.098671
v -2.000000 -0.037209 -0.042326
v -2.000000 -0.062500 -0.020000
v -2.000000 -0.050876 0.022991
v -2.000000 -0.041619 0.031163
v -2.000000 -0.062500 0.020000
v 2.000000 -0.230000 -0.100000
v 2.000000 -0.218760 -0.090077
v 2.000000 -0.224834 -0.098670
v 2.000000 -0.220720 -0.095038
v -2.000000 -0.037209 0.042326
v -2.000000 -0.250000 -0.100000
v -2.000000 -0.250000 0.100000
v -2.000000 -0.000000 -0.100000
v -2.000000 -0.000000 0.100000
vn 1.0000 -0.0000 -0.0000
vn -0.0000 0.8186 0.5744
vn -0.0000 0.4685 0.8835
vn -0.0000 0.1256 0.9921
vn -0.0000 -0.9688 0.2477
vn -0.0000 -0.8186 0.5744
vn -0.0000 -0.8186 -0.5744
vn -0.0000 -0.9688 -0.2477
vn -0.0000 -0.4685 0.8835
vn -0.0000 -0.4685 -0.8835
vn -0.0000 -0.1256 -0.9921
vn -0.0000 -0.0000 -1.0000
vn -0.0000 0.1256 -0.9921
vn -0.0000 0.9688 0.2477
vn -0.0000 0.8186 -0.5744
vn -0.0000 0.4685 -0.8835
vn -0.0000 -0.0000 1.0000
vn -0.0000 -0.1256 0.9921
vn -0.0000 0.9688 -0.2477
vn 1.0000 0.0001 -0.0000
vn -0.0000 -1.0000 -0.0000
vn -1.0000 -0.0000 -0.0000
vn -1.0000 0.0001 -0.0000
vn -0.0000 1.0000 -0.0000
vt 0.433333 0.583333
vt -0.833333 0.583333
vt 0.433333 -0.833333
vt 0.566667 0.583333
vt 0.566667 -0.833333
vt -0.833333 0.583333
vt -0.833333 0.416667
vt 0.433333 -0.833333
vt 0.433333 0.416667
vt -0.833333 0.416667
vt 0.566667 -0.833333
vt 0.566667 0.416667
vt 0.471783 -0.833333
vt 0.471783 0.558527
vt -0.833333 0.541667
vt 0.486667 0.541667
vt 0.479225 -0.833333
vt -0.833333 0.555587
vt 0.479225 0.555587
vt -0.833333 0.549416
vt 0.484673 0.549416
vt 0.563359 1.833333
vt 1.833333 0.436187
vt 0.563359 0.436187
vt 1.833333 0.433444
vt 0.565780 0.433444
vt 0.560052 1.833333
vt 0.560052 0.437494
vt 1.833333 0.430000
vt 0.566667 0.430000
vt -0.833333 0.541667
vt 0.513333 0.541667
vt 0.528217 -0.833333
vt 0.528217 0.558527
vt -0.833333 0.549416
vt 0.515327 0.549416
vt 0.520775 -0.833333
vt -0.833333 0.555587
vt 0.520775 0.555587
vt 1.833333 0.433444
vt 0.434220 0.433444
vt 1.833333 0.436187
vt 0.436641 1.833333
vt 0.436641 0.436187
vt 1.833333 0.430000
vt 0.433333 0.430000
vt 0.439949 1.833333
vt 0.439949 0.437494
vt -0.833333 0.458333
vt 0.486667 0.458333
vt 0.471783 0.441473
vt 0.471783 -0.833333
vt -0.833333 0.450584
vt 0.484673 0.450584
vt -0.833333 0.444413
vt 0.479225 0.444413
vt 0.479225 -0.833333
vt 1.833333 0.566556
vt 0.565780 0.566556
vt 1.833333 0.563813
vt 0.563359 1.833333
vt 0.563359 0.563813
vt 0.566667 0.570000
vt 1.833333 0.570000
vt 0.560052 1.833333
vt 0.560052 0.562506
vt 0.528217 -0.833333
vt 0.528217 0.441473
vt 0.513333 0.458333
vt -0.833333 0.458333
vt -0.833333 0.444413
vt 0.520775 -0.833333
vt 0.520775 0.444413
vt -0.833333 0.450584
vt 0.515327 0.450584
vt 0.436641 1.833333
vt 1.833333 0.563813
vt 0.436641 0.563813
vt 1.833333 0.566556
vt 0.434220 0.566556
vt 0.439949 1.833333
vt 0.439949 0.562506
vt 1.833333 0.570000
vt 0.433333 0.570000
vt -0.833333 0.570000
vt 0.433333 0.570000
vt 0.439949 -0.833333
vt 0.439949 0.562506
vt -0.833333 0.566556
vt 0.434220 0.566556
vt 0.436641 -0.833333
vt -0.833333 0.563813
vt 0.436641 0.563813
vt 1.833333 0.450584
vt 0.515327 0.450584
vt 1.833333 0.444413
vt 0.520775 1.833333
vt 0.520775 0.444413
vt 1.833333 0.458333
vt 0.513333 0.458333
vt 0.528217 1.833333
vt 0.528217 0.441473
vt 1.833333 0.444413
vt 0.479225 0.444413
vt 0.479225 1.833333
vt 0.560052 0.562506
vt 0.560052 -0.833333
vt 0.566667 0.570000
vt -0.833333 0.570000
vt -0.833333 0.563813
vt 0.563359 -0.833333
vt 0.563359 0.563813
vt -0.833333 0.566556
vt 0.565780 0.566556
vt 1.833333 0.450584
vt 0.484673 0.450584
vt 0.471783 0.441473
vt 0.471783 1.833333
vt 1.833333 0.458333
vt 0.486667 0.458333
vt 0.520775 1.833333
vt 1.833333 0.555587
vt 0.520775 0.555587
vt 1.833333 0.549416
vt 0.515327 0.549416
vt 0.439949 0.437494
vt 0.439949 -0.833333
vt -0.833333 0.430000
vt 0.433333 0.430000
vt -0.833333 0.436187
vt 0.436641 -0.833333
vt 0.436641 0.436187
vt -0.833333 0.433444
vt 0.434220 0.433444
vt 0.528217 1.833333
vt 0.528217 0.558527
vt 1.833333 0.541667
vt 0.513333 0.541667
vt 1.833333 0.549416
vt 0.484673 0.549416
vt 0.479225 1.833333
vt 1.833333 0.555587
vt 0.479225 0.555587
vt 1.833333 0.541667
vt 0.486667 0.541667
vt -0.833333 0.430000
vt 0.566667 0.430000
vt 0.560052 -0.833333
vt 0.560052 0.437494
vt -0.833333 0.433444
vt 0.565780 0.433444
vt 0.563359 -0.833333
vt -0.833333 0.436187
vt 0.563359 0.436187
vt 0.471783 1.833333
vt 0.471783 0.558527
vt 1.833333 0.416667
vt 0.566667 1.833333
vt 0.566667 0.416667
vt 1.833333 0.416667
vt 0.433333 1.833333
vt 0.433333 0.416667
vt 0.566667 0.583333
vt 0.566667 1.833333
vt 1.833333 0.583333
vt 1.833333 0.583333
vt 0.433333 0.583333
vt 0.433333 1.833333
s 1
usemtl metal_2
f 47/108/1 2/4/1 1/1/1 37/86/1
f 57/130/2 18/42/2 17/40/3 58/133/3
f 58/133/3 17/40/3 19/45/4 56/128/4
f 57/132/1 58/134/1 66/151/1 67/154/1
f 5/13/5 68/155/5 62/141/6 7/17/6
f 16/37/7 53/121/7 59/135/8 14/33/8
f 40/91/6 33/76/6 35/81/5 38/87/5
f 39/89/9 34/79/9 33/77/6 40/92/6
f 49/113/10 25/58/10 27/64/11 47/109/11
f 4/10/12 69/157/12 12/29/13 64/146/13
f 30/69/1 21/50/1 23/54/1 32/75/1
f 55/127/14 20/47/14 18/43/2 57/131/2
f 31/71/15 42/96/15 41/94/16 32/74/16
f 30/70/13 43/99/13 60/137/11 13/31/11
f 48/110/7 26/60/7 25/58/10 49/113/10
f 15/35/10 54/124/10 53/122/7 16/38/7
f 56/128/4 19/45/4 70/160/17 3/7/17
f 46/107/8 28/65/8 26/61/7 48/111/7
f 1/2/17 72/166/17 36/83/18 37/85/18
f 38/87/5 35/81/5 68/155/5 5/13/5
f 67/152/15 9/22/15 11/27/19 65/148/19
f 7/18/6 62/142/6 61/139/9 8/20/9
f 29/67/19 44/101/19 42/97/15 31/72/15
f 8/20/9 61/139/9 63/144/18 6/15/18
f 66/150/16 10/25/16 9/23/15 67/153/15
f 21/49/4 52/119/4 50/115/3 23/53/3
f 6/15/18 63/144/18 52/119/4 21/49/4
f 64/146/13 12/29/13 10/25/16 66/150/16
f 37/85/18 36/83/18 34/79/9 39/89/9
f 48/112/1 40/93/1 38/88/20 46/106/20
f 13/32/1 6/16/1 21/50/1 30/69/1
f 31/73/1 24/56/1 22/51/1 29/68/1
f 65/148/19 11/27/19 44/101/19 29/67/19
f 32/74/16 41/94/16 43/99/13 30/70/13
f 3/8/21 70/161/21 69/158/21 4/11/21
f 49/114/1 39/90/1 40/93/1 48/112/1
f 47/108/1 37/86/1 39/90/1 49/114/1
f 46/106/20 38/88/20 5/14/1 14/34/1
f 14/33/8 59/135/8 28/65/8 46/107/8
f 59/136/22 53/123/22 62/143/22 68/156/22
f 53/123/22 54/125/22 61/140/22 62/143/22
f 58/134/1 56/129/1 64/147/1 66/151/1
f 51/117/22 44/102/22 11/28/23 20/48/23
f 27/63/22 25/59/22 34/80/22 36/84/22
f 28/66/22 59/136/22 68/156/22 35/82/22
f 55/126/1 57/132/1 67/154/1 65/149/1
f 22/51/1 55/126/1 65/149/1 29/68/1
f 56/129/1 3/9/1 4/12/1 64/147/1
f 42/98/22 44/102/22 51/117/22 45/104/22
f 18/44/22 9/24/22 10/26/22 17/41/22
f 43/100/22 41/95/22 50/116/22 52/120/22
f 23/53/3 50/115/3 45/103/2 24/55/2
f 13/31/11 60/137/11 54/124/10 15/35/10
f 22/52/14 51/118/14 20/47/14 55/127/14
f 54/125/22 60/138/22 63/145/22 61/140/22
f 19/46/22 12/30/22 69/159/22 70/162/22
f 41/95/22 42/98/22 45/104/22 50/116/22
f 20/48/23 11/28/23 9/24/22 18/44/22
f 25/59/22 26/62/22 33/78/22 34/80/22
f 17/41/22 10/26/22 12/30/22 19/46/22
f 26/62/22 28/66/22 35/82/22 33/78/22
f 27/63/22 36/84/22 72/167/22 71/163/22
f 60/138/22 43/100/22 52/120/22 63/145/22
f 2/5/24 71/164/24 72/168/24 1/3/24
f 14/34/1 5/14/1 7/19/1 16/39/1
f 16/39/1 7/19/1 8/21/1 15/36/1
f 15/36/1 8/21/1 6/16/1 13/32/1
f 32/75/1 23/54/1 24/56/1 31/73/1
f 24/57/2 45/105/2 51/118/14 22/52/14
f 47/109/11 27/64/11 71/165/12 2/6/12
