# Blender 3.4.0
# www.blender.org
mtllib beam_5.mtl
o beam_5
v 2.000000 -0.000000 0.100000
v -2.000000 -0.000000 0.100000
v 2.000000 -0.000000 -0.100000
v -2.000000 -0.000000 -0.100000
v 2.000000 -0.250000 0.100000
v -2.000000 -0.250000 0.100000
v 2.000000 -0.250000 -0.100000
v -2.000000 -0.250000 -0.100000
v 2.000000 -0.120623 0.020000
v 2.000000 -0.035336 0.079295
v 2.000000 -0.045802 0.060000
v 2.000000 -0.060685 0.043432
v 2.000000 -0.078972 0.030718
v 2.000000 -0.099415 0.022726
v -2.000000 -0.120623 0.020000
v -2.000000 -0.099415 0.022726
v -2.000000 -0.078972 0.030718
v -2.000000 -0.060685 0.043431
v -2.000000 -0.045802 0.060000
v -2.000000 -0.035336 0.079294
v 2.000000 -0.120623 -0.020000
v 2.000000 -0.099415 -0.022726
v 2.000000 -0.078972 -0.030718
v 2.000000 -0.060685 -0.043431
v 2.000000 -0.045802 -0.060000
v 2.000000 -0.035336 -0.079294
v -2.000000 -0.120623 -0.020000
v -2.000000 -0.035336 -0.079295
v -2.000000 -0.045802 -0.060000
v -2.000000 -0.060685 -0.043432
v -2.000000 -0.078972 -0.030718
v -2.000000 -0.099415 -0.022726
v 2.000000 -0.129378 0.020000
v 2.000000 -0.150585 0.022726
v 2.000000 -0.171029 0.030718
v 2.000000 -0.189315 0.043432
v 2.000000 -0.204199 0.060000
v 2.000000 -0.214665 0.079295
v -2.000000 -0.129378 0.020000
v -2.000000 -0.214665 0.079294
v -2.000000 -0.204199 0.060000
v -2.000000 -0.189315 0.043431
v -2.000000 -0.171029 0.030718
v -2.000000 -0.150585 0.022726
v 2.000000 -0.129378 -0.020000
v 2.000000 -0.214665 -0.079294
v 2.000000 -0.204199 -0.060000
v 2.000000 -0.189315 -0.043431
v 2.000000 -0.171029 -0.030718
v 2.000000 -0.150585 -0.022726
v -2.000000 -0.129378 -0.020000
v -2.000000 -0.150585 -0.022726
v -2.000000 -0.171029 -0.030718
v -2.000000 -0.189315 -0.043432
v -2.000000 -0.204199 -0.060000
v -2.000000 -0.214665 -0.079295
v 2.000000 -0.020000 0.100000
v 2.000000 -0.032495 0.090316
v 2.000000 -0.025334 0.098703
v 2.000000 -0.029908 0.095158
v -2.000000 -0.032495 0.090316
v -2.000000 -0.020000 0.100000
v -2.000000 -0.029908 0.095158
v -2.000000 -0.025334 0.098702
v 2.000000 -0.032495 -0.090316
v 2.000000 -0.020000 -0.100000
v 2.000000 -0.029908 -0.095158
v 2.000000 -0.025334 -0.098702
v 2.000000 -0.230000 -0.100000
v 2.000000 -0.217505 -0.090316
v 2.000000 -0.224666 -0.098702
v 2.000000 -0.220092 -0.095158
v -2.000000 -0.217505 -0.090316
v -2.000000 -0.230000 -0.100000
v -2.000000 -0.220092 -0.095158
v -2.000000 -0.224666 -0.098703
v -2.000000 -0.020000 -0.100000
v -2.000000 -0.032495 -0.090316
v -2.000000 -0.025334 -0.098703
v -2.000000 -0.029908 -0.095158
v 2.000000 -0.217505 0.090316
v 2.000000 -0.230000 0.100000
v 2.000000 -0.220092 0.095158
v 2.000000 -0.224666 0.098703
v -2.000000 -0.230000 0.100000
v -2.000000 -0.217505 0.090316
v -2.000000 -0.224666 0.098702
v -2.000000 -0.220092 0.095158
vn 1.0000 -0.0000 -0.0000
vn -0.0000 -0.9307 -0.3659
vn -0.0000 -0.9318 -0.3630
vn -0.0000 -0.1190 -0.9929
vn -0.0000 -0.0000 -1.0000
vn -0.0000 1.0000 -0.0000
vn -0.0000 -0.0639 -0.9980
vn -0.0000 0.0639 -0.9980
vn -0.0000 -1.0000 -0.0000
vn -1.0000 -0.0000 -0.0000
vn -0.0000 0.9318 0.3630
vn -0.0000 0.9307 0.3659
vn -0.0000 -0.0639 0.9980
vn -0.0000 -0.2476 0.9689
vn -0.0000 -0.4707 0.8823
vn -0.0000 -0.6618 0.7497
vn -0.0000 -0.8171 0.5765
vn -0.0000 -0.9307 0.3659
vn -0.0000 -0.1190 0.9929
vn -0.0000 -0.0000 1.0000
vn -0.0000 -0.2476 -0.9689
vn -0.0000 -0.4707 -0.8823
vn -0.0000 -0.6618 -0.7497
vn -0.0000 -0.8171 -0.5765
vn -0.0000 0.9318 -0.3630
vn -0.0000 0.9307 -0.3659
vn -0.0000 0.1190 0.9929
vn -0.0000 0.8171 0.5765
vn -0.0000 0.6618 0.7497
vn -0.0000 0.4707 0.8823
vn -0.0000 0.2476 0.9689
vn -0.0000 0.0639 0.9980
vn -0.0000 0.1190 -0.9929
vn -0.0000 0.8171 -0.5765
vn -0.0000 0.6618 -0.7497
vn -0.0000 0.4707 -0.8823
vn -0.0000 0.2476 -0.9689
vn -0.0000 -0.9318 0.3630
vn -0.0000 -0.7641 0.6451
vn -0.0000 -0.4340 0.9009
vn -0.0000 0.4340 -0.9009
vn -0.0000 0.7641 -0.6451
vn -0.0000 0.4340 0.9009
vn -0.0000 0.7641 0.6451
vn -0.0000 -0.7641 -0.6451
vn -0.0000 -0.4340 -0.9009
vt 0.433333 0.583333
vt 0.433333 -0.833333
vt -0.833333 0.583333
vt 0.433333 1.833333
vt 0.433333 0.583333
vt 1.833333 0.583333
vt 0.566667 0.583333
vt -0.833333 0.583333
vt 0.566667 -0.833333
vt 1.833333 0.583333
vt 0.566667 1.833333
vt 0.566667 0.583333
vt 0.433333 0.416667
vt 0.433333 -0.833333
vt -0.833333 0.416667
vt 0.433333 1.833333
vt 0.433333 0.416667
vt 1.833333 0.416667
vt 0.566667 0.416667
vt 0.566667 -0.833333
vt -0.833333 0.416667
vt 0.566667 1.833333
vt 0.566667 0.416667
vt 1.833333 0.416667
vt 0.486667 0.502918
vt -0.833333 0.502918
vt 0.447137 0.559776
vt 0.447137 -0.833333
vt 0.460000 0.552799
vt 0.460000 -0.833333
vt 0.471046 0.542877
vt -0.833333 0.542877
vt 0.471046 -0.833333
vt 0.479521 0.530686
vt -0.833333 0.530686
vt 0.484849 0.517057
vt -0.833333 0.517057
vt 0.486667 0.502918
vt 1.833333 0.502918
vt 0.484849 0.517057
vt 1.833333 0.517057
vt 0.479521 0.530686
vt 1.833333 0.530686
vt 0.471046 0.542877
vt 1.833333 0.542877
vt 0.471046 1.833333
vt 0.460000 0.552799
vt 0.460000 1.833333
vt 0.447137 0.559776
vt 0.447137 1.833333
vt 0.513333 0.502918
vt -0.833333 0.502918
vt 0.515151 0.517057
vt -0.833333 0.517057
vt 0.520479 0.530686
vt -0.833333 0.530686
vt 0.528954 0.542877
vt -0.833333 0.542877
vt 0.528954 -0.833333
vt 0.540000 0.552799
vt 0.540000 -0.833333
vt 0.552863 0.559776
vt 0.552863 -0.833333
vt 0.513333 0.502918
vt 1.833333 0.502918
vt 0.552863 0.559776
vt 0.552863 1.833333
vt 0.540000 0.552799
vt 0.540000 1.833333
vt 0.528954 0.542877
vt 1.833333 0.542877
vt 0.528954 1.833333
vt 0.520479 0.530686
vt 1.833333 0.530686
vt 0.515151 0.517057
vt 1.833333 0.517057
vt 0.486667 0.497082
vt -0.833333 0.497082
vt 0.484849 0.482943
vt -0.833333 0.482943
vt 0.479521 0.469314
vt -0.833333 0.469314
vt 0.471046 0.457123
vt 0.471046 -0.833333
vt -0.833333 0.457123
vt 0.460000 0.447201
vt 0.460000 -0.833333
vt 0.447137 0.440224
vt 0.447137 -0.833333
vt 0.486667 0.497082
vt 1.833333 0.497082
vt 0.447137 0.440224
vt 0.447137 1.833333
vt 0.460000 0.447201
vt 0.460000 1.833333
vt 0.471046 0.457123
vt 0.471046 1.833333
vt 1.833333 0.457123
vt 0.479521 0.469314
vt 1.833333 0.469314
vt 0.484849 0.482943
vt 1.833333 0.482943
vt 0.513333 0.497082
vt -0.833333 0.497082
vt 0.552863 0.440224
vt 0.552863 -0.833333
vt 0.540000 0.447201
vt 0.540000 -0.833333
vt 0.528954 0.457123
vt 0.528954 -0.833333
vt -0.833333 0.457123
vt 0.520479 0.469314
vt -0.833333 0.469314
vt 0.515151 0.482943
vt -0.833333 0.482943
vt 0.513333 0.497082
vt 1.833333 0.497082
vt 0.515151 0.482943
vt 1.833333 0.482943
vt 0.520479 0.469314
vt 1.833333 0.469314
vt 0.528954 0.457123
vt 0.528954 1.833333
vt 1.833333 0.457123
vt 0.540000 0.447201
vt 0.540000 1.833333
vt 0.552863 0.440224
vt 0.552863 1.833333
vt 0.433333 0.570000
vt -0.833333 0.570000
vt 0.439789 0.561670
vt 0.439789 -0.833333
vt 0.434198 0.566444
vt -0.833333 0.566444
vt 0.436561 0.563395
vt 0.436561 -0.833333
vt -0.833333 0.563395
vt 0.439789 0.561670
vt 0.439789 1.833333
vt 0.433333 0.570000
vt 1.833333 0.570000
vt 0.436561 0.563395
vt 0.436561 1.833333
vt 1.833333 0.563395
vt 0.434198 0.566444
vt 1.833333 0.566444
vt 0.560211 0.561670
vt 0.560211 -0.833333
vt 0.566667 0.570000
vt -0.833333 0.570000
vt 0.563439 0.563395
vt 0.563439 -0.833333
vt -0.833333 0.563395
vt 0.565802 0.566444
vt -0.833333 0.566444
vt 0.566667 0.430000
vt -0.833333 0.430000
vt 0.560211 0.438330
vt 0.560211 -0.833333
vt 0.565802 0.433556
vt -0.833333 0.433556
vt 0.563439 0.436605
vt -0.833333 0.436605
vt 0.563439 -0.833333
vt 0.560211 0.438330
vt 0.560211 1.833333
vt 0.566667 0.430000
vt 1.833333 0.430000
vt 0.563439 0.436605
vt 1.833333 0.436605
vt 0.563439 1.833333
vt 0.565802 0.433556
vt 1.833333 0.433556
vt 0.566667 0.570000
vt 1.833333 0.570000
vt 0.560211 0.561670
vt 0.560211 1.833333
vt 0.565802 0.566444
vt 1.833333 0.566444
vt 0.563439 0.563395
vt 0.563439 1.833333
vt 1.833333 0.563395
vt 0.439789 0.438330
vt 0.439789 -0.833333
vt 0.433333 0.430000
vt -0.833333 0.430000
vt 0.436561 0.436605
vt -0.833333 0.436605
vt 0.436561 -0.833333
vt 0.434198 0.433556
vt -0.833333 0.433556
vt 0.433333 0.430000
vt 1.833333 0.430000
vt 0.439789 0.438330
vt 0.439789 1.833333
vt 0.434198 0.433556
vt 1.833333 0.433556
vt 0.436561 0.436605
vt 1.833333 0.436605
vt 0.436561 1.833333
s 1
usemtl metal_4
f 57/129/1 59/133/1 60/135/1 58/131/1 10/27/1 11/29/1 12/31/1 13/34/1 14/36/1 9/25/1 33/77/1 34/79/1 35/81/1 36/83/1 37/86/1 38/88/1 81/183/1 83/187/1 84/190/1 82/185/1 5/13/1 7/19/1 69/156/1 71/160/1 72/162/1 70/158/1 46/105/1 47/107/1 48/109/1 49/112/1 50/114/1 45/103/1 21/51/1 22/53/1 23/55/1 24/57/1 25/60/1 26/62/1 65/147/1 67/151/1 68/154/1 66/149/1 3/7/1 1/1/1
f 26/63/2 28/67/2 78/177/3 65/148/3
f 77/175/4 4/10/5 3/8/5 66/150/4
f 4/11/6 2/4/6 1/2/6 3/9/6
f 27/65/7 21/52/7 45/104/8 51/117/8
f 6/16/9 8/22/9 7/20/9 5/14/9
f 77/174/10 79/178/10 80/180/10 78/176/10 28/66/10 29/68/10 30/70/10 31/73/10 32/75/10 27/64/10 51/116/10 52/118/10 53/120/10 54/122/10 55/125/10 56/127/10 73/165/10 75/169/10 76/172/10 74/167/10 8/23/10 6/17/10 85/192/10 87/196/10 88/198/10 86/194/10 40/92/10 41/94/10 42/96/10 43/99/10 44/101/10 39/90/10 15/38/10 16/40/10 17/42/10 18/44/10 19/47/10 20/49/10 61/138/10 63/142/10 64/145/10 62/140/10 2/5/10 4/12/10
f 86/195/11 81/184/11 38/89/12 40/93/12
f 15/39/13 9/26/13 14/37/14 16/41/14
f 16/41/14 14/37/14 13/35/15 17/43/15
f 17/43/15 13/35/15 12/32/16 18/45/16
f 18/46/16 12/33/16 11/30/17 19/48/17
f 19/48/17 11/30/17 10/28/18 20/50/18
f 57/130/19 1/3/20 2/6/20 62/141/19
f 21/52/7 27/65/7 32/76/21 22/54/21
f 22/54/21 32/76/21 31/74/22 23/56/22
f 23/56/22 31/74/22 30/71/23 24/58/23
f 24/59/23 30/72/23 29/69/24 25/61/24
f 25/61/24 29/69/24 28/67/2 26/63/2
f 70/159/25 73/166/25 56/128/26 46/106/26
f 82/186/27 85/193/27 6/18/20 5/15/20
f 40/93/12 38/89/12 37/87/28 41/95/28
f 41/95/28 37/87/28 36/84/29 42/97/29
f 42/98/29 36/85/29 35/82/30 43/100/30
f 43/100/30 35/82/30 34/80/31 44/102/31
f 44/102/31 34/80/31 33/78/32 39/91/32
f 74/168/33 69/157/33 7/21/5 8/24/5
f 46/106/26 56/128/26 55/126/34 47/108/34
f 47/108/34 55/126/34 54/123/35 48/110/35
f 48/111/35 54/124/35 53/121/36 49/113/36
f 49/113/36 53/121/36 52/119/37 50/115/37
f 50/115/37 52/119/37 51/117/8 45/104/8
f 9/26/13 15/39/13 39/91/32 33/78/32
f 61/139/38 58/132/38 60/136/39 63/143/39
f 63/144/39 60/137/39 59/134/40 64/146/40
f 64/146/40 59/134/40 57/130/19 62/141/19
f 69/157/33 74/168/33 76/173/41 71/161/41
f 71/161/41 76/173/41 75/170/42 72/163/42
f 72/164/42 75/171/42 73/166/25 70/159/25
f 85/193/27 82/186/27 84/191/43 87/197/43
f 87/197/43 84/191/43 83/188/44 88/199/44
f 88/200/44 83/189/44 81/184/11 86/195/11
f 65/148/3 78/177/3 80/181/45 67/152/45
f 67/153/45 80/182/45 79/179/46 68/155/46
f 68/155/46 79/179/46 77/175/4 66/150/4
f 20/50/18 10/28/18 58/132/38 61/139/38
