# Blender 3.4.0
# www.blender.org
mtllib beam_2.mtl
o beam_2
v 1.799999 0.199999 0.230000
v -1.800001 0.199999 0.230000
v 1.799999 0.199999 -0.230000
v -1.800001 0.199999 -0.230000
v 1.799999 0.229999 0.200000
v 1.799999 0.229999 -0.200000
v -1.800001 0.229999 -0.200000
v 1.799999 -0.200001 -0.230000
v -1.800001 -0.200001 -0.230000
v 1.799999 -0.200001 0.230000
v -1.800001 -0.200001 0.230000
v 1.799999 -0.230001 0.200000
v -1.800001 -0.230000 0.199999
v -1.800001 0.230000 0.199999
v 1.799999 -0.230001 -0.200001
v -1.800001 -0.230000 -0.200001
vn -0.0000 -0.0000 -1.0000
vn -0.0000 0.7071 -0.7071
vn -0.0000 0.7071 0.7071
vn -0.0000 -0.7071 0.7071
vn -0.0000 -0.7071 -0.7071
vn -0.0000 -0.0000 1.0000
vn -0.0000 1.0000 -0.0000
vn -0.0000 -1.0000 -0.0000
vt 0.055555 0.000000
vt 0.055555 1.000000
vt 0.055555 0.000000
vt 0.063889 0.000000
vt 0.055555 1.000000
vt 0.063889 1.000000
vt 0.063889 0.000000
vt -0.055556 0.000000
vt 0.055556 0.000000
vt 0.055556 1.000000
vt -0.055556 0.000000
vt -0.055556 1.000000
vt -0.063889 0.000000
vt -0.055556 0.000000
vt -0.063889 1.000000
vt -0.055556 1.000000
vt -0.055556 0.000000
vt -0.055555 1.000000
vt 0.063889 1.000000
vt -0.055555 1.000000
vt -0.063889 0.000000
vt 0.055556 0.000000
vt -0.063889 1.000000
vt 0.055556 1.000000
s 0
usemtl concrete_1
f 3/3/1 8/11/1 9/12/1 4/5/1
f 3/4/2 4/6/2 7/10/2 6/9/2
f 2/2/3 1/1/3 5/7/3 14/19/3
f 10/13/4 11/15/4 13/18/4 12/17/4
f 9/12/5 8/11/5 15/21/5 16/23/5
f 10/14/6 1/1/6 2/2/6 11/16/6
f 5/8/7 6/9/7 7/10/7 14/20/7
f 15/22/8 12/17/8 13/18/8 16/24/8
