# Blender 3.4.0
# www.blender.org
mtllib book_1.mtl
o book_1
v 0.090006 0.004053 0.134999
v 0.090013 0.043953 0.134999
v 0.090006 0.004053 -0.135001
v 0.090013 0.043953 -0.135001
v 0.090000 0.000003 -0.135001
v 0.090000 0.000003 0.134999
v 0.090000 0.048003 0.134999
v 0.090000 0.048003 -0.135001
v 0.087006 0.004053 -0.132001
v 0.087013 0.043953 -0.132001
v 0.087006 0.004053 0.131999
v 0.087013 0.043953 0.131999
v -0.073250 0.004531 0.134999
v -0.075950 0.007239 0.134999
v -0.075950 0.007239 -0.135001
v -0.073250 0.004531 -0.135001
v -0.075950 0.040188 0.134999
v -0.073250 0.042905 0.134999
v -0.073250 0.042905 -0.135001
v -0.075950 0.040188 -0.135001
v -0.077300 0.046929 0.134999
v -0.080000 0.044212 0.134999
v -0.077300 0.000493 -0.135001
v -0.080000 0.003200 -0.135001
v -0.080000 0.003200 0.134999
v -0.077300 0.000493 0.134999
v -0.080000 0.044212 -0.135001
v -0.077300 0.046929 -0.135001
v -0.073250 0.042905 0.131999
v -0.075950 0.040188 0.131999
v -0.073250 0.004531 -0.132001
v -0.075950 0.007239 -0.132001
v -0.075950 0.007239 0.131999
v -0.073250 0.004531 0.131999
v -0.075950 0.040188 -0.132001
v -0.073250 0.042905 -0.132001
vn -1.0000 -0.0000 -0.0000
vn -0.0000 -0.0000 1.0000
vn -0.0029 -1.0000 -0.0000
vn 0.0032 -1.0000 -0.0016
vn 0.0065 -1.0000 -0.0033
vn -0.0000 -0.0000 -1.0000
vn 1.0000 -0.0015 -0.0000
vn 0.0065 -1.0000 0.0033
vn 0.0032 -1.0000 0.0016
vn 1.0000 0.0032 -0.0000
vn 1.0000 -0.0000 -0.0000
vn 0.0015 1.0000 0.0007
vn 0.0030 1.0000 0.0015
vn -0.0064 1.0000 -0.0000
vn 1.0000 -0.0002 -0.0000
vn 0.0015 1.0000 -0.0007
vn -0.7081 -0.7061 -0.0000
vn -0.7094 0.7048 -0.0000
vn 0.7094 -0.7048 -0.0000
vn 0.7081 0.7061 -0.0000
vn 0.0030 1.0000 -0.0015
vt 0.007316 0.281554
vt 0.004403 0.200428
vt 0.004165 0.281624
vt 0.004403 0.799572
vt 0.007346 0.281650
vt 0.004403 0.281554
vt 0.007316 0.200429
vt 0.004165 0.718437
vt 0.007316 0.718446
vt 0.007316 0.799571
vt 0.004403 0.718446
vt 0.007357 0.718413
vt 0.015000 0.986111
vt 0.008097 0.718444
vt 0.015000 0.019444
vt 0.008097 0.281618
vt 0.881667 0.019444
vt 0.003413 0.281641
vt 0.881667 0.986111
vt 0.003426 0.718422
vt 0.004403 0.205283
vt 0.998333 0.997222
vt 0.998333 0.191667
vt 0.004403 0.713591
vt 0.004403 0.794717
vt 0.908333 0.997222
vt 0.908333 0.191667
vt 0.007316 0.713591
vt 0.998333 0.808333
vt 0.998333 0.002778
vt 0.004403 0.286409
vt 0.007316 0.205283
vt 0.908333 0.808333
vt 0.007316 0.794717
vt 0.908333 0.002778
vt 0.007316 0.286409
vt 0.003900 0.531031
vt 0.004403 0.464597
vt 0.003632 0.017404
vt 0.004403 0.473334
vt 0.003899 0.526660
vt 0.003900 0.473346
vt 0.007316 0.468966
vt 0.007316 0.473335
vt 0.003630 0.982598
vt 0.007316 0.464597
vt 0.004403 0.531019
vt 0.004403 0.526650
vt 0.003884 0.473323
vt 0.008283 0.017434
vt 0.004403 0.535388
vt 0.008290 0.982569
vt 0.007316 0.535388
vt 0.003884 0.526671
vt 0.007316 0.526650
vt 0.004373 0.010882
vt 0.506062 0.019444
vt 0.494182 0.019444
vt 0.007816 0.466806
vt 0.007549 0.989155
vt 0.393885 0.986111
vt 0.007835 0.466814
vt 0.405818 0.986111
vt 0.405818 0.019444
vt 0.007834 0.533194
vt 0.393885 0.019444
vt 0.007552 0.010846
vt 0.007815 0.533186
vt 0.494182 0.986111
vt 0.004381 0.989119
vt 0.506062 0.986111
vt 0.909972 0.201884
vt 0.007316 0.535388
vt 0.916102 0.191667
vt 0.007316 0.526650
vt 0.996694 0.798116
vt 0.004403 0.464597
vt 0.990565 0.808333
vt 0.004403 0.473335
vt 0.990565 0.191667
vt 0.007316 0.473334
vt 0.996694 0.201884
vt 0.007316 0.464597
vt 0.916102 0.808333
vt 0.004403 0.526650
vt 0.909972 0.798117
vt 0.004403 0.535388
s 1
usemtl book_1
f 25/64/1 22/58/1 27/69/1 24/63/1
f 29/72/2 30/74/2 33/80/2 34/82/2 11/29/2 12/33/2
f 6/15/3 26/66/3 23/61/3 5/13/3
f 2/4/4 18/51/5 29/73/5 12/34/4
f 20/54/6 15/42/6 24/62/6 27/68/6
f 19/53/6 20/54/6 27/68/6 28/70/6
f 3/8/7 1/3/7 6/16/7 5/14/7
f 19/53/8 4/10/9 10/25/9 36/87/8
f 2/5/10 4/12/10 8/20/10 7/18/10
f 15/44/11 20/55/11 35/85/11 32/79/11
f 17/48/11 14/40/11 33/81/11 30/75/11
f 3/7/12 16/46/13 31/77/13 9/21/12
f 13/37/2 14/41/2 25/65/2 26/67/2
f 21/57/14 7/17/14 8/19/14 28/71/14
f 9/22/15 10/26/15 12/35/15 11/30/15
f 31/76/6 32/78/6 35/84/6 36/86/6 10/27/6 9/23/6
f 18/50/2 2/5/2 7/18/2 21/56/2
f 16/45/6 3/8/6 5/14/6 23/60/6
f 17/47/2 18/50/2 21/56/2 22/59/2
f 4/11/9 2/6/4 12/36/4 10/28/9
f 1/1/16 3/9/12 9/24/12 11/31/16
f 24/62/6 15/43/6 16/45/6 23/60/6
f 4/12/6 19/52/6 28/70/6 8/20/6
f 25/64/17 24/63/17 23/61/17 26/66/17
f 21/57/18 28/71/18 27/69/18 22/58/18
f 35/85/19 20/55/19 19/53/19 36/87/19
f 31/77/20 16/46/20 15/44/20 32/79/20
f 17/48/19 30/75/19 29/73/19 18/51/19
f 13/38/20 34/83/20 33/81/20 14/40/20
f 13/38/21 1/2/16 11/32/16 34/83/21
f 14/41/2 17/49/2 22/59/2 25/65/2
f 1/3/2 13/39/2 26/67/2 6/16/2
