# Blender 3.4.0
# www.blender.org
mtllib book_2.mtl
o book_2
v 0.090005 0.004053 0.135000
v 0.090012 0.043953 0.135000
v 0.090005 0.004053 -0.135000
v 0.090012 0.043953 -0.135000
v 0.089999 0.000003 -0.135000
v 0.089999 0.000003 0.135000
v 0.089999 0.048003 0.135000
v 0.089999 0.048003 -0.135000
v 0.087005 0.004053 -0.132000
v 0.087012 0.043953 -0.132000
v 0.087005 0.004053 0.132000
v 0.087012 0.043953 0.132000
v -0.073251 0.004531 0.135000
v -0.075951 0.007239 0.135000
v -0.075951 0.007239 -0.135000
v -0.073251 0.004531 -0.135000
v -0.075951 0.040188 0.135000
v -0.073251 0.042905 0.135000
v -0.073251 0.042905 -0.135000
v -0.075951 0.040188 -0.135000
v -0.077301 0.046929 0.135000
v -0.080001 0.044212 0.135000
v -0.077301 0.000493 -0.135000
v -0.080001 0.003200 -0.135000
v -0.080001 0.003200 0.135000
v -0.077301 0.000493 0.135000
v -0.080001 0.044212 -0.135000
v -0.077301 0.046929 -0.135000
v -0.073251 0.042905 0.132000
v -0.075951 0.040188 0.132000
v -0.073251 0.004531 -0.132000
v -0.075951 0.007239 -0.132000
v -0.075951 0.007239 0.132000
v -0.073251 0.004531 0.132000
v -0.075951 0.040188 -0.132000
v -0.073251 0.042905 -0.132000
vn -1.0000 -0.0000 -0.0000
vn -0.0000 -0.0000 1.0000
vn -0.0029 -1.0000 -0.0000
vn 0.0032 -1.0000 -0.0016
vn 0.0065 -1.0000 -0.0033
vn -0.0000 -0.0000 -1.0000
vn 1.0000 -0.0015 -0.0000
vn 0.0065 -1.0000 0.0033
vn 0.0032 -1.0000 0.0016
vn 1.0000 0.0032 -0.0000
vn 1.0000 -0.0000 -0.0000
vn 0.0015 1.0000 0.0007
vn 0.0030 1.0000 0.0015
vn -0.0064 1.0000 -0.0000
vn 1.0000 -0.0002 -0.0000
vn 0.0015 1.0000 -0.0007
vn -0.7081 -0.7061 -0.0000
vn -0.7094 0.7048 -0.0000
vn 0.7094 -0.7048 -0.0000
vn 0.7081 0.7061 -0.0000
vn 0.0030 1.0000 -0.0015
vt 0.010417 0.275862
vt 0.000000 0.206897
vt 0.000000 0.275862
vt 0.000000 0.793103
vt 0.010417 0.275862
vt 0.000000 0.275862
vt 0.010417 0.206897
vt 0.000000 0.724138
vt 0.010417 0.724138
vt 0.010417 0.793103
vt 0.000000 0.724138
vt 0.010417 0.724138
vt 0.010417 0.982759
vt 0.010417 0.724138
vt 0.010417 0.017241
vt 0.010417 0.275862
vt 0.885417 0.017241
vt 0.000000 0.275862
vt 0.885417 0.982759
vt 0.000000 0.724138
vt 0.000000 0.206897
vt 0.998333 0.997222
vt 0.998333 0.191667
vt 0.000000 0.706897
vt 0.000000 0.793103
vt 0.908333 0.997222
vt 0.908333 0.191667
vt 0.010417 0.706897
vt 0.998333 0.808333
vt 0.998333 0.002778
vt 0.000000 0.293103
vt 0.010417 0.206897
vt 0.908333 0.808333
vt 0.010417 0.793103
vt 0.908333 0.002778
vt 0.010417 0.293103
vt 0.000000 0.534483
vt 0.000000 0.465517
vt 0.000000 0.017241
vt 0.000000 0.465517
vt 0.000000 0.534483
vt 0.000000 0.465517
vt 0.010417 0.465517
vt 0.000000 0.982759
vt 0.010417 0.465517
vt 0.000000 0.534483
vt 0.000000 0.465517
vt 0.010417 0.017241
vt 0.000000 0.534483
vt 0.010417 0.982759
vt 0.010417 0.534483
vt 0.000000 0.534483
vt 0.010417 0.534483
vt 0.000000 0.017241
vt 0.500000 0.017241
vt 0.489583 0.017241
vt 0.010417 0.465517
vt 0.010417 0.982759
vt 0.375000 0.982759
vt 0.010417 0.465517
vt 0.385417 0.982759
vt 0.385417 0.017241
vt 0.010417 0.534483
vt 0.375000 0.017241
vt 0.010417 0.017241
vt 0.010417 0.534483
vt 0.489583 0.982759
vt 0.000000 0.982759
vt 0.500000 0.982759
vt 0.906250 0.206897
vt 0.010417 0.534483
vt 0.916667 0.189655
vt 0.010417 0.534483
vt 0.996694 0.798116
vt 0.000000 0.465517
vt 0.990565 0.808333
vt 0.000000 0.465517
vt 0.989583 0.189655
vt 0.010417 0.465517
vt 0.996694 0.201884
vt 0.010417 0.465517
vt 0.916102 0.808333
vt 0.000000 0.534483
vt 0.909972 0.798117
vt 0.000000 0.534483
s 1
usemtl book_2
f 25/62/1 22/56/1 27/67/1 24/61/1
f 29/70/2 30/72/2 33/78/2 34/80/2 11/29/2 12/33/2
f 6/15/3 26/64/3 23/59/3 5/13/3
f 2/4/4 18/49/5 29/71/5 12/34/4
f 20/52/6 15/42/6 24/60/6 27/66/6
f 19/51/6 20/52/6 27/66/6 28/68/6
f 3/8/7 1/3/7 6/16/7 5/14/7
f 19/51/8 4/10/9 10/25/9 36/85/8
f 2/5/10 4/12/10 8/20/10 7/18/10
f 15/43/11 20/53/11 35/83/11 32/77/11
f 17/46/11 14/40/11 33/79/11 30/73/11
f 3/7/12 16/45/13 31/75/13 9/21/12
f 13/37/2 14/41/2 25/63/2 26/65/2
f 21/55/14 7/17/14 8/19/14 28/69/14
f 9/22/15 10/26/15 12/35/15 11/30/15
f 31/74/6 32/76/6 35/82/6 36/84/6 10/27/6 9/23/6
f 18/48/2 2/5/2 7/18/2 21/54/2
f 16/44/6 3/8/6 5/14/6 23/58/6
f 17/46/2 18/48/2 21/54/2 22/57/2
f 4/11/9 2/6/4 12/36/4 10/28/9
f 1/1/16 3/9/12 9/24/12 11/31/16
f 24/60/6 15/43/6 16/44/6 23/58/6
f 4/12/6 19/50/6 28/68/6 8/20/6
f 25/62/17 24/61/17 23/59/17 26/64/17
f 21/55/18 28/69/18 27/67/18 22/56/18
f 35/83/19 20/53/19 19/51/19 36/85/19
f 31/75/20 16/45/20 15/43/20 32/77/20
f 17/46/19 30/73/19 29/71/19 18/49/19
f 13/38/20 34/81/20 33/79/20 14/40/20
f 13/38/21 1/2/16 11/32/16 34/81/21
f 14/41/2 17/47/2 22/57/2 25/63/2
f 1/3/2 13/39/2 26/65/2 6/16/2
