# Blender 3.4.0
# www.blender.org
mtllib cardboard_box_2.mtl
o cardboard_box_2
v -0.360000 0.709200 0.360000
v -0.360000 0.005400 -0.360000
v -0.367200 0.704422 -0.360000
v 0.359034 0.000000 0.352977
v 0.352920 0.709200 -0.352899
v -0.360000 0.007200 0.360000
v 0.355617 0.712800 0.353268
v 0.353176 0.003600 -0.355024
v -0.363600 0.360000 0.365400
v 0.360000 0.360000 0.362877
v -0.360000 0.360000 -0.360000
v 0.360000 0.360000 -0.354871
v -0.221240 0.720000 0.360000
v -0.360000 0.720000 0.312870
v 0.360000 0.720000 0.239081
v 0.324140 0.720000 0.360000
v 0.233426 0.720000 -0.360000
v 0.360000 0.720000 -0.219476
v -0.132177 0.720000 -0.360000
v -0.360000 0.720000 -0.218681
v 0.360000 0.000000 0.277789
v 0.303674 0.000000 0.360000
v -0.360000 0.000000 0.315634
v -0.255677 0.000000 0.360000
v -0.291679 0.000000 -0.360000
v -0.360000 0.000000 -0.146528
v 0.189690 0.000000 -0.360000
v 0.360000 0.000000 -0.256716
v -0.356400 0.526915 -0.352800
v -0.360000 0.249679 -0.360000
v 0.351651 0.235770 -0.352878
v 0.362499 0.235038 0.360000
v -0.352800 0.235668 0.356400
v -0.354980 0.726187 0.000193
v 0.350877 0.726187 0.001082
v 0.350043 0.007492 0.000517
v -0.352736 0.007492 -0.001567
vn -0.0788 -0.9966 -0.0252
vn -0.0317 -0.9994 -0.0101
vn -0.0064 -0.9998 0.0176
vn 0.0947 0.9918 -0.0853
vn 0.0240 0.9995 -0.0217
vn 0.0213 0.9992 -0.0333
vn -0.9998 -0.0134 0.0156
vn -0.9996 -0.0178 0.0197
vn -0.9967 -0.0583 0.0572
vn 0.0023 0.0004 -1.0000
vn 0.0027 -0.0404 -0.9992
vn -0.0036 -0.0254 -0.9997
vn 0.9999 -0.0040 -0.0100
vn 0.9983 0.0205 -0.0546
vn 0.9995 0.0233 -0.0200
vn 0.0066 -0.0180 0.9998
vn 0.2154 0.0293 0.9761
vn 0.0941 0.0191 0.9954
vn 0.1258 -0.0315 0.9916
vn 0.0078 -0.0230 0.9997
vn 0.0516 -0.0090 0.9986
vn -0.0000 -0.0000 -1.0000
vn 0.0068 0.0011 -1.0000
vn 0.0037 0.0081 -1.0000
vn -0.0081 0.9997 0.0238
vn -0.0299 0.9945 0.1000
vn -0.0756 0.9719 0.2227
vn 0.0205 0.9996 0.0179
vn 0.0879 0.9958 0.0261
vn 0.2367 0.9691 0.0702
vn -0.0117 0.9998 -0.0189
vn -0.0222 0.9985 -0.0496
vn -0.0658 0.9922 -0.1060
vn -0.0000 -1.0000 -0.0000
vn -0.0003 -0.9999 -0.0129
vn -0.0260 -0.9985 0.0482
vn -0.0088 -0.9997 0.0207
vn -0.0680 -0.9848 0.1598
vn 0.0038 -1.0000 -0.0063
vn 0.0086 -1.0000 0.0049
vn 0.0232 -0.9990 -0.0382
vn -0.9995 0.0314 -0.0051
vn -0.9999 -0.0134 -0.0019
vn -0.9993 0.0331 -0.0150
vn 0.9976 0.0072 -0.0690
vn 0.9998 -0.0140 -0.0128
vn 0.9997 -0.0026 -0.0263
vn 0.0006 1.0000 -0.0029
vn -0.9999 -0.0150 -0.0027
vn -0.9999 0.0133 -0.0039
vn -0.9999 0.0110 -0.0049
vn -0.9998 -0.0199 0.0002
vn -0.9999 -0.0038 0.0122
vn -0.9997 -0.0247 0.0055
vn -1.0000 -0.0000 -0.0000
vn 0.0078 0.0169 -0.9998
vn 0.0092 -0.0074 -0.9999
vn 0.0119 0.0015 -0.9999
vn 0.0134 0.0123 -0.9998
vn 0.0302 0.0094 -0.9995
vn 0.9999 -0.0104 0.0001
vn 0.9998 -0.0145 -0.0104
vn 0.9999 -0.0048 -0.0165
vn 0.9998 -0.0151 0.0128
vn 0.0003 -0.0170 0.9999
vn -0.0013 -0.0195 0.9998
vn -0.0014 0.0104 0.9999
vn 0.0011 0.0157 0.9999
vn -0.9999 0.0103 0.0024
vn 0.0192 -0.0108 -0.9998
vn 0.0599 0.0069 -0.9982
vn 0.9997 0.0249 -0.0000
vn 0.9998 0.0097 0.0149
vn 0.9991 0.0135 0.0392
vn 0.0008 0.0128 0.9999
vn -0.0012 0.0155 0.9999
vn -1.0000 0.0021 0.0096
vn 1.0000 -0.0065 -0.0073
vn 0.0011 -1.0000 0.0064
vn 0.0011 -1.0000 0.0060
vt 0.000084 0.000000
vt 0.333417 0.000000
vt 1.000083 1.000000
vt 0.000084 1.000000
vt 1.000083 1.000000
vt 0.666750 1.000000
vt 0.333417 1.000000
vt 0.666750 1.000000
vt 0.000084 1.000000
vt 0.677749 0.000000
vt 0.333417 0.000000
vt 0.666750 0.000000
vt 0.333417 1.000000
vt 0.666750 0.000000
vt 0.000084 0.000000
vt 0.666750 0.000000
vt 0.677749 1.000000
vt 1.000083 0.000000
vt 0.333417 0.000000
vt 0.333417 1.000000
vt 0.666750 1.000000
vt 1.000083 0.000000
vt 0.844416 1.000000
vt 0.500084 0.000000
vt 0.833416 1.000000
vt 0.844416 0.000000
vt 0.500084 0.000000
vt 0.833416 0.000000
vt 0.833417 1.000000
vt 0.500084 1.000000
vt 0.833417 0.000000
vt 0.500084 1.000000
vt 0.064325 0.000000
vt 1.000083 0.807278
vt 0.000084 0.065458
vt 0.333417 0.065458
vt 0.333417 0.167943
vt 0.316815 0.000000
vt 1.000083 0.049806
vt 0.274818 1.000000
vt 0.666750 0.175797
vt 0.333417 0.804827
vt 0.105557 1.000000
vt 0.666750 0.683579
vt 0.000084 0.803724
vt 0.333417 0.803724
vt 0.666750 0.114182
vt 0.333417 0.114182
vt 0.677749 0.078230
vt 0.307340 0.000000
vt 0.666750 0.061620
vt 0.000084 0.061620
vt 0.677749 0.855107
vt 0.048382 0.000000
vt 0.031714 1.000000
vt 1.000083 0.905109
vt 0.666750 0.703511
vt 0.000084 0.703511
vt 0.254570 1.000000
vt 1.000083 0.236542
vt 0.333417 0.856549
vt 0.666750 0.856549
vt 0.754564 1.000000
vt 0.421231 1.000000
vt 0.551936 1.000000
vt 0.885269 1.000000
vt 0.891512 0.000000
vt 0.558179 1.000000
vt 0.786563 0.000000
vt 0.557936 0.000000
vt 0.785680 1.000000
vt 0.558819 0.000000
vt 0.000084 0.499731
vt 0.333417 0.499731
vt 0.333417 0.498497
vt 0.333417 0.499281
vt 0.666750 0.499281
vt 0.666750 0.502176
vt 0.000084 0.502176
s 1
usemtl cardboard_box_2
f 2/4/1 25/55/2 26/58/3
f 5/13/4 17/40/5 18/42/6
f 29/64/7 20/46/8 3/7/9
f 29/63/10 3/8/11 19/44/12
f 12/32/13 5/13/14 18/42/15
f 10/28/16 7/18/17 16/39/18
f 4/10/19 32/69/20 22/49/21
f 2/5/22 30/66/23 25/56/24
f 13/33/25 14/35/26 1/1/27
f 15/37/28 16/38/29 7/19/30
f 18/42/6 17/40/5 19/43/31 20/45/32
f 20/45/32 19/43/31 3/9/33
f 22/50/34 21/48/35 4/11/34
f 23/52/36 24/54/37 6/15/38
f 26/58/3 25/55/2 27/59/39 28/61/40
f 28/61/40 27/59/39 8/20/41
f 6/16/42 33/72/43 23/51/44
f 8/21/45 31/68/46 28/62/47
f 15/37/28 35/75/48 34/73/48 14/35/26
f 16/38/29 15/37/28 14/35/26 13/33/25
f 9/24/49 14/36/50 34/74/51 11/30/52
f 26/57/53 30/65/54 2/6/55
f 30/66/23 11/29/56 12/31/57 31/67/58
f 27/60/59 31/67/58 8/22/60
f 31/68/46 12/32/13 10/27/61 32/70/62
f 21/47/63 32/70/62 4/12/64
f 32/69/20 10/26/16 9/23/65 33/71/66
f 24/53/67 33/71/66 6/17/68
f 34/73/48 35/75/48 18/42/6 20/45/32
f 9/24/49 1/2/69 14/36/50
f 33/72/43 9/24/49 11/30/52 30/65/54
f 12/31/57 17/41/70 5/14/71
f 11/29/56 29/63/10 12/31/57
f 29/63/10 19/44/12 17/41/70 12/31/57
f 12/32/13 18/42/15 35/75/72 15/37/73
f 10/27/61 12/32/13 15/37/73
f 7/19/74 10/27/61 15/37/73
f 9/25/65 10/28/16 16/39/18 13/34/75
f 1/3/76 9/25/65 13/34/75
f 11/30/52 34/74/51 20/46/8 29/64/7
f 33/72/43 30/65/54 26/57/53 37/78/77
f 22/49/21 32/69/20 33/71/66 24/53/67
f 25/56/24 30/66/23 31/67/58 27/60/59
f 36/77/78 32/70/62 21/47/63
f 23/52/36 21/48/35 22/50/34 24/54/37
f 23/51/44 33/72/43 37/78/77
f 37/79/79 36/76/80 21/48/35 23/52/36
f 37/79/79 26/58/3 28/61/40 36/76/80
f 28/62/47 31/68/46 32/70/62 36/77/78
