# Blender 3.4.0
# www.blender.org
mtllib cash_2.mtl
o cash_2
v -0.064152 0.000000 0.142560
v -0.064152 0.039204 0.142560
v -0.064152 0.000000 -0.142560
v -0.064152 0.039204 -0.142560
v 0.064680 0.000000 0.142560
v 0.064680 0.039204 0.142560
v 0.064680 0.000000 -0.142560
v 0.064680 0.039204 -0.142560
v 0.000528 0.000000 -0.142560
v 0.000528 0.039204 -0.142560
v 0.000528 0.000000 0.142560
v 0.000528 0.039204 0.142560
vn -1.0000 -0.0000 -0.0000
vn -0.0000 -0.0000 -1.0000
vn 1.0000 -0.0000 -0.0000
vn -0.0000 -0.0000 1.0000
vn -0.0000 -1.0000 -0.0000
vn -0.0000 1.0000 -0.0000
vt 0.000000 0.000000
vt 0.000000 0.593750
vt 0.000000 0.140625
vt -0.000000 1.000000
vt 1.000000 0.000000
vt 1.000000 0.593750
vt 0.000000 0.000000
vt 1.000000 0.140625
vt 1.000000 1.000000
vt 0.000000 0.140625
vt -0.000000 0.000000
vt 0.000000 0.171875
vt 1.000000 0.000000
vt -0.000000 0.140625
vt 0.000000 0.578125
vt 1.000000 0.140625
vt 1.000000 0.000000
vt 1.000000 0.171875
vt 1.000000 0.140625
vt 1.000000 0.578125
vt 0.750000 0.000000
vt 1.000000 0.359375
vt 0.250000 0.000000
vt 0.750000 0.140625
vt 1.000000 0.781250
vt 0.250000 0.140625
vt 0.250000 0.000000
vt 0.000000 0.359375
vt 0.750000 0.000000
vt 0.250000 0.140625
vt 0.000000 0.781250
vt 0.750000 0.140625
s 0
usemtl cash_2
f 1/1/1 2/3/1 4/8/1 3/5/1
f 9/21/2 10/24/2 8/19/2 7/17/2
f 7/17/3 8/19/3 6/14/3 5/11/3
f 11/27/4 12/30/4 2/3/4 1/1/4
f 9/22/5 7/18/5 5/12/5 11/28/5
f 10/25/6 4/9/6 2/4/6 12/31/6
f 8/20/6 10/25/6 12/31/6 6/15/6
f 3/6/5 9/22/5 11/28/5 1/2/5
f 5/13/4 6/16/4 12/32/4 11/29/4
f 3/7/2 4/10/2 10/26/2 9/23/2
