# Blender 3.4.0
# www.blender.org
mtllib catwalk_1.mtl
o handrail_4
v -2.000000 0.609000 0.955000
v -2.000000 0.639000 0.955000
v -2.000000 0.609000 0.945000
v -2.000000 0.639000 0.945000
v 2.000000 0.609000 0.955000
v 2.000000 0.639000 0.955000
v 2.000000 0.609000 0.945000
v 2.000000 0.639000 0.945000
v -0.020001 0.059000 0.960000
v -0.020001 1.169000 0.960000
v -0.020001 0.059000 0.940000
v -0.020001 1.169000 0.940000
v 0.019999 0.059000 0.960000
v 0.019999 1.169000 0.960000
v 0.019999 0.059000 0.940000
v 0.019999 1.169000 0.940000
v -0.100001 1.199000 0.960000
v -0.100001 1.199000 0.940000
v 0.099999 1.199000 0.960000
v 0.099999 1.199000 0.940000
v -0.100001 1.209000 0.960000
v -0.100001 1.209000 0.940000
v 0.099999 1.209000 0.960000
v 0.099999 1.209000 0.940000
v -0.040001 0.059000 0.980000
v -0.040001 0.059000 0.920000
v 0.039999 0.059000 0.980000
v 0.039999 0.059000 0.920000
v -0.040001 0.049000 0.980000
v -0.040001 0.049000 0.920000
v 0.039999 0.049000 0.980000
v 0.039999 0.049000 0.920000
v 0.979999 0.059000 0.960000
v 0.979999 1.169000 0.960000
v 0.979999 0.059000 0.940000
v 0.979999 1.169000 0.940000
v 1.019999 0.059000 0.960000
v 1.019999 1.169000 0.960000
v 1.019999 0.059000 0.940000
v 1.019999 1.169000 0.940000
v 0.899999 1.199000 0.960000
v 0.899999 1.199000 0.940000
v 1.099999 1.199000 0.960000
v 1.099999 1.199000 0.940000
v 0.899999 1.209000 0.960000
v 0.899999 1.209000 0.940000
v 1.099999 1.209000 0.960000
v 1.099999 1.209000 0.940000
v 0.959999 0.059000 0.980000
v 0.959999 0.059000 0.920000
v 1.039999 0.059000 0.980000
v 1.039999 0.059000 0.920000
v 0.959999 0.049000 0.980000
v 0.959999 0.049000 0.920000
v 1.039999 0.049000 0.980000
v 1.039999 0.049000 0.920000
v -1.020001 0.059000 0.960000
v -1.020001 1.169000 0.960000
v -1.020001 0.059000 0.940000
v -1.020001 1.169000 0.940000
v -0.980001 0.059000 0.960000
v -0.980001 1.169000 0.960000
v -0.980001 0.059000 0.940000
v -0.980001 1.169000 0.940000
v -1.100001 1.199000 0.960000
v -1.100001 1.199000 0.940000
v -0.900001 1.199000 0.960000
v -0.900001 1.199000 0.940000
v -1.100001 1.209000 0.960000
v -1.100001 1.209000 0.940000
v -0.900001 1.209000 0.960000
v -0.900001 1.209000 0.940000
v -1.040001 0.059000 0.980000
v -1.040001 0.059000 0.920000
v -0.960001 0.059000 0.980000
v -0.960001 0.059000 0.920000
v -1.040001 0.049000 0.980000
v -1.040001 0.049000 0.920000
v -0.960001 0.049000 0.980000
v -0.960001 0.049000 0.920000
v -2.000001 1.229000 0.980000
v -2.000001 1.203019 0.965000
v -2.000001 1.214000 0.975981
v -2.000001 1.244000 0.975981
v -2.000001 1.254981 0.965000
v -2.000001 1.229000 0.920000
v -2.000001 1.199000 0.950000
v -2.000001 1.214000 0.924019
v -2.000001 1.203019 0.935000
v -2.000001 1.259000 0.950000
v -2.000001 1.254981 0.935000
v -2.000001 1.244000 0.924019
v 1.999999 1.229000 0.980000
v 1.999999 1.199000 0.950000
v 1.999999 1.214000 0.975981
v 1.999999 1.203019 0.965000
v 1.999999 1.259000 0.950000
v 1.999999 1.254981 0.965000
v 1.999999 1.244000 0.975981
v 1.999999 1.229000 0.920000
v 1.999999 1.203019 0.935000
v 1.999999 1.214000 0.924019
v 1.999999 1.244000 0.924019
v 1.999999 1.254981 0.935000
vn -0.0000 -0.0000 -1.0000
vn -0.0000 -0.0000 1.0000
vn -0.0000 -1.0000 -0.0000
vn -0.0000 1.0000 -0.0000
vn -1.0000 -0.0000 -0.0000
vn 1.0000 -0.0000 -0.0000
vn 0.3511 -0.9363 -0.0000
vn -0.3511 -0.9363 -0.0000
vn -0.0000 -0.8660 -0.5000
vn -0.0000 -0.5000 -0.8660
vn -0.0000 0.8660 -0.5000
vn -0.0000 0.5000 -0.8660
vn -0.0000 -0.8660 0.5000
vn -0.0000 -0.5000 0.8660
vn -0.0000 0.8660 0.5000
vn -0.0000 0.5000 0.8660
vt -1.500000 0.480000
vt -1.500000 0.495000
vt -1.500000 0.510000
vt -1.500000 0.495000
vt -1.500000 0.480000
vt -1.500000 0.505000
vt -1.500000 0.510000
vt -1.500000 0.505000
vt 2.500000 0.480000
vt 2.500000 0.495000
vt 2.500000 0.510000
vt 2.500000 0.495000
vt 2.500000 0.480000
vt 2.500000 0.505000
vt 2.500000 0.510000
vt 2.500000 0.505000
vt 0.490000 -0.070000
vt 0.479999 -0.070000
vt 0.479999 0.490000
vt 0.490000 1.040000
vt 0.479999 1.040000
vt 0.479999 0.490000
vt 0.510000 -0.070000
vt 0.479999 -0.070000
vt 0.479999 0.510000
vt 0.510000 1.040000
vt 0.479999 1.040000
vt 0.479999 0.510000
vt 0.490000 -0.070000
vt 0.519999 -0.070000
vt 0.519999 0.490000
vt 0.490000 1.040000
vt 0.519999 0.490000
vt 0.519999 1.040000
vt 0.519999 -0.070000
vt 0.510000 -0.070000
vt 0.519999 0.510000
vt 0.510000 1.040000
vt 0.519999 0.510000
vt 0.519999 1.040000
vt 0.490000 1.070000
vt 0.399999 1.070000
vt 0.399999 0.490000
vt 0.510000 1.070000
vt 0.399999 1.070000
vt 0.399999 0.510000
vt 0.599999 0.490000
vt 0.490000 1.070000
vt 0.599999 1.070000
vt 0.599999 0.510000
vt 0.510000 1.070000
vt 0.599999 1.070000
vt 0.399999 0.490000
vt 0.490000 1.080000
vt 0.399999 1.080000
vt 0.399999 0.510000
vt 0.510000 1.080000
vt 0.399999 1.080000
vt 0.490000 1.080000
vt 0.599999 0.490000
vt 0.599999 1.080000
vt 0.510000 1.080000
vt 0.599999 0.510000
vt 0.599999 1.080000
vt 0.459999 0.470000
vt 0.470000 -0.070000
vt 0.459999 -0.070000
vt 0.459999 0.530000
vt 0.530000 -0.070000
vt 0.459999 -0.070000
vt 0.470000 -0.070000
vt 0.539999 0.470000
vt 0.539999 -0.070000
vt 0.530000 -0.070000
vt 0.539999 0.530000
vt 0.539999 -0.070000
vt 0.459999 0.470000
vt 0.470000 -0.080000
vt 0.459999 -0.080000
vt 0.459999 0.530000
vt 0.530000 -0.080000
vt 0.459999 -0.080000
vt 0.470000 -0.080000
vt 0.539999 0.470000
vt 0.539999 -0.080000
vt 0.530000 -0.080000
vt 0.539999 0.530000
vt 0.539999 -0.080000
vt 0.490000 -0.070000
vt 1.479999 -0.070000
vt 1.479999 0.490000
vt 0.490000 1.040000
vt 1.479999 1.040000
vt 1.479999 0.490000
vt 0.510000 -0.070000
vt 1.479999 -0.070000
vt 1.479999 0.510000
vt 0.510000 1.040000
vt 1.479999 1.040000
vt 1.479999 0.510000
vt 0.490000 -0.070000
vt 1.519999 -0.070000
vt 1.519999 0.490000
vt 0.490000 1.040000
vt 1.519999 0.490000
vt 1.519999 1.040000
vt 1.519999 -0.070000
vt 0.510000 -0.070000
vt 1.519999 0.510000
vt 0.510000 1.040000
vt 1.519999 0.510000
vt 1.519999 1.040000
vt 0.490000 1.070000
vt 1.399999 1.070000
vt 1.399999 0.490000
vt 0.510000 1.070000
vt 1.399999 1.070000
vt 1.399999 0.510000
vt 1.599999 0.490000
vt 0.490000 1.070000
vt 1.599999 1.070000
vt 1.599999 0.510000
vt 0.510000 1.070000
vt 1.599999 1.070000
vt 1.399999 0.490000
vt 0.490000 1.080000
vt 1.399999 1.080000
vt 1.399999 0.510000
vt 0.510000 1.080000
vt 1.399999 1.080000
vt 0.490000 1.080000
vt 1.599999 0.490000
vt 1.599999 1.080000
vt 0.510000 1.080000
vt 1.599999 0.510000
vt 1.599999 1.080000
vt 1.459999 0.470000
vt 0.470000 -0.070000
vt 1.459999 -0.070000
vt 1.459999 0.530000
vt 0.530000 -0.070000
vt 1.459999 -0.070000
vt 0.470000 -0.070000
vt 1.539999 0.470000
vt 1.539999 -0.070000
vt 0.530000 -0.070000
vt 1.539999 0.530000
vt 1.539999 -0.070000
vt 1.459999 0.470000
vt 0.470000 -0.080000
vt 1.459999 -0.080000
vt 1.459999 0.530000
vt 0.530000 -0.080000
vt 1.459999 -0.080000
vt 0.470000 -0.080000
vt 1.539999 0.470000
vt 1.539999 -0.080000
vt 0.530000 -0.080000
vt 1.539999 0.530000
vt 1.539999 -0.080000
vt 0.490000 -0.070000
vt -0.520001 -0.070000
vt -0.520001 0.490000
vt 0.490000 1.040000
vt -0.520001 1.040000
vt -0.520001 0.490000
vt 0.510000 -0.070000
vt -0.520001 -0.070000
vt -0.520001 0.510000
vt 0.510000 1.040000
vt -0.520001 1.040000
vt -0.520001 0.510000
vt 0.490000 -0.070000
vt -0.480001 -0.070000
vt -0.480001 0.490000
vt 0.490000 1.040000
vt -0.480001 0.490000
vt -0.480001 1.040000
vt -0.480001 -0.070000
vt 0.510000 -0.070000
vt -0.480001 0.510000
vt 0.510000 1.040000
vt -0.480001 0.510000
vt -0.480001 1.040000
vt 0.490000 1.070000
vt -0.600001 1.070000
vt -0.600001 0.490000
vt 0.510000 1.070000
vt -0.600001 1.070000
vt -0.600001 0.510000
vt -0.400001 0.490000
vt 0.490000 1.070000
vt -0.400001 1.070000
vt -0.400001 0.510000
vt 0.510000 1.070000
vt -0.400001 1.070000
vt -0.600001 0.490000
vt 0.490000 1.080000
vt -0.600001 1.080000
vt -0.600001 0.510000
vt 0.510000 1.080000
vt -0.600001 1.080000
vt 0.490000 1.080000
vt -0.400001 0.490000
vt -0.400001 1.080000
vt 0.510000 1.080000
vt -0.400001 0.510000
vt -0.400001 1.080000
vt -0.540001 0.470000
vt 0.470000 -0.070000
vt -0.540001 -0.070000
vt -0.540001 0.530000
vt 0.530000 -0.070000
vt -0.540001 -0.070000
vt 0.470000 -0.070000
vt -0.460001 0.470000
vt -0.460001 -0.070000
vt 0.530000 -0.070000
vt -0.460001 0.530000
vt -0.460001 -0.070000
vt -0.540001 0.470000
vt 0.470000 -0.080000
vt -0.540001 -0.080000
vt -0.540001 0.530000
vt 0.530000 -0.080000
vt -0.540001 -0.080000
vt 0.470000 -0.080000
vt -0.460001 0.470000
vt -0.460001 -0.080000
vt 0.530000 -0.080000
vt -0.460001 0.530000
vt -0.460001 -0.080000
vt -0.023294 2.500000
vt -0.054352 2.500000
vt -0.038823 2.500000
vt -0.007765 2.500000
vt 0.007765 2.499999
vt 0.069881 2.499999
vt 0.116468 2.499998
vt -0.069881 2.500000
vt 0.085410 2.499998
vt 0.100939 2.499998
vt 0.023294 2.499999
vt 0.038823 2.499999
vt 0.054352 2.499999
vt -0.023294 -1.499998
vt 0.116468 -1.500000
vt -0.069881 -1.499998
vt -0.038823 -1.499998
vt -0.054352 -1.499998
vt 0.023294 -1.499999
vt 0.007765 -1.499999
vt -0.007765 -1.499999
vt 0.069881 -1.500000
vt 0.100939 -1.500000
vt 0.085410 -1.500000
vt 0.054352 -1.499999
vt 0.038823 -1.499999
s 0
usemtl metal_6
f 3/5/1 4/7/1 8/15/1 7/13/1
f 5/9/2 6/11/2 2/3/2 1/1/2
f 3/6/3 7/14/3 5/10/3 1/2/3
f 8/16/4 4/8/4 2/4/4 6/12/4
f 9/17/5 10/20/5 12/26/5 11/23/5
f 11/24/1 12/27/1 16/40/1 15/35/1
f 15/36/6 16/38/6 14/32/6 13/29/6
f 13/30/2 14/34/2 10/21/2 9/18/2
f 11/25/4 15/37/4 28/75/4 26/68/4
f 16/39/7 20/50/7 19/47/7 14/33/7
f 10/21/2 14/34/2 19/49/2 17/42/2
f 19/48/6 20/51/6 24/62/6 23/59/6
f 12/27/1 18/45/1 20/52/1 16/40/1
f 24/63/4 22/56/4 21/53/4 23/60/4
f 18/44/5 17/41/5 21/54/5 22/57/5
f 17/42/2 19/49/2 23/61/2 21/55/2
f 20/52/1 18/45/1 22/58/1 24/64/1
f 10/22/8 17/43/8 18/46/8 12/28/8
f 28/74/6 27/71/6 31/83/6 32/86/6
f 9/19/4 11/25/4 26/68/4 25/65/4
f 15/37/4 13/31/4 27/72/4 28/75/4
f 13/31/4 9/19/4 25/65/4 27/72/4
f 30/80/3 32/87/3 31/84/3 29/77/3
f 25/66/5 26/69/5 30/81/5 29/78/5
f 27/73/2 25/67/2 29/79/2 31/85/2
f 26/70/1 28/76/1 32/88/1 30/82/1
f 33/89/5 34/92/5 36/98/5 35/95/5
f 35/96/1 36/99/1 40/112/1 39/107/1
f 39/108/6 40/110/6 38/104/6 37/101/6
f 37/102/2 38/106/2 34/93/2 33/90/2
f 35/97/4 39/109/4 52/147/4 50/140/4
f 40/111/7 44/122/7 43/119/7 38/105/7
f 34/93/2 38/106/2 43/121/2 41/114/2
f 43/120/6 44/123/6 48/134/6 47/131/6
f 36/99/1 42/117/1 44/124/1 40/112/1
f 48/135/4 46/128/4 45/125/4 47/132/4
f 42/116/5 41/113/5 45/126/5 46/129/5
f 41/114/2 43/121/2 47/133/2 45/127/2
f 44/124/1 42/117/1 46/130/1 48/136/1
f 34/94/8 41/115/8 42/118/8 36/100/8
f 52/146/6 51/143/6 55/155/6 56/158/6
f 33/91/4 35/97/4 50/140/4 49/137/4
f 39/109/4 37/103/4 51/144/4 52/147/4
f 37/103/4 33/91/4 49/137/4 51/144/4
f 54/152/3 56/159/3 55/156/3 53/149/3
f 49/138/5 50/141/5 54/153/5 53/150/5
f 51/145/2 49/139/2 53/151/2 55/157/2
f 50/142/1 52/148/1 56/160/1 54/154/1
f 57/161/5 58/164/5 60/170/5 59/167/5
f 59/168/1 60/171/1 64/184/1 63/179/1
f 63/180/6 64/182/6 62/176/6 61/173/6
f 61/174/2 62/178/2 58/165/2 57/162/2
f 59/169/4 63/181/4 76/219/4 74/212/4
f 64/183/7 68/194/7 67/191/7 62/177/7
f 58/165/2 62/178/2 67/193/2 65/186/2
f 67/192/6 68/195/6 72/206/6 71/203/6
f 60/171/1 66/189/1 68/196/1 64/184/1
f 72/207/4 70/200/4 69/197/4 71/204/4
f 66/188/5 65/185/5 69/198/5 70/201/5
f 65/186/2 67/193/2 71/205/2 69/199/2
f 68/196/1 66/189/1 70/202/1 72/208/1
f 58/166/8 65/187/8 66/190/8 60/172/8
f 76/218/6 75/215/6 79/227/6 80/230/6
f 57/163/4 59/169/4 74/212/4 73/209/4
f 63/181/4 61/175/4 75/216/4 76/219/4
f 61/175/4 57/163/4 73/209/4 75/216/4
f 78/224/3 80/231/3 79/228/3 77/221/3
f 73/210/5 74/213/5 78/225/5 77/222/5
f 75/217/2 73/211/2 77/223/2 79/229/2
f 74/214/1 76/220/1 80/232/1 78/226/1
s 1
f 94/247/3 87/239/3 89/242/9 101/255/9
f 101/255/9 89/242/9 88/241/10 102/256/10
f 102/256/10 88/241/10 86/238/1 100/254/1
f 90/243/4 97/251/4 104/258/11 91/244/11
f 91/244/11 104/258/11 103/257/12 92/245/12
f 92/245/12 103/257/12 100/254/1 86/238/1
f 87/240/3 94/248/3 96/250/13 82/234/13
f 82/234/13 96/250/13 95/249/14 83/235/14
f 83/235/14 95/249/14 93/246/2 81/233/2
f 97/251/4 90/243/4 85/237/15 98/252/15
f 98/252/15 85/237/15 84/236/16 99/253/16
f 99/253/16 84/236/16 81/233/2 93/246/2
o catwalk_1
v -2.000000 0.000000 0.900000
v 2.000000 0.000000 0.900000
v -2.000000 0.000000 -0.900000
v 2.000000 0.000000 -0.900000
v 2.000000 -0.002000 0.900000
v -2.000000 -0.002000 0.900000
v 2.000000 -0.002000 -0.900000
v -2.000000 -0.002000 -0.900000
v -2.000001 -0.051000 -0.910000
v -2.000001 -0.041000 -0.900000
v -2.000001 0.039000 -0.900000
v -2.000001 0.049000 -0.910000
v -2.000001 -0.041000 -1.000000
v -2.000001 -0.051000 -0.990000
v -2.000001 0.049000 -0.990000
v -2.000001 0.039000 -1.000000
v 1.999999 -0.041000 -0.900000
v 1.999999 -0.051000 -0.910000
v 1.999999 0.049000 -0.910000
v 1.999999 0.039000 -0.900000
v 1.999999 -0.051000 -0.990000
v 1.999999 -0.041000 -1.000000
v 1.999999 0.039000 -1.000000
v 1.999999 0.049000 -0.990000
v -2.000001 -0.051000 0.990000
v -2.000001 -0.041000 1.000000
v -2.000001 0.039000 1.000000
v -2.000001 0.049000 0.990000
v -2.000001 -0.041000 0.900000
v -2.000001 -0.051000 0.910000
v -2.000001 0.049000 0.910000
v -2.000001 0.039000 0.900000
v 1.999999 -0.041000 1.000000
v 1.999999 -0.051000 0.990000
v 1.999999 0.049000 0.990000
v 1.999999 0.039000 1.000000
v 1.999999 -0.051000 0.910000
v 1.999999 -0.041000 0.900000
v 1.999999 0.039000 0.900000
v 1.999999 0.049000 0.910000
vn -0.0000 1.0000 -0.0000
vn -0.0000 -1.0000 -0.0000
vn -0.0000 -0.3827 0.9239
vn -0.0000 0.3827 0.9239
vn -0.0000 -0.9239 -0.3827
vn -0.0000 -0.9239 0.3827
vn -0.0000 0.9239 -0.3827
vn -0.0000 0.9239 0.3827
vn -0.0000 -0.3827 -0.9239
vn -0.0000 0.3827 -0.9239
vt -1.500000 -0.400000
vt 2.500000 -0.400000
vt -1.500000 1.400000
vt 2.500000 1.400000
vt 2.500000 -0.400000
vt -1.500000 -0.400000
vt 2.500000 1.400000
vt -1.500000 1.400000
vt -1.500000 0.450000
vt -1.500000 1.410000
vt -1.500000 0.460000
vt -1.500000 0.540000
vt -1.500000 1.410000
vt -1.500000 0.550000
vt -1.500000 0.460000
vt -1.500000 0.450000
vt -1.500000 1.490000
vt -1.500000 1.490000
vt -1.500000 0.550000
vt -1.500000 0.540000
vt 2.500000 0.460000
vt 2.500000 0.450000
vt 2.500000 1.410000
vt 2.500000 1.410000
vt 2.500000 0.550000
vt 2.500000 0.540000
vt 2.500000 0.450000
vt 2.500000 1.490000
vt 2.500000 0.460000
vt 2.500000 0.540000
vt 2.500000 1.490000
vt 2.500000 0.550000
vt -1.500000 -0.490000
vt -1.500000 0.450000
vt -1.500000 0.460000
vt -1.500000 0.540000
vt -1.500000 -0.490000
vt -1.500000 0.550000
vt -1.500000 0.460000
vt -1.500000 -0.410000
vt -1.500000 0.450000
vt -1.500000 -0.410000
vt -1.500000 0.550000
vt -1.500000 0.540000
vt 2.500000 0.460000
vt 2.500000 -0.490000
vt 2.500000 0.450000
vt 2.500000 -0.490000
vt 2.500000 0.550000
vt 2.500000 0.540000
vt 2.500000 -0.410000
vt 2.500000 0.450000
vt 2.500000 0.460000
vt 2.500000 0.540000
vt 2.500000 -0.410000
vt 2.500000 0.550000
s 0
usemtl metal_mesh_1
f 105/259/17 106/260/17 108/262/17 107/261/17
f 109/263/18 110/264/18 112/266/18 111/265/18
s 1
usemtl metal_6
f 121/279/19 124/284/20 115/270/20 114/269/19
f 134/298/21 141/309/21 138/304/22 129/291/22
f 128/289/23 119/276/23 116/271/24 123/282/24
f 117/273/25 120/278/26 127/288/26 126/287/25
f 137/303/19 140/308/20 131/294/20 130/293/19
f 144/313/23 135/300/23 132/295/24 139/306/24
f 133/297/25 136/302/26 143/312/26 142/311/25
f 125/285/21 118/274/21 117/273/25 126/287/25
f 119/277/23 128/290/23 127/288/26 120/278/26
f 113/267/22 122/280/22 121/279/19 114/269/19
f 123/283/24 116/272/24 115/270/20 124/284/20
f 141/310/21 134/299/21 133/297/25 142/311/25
f 135/301/23 144/314/23 143/312/26 136/302/26
f 129/292/22 138/305/22 137/303/19 130/293/19
f 139/307/24 132/296/24 131/294/20 140/308/20
f 118/275/21 125/286/21 122/281/22 113/268/22
