# Blender 3.4.0
# www.blender.org
mtllib cig_3.mtl
o cig_3
v 0.034999 -0.000000 0.000313
v 0.034999 0.002197 0.005616
v 0.034999 0.015000 0.000313
v 0.034999 0.007500 0.007813
v 0.034999 0.012803 0.005616
v 0.034999 0.002197 -0.004990
v 0.034999 0.007500 -0.007187
v 0.034999 0.012803 -0.004990
v -0.037858 0.007500 -0.010849
v -0.013572 0.007500 -0.007499
v 0.010713 0.007500 -0.006186
v -0.037858 0.002197 -0.007979
v -0.013572 0.002197 -0.005302
v 0.010713 0.002197 -0.003989
v 0.010713 0.012803 -0.003989
v -0.013572 0.012803 -0.005302
v -0.037858 0.012803 -0.008061
v -0.037858 -0.000000 -0.001249
v -0.013572 -0.000000 0.000001
v 0.010713 -0.000000 0.001314
v 0.010713 0.002197 0.006618
v -0.013572 0.002197 0.005305
v -0.037858 0.002197 0.005398
v 0.010713 0.015000 0.001314
v -0.013572 0.015000 0.000001
v -0.037858 0.015000 -0.001331
v -0.037858 0.012803 0.005398
v -0.013572 0.012803 0.005305
v 0.010713 0.012803 0.006618
v -0.037858 0.007500 0.008186
v -0.013572 0.007500 0.007501
v 0.010713 0.007500 0.008814
v -0.025715 0.007500 -0.006088
v -0.025715 0.002197 -0.003858
v -0.025715 0.012803 -0.003891
v -0.025715 -0.000000 0.001445
v -0.025715 0.002197 0.006716
v -0.025715 0.015000 0.001412
v -0.025715 0.012803 0.006716
v -0.025715 0.007500 0.008912
v -0.031787 0.012803 -0.006195
v -0.031787 0.002197 0.004412
v -0.031787 0.015000 -0.000891
v -0.031787 0.007500 -0.008391
v -0.031787 0.002197 -0.006146
v -0.031787 -0.000000 -0.000843
v -0.031787 0.012803 0.004412
v -0.031787 0.007500 0.006609
v -0.001429 0.007500 -0.005559
v -0.001429 0.002197 -0.003363
v -0.001429 0.012803 -0.003363
v -0.001429 -0.000000 0.001941
v -0.001429 0.002197 0.007244
v -0.001429 0.015000 0.001941
v -0.001429 0.012803 0.007244
v -0.001429 0.007500 0.009441
v 0.022856 0.007500 -0.007171
v 0.022856 0.002197 -0.004975
v 0.022856 -0.000000 0.000329
v 0.022856 0.012803 0.005632
v 0.022856 0.007500 0.007829
v 0.022856 0.012803 -0.004975
v 0.022856 0.002197 0.005632
v 0.022856 0.015000 0.000329
vn 0.6308 -0.0000 0.7760
vn 0.6299 0.5491 -0.5493
vn 0.6303 0.7764 -0.0002
vn 0.6306 0.5489 0.5487
vn -0.0008 1.0000 -0.0097
vn -0.0293 0.7021 -0.7115
vn 0.6298 -0.0000 -0.7768
vn -0.0407 -0.0000 -0.9992
vn -0.0008 -1.0000 -0.0097
vn 0.6303 -0.7764 -0.0002
vn 0.6306 -0.5489 0.5487
vn 0.0289 -0.7118 0.7018
vn 0.0415 -0.0000 0.9991
vn 0.6299 -0.5491 -0.5493
vn 0.0289 0.7118 0.7018
vn 0.0470 0.7048 0.7079
vn 0.0660 -0.0000 0.9978
vn -0.0386 0.6942 0.7187
vn -0.0148 0.7241 0.6895
vn -0.0221 -0.0000 0.9998
vn -0.0521 -0.0000 0.9986
vn -0.0734 0.7537 0.6531
vn -0.5879 0.5820 0.5618
vn -0.5330 -0.0000 0.8461
vn -0.0845 -0.0000 0.9964
vn 0.0005 1.0000 0.0036
vn -0.0028 0.9997 0.0255
vn 0.0014 0.9994 -0.0333
vn 0.0376 0.9987 -0.0354
vn -0.6283 0.7779 -0.0121
vn -0.0920 -0.6769 0.7303
vn -0.0146 -0.7239 0.6898
vn -0.1167 -0.0000 0.9932
vn -0.0386 -0.6942 0.7187
vn 0.0470 -0.7048 0.7079
vn -0.0152 -0.9981 0.0590
vn 0.0013 -0.9994 -0.0334
vn -0.0028 -0.9997 0.0255
vn 0.0005 -1.0000 0.0036
vn 0.0856 0.7351 -0.6726
vn 0.0155 0.6908 -0.7229
vn 0.0204 -0.0006 -0.9998
vn 0.1302 -0.0025 -0.9915
vn 0.0372 0.7197 -0.6933
vn -0.0467 0.7084 -0.7043
vn -0.0664 -0.0000 -0.9978
vn 0.0548 -0.0000 -0.9985
vn -0.0150 0.9982 0.0579
vn -0.0293 -0.7021 -0.7115
vn -0.0467 -0.7084 -0.7043
vn 0.0372 -0.7197 -0.6933
vn 0.0149 -0.6911 -0.7226
vn 0.2254 -0.7105 -0.6667
vn -0.5500 -0.5921 -0.5890
vn -0.4802 -0.0041 -0.8772
vn 0.3435 -0.0042 -0.9392
vn 0.0369 -0.9987 -0.0342
vn -0.6282 -0.7780 -0.0099
vn -0.5475 0.5896 -0.5938
vn -0.5880 -0.5810 0.5627
vn 0.0841 -0.7366 -0.6711
vn 0.2278 0.7077 -0.6688
vn -0.0731 -0.7525 0.6545
vn -0.0921 0.6774 0.7298
vt 0.504135 0.235968
vt 0.718144 0.645404
vt 0.622830 0.235968
vt 0.533809 0.235968
vt 0.747128 0.618125
vt 0.677155 0.552268
vt 0.504135 0.235968
vt 0.622830 0.235968
vt 0.747128 0.579547
vt 0.563483 0.235968
vt 0.718144 0.552268
vt 0.593156 0.235968
vt 0.677155 0.645404
vt 0.593156 0.235968
vt 0.648171 0.618125
vt 0.563483 0.235968
vt 0.533809 0.235968
vt 0.648171 0.579547
vt 0.748312 0.734761
vt 0.688483 0.449920
vt 0.563483 0.453546
vt 0.563483 0.344757
vt 0.718156 0.449920
vt 0.719567 0.761258
vt 0.593156 0.453546
vt 0.593156 0.344757
vt 0.533809 0.344757
vt 0.533809 0.453546
vt 0.748312 0.697058
vt 0.658809 0.449920
vt 0.747830 0.449920
vt 0.679507 0.761258
vt 0.629135 0.449920
vt 0.622830 0.453546
vt 0.504135 0.453546
vt 0.622830 0.344757
vt 0.504135 0.344757
vt 0.533809 0.344757
vt 0.533809 0.453546
vt 0.651599 0.734761
vt 0.658809 0.449920
vt 0.622830 0.344757
vt 0.504135 0.344757
vt 0.622830 0.453546
vt 0.504135 0.453546
vt 0.747830 0.449920
vt 0.719986 0.670397
vt 0.629135 0.449920
vt 0.718156 0.449920
vt 0.679926 0.670397
vt 0.593156 0.453546
vt 0.593156 0.344757
vt 0.651599 0.697058
vt 0.688483 0.449920
vt 0.563483 0.453546
vt 0.563483 0.344757
vt 0.563483 0.507940
vt 0.688483 0.395526
vt 0.593156 0.507940
vt 0.718156 0.395526
vt 0.533809 0.507940
vt 0.658809 0.395526
vt 0.504135 0.507940
vt 0.622830 0.507940
vt 0.629135 0.395526
vt 0.747830 0.395526
vt 0.533809 0.507940
vt 0.658809 0.395526
vt 0.504135 0.507940
vt 0.629135 0.395526
vt 0.622830 0.507940
vt 0.747830 0.395526
vt 0.593156 0.507940
vt 0.718156 0.395526
vt 0.563483 0.507940
vt 0.688483 0.395526
vt 0.658809 0.422723
vt 0.658809 0.422723
vt 0.629135 0.422723
vt 0.747830 0.422723
vt 0.688483 0.422723
vt 0.718156 0.422723
vt 0.629135 0.422723
vt 0.747830 0.422723
vt 0.718156 0.422723
vt 0.688483 0.422723
vt 0.563483 0.399151
vt 0.593156 0.399151
vt 0.533809 0.399151
vt 0.622830 0.399151
vt 0.504135 0.399151
vt 0.533809 0.399151
vt 0.504135 0.399151
vt 0.622830 0.399151
vt 0.593156 0.399151
vt 0.563483 0.399151
vt 0.563483 0.290363
vt 0.593156 0.290363
vt 0.622830 0.290363
vt 0.504135 0.290363
vt 0.593156 0.290363
vt 0.563483 0.290363
vt 0.533809 0.290363
vt 0.533809 0.290363
vt 0.622830 0.290363
vt 0.504135 0.290363
s 1
usemtl cigs_packet_1
f 4/9/1 8/18/2 3/6/3 5/11/4
f 64/106/5 3/7/3 8/17/2 62/103/6
f 62/103/6 8/17/2 7/16/7 57/97/8
f 59/100/9 1/1/10 2/4/11 63/104/12
f 63/104/12 2/4/11 4/10/1 61/102/13
f 2/5/11 7/15/7 8/18/2 4/9/1
f 1/2/10 6/13/14 7/15/7 2/5/11
f 60/101/15 29/52/16 32/56/17 61/102/13
f 55/95/18 28/51/19 31/55/20 56/96/21
f 47/85/22 27/49/23 30/54/24 48/86/25
f 64/105/5 24/42/26 29/52/16 60/101/15
f 54/94/27 25/44/28 28/51/19 55/95/18
f 43/80/29 26/46/30 27/49/23 47/85/22
f 37/67/31 22/39/32 31/55/20 40/75/33
f 53/92/34 21/38/35 32/56/17 56/96/21
f 36/63/36 19/35/37 22/39/32 37/67/31
f 52/91/38 20/37/39 21/38/35 53/92/34
f 35/61/40 16/28/41 10/21/42 33/57/43
f 51/89/44 15/27/45 11/22/46 49/87/47
f 38/69/48 25/45/28 16/28/41 35/61/40
f 54/93/27 24/43/26 15/27/45 51/89/44
f 58/98/49 14/26/50 11/22/46 57/97/8
f 50/88/51 13/25/52 10/21/42 49/87/47
f 45/82/53 12/23/54 9/20/55 44/81/56
f 59/99/9 20/36/39 14/26/50 58/98/49
f 52/90/38 19/34/37 13/25/52 50/88/51
f 46/84/57 18/31/58 12/23/54 45/82/53
f 27/50/23 26/47/30 17/29/59 30/53/24
f 23/40/60 9/19/55 12/24/54 18/32/58
f 30/53/24 17/29/59 9/19/55 23/40/60
f 19/34/37 36/64/36 34/59/61 13/25/52
f 13/25/52 34/59/61 33/57/43 10/21/42
f 43/79/29 38/70/48 35/62/40 41/77/62
f 41/77/62 35/62/40 33/58/43 44/81/56
f 46/83/57 36/65/36 37/68/31 42/78/63
f 42/78/63 37/68/31 40/76/33 48/86/25
f 25/44/28 38/71/48 39/73/64 28/51/19
f 28/51/19 39/73/64 40/75/33 31/55/20
f 23/41/60 42/78/63 48/86/25 30/54/24
f 18/33/58 46/83/57 42/78/63 23/41/60
f 17/30/59 41/77/62 44/81/56 9/20/55
f 26/48/30 43/79/29 41/77/62 17/30/59
f 36/66/36 46/84/57 45/82/53 34/60/61
f 34/60/61 45/82/53 44/81/56 33/58/43
f 38/72/48 43/80/29 47/85/22 39/74/64
f 39/74/64 47/85/22 48/86/25 40/76/33
f 20/36/39 52/90/38 50/88/51 14/26/50
f 14/26/50 50/88/51 49/87/47 11/22/46
f 25/45/28 54/93/27 51/89/44 16/28/41
f 16/28/41 51/89/44 49/87/47 10/21/42
f 19/35/37 52/91/38 53/92/34 22/39/32
f 22/39/32 53/92/34 56/96/21 31/55/20
f 24/42/26 54/94/27 55/95/18 29/52/16
f 29/52/16 55/95/18 56/96/21 32/56/17
f 1/3/10 59/99/9 58/98/49 6/14/14
f 6/14/14 58/98/49 57/97/8 7/16/7
f 3/8/3 64/105/5 60/101/15 5/12/4
f 5/12/4 60/101/15 61/102/13 4/10/1
f 21/38/35 63/104/12 61/102/13 32/56/17
f 20/37/39 59/100/9 63/104/12 21/38/35
f 15/27/45 62/103/6 57/97/8 11/22/46
f 24/43/26 64/106/5 62/103/6 15/27/45
