# Blender 3.4.0
# www.blender.org
mtllib concrete_block_1.mtl
o concrete_block_1
v -0.211680 0.004320 0.108000
v -0.216000 0.004320 0.103680
v -0.211680 0.211680 0.108000
v -0.216000 0.211680 0.103680
v -0.216000 0.004320 -0.103680
v -0.211680 0.004320 -0.108000
v -0.211680 0.211680 -0.108000
v -0.216000 0.211680 -0.103680
v 0.216000 0.004320 0.103680
v 0.211680 0.004320 0.108000
v 0.216000 0.211680 0.103680
v 0.211680 0.211680 0.108000
v 0.211680 0.004320 -0.108000
v 0.216000 0.004320 -0.103680
v 0.211680 0.211680 -0.108000
v 0.216000 0.211680 -0.103680
v -0.033991 0.000000 -0.069120
v -0.034560 0.004320 -0.064800
v -0.019534 0.000000 -0.060627
v -0.023336 0.004320 -0.058320
v -0.025844 0.000000 -0.066937
v -0.028080 0.004320 -0.063064
v -0.017182 0.000000 -0.051840
v -0.021600 0.004320 -0.051840
v 0.021600 0.004320 -0.051840
v 0.017181 0.000000 -0.051840
v 0.025844 0.000000 -0.066937
v 0.028080 0.004320 -0.063064
v 0.033991 0.000000 -0.069120
v 0.034560 0.004320 -0.064800
v 0.019534 0.000000 -0.060627
v 0.023336 0.004320 -0.058320
v 0.172876 0.000000 -0.066937
v 0.170640 0.004320 -0.063064
v 0.179257 0.000000 0.060556
v 0.175384 0.004320 0.058320
v 0.177120 0.004320 0.051840
v 0.181440 0.000000 0.052409
v 0.177120 0.004320 -0.051840
v 0.181440 0.000000 -0.052409
v 0.179257 0.000000 -0.060556
v 0.175384 0.004320 -0.058320
v 0.164729 0.000000 0.069120
v 0.164160 0.004320 0.064800
v 0.172876 0.000000 0.066937
v 0.170640 0.004320 0.063064
v 0.164729 0.000000 -0.069120
v 0.164160 0.004320 -0.064800
v -0.181440 0.000000 0.052409
v -0.177120 0.004320 0.051840
v -0.175384 0.004320 0.058320
v -0.179112 0.000000 0.061097
v -0.181440 0.000000 -0.052409
v -0.177120 0.004320 -0.051840
v -0.179112 0.000000 -0.061097
v -0.175384 0.004320 -0.058320
v -0.173916 0.000000 -0.066309
v -0.170640 0.004320 -0.063064
v -0.173916 0.000000 0.066309
v -0.170640 0.004320 0.063064
v -0.164160 0.004320 0.064800
v -0.163476 0.000000 0.069120
v -0.164160 0.004320 -0.064800
v -0.163476 0.000000 -0.069120
v -0.025844 0.000000 0.066937
v -0.028080 0.004320 0.063064
v 0.021600 0.004320 0.051840
v 0.017181 0.000000 0.051840
v -0.017182 0.000000 0.051840
v -0.021600 0.004320 0.051840
v -0.019534 0.000000 0.060627
v -0.023336 0.004320 0.058320
v -0.034560 0.004320 0.064800
v -0.033991 0.000000 0.069120
v 0.023336 0.004320 0.058320
v 0.019534 0.000000 0.060627
v 0.033991 0.000000 0.069120
v 0.034560 0.004320 0.064800
v 0.025844 0.000000 0.066937
v 0.028080 0.004320 0.063064
v -0.181440 0.216000 0.052409
v -0.177120 0.211680 0.051840
v -0.179112 0.216000 0.061097
v -0.175384 0.211680 0.058320
v -0.177120 0.211680 -0.051840
v -0.181440 0.216000 -0.052409
v -0.175384 0.211680 -0.058320
v -0.179112 0.216000 -0.061097
v -0.170640 0.211680 0.063064
v -0.173916 0.216000 0.066309
v -0.170640 0.211680 -0.063064
v -0.173916 0.216000 -0.066309
v -0.163476 0.216000 0.069120
v -0.164160 0.211680 0.064800
v -0.164160 0.211680 -0.064800
v -0.163476 0.216000 -0.069120
v -0.025844 0.216000 -0.066937
v -0.028080 0.211680 -0.063064
v -0.017182 0.216000 -0.051840
v -0.021600 0.211680 -0.051840
v -0.034560 0.211680 -0.064800
v -0.033991 0.216000 -0.069120
v -0.019534 0.216000 -0.060627
v -0.023336 0.211680 -0.058320
v 0.019534 0.216000 -0.060627
v 0.023336 0.211680 -0.058320
v 0.033991 0.216000 -0.069120
v 0.034560 0.211680 -0.064800
v 0.021600 0.211680 -0.051840
v 0.017181 0.216000 -0.051840
v 0.025844 0.216000 -0.066937
v 0.028080 0.211680 -0.063064
v -0.033991 0.216000 0.069120
v -0.034560 0.211680 0.064800
v -0.019534 0.216000 0.060627
v -0.023336 0.211680 0.058320
v -0.028080 0.211680 0.063064
v -0.025844 0.216000 0.066937
v -0.021600 0.211680 0.051840
v -0.017182 0.216000 0.051840
v 0.017181 0.216000 0.051840
v 0.021600 0.211680 0.051840
v 0.025844 0.216000 0.066937
v 0.028080 0.211680 0.063064
v 0.019534 0.216000 0.060627
v 0.023336 0.211680 0.058320
v 0.033991 0.216000 0.069120
v 0.034560 0.211680 0.064800
v 0.172876 0.216000 0.066937
v 0.170640 0.211680 0.063064
v 0.179257 0.216000 -0.060556
v 0.175384 0.211680 -0.058320
v 0.181440 0.216000 0.052409
v 0.177120 0.211680 0.051840
v 0.177120 0.211680 -0.051840
v 0.181440 0.216000 -0.052409
v 0.175384 0.211680 0.058320
v 0.179257 0.216000 0.060556
v 0.164160 0.211680 0.064800
v 0.164729 0.216000 0.069120
v 0.164160 0.211680 -0.064800
v 0.164729 0.216000 -0.069120
v 0.170640 0.211680 -0.063064
v 0.172876 0.216000 -0.066937
vn 0.9239 -0.0000 -0.3827
vn 0.9239 -0.0000 0.3827
vn 0.1305 -0.0000 0.9914
vn -0.1305 -0.0000 0.9914
vn -0.9239 -0.0000 0.3827
vn -0.9239 -0.0000 -0.3827
vn -0.0737 0.9965 0.0389
vn -0.1152 0.9933 0.0060
vn -0.1152 0.9933 -0.0060
vn -0.0737 0.9965 -0.0389
vn -0.9914 -0.0000 0.1305
vn -0.9914 -0.0000 -0.1305
vn -0.3827 -0.0000 -0.9239
vn 0.3827 -0.0000 -0.9239
vn -0.8660 -0.0000 -0.5000
vn -0.5000 -0.0000 -0.8660
vn 0.9914 -0.0000 0.1305
vn 0.8660 -0.0000 0.5000
vn 0.5000 -0.0000 -0.8660
vn 0.8660 -0.0000 -0.5000
vn -0.5000 -0.0000 0.8660
vn 0.9914 -0.0000 -0.1305
vn -0.8660 -0.0000 0.5000
vn 0.5000 -0.0000 0.8660
vn -0.1305 -0.0000 -0.9914
vn 0.1305 -0.0000 -0.9914
vn -0.0000 -1.0000 -0.0000
vn -0.0000 1.0000 -0.0000
vn -0.0365 -0.9967 0.0724
vn -0.0062 -0.9947 0.1028
vn -0.0000 -0.9948 0.1020
vn -0.0365 0.9967 0.0724
vn -0.0365 0.9969 0.0703
vn -0.0748 0.9965 0.0363
vn -0.0365 -0.9967 -0.0724
vn -0.0000 -0.9948 -0.1020
vn -0.0062 -0.9947 -0.1028
vn -0.3827 -0.0000 0.9239
vn 0.3827 -0.0000 0.9239
vn -0.0365 -0.9969 0.0703
vn -0.6046 -0.7172 0.3465
vn -0.3474 -0.7193 0.6017
vn -0.6027 -0.7172 0.3497
vn -0.6964 -0.7124 0.0866
vn -0.6957 -0.7117 0.0976
vn 0.3474 -0.7193 0.6017
vn 0.0919 -0.7101 0.6980
vn 0.6964 -0.7124 0.0866
vn 0.6027 -0.7172 0.3497
vn 0.6046 -0.7172 0.3465
vn 0.6957 -0.7117 0.0976
vn -0.6017 -0.7193 -0.3474
vn -0.6980 -0.7101 -0.0919
vn -0.6980 -0.7101 0.0919
vn -0.6017 -0.7193 0.3474
vn -0.0919 -0.7101 -0.6980
vn -0.3474 -0.7193 -0.6017
vn -0.0919 -0.7101 0.6980
vn 0.6980 -0.7101 -0.0919
vn 0.5981 -0.7297 -0.3314
vn 0.5871 -0.7309 -0.3481
vn 0.6980 -0.7101 0.0919
vn 0.5871 -0.7309 0.3481
vn 0.5981 -0.7297 0.3314
vn 0.3272 -0.7136 -0.6194
vn 0.1074 -0.6942 -0.7117
vn 0.0826 -0.6979 -0.7114
vn 0.3637 -0.7198 -0.5912
vn 0.1074 -0.6942 0.7117
vn 0.0826 -0.6979 0.7114
vn 0.6957 -0.7117 -0.0976
vn 0.6964 -0.7124 -0.0866
vn -0.6046 -0.7172 -0.3465
vn -0.6027 -0.7172 -0.3497
vn 0.6046 -0.7172 -0.3465
vn 0.6027 -0.7172 -0.3497
vn 0.0919 -0.7101 -0.6980
vn 0.3474 -0.7193 -0.6017
vn 0.6980 0.7101 -0.0919
vn 0.5871 0.7309 -0.3481
vn 0.5981 0.7297 -0.3314
vn 0.6980 0.7101 0.0919
vn 0.5981 0.7297 0.3314
vn 0.5871 0.7309 0.3481
vn 0.3272 0.7136 0.6194
vn 0.3637 0.7198 0.5912
vn 0.3637 0.7198 -0.5912
vn 0.0826 0.6979 -0.7114
vn 0.1074 0.6942 -0.7117
vn 0.3272 0.7136 -0.6194
vn 0.1074 0.6942 0.7117
vn 0.0826 0.6979 0.7114
vn -0.0919 0.7101 0.6980
vn -0.3474 0.7193 0.6017
vn -0.6046 0.7172 0.3465
vn -0.6027 0.7172 0.3497
vn 0.6046 0.7172 0.3465
vn 0.3474 0.7193 0.6017
vn 0.6027 0.7172 0.3497
vn -0.0919 0.7101 -0.6980
vn -0.6046 0.7172 -0.3465
vn -0.3474 0.7193 -0.6017
vn -0.6027 0.7172 -0.3497
vn -0.6957 0.7117 0.0976
vn -0.6957 0.7117 -0.0976
vn -0.6964 0.7124 -0.0866
vn -0.6964 0.7124 0.0866
vn 0.6964 0.7124 0.0866
vn 0.6964 0.7124 -0.0866
vn 0.6957 0.7117 -0.0976
vn 0.6957 0.7117 0.0976
vn 0.6027 0.7172 -0.3497
vn 0.6046 0.7172 -0.3465
vn -0.6017 0.7193 0.3474
vn -0.6980 0.7101 0.0919
vn -0.6980 0.7101 -0.0919
vn -0.6017 0.7193 -0.3474
vn 0.0919 0.7101 0.6980
vn -0.0748 0.9965 -0.0363
vn -0.0365 0.9969 -0.0703
vn -0.0365 0.9967 -0.0724
vn 0.3637 -0.7198 0.5912
vn 0.3272 -0.7136 0.6194
vn 0.3474 0.7193 -0.6017
vn -0.6964 -0.7124 -0.0866
vn -0.6957 -0.7117 -0.0976
vn 0.0919 0.7101 -0.6980
vn -0.0737 -0.9965 -0.0389
vn -0.0365 -0.9969 -0.0703
vn -0.0748 -0.9965 -0.0363
vn 0.0364 0.9967 0.0721
vn 0.0362 0.9968 0.0707
vn 0.0063 0.9947 0.1029
vn 0.0364 0.9967 -0.0721
vn -0.0000 0.9948 -0.1020
vn 0.0063 0.9947 -0.1029
vn 0.0734 0.9965 0.0389
vn 0.1152 0.9933 0.0060
vn 0.0748 0.9965 0.0361
vn -0.0000 0.9948 0.1020
vn 0.0362 0.9968 -0.0707
vn 0.0748 0.9965 -0.0361
vn 0.0734 0.9965 -0.0389
vn 0.1152 0.9933 -0.0060
vn -0.0062 0.9947 -0.1028
vn -0.0062 0.9947 0.1028
vn 0.0063 -0.9947 0.1029
vn 0.0362 -0.9968 0.0707
vn 0.0364 -0.9967 0.0721
vn 0.0748 -0.9965 0.0361
vn 0.0734 -0.9965 0.0389
vn 0.1152 -0.9933 0.0060
vn 0.1152 -0.9933 -0.0060
vn 0.0734 -0.9965 -0.0389
vn 0.0748 -0.9965 -0.0361
vn 0.0362 -0.9968 -0.0707
vn 0.0364 -0.9967 -0.0721
vn 0.0063 -0.9947 -0.1029
vn -0.1152 -0.9933 0.0060
vn -0.0748 -0.9965 0.0363
vn -0.0737 -0.9965 0.0389
vn -0.1152 -0.9933 -0.0060
vt 0.010000 0.010000
vt 0.009946 0.500000
vt 0.260000 0.010000
vt 0.000000 0.010000
vt -0.000054 0.510000
vt 0.010000 0.490000
vt 0.009946 0.500000
vt 0.260000 0.490000
vt 0.000000 0.490000
vt -0.000054 0.510000
vt 0.740000 0.010000
vt -0.000054 0.990000
vt 0.010000 0.010000
vt 0.750000 0.010000
vt 0.009946 1.000000
vt 0.010000 0.490000
vt 0.750000 0.490000
vt 0.009946 1.000000
vt 0.740000 0.490000
vt -0.000054 0.990000
vt 0.260000 0.010000
vt 1.000000 0.010000
vt 0.999946 0.510000
vt 0.990000 0.010000
vt 0.989946 0.500000
vt 0.260000 0.490000
vt 1.000000 0.490000
vt 0.999946 0.510000
vt 0.990000 0.490000
vt 0.989946 0.500000
vt 0.990000 0.010000
vt 0.750000 0.010000
vt 0.989946 1.000000
vt 0.740000 0.010000
vt 0.999946 0.990000
vt 0.990000 0.490000
vt 0.750000 0.490000
vt 0.989946 1.000000
vt 0.740000 0.490000
vt 0.999946 0.990000
vt 0.421263 0.910000
vt 0.549114 0.007400
vt 0.420000 0.900000
vt 0.454729 0.890340
vt 0.261185 0.008064
vt 0.445981 0.885000
vt 0.440123 0.904947
vt 0.564241 0.007400
vt 0.250080 0.008064
vt 0.435000 0.895981
vt 0.460174 0.870000
vt 0.276356 0.008064
vt 0.450000 0.870000
vt 0.276356 0.008064
vt 0.550000 0.870000
vt 0.539718 0.870000
vt 0.559770 0.904947
vt 0.231433 0.007400
vt 0.250080 0.008064
vt 0.565000 0.895981
vt 0.578630 0.910000
vt 0.246560 0.007400
vt 0.580000 0.900000
vt 0.545163 0.890340
vt 0.261185 0.008064
vt 0.554019 0.885000
vt 0.900123 0.904947
vt 0.564241 0.007400
vt 0.250080 0.008064
vt 0.895000 0.895981
vt 0.914893 0.609824
vt 0.534260 0.008064
vt 0.905981 0.615000
vt 0.519089 0.008064
vt 0.910000 0.630000
vt 0.919946 0.628683
vt 0.276356 0.008064
vt 0.910000 0.870000
vt 0.919946 0.871317
vt 0.914893 0.890176
vt 0.261185 0.008064
vt 0.905981 0.885000
vt 0.881263 0.590000
vt 0.549113 0.007400
vt 0.880000 0.600000
vt 0.900123 0.595053
vt 0.564241 0.007400
vt 0.545366 0.008064
vt 0.895000 0.604019
vt 0.881263 0.910000
vt 0.549113 0.007400
vt 0.880000 0.900000
vt 0.079946 0.628684
vt 0.519089 0.008064
vt 0.090000 0.630000
vt 0.534260 0.008064
vt 0.094019 0.615000
vt 0.085335 0.608571
vt 0.079946 0.871316
vt 0.276356 0.008064
vt 0.090000 0.870000
vt 0.085335 0.891429
vt 0.261185 0.008064
vt 0.094019 0.885000
vt 0.097363 0.903493
vt 0.231433 0.007400
vt 0.250080 0.008064
vt 0.105000 0.895981
vt 0.097363 0.596507
vt 0.545366 0.008064
vt 0.231433 0.007400
vt 0.105000 0.604019
vt 0.246561 0.007400
vt 0.120000 0.600000
vt 0.121584 0.590000
vt 0.246561 0.007400
vt 0.120000 0.900000
vt 0.121530 0.910000
vt 0.440123 0.595053
vt 0.545366 0.008064
vt 0.564241 0.007400
vt 0.435000 0.604019
vt 0.519089 0.008064
vt 0.550000 0.630000
vt 0.539718 0.630000
vt 0.460174 0.630000
vt 0.519089 0.008064
vt 0.450000 0.630000
vt 0.454729 0.609660
vt 0.534260 0.008064
vt 0.445981 0.615000
vt 0.549114 0.007400
vt 0.420000 0.600000
vt 0.421263 0.590000
vt 0.534260 0.008064
vt 0.554019 0.615000
vt 0.545163 0.609660
vt 0.578630 0.590000
vt 0.246560 0.007400
vt 0.580000 0.600000
vt 0.559770 0.595053
vt 0.545366 0.008064
vt 0.231433 0.007400
vt 0.565000 0.604019
vt 0.079946 0.628684
vt 0.519089 0.493530
vt 0.090000 0.630000
vt 0.085335 0.608571
vt 0.534260 0.493530
vt 0.094019 0.615000
vt 0.276356 0.493530
vt 0.090000 0.870000
vt 0.079946 0.871316
vt 0.261185 0.493530
vt 0.094019 0.885000
vt 0.085335 0.891429
vt 0.545366 0.493530
vt 0.231433 0.491484
vt 0.105000 0.604019
vt 0.097363 0.596507
vt 0.231433 0.491484
vt 0.250080 0.493530
vt 0.105000 0.895981
vt 0.097363 0.903493
vt 0.121531 0.590000
vt 0.246561 0.491484
vt 0.120000 0.600000
vt 0.246561 0.491484
vt 0.120000 0.900000
vt 0.121530 0.910000
vt 0.440123 0.904947
vt 0.564241 0.491484
vt 0.250080 0.493530
vt 0.435000 0.895981
vt 0.460174 0.870000
vt 0.276356 0.493530
vt 0.450000 0.870000
vt 0.549114 0.491484
vt 0.420000 0.900000
vt 0.421263 0.910000
vt 0.454729 0.890340
vt 0.261185 0.493530
vt 0.445981 0.885000
vt 0.545163 0.890340
vt 0.261185 0.493530
vt 0.554019 0.885000
vt 0.578630 0.910000
vt 0.246560 0.491484
vt 0.580000 0.900000
vt 0.276356 0.493530
vt 0.550000 0.870000
vt 0.539718 0.870000
vt 0.559770 0.904947
vt 0.231433 0.491484
vt 0.250080 0.493530
vt 0.565000 0.895981
vt 0.421263 0.590000
vt 0.549114 0.491484
vt 0.420000 0.600000
vt 0.454729 0.609660
vt 0.534260 0.493530
vt 0.445981 0.615000
vt 0.545366 0.493530
vt 0.564241 0.491484
vt 0.435000 0.604019
vt 0.440123 0.595053
vt 0.519089 0.493530
vt 0.450000 0.630000
vt 0.460174 0.630000
vt 0.539718 0.630000
vt 0.519089 0.493530
vt 0.550000 0.630000
vt 0.559770 0.595053
vt 0.545366 0.493530
vt 0.231433 0.491484
vt 0.565000 0.604019
vt 0.545163 0.609660
vt 0.534260 0.493530
vt 0.554019 0.615000
vt 0.578630 0.590000
vt 0.246560 0.491484
vt 0.580000 0.600000
vt 0.900123 0.595053
vt 0.564241 0.491484
vt 0.545366 0.493530
vt 0.895000 0.604019
vt 0.914893 0.890176
vt 0.261185 0.493530
vt 0.905981 0.885000
vt 0.919946 0.628683
vt 0.519089 0.493530
vt 0.910000 0.630000
vt 0.276356 0.493530
vt 0.910000 0.870000
vt 0.919946 0.871317
vt 0.534260 0.493530
vt 0.905981 0.615000
vt 0.914893 0.609824
vt 0.549113 0.491484
vt 0.880000 0.600000
vt 0.881263 0.590000
vt 0.549113 0.491484
vt 0.880000 0.900000
vt 0.881263 0.910000
vt 0.564241 0.491484
vt 0.250080 0.493530
vt 0.895000 0.895981
vt 0.900123 0.904947
s 1
usemtl concrete_block_1
f 14/34/1 16/39/1 11/26/2 9/21/2
f 95/168/3 63/116/3 18/42/4 101/178/4
f 2/3/5 4/8/5 8/19/6 5/11/6
f 4/10/7 81/145/8 86/153/9 8/20/10
f 24/52/11 70/127/12 119/207/12 100/176/11
f 6/13/13 7/16/13 15/36/14 13/31/14
f 72/130/15 66/120/16 117/203/16 116/201/15
f 109/190/17 25/54/17 32/65/18 106/185/18
f 60/110/19 51/96/20 84/149/20 89/157/19
f 101/178/4 18/42/4 22/48/21 98/172/21
f 84/149/20 51/96/20 50/94/22 82/146/22
f 42/81/23 39/77/11 135/233/11 132/228/23
f 112/194/24 28/58/24 30/62/3 108/188/3
f 141/242/4 48/91/4 34/68/21 143/245/21
f 73/132/25 61/113/26 94/166/26 114/198/25
f 85/151/17 54/100/17 56/103/18 87/154/18
f 82/146/22 50/94/22 54/100/17 85/151/17
f 61/113/26 60/111/19 89/158/19 94/166/26
f 91/161/24 58/106/24 63/116/3 95/168/3
f 87/154/18 56/103/18 58/107/24 91/162/24
f 69/126/27 23/51/27 26/56/27 68/125/27
f 20/45/23 24/52/11 100/176/11 104/182/23
f 98/173/21 22/49/21 20/45/23 104/182/23
f 126/218/20 75/135/20 67/123/22 122/211/22
f 66/121/16 73/132/25 114/198/25 117/204/16
f 124/214/19 80/142/19 75/135/20 126/218/20
f 110/192/28 99/175/28 120/209/28 121/210/28
f 78/139/26 80/143/19 124/215/19 128/221/26
f 70/127/12 72/130/15 116/201/15 119/207/12
f 106/185/18 32/65/18 28/59/24 112/195/24
f 108/188/3 30/62/3 48/91/4 141/242/4
f 122/211/22 67/123/22 25/54/17 109/190/17
f 46/87/16 44/84/25 139/239/25 130/224/16
f 37/74/12 36/72/15 137/236/15 134/231/12
f 143/246/21 34/69/21 42/81/23 132/228/23
f 44/84/25 78/139/26 128/221/26 139/239/25
f 39/77/11 37/74/12 134/231/12 135/233/11
f 36/72/15 46/88/16 130/225/16 137/236/15
f 1/2/29 62/115/30 74/134/31
f 4/10/7 3/7/32 90/160/33 83/148/34
f 6/15/35 17/41/36 64/118/37
f 1/1/38 3/6/38 4/9/5 2/4/5
f 9/22/2 11/27/2 12/29/39 10/24/39
f 1/2/29 59/109/40 62/115/30
f 20/46/41 22/50/42 21/47/42 19/44/43
f 19/44/43 23/51/44 24/53/45 20/46/41
f 27/57/46 29/61/47 30/63/47 28/60/46
f 26/56/48 31/64/49 32/66/50 25/55/51
f 36/73/52 37/75/53 38/76/53 35/71/52
f 37/75/53 39/78/54 40/79/54 38/76/53
f 39/78/54 42/82/55 41/80/55 40/79/54
f 44/85/56 46/89/57 45/86/57 43/83/56
f 34/70/42 48/92/58 47/90/58 33/67/42
f 50/95/59 51/97/60 52/98/61 49/93/59
f 49/93/59 53/99/62 54/101/62 50/95/59
f 53/99/62 55/102/63 56/104/64 54/101/62
f 60/112/65 61/114/66 62/115/67 59/109/68
f 18/43/58 63/117/69 64/118/70 17/41/58
f 5/11/6 8/19/6 7/17/13 6/14/13
f 25/55/51 67/124/71 68/125/72 26/56/48
f 66/122/57 72/131/73 71/129/74 65/119/57
f 61/114/66 73/133/56 74/134/56 62/115/67
f 67/124/71 75/136/75 76/137/76 68/125/72
f 43/83/56 77/138/77 78/140/77 44/85/56
f 75/136/75 80/144/78 79/141/78 76/137/76
f 81/145/79 83/148/80 84/150/81 82/147/79
f 82/147/79 85/152/82 86/153/82 81/145/79
f 85/152/82 87/155/83 88/156/84 86/153/82
f 87/155/83 91/163/85 92/164/86 88/156/84
f 90/160/87 93/165/88 94/167/89 89/159/90
f 91/163/85 95/169/91 96/170/92 92/164/86
f 95/169/91 101/179/93 102/180/93 96/170/92
f 98/174/94 104/183/95 103/181/96 97/171/94
f 106/186/97 112/196/98 111/193/98 105/184/99
f 93/165/88 113/197/100 114/199/100 94/167/89
f 116/202/101 117/205/102 118/206/102 115/200/103
f 100/177/104 119/208/105 120/209/106 99/175/107
f 110/192/108 121/210/109 122/212/110 109/191/111
f 121/210/109 125/217/112 126/219/113 122/212/110
f 132/229/114 135/234/115 136/235/115 131/227/114
f 134/232/116 137/237/117 138/238/117 133/230/116
f 130/226/102 139/240/100 140/241/100 129/223/102
f 108/189/118 141/243/93 142/244/93 107/187/118
f 8/20/10 88/156/119 92/164/120 7/18/121
f 13/32/14 15/37/14 16/39/1 14/34/1
f 129/223/102 138/238/117 137/237/117 130/226/102
f 51/97/60 60/112/65 59/109/68 52/98/61
f 133/230/116 136/235/115 135/234/115 134/232/116
f 55/102/63 57/105/122 58/108/123 56/104/64
f 131/227/114 144/248/94 143/247/94 132/229/114
f 124/216/124 126/219/113 125/217/112 123/213/124
f 17/41/58 21/47/42 22/50/42 18/43/58
f 23/51/44 69/126/125 70/128/126 24/53/45
f 97/171/94 102/180/93 101/179/93 98/174/94
f 57/105/122 64/118/70 63/117/69 58/108/123
f 113/197/100 118/206/102 117/205/102 114/199/100
f 127/220/127 140/241/100 139/240/100 128/222/127
f 28/60/46 32/66/50 31/64/49 27/57/46
f 99/175/107 103/181/96 104/183/95 100/177/104
f 105/184/99 110/192/108 109/191/111 106/186/97
f 65/119/57 74/134/56 73/133/56 66/122/57
f 107/187/118 111/193/98 112/196/98 108/189/118
f 69/126/125 71/129/74 72/131/73 70/128/126
f 83/148/80 90/160/87 89/159/90 84/150/81
f 29/61/47 47/90/58 48/92/58 30/63/47
f 33/67/42 41/80/55 42/82/55 34/70/42
f 123/213/124 127/220/127 128/222/127 124/216/124
f 115/200/103 120/209/106 119/208/105 116/202/101
f 77/138/77 79/141/78 80/144/78 78/140/77
f 35/71/52 45/86/57 46/89/57 36/73/52
f 10/24/39 12/29/39 3/6/38 1/1/38
f 88/156/119 8/20/10 86/153/9
f 5/12/128 6/15/35 57/105/129 55/102/130
f 12/30/131 129/223/132 140/241/133
f 15/38/134 107/187/135 142/244/136
f 11/28/137 133/230/138 138/238/139
f 12/30/131 11/28/137 138/238/139 129/223/132
f 144/248/94 142/244/93 141/243/93 143/247/94
f 113/197/140 127/220/140 123/213/28 118/206/28
f 142/244/136 144/248/141 15/38/134
f 144/248/141 131/227/142 16/40/143 15/38/134
f 16/40/143 131/227/142 136/235/144
f 136/235/144 133/230/138 11/28/137 16/40/143
f 118/206/28 123/213/28 125/217/28 115/200/28
f 115/200/28 125/217/28 121/210/28 120/209/28
f 107/187/135 102/180/135 97/171/28 111/193/28
f 111/193/28 97/171/28 103/181/28 105/184/28
f 105/184/28 103/181/28 99/175/28 110/192/28
f 96/170/145 7/18/121 92/164/120
f 81/145/8 4/10/7 83/148/34
f 93/165/146 3/7/32 113/197/140
f 3/7/32 93/165/146 90/160/33
f 107/187/135 15/38/134 7/18/121 102/180/135
f 102/180/135 7/18/121 96/170/145
f 127/220/140 12/30/131 140/241/133
f 113/197/140 3/7/32 12/30/131 127/220/140
f 17/41/36 29/61/36 27/57/27 21/47/27
f 21/47/27 27/57/27 31/64/27 19/44/27
f 19/44/27 31/64/27 26/56/27 23/51/27
f 77/138/31 74/134/31 65/119/27 79/141/27
f 79/141/27 65/119/27 71/129/27 76/137/27
f 76/137/27 71/129/27 69/126/27 68/125/27
f 43/83/147 45/86/148 10/25/149
f 45/86/148 35/71/150 9/23/151 10/25/149
f 9/23/151 35/71/150 38/76/152
f 38/76/152 40/79/153 14/35/154 9/23/151
f 14/35/154 40/79/153 41/80/155
f 41/80/155 33/67/156 13/33/157 14/35/154
f 13/33/157 33/67/156 47/90/158
f 49/93/159 52/98/160 2/5/161
f 52/98/160 59/109/40 1/2/29 2/5/161
f 5/12/128 55/102/130 53/99/162
f 2/5/161 5/12/128 53/99/162 49/93/159
f 6/15/35 64/118/37 57/105/129
f 29/61/36 17/41/36 6/15/35 13/33/157
f 47/90/158 29/61/36 13/33/157
f 43/83/147 10/25/149 77/138/31
f 10/25/149 1/2/29 74/134/31 77/138/31
