# Blender 3.4.0
# www.blender.org
mtllib doorway_1_plain.mtl
o doorway_1_plain
v 2.000000 0.000000 0.060000
v 2.000000 3.000000 0.060000
v 2.000000 0.000000 -0.060000
v 2.000000 3.000000 -0.060000
v 2.030000 0.000000 0.030000
v 2.030000 3.000000 0.030000
v 2.030000 0.000000 -0.030000
v 2.030000 3.000000 -0.030000
v -2.000000 0.000000 -0.060000
v -2.000000 3.000000 -0.060000
v -2.000000 0.000000 0.060001
v -2.000000 3.000000 0.060000
v -2.030000 0.000000 -0.030000
v -2.030000 3.000000 -0.030000
v -2.030000 0.000000 0.030001
v -2.030000 3.000000 0.030000
v 0.550000 0.000000 -0.060000
v 0.550000 0.000000 0.060000
v 0.540000 2.150000 0.060000
v 0.540000 2.150000 -0.060000
v -0.540000 2.150000 0.060000
v -0.540000 2.150000 -0.060000
v -0.550000 0.000000 -0.060000
v -0.550000 0.000000 0.060000
v -0.550000 0.160000 -0.060000
v -0.550000 0.160000 0.060000
v -0.540001 2.140000 -0.080000
v -0.550001 2.140000 -0.070000
v -0.540001 2.150000 -0.070000
v -0.544995 2.140000 -0.078664
v -0.540001 2.144993 -0.078664
v -0.544783 2.144782 -0.077367
v -0.548665 2.144993 -0.070000
v -0.548665 2.140000 -0.074994
v -0.547367 2.144782 -0.074783
v -0.540001 2.148664 -0.074994
v -0.544995 2.148664 -0.070000
v -0.544783 2.147366 -0.074783
v -0.540001 2.140000 0.080000
v -0.540001 2.150000 0.070000
v -0.550001 2.140000 0.070000
v -0.540001 2.144993 0.078664
v -0.544995 2.140000 0.078664
v -0.544783 2.144782 0.077366
v -0.544995 2.148664 0.070000
v -0.540001 2.148664 0.074993
v -0.544783 2.147366 0.074782
v -0.548665 2.140000 0.074993
v -0.548665 2.144993 0.070000
v -0.547367 2.144782 0.074782
v 0.489999 2.110000 -0.080000
v 0.509999 2.090000 -0.080000
v 0.499999 2.090000 -0.070000
v 0.489999 2.100000 -0.070000
v 0.496666 2.110000 -0.080000
v 0.489999 2.105092 -0.078517
v 0.496635 2.104046 -0.078644
v 0.509999 2.103333 -0.080000
v 0.503332 2.110000 -0.080000
v 0.503363 2.103364 -0.079326
v 0.505091 2.090000 -0.078517
v 0.509999 2.096667 -0.080000
v 0.504045 2.096635 -0.078644
v 0.498515 2.094908 -0.070000
v 0.501483 2.090000 -0.074909
v 0.499999 2.095953 -0.075279
v 0.489999 2.101484 -0.074909
v 0.494907 2.098516 -0.070000
v 0.495952 2.100000 -0.075279
v 0.489999 2.100000 0.070000
v 0.499999 2.090000 0.070000
v 0.509999 2.090000 0.080000
v 0.489999 2.110000 0.080000
v 0.494907 2.098516 0.070000
v 0.489999 2.101484 0.074908
v 0.495952 2.100000 0.075278
v 0.501483 2.090000 0.074908
v 0.498515 2.094908 0.070000
v 0.499999 2.095953 0.075278
v 0.509999 2.096667 0.080000
v 0.505091 2.090000 0.078516
v 0.504045 2.096635 0.078643
v 0.503332 2.110000 0.080000
v 0.509999 2.103333 0.080000
v 0.503363 2.103364 0.079325
v 0.489999 2.105092 0.078516
v 0.496666 2.110000 0.080000
v 0.496635 2.104046 0.078643
v 0.539999 2.140000 -0.080000
v 0.539999 2.150000 -0.070000
v 0.549999 2.140000 -0.070000
v 0.539999 2.144993 -0.078665
v 0.544992 2.140000 -0.078665
v 0.544781 2.144782 -0.077367
v 0.544992 2.148664 -0.070000
v 0.539999 2.148664 -0.074994
v 0.544781 2.147366 -0.074783
v 0.548663 2.140000 -0.074994
v 0.548663 2.144993 -0.070000
v 0.547365 2.144782 -0.074783
v 0.539999 2.150000 0.070000
v 0.539999 2.140000 0.080000
v 0.549999 2.140000 0.070000
v 0.539999 2.148664 0.074993
v 0.544992 2.148664 0.070000
v 0.544781 2.147366 0.074782
v 0.544992 2.140000 0.078664
v 0.539999 2.144993 0.078664
v 0.544781 2.144782 0.077366
v 0.548663 2.144993 0.070000
v 0.548663 2.140000 0.074993
v 0.547365 2.144782 0.074782
v -0.490001 2.100000 -0.070000
v -0.500001 2.090000 -0.070000
v -0.510001 2.090000 -0.080000
v -0.490001 2.110000 -0.080000
v -0.494909 2.098516 -0.070000
v -0.490001 2.101484 -0.074909
v -0.495955 2.100000 -0.075279
v -0.501485 2.090000 -0.074909
v -0.498517 2.094908 -0.070000
v -0.500001 2.095953 -0.075279
v -0.510001 2.096667 -0.080000
v -0.505093 2.090000 -0.078517
v -0.504048 2.096635 -0.078644
v -0.503334 2.110000 -0.080000
v -0.510001 2.103333 -0.080000
v -0.503366 2.103364 -0.079326
v -0.490001 2.105092 -0.078517
v -0.496668 2.110000 -0.080000
v -0.496637 2.104046 -0.078644
v -0.490001 2.100000 0.070000
v -0.490001 2.110000 0.080000
v -0.510001 2.090000 0.080000
v -0.500001 2.090000 0.070000
v -0.490001 2.101484 0.074908
v -0.494909 2.098516 0.070000
v -0.495955 2.100000 0.075279
v -0.496668 2.110000 0.080000
v -0.490001 2.105092 0.078516
v -0.496637 2.104046 0.078643
v -0.510001 2.103333 0.080000
v -0.503334 2.110000 0.080000
v -0.503366 2.103364 0.079325
v -0.505093 2.090000 0.078516
v -0.510001 2.096667 0.080000
v -0.504048 2.096635 0.078643
v -0.498517 2.094908 0.070000
v -0.501485 2.090000 0.074908
v -0.500001 2.095953 0.075279
v 0.499999 0.000000 -0.070000
v 0.499999 -0.000000 0.070000
v -0.500001 0.000000 -0.070000
v -0.500001 -0.000000 0.070000
v 0.505091 -0.000000 0.078516
v 0.509999 -0.000000 0.080000
v 0.539999 0.000000 -0.080000
v 0.544992 0.000000 -0.078665
v 0.548663 0.000000 -0.074994
v 0.549999 0.000000 -0.070000
v 0.549999 -0.000000 0.070000
v 0.548663 -0.000000 0.074993
v 0.539999 -0.000000 0.080000
v 0.544992 -0.000000 0.078664
v -0.540001 0.000000 -0.080000
v -0.544995 0.000000 -0.078664
v -0.548665 0.000000 -0.074994
v -0.550001 0.000000 -0.070000
v -0.550001 -0.000000 0.070000
v -0.548665 -0.000000 0.074993
v -0.540001 -0.000000 0.080000
v -0.544995 -0.000000 0.078664
v 0.509999 0.000000 -0.080000
v 0.505091 0.000000 -0.078517
v 0.501483 0.000000 -0.074909
v 0.501483 -0.000000 0.074908
v -0.510001 0.000000 -0.080000
v -0.505093 0.000000 -0.078517
v -0.501485 0.000000 -0.074909
v -0.510001 -0.000000 0.080000
v -0.505093 -0.000000 0.078516
v -0.501485 -0.000000 0.074908
v -0.500000 -0.000000 0.060000
v -0.500000 0.000000 -0.060000
v -0.500000 0.020000 -0.000000
v -0.500000 0.014142 0.042426
v -0.500000 0.014142 -0.042426
v 0.500000 0.020000 -0.000000
v 0.500000 -0.000000 0.060000
v 0.500000 0.014142 0.042426
v 0.500000 0.000000 -0.060000
v 0.500000 0.014142 -0.042426
vn -0.0000 -0.0000 -1.0000
vn 0.7071 -0.0000 -0.7071
vn 0.7071 -0.0000 0.7071
vn -0.7071 -0.0000 0.7071
vn -0.7071 -0.0000 -0.7071
vn -0.0000 -0.0000 1.0000
vn 0.1422 -0.9782 0.1511
vn 0.1422 -0.9782 -0.1511
vn -0.1422 -0.9782 -0.1511
vn -0.1422 -0.9782 0.1511
vn -0.9892 -0.0000 0.1463
vn -0.9782 -0.1422 0.1511
vn -0.9782 -0.1422 -0.1511
vn -0.9892 -0.0000 -0.1463
vn 0.9892 -0.0000 -0.1463
vn 0.9782 -0.1422 -0.1511
vn 0.9782 -0.1422 0.1511
vn 0.9892 -0.0000 0.1463
vn -0.1296 0.1296 -0.9831
vn -0.4915 0.1216 -0.8623
vn -0.4473 0.4474 -0.7744
vn -0.1216 0.4915 -0.8623
vn -0.8623 0.1216 -0.4915
vn -0.7744 0.4474 -0.4473
vn -0.9831 0.1296 -0.1296
vn -0.8623 0.4915 -0.1216
vn -0.4915 0.8623 -0.1216
vn -0.4473 0.7744 -0.4473
vn -0.1296 0.9831 -0.1296
vn -0.1216 0.8623 -0.4915
vn -0.1296 0.1296 0.9831
vn -0.1216 0.4915 0.8623
vn -0.4473 0.4473 0.7744
vn -0.4915 0.1216 0.8623
vn -0.1216 0.8623 0.4915
vn -0.4473 0.7744 0.4473
vn -0.1296 0.9831 0.1296
vn -0.4915 0.8623 0.1216
vn -0.8623 0.4915 0.1216
vn -0.7744 0.4474 0.4473
vn -0.9831 0.1296 0.1296
vn -0.8623 0.1216 0.4915
vn -0.0073 -0.1369 -0.9906
vn -0.0220 -0.1035 -0.9944
vn -0.1661 -0.3706 -0.9138
vn -0.0469 -0.4838 -0.8739
vn -0.0273 -0.0526 -0.9982
vn -0.1077 -0.1077 -0.9883
vn -0.0526 -0.0273 -0.9982
vn -0.1035 -0.0220 -0.9944
vn -0.3706 -0.1661 -0.9138
vn -0.1369 -0.0073 -0.9906
vn -0.4838 -0.0469 -0.8739
vn -0.8392 -0.1107 -0.5325
vn -0.7044 -0.4305 -0.5643
vn -0.8496 -0.5011 -0.1645
vn -0.5011 -0.8496 -0.1645
vn -0.4305 -0.7044 -0.5643
vn -0.1107 -0.8392 -0.5325
vn 0.1296 0.1296 -0.9831
vn 0.1216 0.4915 -0.8623
vn 0.1296 0.9831 -0.1296
vn 0.1216 0.8623 -0.4915
vn -0.5011 -0.8496 0.1645
vn -0.4305 -0.7044 0.5643
vn -0.1107 -0.8392 0.5325
vn -0.8496 -0.5011 0.1645
vn -0.7044 -0.4305 0.5643
vn -0.8392 -0.1107 0.5325
vn -0.4838 -0.0469 0.8739
vn -0.3706 -0.1661 0.9138
vn -0.1369 -0.0073 0.9906
vn -0.1035 -0.0220 0.9944
vn -0.0526 -0.0273 0.9982
vn -0.1077 -0.1077 0.9883
vn -0.0273 -0.0526 0.9982
vn -0.0220 -0.1035 0.9944
vn -0.1661 -0.3706 0.9138
vn -0.0073 -0.1369 0.9906
vn -0.0469 -0.4838 0.8739
vn 0.1216 0.8623 0.4916
vn 0.1296 0.9831 0.1296
vn 0.1296 0.1296 0.9831
vn 0.1216 0.4915 0.8623
vn 0.4473 0.4473 -0.7745
vn 0.4915 0.1216 -0.8623
vn 0.4473 0.7744 -0.4474
vn 0.4915 0.8623 -0.1216
vn 0.8623 0.4915 -0.1216
vn 0.7744 0.4473 -0.4474
vn 0.9831 0.1296 -0.1296
vn 0.8623 0.1216 -0.4915
vn 0.4473 0.7744 0.4474
vn 0.4915 0.8623 0.1216
vn 0.4473 0.4473 0.7744
vn 0.4915 0.1216 0.8623
vn 0.8623 0.1216 0.4915
vn 0.7744 0.4473 0.4473
vn 0.9831 0.1296 0.1296
vn 0.8623 0.4915 0.1216
vn -0.1463 -0.0000 0.9892
vn -0.5137 -0.0000 0.8580
vn 0.1303 -0.0000 -0.9915
vn 0.4998 -0.0000 -0.8661
vn 0.8661 -0.0000 -0.4998
vn 0.9915 -0.0000 -0.1303
vn 0.9915 -0.0000 0.1303
vn 0.8661 -0.0000 0.4998
vn 0.4998 -0.0000 0.8661
vn 0.1303 -0.0000 0.9915
vn 0.5011 -0.8496 -0.1645
vn 0.4305 -0.7044 -0.5643
vn 0.1107 -0.8392 -0.5325
vn 0.8496 -0.5011 -0.1645
vn 0.7044 -0.4305 -0.5643
vn 0.8392 -0.1107 -0.5325
vn 0.4838 -0.0469 -0.8739
vn 0.3706 -0.1661 -0.9138
vn 0.1369 -0.0073 -0.9906
vn 0.1035 -0.0220 -0.9944
vn 0.0526 -0.0273 -0.9982
vn 0.1077 -0.1077 -0.9883
vn 0.0273 -0.0526 -0.9982
vn 0.0220 -0.1035 -0.9944
vn 0.1661 -0.3706 -0.9138
vn 0.0073 -0.1369 -0.9906
vn 0.0469 -0.4838 -0.8739
vn 0.1107 -0.8392 0.5325
vn 0.4305 -0.7044 0.5643
vn 0.5011 -0.8496 0.1645
vn 0.0469 -0.4838 0.8739
vn 0.1661 -0.3706 0.9138
vn 0.0073 -0.1369 0.9906
vn 0.0220 -0.1035 0.9944
vn 0.0273 -0.0526 0.9982
vn 0.1077 -0.1077 0.9883
vn 0.0526 -0.0273 0.9982
vn 0.1035 -0.0220 0.9944
vn 0.3706 -0.1661 0.9138
vn 0.1369 -0.0073 0.9906
vn 0.4838 -0.0469 0.8739
vn 0.8392 -0.1107 0.5325
vn 0.7044 -0.4305 0.5643
vn 0.8496 -0.5011 0.1645
vn -0.4998 -0.0000 -0.8661
vn -0.1303 -0.0000 -0.9915
vn -0.8661 -0.0000 -0.4998
vn -0.9915 -0.0000 -0.1303
vn -0.8661 -0.0000 0.4998
vn -0.9915 -0.0000 0.1303
vn -0.1303 -0.0000 0.9915
vn -0.4998 -0.0000 0.8661
vn -0.5137 -0.0000 -0.8580
vn -0.1463 -0.0000 -0.9892
vn -0.8580 -0.0000 -0.5137
vn -0.8580 -0.0000 0.5137
vn 0.1463 -0.0000 -0.9892
vn 0.5137 -0.0000 -0.8580
vn 0.8580 -0.0000 -0.5137
vn 0.5137 -0.0000 0.8580
vn 0.1463 -0.0000 0.9892
vn 0.8580 -0.0000 0.5137
vn -0.0000 -1.0000 -0.0000
vn -0.0000 1.0000 -0.0000
vn -0.0000 0.9181 -0.3962
vn -0.0000 0.7791 -0.6269
vn -0.0000 0.9181 0.3962
vn -0.0000 0.7791 0.6269
vt 0.992669 0.000000
vt 0.992669 1.000000
vt 0.992669 0.000000
vt 0.992669 1.000000
vt 1.000000 0.000000
vt 1.000000 1.000000
vt 1.000000 0.000000
vt 1.000000 1.000000
vt 0.007331 0.000000
vt 0.007331 1.000000
vt 0.007331 0.000000
vt 0.007331 1.000000
vt -0.000000 0.000000
vt -0.000000 1.000000
vt -0.000000 0.000000
vt -0.000000 1.000000
vt 0.634897 0.000000
vt 0.634897 0.000000
vt 0.633431 0.715667
vt 0.633431 0.715667
vt 0.366569 0.715667
vt 0.366569 0.715667
vt 0.365103 0.000000
vt 0.365103 0.000000
vt 0.026316 1.434211
vt 0.985911 1.434797
vt 0.985911 0.026902
vt 0.021936 1.434211
vt 0.978311 1.434797
vt 0.026316 1.438591
vt 0.979449 1.438991
vt 0.022121 1.438405
vt 0.985911 1.439177
vt 0.981531 1.434797
vt 0.981716 1.438991
vt 0.019854 1.438405
vt 0.981531 0.026902
vt 0.026316 1.441811
vt 0.985911 0.022521
vt 0.985911 1.442397
vt 0.981716 1.441258
vt 0.981716 0.022707
vt 0.022121 1.440672
vt 0.026316 1.434211
vt 1.108718 0.026902
vt 1.108718 1.434797
vt 0.026316 1.438591
vt 0.021936 1.434211
vt 1.116318 1.434797
vt 1.115179 1.438991
vt 0.022121 1.438405
vt 1.108718 0.022521
vt 1.108718 1.442397
vt 1.113098 0.026902
vt 0.026316 1.441811
vt 1.112913 0.022707
vt 1.112913 1.441258
vt 0.022121 1.440672
vt 1.113098 1.434797
vt 1.108718 1.439177
vt 1.112913 1.438991
vt 0.019854 1.438405
vt 0.929825 1.407895
vt 0.947368 1.390351
vt 0.985911 1.390937
vt 0.985911 0.930411
vt 0.935673 1.407895
vt 0.929825 1.403589
vt 0.935645 1.402672
vt 0.947368 1.402047
vt 0.941520 1.407895
vt 0.941548 1.402074
vt 0.943063 1.390351
vt 0.947368 1.396199
vt 0.942146 1.396171
vt 0.985911 1.395242
vt 0.939898 1.390351
vt 0.981605 1.390937
vt 0.981280 1.396159
vt 0.938596 1.395573
vt 0.981605 0.930411
vt 0.929825 1.400424
vt 0.985911 0.934716
vt 0.985911 1.398407
vt 0.981280 1.399709
vt 0.981280 0.935633
vt 0.935047 1.399123
vt 1.108718 0.930411
vt 1.108718 1.390937
vt 0.947368 1.390351
vt 0.929825 1.407895
vt 1.108718 0.934716
vt 1.108718 1.398407
vt 1.113023 0.930411
vt 0.929825 1.400424
vt 1.113348 0.935633
vt 0.935047 1.399123
vt 0.939898 1.390351
vt 1.113023 1.390937
vt 1.108718 0.937881
vt 1.108718 1.395242
vt 1.113348 0.939182
vt 1.113348 1.396159
vt 0.938596 1.395573
vt 0.947368 1.396199
vt 0.943063 1.390351
vt 1.116188 1.390937
vt 0.942146 1.396171
vt 0.941520 1.407895
vt 0.947368 1.402047
vt 0.941548 1.402074
vt 0.929825 1.403589
vt 0.935673 1.407895
vt 0.935645 1.402672
vt 0.973684 1.434211
vt 0.985911 0.974270
vt 0.985911 1.434797
vt 0.973684 1.438591
vt 0.978064 1.434211
vt 0.978311 1.434797
vt 0.977879 1.438405
vt 0.979449 1.438991
vt 0.985911 0.978650
vt 0.985911 1.442397
vt 0.973684 1.441811
vt 0.981531 0.974270
vt 0.977879 1.440672
vt 0.981716 0.978465
vt 0.981716 1.441258
vt 0.981530 1.434797
vt 0.985911 1.439177
vt 0.981716 1.438991
vt 1.108718 0.974270
vt 0.973684 1.434211
vt 1.108718 1.434797
vt 1.113098 0.974270
vt 0.973684 1.441811
vt 1.108718 0.978650
vt 1.108718 1.442397
vt 1.112913 0.978465
vt 0.977879 1.440672
vt 1.112912 1.441258
vt 0.978064 1.434211
vt 1.116318 1.434797
vt 0.973684 1.438591
vt 0.977879 1.438405
vt 1.115179 1.438991
vt 1.108718 1.439177
vt 1.113098 1.434797
vt 1.112912 1.438991
vt 0.985911 0.070761
vt 0.985911 1.390937
vt 0.052632 1.390351
vt 0.070175 1.407895
vt 0.985911 1.398407
vt 0.985911 0.066456
vt 0.981605 0.070761
vt 0.070175 1.400424
vt 0.981280 0.065539
vt 0.981280 1.399709
vt 0.064953 1.399123
vt 0.060102 1.390351
vt 0.981605 1.390937
vt 0.985911 1.395242
vt 0.981280 1.396159
vt 0.061404 1.395573
vt 0.052632 1.396199
vt 0.056937 1.390351
vt 0.057854 1.396171
vt 0.058480 1.407895
vt 0.052632 1.402047
vt 0.058452 1.402074
vt 0.070175 1.403589
vt 0.064327 1.407895
vt 0.064355 1.402672
vt 1.108718 0.070761
vt 0.070175 1.407895
vt 0.052632 1.390351
vt 1.108718 1.390937
vt 1.113023 0.070761
vt 0.070175 1.400424
vt 1.108718 1.398407
vt 1.108718 0.066456
vt 1.113348 0.065539
vt 1.113348 1.399709
vt 0.064953 1.399123
vt 0.064327 1.407895
vt 0.070175 1.403589
vt 0.064355 1.402672
vt 0.052632 1.402047
vt 0.058480 1.407895
vt 0.058452 1.402074
vt 0.056937 1.390351
vt 0.052632 1.396199
vt 0.057854 1.396171
vt 1.108718 1.395242
vt 0.060102 1.390351
vt 1.113023 1.390937
vt 1.113348 1.396159
vt 0.061404 1.395573
vt 0.985911 -0.442396
vt 0.985911 0.939182
vt 1.108718 -0.442396
vt 1.108718 0.939182
vt 0.985911 -0.442396
vt 0.985911 0.061989
vt 1.108718 -0.442396
vt 1.108718 0.061989
vt 0.943063 -0.442982
vt 1.116188 -0.442396
vt 1.116188 0.943649
vt 0.947368 -0.442982
vt 1.117490 0.947954
vt 0.973684 -0.442982
vt 0.977139 0.974270
vt 0.978064 -0.442982
vt 0.978311 -0.442396
vt 0.978311 0.978650
vt 0.981531 -0.442396
vt 0.981531 0.981870
vt 0.985911 -0.442396
vt 0.985911 0.983042
vt 1.108718 -0.442396
vt 1.108718 0.983042
vt 1.113098 -0.442396
vt 1.113098 0.981870
vt 0.973684 -0.442982
vt 1.117490 0.974270
vt 0.978064 -0.442982
vt 1.116318 -0.442396
vt 1.116318 0.978650
vt 0.026316 -0.442982
vt 0.977139 0.026902
vt 0.021936 -0.442982
vt 0.978311 -0.442396
vt 0.978311 0.022521
vt 0.981531 -0.442396
vt 0.981531 0.019302
vt 0.985911 -0.442396
vt 0.985911 0.018130
vt 1.108718 -0.442396
vt 1.108718 0.018130
vt 1.113098 -0.442396
vt 1.113098 0.019302
vt 0.026316 -0.442982
vt 1.117490 0.026902
vt 0.021936 -0.442982
vt 1.116318 -0.442396
vt 1.116318 0.022521
vt 0.947368 -0.442982
vt 0.977139 0.947954
vt 0.943063 -0.442982
vt 0.978440 0.943649
vt 0.939898 -0.442982
vt 0.981605 -0.442396
vt 0.981605 0.940484
vt 1.113023 -0.442397
vt 1.113023 0.940484
vt 0.052632 -0.442982
vt 0.977139 0.053218
vt 0.056937 -0.442982
vt 0.978441 0.057523
vt 0.060102 -0.442982
vt 0.981606 -0.442396
vt 0.981605 0.060688
vt 0.052632 -0.442982
vt 1.117490 0.053218
vt 0.056937 -0.442982
vt 1.116188 0.057523
vt 0.060102 -0.442982
vt 1.113023 -0.442396
vt 1.113023 0.060688
vt 0.000000 0.560000
vt 0.000000 0.440000
vt 0.000000 0.500000
vt 0.000000 0.542426
vt 0.000000 0.457574
vt 1.000000 0.500000
vt 1.000000 0.560000
vt 1.000000 0.542426
vt 1.000000 0.440000
vt 1.000000 0.457574
s 1
usemtl wall_4
f 10/10/1 22/22/1 23/23/1 9/9/1
f 3/3/2 4/4/2 8/8/2 7/7/2
f 2/2/3 1/1/3 5/5/3 6/6/3
f 11/11/4 12/12/4 16/16/4 15/15/4
f 10/10/5 9/9/5 13/13/5 14/14/5
f 2/2/6 19/19/6 18/18/6 1/1/6
f 11/11/6 24/24/6 21/21/6 12/12/6
f 12/12/6 21/21/6 19/19/6 2/2/6
f 4/4/1 20/20/1 22/22/1 10/10/1
f 3/3/1 17/17/1 20/20/1 4/4/1
usemtl metal_6
f 132/176/7 113/151/8 54/66/9 70/88/10
f 152/203/11 71/89/12 53/65/13 151/201/14
f 153/205/15 114/152/16 135/179/17 154/207/18
f 27/25/19 30/28/20 32/32/21 31/30/22
f 30/29/20 34/34/23 35/35/24 32/31/21
f 28/26/25 33/33/26 35/35/24 34/34/23
f 33/33/26 37/40/27 38/41/28 35/35/24
f 29/27/29 36/37/30 38/42/28 37/39/27
f 36/38/30 31/30/22 32/32/21 38/43/28
f 32/32/21 35/36/24 38/43/28
f 39/44/31 42/47/32 44/51/33 43/48/34
f 42/47/32 46/55/35 47/58/36 44/51/33
f 40/45/37 45/52/38 47/56/36 46/54/35
f 45/53/38 49/60/39 50/61/40 47/57/36
f 41/46/41 48/59/42 50/61/40 49/60/39
f 48/59/42 43/49/34 44/50/33 50/61/40
f 44/51/33 47/58/36 50/62/40
f 51/63/43 55/67/44 57/69/45 56/68/46
f 55/67/44 59/71/47 60/72/48 57/69/45
f 59/71/47 58/70/49 60/72/48
f 58/70/49 62/74/50 63/75/51 60/72/48
f 52/64/52 61/73/53 63/75/51 62/74/50
f 61/73/53 65/77/54 66/80/55 63/75/51
f 53/65/13 64/76/56 66/79/55 65/78/54
f 64/76/56 68/84/57 69/85/58 66/79/55
f 54/66/9 67/81/59 69/86/58 68/83/57
f 67/82/59 56/68/46 57/69/45 69/87/58
f 57/69/45 60/72/48 63/75/51
f 89/115/60 27/25/19 31/30/22 92/118/61
f 29/27/29 90/116/62 96/126/63 36/37/30
f 92/118/61 31/30/22 36/38/30 96/125/63
f 70/88/10 74/92/64 76/96/65 75/94/66
f 74/92/64 78/100/67 79/102/68 76/96/65
f 71/89/12 77/99/69 79/103/68 78/101/67
f 77/98/69 81/106/70 82/108/71 79/104/68
f 72/90/72 80/105/73 82/108/71 81/106/70
f 80/105/73 84/110/74 85/111/75 82/108/71
f 84/110/74 83/109/76 85/111/75
f 83/109/76 87/113/77 88/114/78 85/111/75
f 73/91/79 86/112/80 88/114/78 87/113/77
f 86/112/80 75/95/66 76/97/65 88/114/78
f 88/114/78 82/108/71 85/111/75
f 104/136/81 101/133/82 40/45/37 46/54/35
f 42/47/32 39/44/31 102/134/83 108/145/84
f 42/47/32 108/145/84 104/137/81 46/55/35
f 89/115/60 92/118/61 94/121/85 93/119/86
f 92/118/61 96/125/63 97/127/87 94/121/85
f 90/116/62 95/123/88 97/128/87 96/126/63
f 95/124/88 99/131/89 100/132/90 97/129/87
f 91/117/91 98/130/92 100/132/90 99/131/89
f 98/130/92 93/120/86 94/122/85 100/132/90
f 94/122/85 97/129/87 100/132/90
f 101/133/82 104/136/81 106/140/93 105/138/94
f 104/137/81 108/145/84 109/146/95 106/141/93
f 102/134/83 107/143/96 109/146/95 108/145/84
f 107/144/96 111/149/97 112/150/98 109/147/95
f 103/135/99 110/148/100 112/150/98 111/149/97
f 110/148/100 105/139/94 106/142/93 112/150/98
f 106/142/93 109/147/95 112/150/98
f 156/212/101 72/90/72 81/106/70 155/209/102
f 157/214/103 89/115/60 93/119/86 158/216/104
f 158/217/104 93/120/86 98/130/92 159/219/105
f 159/219/105 98/130/92 91/117/91 160/221/106
f 161/223/107 103/135/99 111/149/97 162/225/108
f 164/229/109 107/143/96 102/134/83 163/227/110
f 162/225/108 111/149/97 107/144/96 164/230/109
f 113/151/8 117/156/111 119/159/112 118/157/113
f 117/155/111 121/164/114 122/165/115 119/160/112
f 114/152/16 120/163/116 122/165/115 121/164/114
f 120/162/116 124/168/117 125/169/118 122/166/115
f 115/153/119 123/167/120 125/169/118 124/168/117
f 123/167/120 127/171/121 128/172/122 125/169/118
f 127/171/121 126/170/123 128/172/122
f 126/170/123 130/174/124 131/175/125 128/172/122
f 116/154/126 129/173/127 131/175/125 130/174/124
f 129/173/127 118/158/113 119/161/112 131/175/125
f 131/175/125 125/169/118 128/172/122
f 132/176/7 136/180/128 138/184/129 137/183/130
f 136/181/128 140/188/131 141/189/132 138/186/129
f 133/177/133 139/187/134 141/189/132 140/188/131
f 139/187/134 143/191/135 144/192/136 141/189/132
f 143/191/135 142/190/137 144/192/136
f 142/190/137 146/194/138 147/195/139 144/192/136
f 134/178/140 145/193/141 147/195/139 146/194/138
f 145/193/141 149/197/142 150/200/143 147/195/139
f 135/179/17 148/196/144 150/199/143 149/198/142
f 148/196/144 137/182/130 138/185/129 150/199/143
f 141/189/132 144/192/136 147/195/139
f 166/234/145 30/28/20 27/25/19 165/232/146
f 167/237/147 34/34/23 30/29/20 166/235/145
f 168/239/148 28/26/25 34/34/23 167/237/147
f 170/243/149 48/59/42 41/46/41 169/241/150
f 171/245/151 39/44/31 43/48/34 172/247/152
f 172/248/152 43/49/34 48/59/42 170/243/149
f 40/45/37 29/27/29 37/39/27 45/52/38
f 45/53/38 37/40/27 33/33/26 49/60/39
f 49/60/39 33/33/26 28/26/25 41/46/41
f 70/88/10 54/66/9 68/83/57 74/92/64
f 74/93/64 68/84/57 64/76/56 78/101/67
f 78/101/67 64/76/56 53/65/13 71/89/12
f 90/116/62 29/27/29 40/45/37 101/133/82
f 90/116/62 101/133/82 105/138/94 95/123/88
f 95/124/88 105/139/94 110/148/100 99/131/89
f 99/131/89 110/148/100 103/135/99 91/117/91
f 91/117/91 103/135/99 161/223/107 160/221/106
f 174/252/153 61/73/53 52/64/52 173/250/154
f 175/254/155 65/77/54 61/73/53 174/252/153
f 151/201/14 53/65/13 65/78/54 175/255/155
f 155/210/102 81/107/70 77/99/69 176/257/156
f 176/257/156 77/99/69 71/89/12 152/203/11
f 135/179/17 114/152/16 121/164/114 148/196/144
f 148/196/144 121/164/114 117/155/111 137/182/130
f 137/183/130 117/156/111 113/151/8 132/176/7
f 169/241/150 41/46/41 28/26/25 168/239/148
f 177/259/157 115/153/119 124/168/117 178/261/158
f 178/261/158 124/168/117 120/162/116 179/263/159
f 120/163/116 114/152/16 153/205/15 179/264/159
f 181/268/160 145/193/141 134/178/140 180/266/161
f 182/270/162 149/197/142 145/193/141 181/268/160
f 154/207/18 135/179/17 149/198/142 182/271/162
f 39/44/31 142/190/137 143/191/135
f 102/134/83 83/109/76 84/110/74
f 146/194/138 142/190/137 39/44/31 171/245/151 180/266/161 134/178/140
f 54/66/9 113/151/8 118/157/113 67/81/59
f 67/82/59 118/158/113 129/173/127 56/68/46
f 56/68/46 129/173/127 116/154/126 51/63/43
f 132/176/7 70/88/10 75/94/66 136/180/128
f 136/181/128 75/95/66 86/112/80 140/188/131
f 140/188/131 86/112/80 73/91/79 133/177/133
f 76/97/65 79/104/68 82/108/71 88/114/78
f 138/186/129 141/189/132 147/195/139 150/200/143
f 119/161/112 122/166/115 125/169/118 131/175/125
f 69/87/58 57/69/45 63/75/51 66/80/55
f 126/170/123 127/171/121 27/25/19
f 173/250/154 52/64/52 62/74/50 58/70/49 89/115/60 157/214/103
f 115/153/119 177/259/157 165/232/146 27/25/19 127/171/121 123/167/120
f 59/71/47 89/115/60 58/70/49
f 59/71/47 55/67/44 51/63/43 116/154/126 130/174/124 126/170/123 27/25/19 89/115/60
f 73/91/79 87/113/77 83/109/76 102/134/83 39/44/31 143/191/135 139/187/134 133/177/133
f 102/134/83 84/110/74 80/105/73 72/90/72 156/212/101 163/227/110
f 185/275/164 188/278/164 192/282/165 187/277/165
f 187/277/165 192/282/165 191/281/166 184/274/166
f 188/278/164 185/275/164 186/276/167 190/280/167
f 190/280/167 186/276/167 183/273/168 189/279/168
usemtl 
f 173/251/163 157/215/163 158/218/163 159/220/163 160/222/163 161/224/163 162/226/163 164/231/163 163/228/163 156/213/163 155/211/163 176/258/163 152/204/163 151/202/163 175/256/163 174/253/163
f 181/269/163 180/267/163 171/246/163 172/249/163 170/244/163 169/242/163 168/240/163 167/238/163 166/236/163 165/233/163 177/260/163 178/262/163 179/265/163 153/206/163 154/208/163 182/272/163
l 26 25
