# Blender 3.4.0
# www.blender.org
mtllib elevator_sign_1.mtl
o elevator_sign_1
v 0.358200 0.100000 0.000000
v 0.381731 0.077253 0.000000
v 0.373271 0.090506 0.000000
v 0.381731 -0.079737 -0.000000
v 0.360706 -0.100000 -0.000000
v 0.372867 -0.092211 -0.000000
v -0.381731 -0.074618 -0.000000
v -0.360250 -0.100000 -0.000000
v -0.373243 -0.090470 -0.000000
v -0.360349 0.100000 0.000000
v -0.381731 0.073556 0.000000
v -0.373259 0.088337 0.000000
v 0.371731 -0.076546 0.010000
v 0.371731 0.074334 0.010000
v 0.366047 0.083239 0.010000
v 0.355313 0.090000 0.010000
v -0.356975 -0.090000 0.010000
v 0.357778 -0.090000 0.010000
v 0.365840 -0.084836 0.010000
v -0.371731 0.070894 0.010000
v -0.371731 -0.072110 0.010000
v -0.365498 -0.083749 0.010000
v -0.356501 0.090000 0.010000
v -0.365375 0.081984 0.010000
v 0.381731 -0.079737 0.010000
v 0.381731 0.077253 0.010000
v 0.373271 0.090506 0.010000
v 0.358200 0.100000 0.010000
v -0.360250 -0.100000 0.010000
v 0.360706 -0.100000 0.010000
v 0.372867 -0.092211 0.010000
v -0.381731 0.073556 0.010000
v -0.381731 -0.074618 0.010000
v -0.373243 -0.090470 0.010000
v -0.360349 0.100000 0.010000
v -0.373259 0.088337 0.010000
v 0.376731 0.075794 0.014000
v 0.376731 -0.078142 0.014000
v 0.369659 0.086872 0.014000
v 0.356756 0.095000 0.014000
v 0.359242 -0.095000 0.014000
v -0.358612 -0.095000 0.014000
v 0.369354 -0.088524 0.014000
v -0.376731 -0.073364 0.014000
v -0.376731 0.072225 0.014000
v -0.369370 -0.087109 0.014000
v -0.358425 0.095000 0.014000
v -0.369317 0.085160 0.014000
vn -0.0000 -0.0000 1.0000
vn 0.5330 0.8461 -0.0000
vn -0.0000 1.0000 -0.0000
vn -1.0000 -0.0000 -0.0000
vn -0.0000 -1.0000 -0.0000
vn -0.8676 0.4973 -0.0000
vn 1.0000 -0.0000 -0.0000
vn -0.8816 -0.4721 -0.0000
vn 0.5394 -0.8421 -0.0000
vn -0.6704 0.7420 -0.0000
vn 0.8429 0.5380 -0.0000
vn -0.5914 -0.8064 -0.0000
vn 0.8152 -0.5792 -0.0000
vn 0.6247 -0.0000 0.7809
vn 0.5266 0.3361 0.7809
vn 0.3329 0.5286 0.7809
vn -0.0000 -0.6247 0.7809
vn 0.3369 -0.5260 0.7809
vn 0.5092 -0.3618 0.7809
vn -0.6247 -0.0000 0.7809
vn -0.5507 -0.2949 0.7809
vn -0.3695 -0.5037 0.7809
vn -0.0000 0.6247 0.7809
vn -0.5420 0.3106 0.7809
vn -0.4188 0.4635 0.7809
vn 0.4188 -0.4635 0.7809
vn 0.5420 -0.3106 0.7809
vn 0.3695 0.5037 0.7809
vn 0.5507 0.2949 0.7809
vn -0.5092 0.3618 0.7809
vn -0.3369 0.5260 0.7809
vn -0.3329 -0.5286 0.7809
vn -0.5266 -0.3361 0.7809
vt 0.969178 1.000000
vt 1.000000 0.886267
vt 0.988920 0.952532
vt 1.000000 0.101313
vt 0.972461 0.000000
vt 0.988391 0.038947
vt 0.000000 0.126908
vt 0.028137 0.000000
vt 0.011118 0.047650
vt 0.028006 1.000000
vt 0.000000 0.867780
vt 0.011096 0.941685
vt 0.986902 0.117269
vt 0.986902 0.871670
vt 0.979457 0.916193
vt 0.965397 0.950000
vt 0.032425 0.050000
vt 0.968626 0.050000
vt 0.979186 0.075818
vt 0.013098 0.854468
vt 0.013098 0.139452
vt 0.021262 0.081256
vt 0.033046 0.950000
vt 0.021424 0.909918
vt 1.000000 0.101313
vt 1.000000 0.886267
vt 0.988920 0.952532
vt 0.969178 1.000000
vt 0.028137 0.000000
vt 0.972461 0.000000
vt 0.988391 0.038947
vt 0.000000 0.867780
vt 0.000000 0.126908
vt 0.011118 0.047650
vt 0.028006 1.000000
vt 0.011096 0.941685
vt 0.993451 0.878969
vt 0.993451 0.109291
vt 0.984188 0.934362
vt 0.967288 0.975000
vt 0.970544 0.025000
vt 0.030281 0.025000
vt 0.983788 0.057382
vt 0.006549 0.133180
vt 0.006549 0.861124
vt 0.016190 0.064453
vt 0.030526 0.975000
vt 0.016260 0.925802
s 0
usemtl elevator_sign_1
f 21/21/1 22/22/1 17/17/1 18/18/1 19/19/1 13/13/1 14/14/1 15/15/1 16/16/1 23/23/1 24/24/1 20/20/1
f 3/3/2 1/1/2 28/28/2 27/27/2
f 1/1/3 10/10/3 35/35/3 28/28/3
f 11/11/4 7/7/4 33/33/4 32/32/4
f 8/8/5 5/5/5 30/30/5 29/29/5
f 12/12/6 11/11/6 32/32/6 36/36/6
f 4/4/7 2/2/7 26/26/7 25/25/7
f 7/7/8 9/9/8 34/34/8 33/33/8
f 5/5/9 6/6/9 31/31/9 30/30/9
f 10/10/10 12/12/10 36/36/10 35/35/10
f 2/2/11 3/3/11 27/27/11 26/26/11
f 9/9/12 8/8/12 29/29/12 34/34/12
f 6/6/13 4/4/13 25/25/13 31/31/13
f 37/37/14 38/38/14 25/25/14 26/26/14
f 39/39/15 37/37/15 26/26/15 27/27/15
f 40/40/16 39/39/16 27/27/16 28/28/16
f 41/41/17 42/42/17 29/29/17 30/30/17
f 43/43/18 41/41/18 30/30/18 31/31/18
f 38/38/19 43/43/19 31/31/19 25/25/19
f 44/44/20 45/45/20 32/32/20 33/33/20
f 46/46/21 44/44/21 33/33/21 34/34/21
f 42/42/22 46/46/22 34/34/22 29/29/22
f 47/47/23 40/40/23 28/28/23 35/35/23
f 45/45/24 48/48/24 36/36/24 32/32/24
f 48/48/25 47/47/25 35/35/25 36/36/25
f 24/24/26 23/23/26 47/47/26 48/48/26
f 20/20/27 24/24/27 48/48/27 45/45/27
f 23/23/17 16/16/17 40/40/17 47/47/17
f 17/17/28 22/22/28 46/46/28 42/42/28
f 22/22/29 21/21/29 44/44/29 46/46/29
f 21/21/14 20/20/14 45/45/14 44/44/14
f 13/13/30 19/19/30 43/43/30 38/38/30
f 19/19/31 18/18/31 41/41/31 43/43/31
f 18/18/23 17/17/23 42/42/23 41/41/23
f 16/16/32 15/15/32 39/39/32 40/40/32
f 15/15/33 14/14/33 37/37/33 39/39/33
f 14/14/20 13/13/20 38/38/20 37/37/20
