# Blender 3.4.0
# www.blender.org
mtllib floor_1.mtl
o floor_1
v -2.000000 0.010000 2.000000
v 2.000000 0.010000 2.000000
v -2.000000 0.010000 -2.000000
v 2.000000 0.010000 -2.000000
v -2.000000 -0.010000 -2.000000
v 2.000000 -0.010000 -2.000000
v -2.000000 -0.010000 2.000000
v 2.000000 -0.010000 2.000000
v -2.020000 0.000000 2.020000
v 2.020000 0.000000 2.020000
v 2.020000 -0.000000 -2.020000
v -2.020000 -0.000000 -2.020000
vn -0.0000 1.0000 -0.0000
vn -0.0000 -1.0000 -0.0000
vn -0.0000 -0.8944 0.4472
vn 0.4472 -0.8944 -0.0000
vn -0.0000 -0.8944 -0.4472
vn -0.4472 -0.8944 -0.0000
vn -0.4472 0.8944 -0.0000
vn -0.0000 0.8944 -0.4472
vn 0.4472 0.8944 -0.0000
vn -0.0000 0.8944 0.4472
vt 0.000000 1.000000
vt 1.000000 1.000000
vt 0.000000 0.000000
vt 1.000000 0.000000
vt 0.000000 0.000000
vt 1.000000 0.000000
vt 0.000000 1.000000
vt 1.000000 1.000000
vt -0.005000 1.005000
vt 1.005000 1.005000
vt 1.005000 -0.005000
vt -0.005000 -0.005000
s 0
usemtl floor_1
f 1/1/1 2/2/1 4/4/1 3/3/1
f 3/3/7 12/12/7 9/9/7 1/1/7
f 4/4/8 11/11/8 12/12/8 3/3/8
f 2/2/9 10/10/9 11/11/9 4/4/9
f 1/1/10 9/9/10 10/10/10 2/2/10
usemtl concrete_1
f 5/5/2 6/6/2 8/8/2 7/7/2
f 9/9/3 7/7/3 8/8/3 10/10/3
f 10/10/4 8/8/4 6/6/4 11/11/4
f 11/11/5 6/6/5 5/5/5 12/12/5
f 12/12/6 5/5/6 7/7/6 9/9/6
