# Blender 3.4.0
# www.blender.org
mtllib floppy_disc_1.mtl
o floppy_disc_1
v -0.063360 0.009000 0.074160
v 0.063360 0.009000 0.074160
v 0.069049 0.001800 -0.079200
v 0.079200 0.001800 -0.069049
v 0.069049 0.009000 -0.079200
v 0.079200 0.009000 -0.069049
v -0.063360 0.009000 -0.016674
v 0.063360 0.009000 -0.016123
v -0.063360 0.006840 0.074160
v 0.063360 0.006840 0.074160
v -0.063360 0.006840 -0.016674
v 0.063360 0.006840 -0.016123
v -0.042487 0.009000 -0.079200
v 0.047671 0.009000 -0.079200
v -0.042487 0.009000 -0.031486
v -0.036678 0.009000 -0.026322
v 0.042506 0.009000 -0.026322
v 0.047670 0.009000 -0.031916
v 0.031693 0.010800 -0.036828
v 0.031693 0.009000 -0.036828
v 0.010356 0.010800 -0.070815
v 0.031694 0.010800 -0.070966
v 0.010355 0.010800 -0.036828
v 0.010356 0.009000 -0.070815
v 0.031694 0.009000 -0.070966
v 0.010355 0.009000 -0.036828
v -0.042484 0.010800 -0.031486
v -0.036674 0.010800 -0.026322
v 0.042509 0.010800 -0.026322
v 0.047674 0.010800 -0.031916
v -0.042615 0.001800 -0.079200
v 0.047630 0.001800 -0.079200
v -0.042443 0.001800 -0.031643
v -0.036953 0.001800 -0.026496
v 0.042312 0.001800 -0.026496
v 0.047630 0.001800 -0.031472
v -0.042443 -0.000000 -0.031643
v -0.036953 -0.000000 -0.026496
v 0.042312 -0.000000 -0.026496
v 0.047630 -0.000000 -0.031472
v -0.042484 0.010800 -0.081000
v 0.047674 0.010800 -0.081000
v -0.042615 -0.000000 -0.081000
v 0.047630 -0.000000 -0.081000
v 0.010499 -0.000000 -0.036659
v 0.010499 -0.000000 -0.070923
v 0.031659 -0.000000 -0.070923
v 0.031659 -0.000000 -0.036603
v 0.010499 0.001800 -0.036659
v 0.010499 0.001800 -0.070923
v 0.031659 0.001800 -0.070923
v 0.031659 0.001800 -0.036603
v -0.005131 0.001800 0.026081
v 0.010310 0.001800 0.026081
v 0.021016 0.001800 0.020728
v 0.026163 0.001800 0.010640
v 0.026163 0.001800 -0.005419
v 0.021634 0.001800 -0.015507
v 0.010722 0.001800 -0.021066
v -0.005337 0.001800 -0.021066
v -0.016043 0.001800 -0.015713
v -0.021190 0.001800 -0.005213
v -0.021190 0.001800 0.010434
v -0.015425 0.001800 0.021140
v -0.005131 -0.000000 0.026081
v 0.010310 -0.000000 0.026081
v 0.021016 -0.000000 0.020728
v 0.026163 -0.000000 0.010640
v 0.026163 -0.000000 -0.005419
v 0.021634 -0.000000 -0.015507
v 0.010722 -0.000000 -0.021066
v -0.005337 -0.000000 -0.021066
v -0.016043 -0.000000 -0.015713
v -0.021190 -0.000000 -0.005213
v -0.021190 -0.000000 0.010434
v -0.015425 -0.000000 0.021140
v -0.075600 0.001800 0.079200
v -0.079200 0.001800 0.075600
v -0.079200 0.001800 -0.075600
v -0.075600 0.001800 -0.079200
v 0.079200 0.001800 0.075600
v 0.075600 0.001800 0.079200
v -0.079200 0.009000 0.075600
v -0.075600 0.009000 0.079200
v -0.075600 0.009000 -0.079200
v -0.079200 0.009000 -0.075600
v 0.075600 0.009000 0.079200
v 0.079200 0.009000 0.075600
vn -0.0000 -1.0000 -0.0000
vn 0.7071 -0.0000 -0.7071
vn -0.0000 1.0000 -0.0000
vn -1.0000 -0.0000 -0.0000
vn -0.0043 -0.0000 1.0000
vn -0.0000 -0.0000 -1.0000
vn 1.0000 -0.0000 -0.0000
vn 0.7348 -0.0013 0.6783
vn -1.0000 -0.0018 0.0035
vn -0.0000 -0.0000 1.0000
vn -0.6644 0.0012 0.7474
vn 0.0071 -0.0000 1.0000
vn 0.6832 -0.0000 0.7303
vn -0.6839 -0.0000 0.7295
vn 1.0000 -0.0046 0.0009
vn -0.9999 0.0143 -0.0009
vn 1.0000 -0.0018 -0.0000
vn 0.0027 -0.0000 -1.0000
vn -0.8979 -0.0000 -0.4402
vn 0.4539 -0.0000 -0.8910
vn 0.8908 -0.0000 0.4545
vn -0.8805 -0.0000 0.4741
vn -0.4472 -0.0000 -0.8944
vn 0.9123 -0.0000 -0.4096
vn -0.4327 -0.0000 0.9015
vn 0.4472 -0.0000 0.8944
vn -0.7071 -0.0000 -0.7071
vn -0.7071 -0.0000 0.7071
vn 0.7071 -0.0000 0.7071
vn -1.0000 0.0018 -0.0000
vt 0.550972 0.299082
vt 0.526320 0.299082
vt 0.046875 0.031250
vt 0.526320 0.299082
vt 0.950972 0.299082
vt 0.453125 0.031250
vt 0.812857 0.253628
vt 0.968929 0.253628
vt 0.532043 0.988764
vt 0.876943 0.253628
vt 0.978367 0.253628
vt 0.500000 0.925398
vt 0.812857 0.299082
vt 0.968929 0.299082
vt 0.467957 0.988764
vt 0.876943 0.299082
vt 0.978367 0.299082
vt 0.500000 0.925398
vt 0.550972 0.299082
vt 0.813042 0.299082
vt 0.046875 0.593750
vt 0.811303 0.299082
vt 0.950972 0.299082
vt 0.453125 0.593750
vt 0.046875 0.031250
vt 0.550972 0.285446
vt 0.526320 0.285446
vt 0.526320 0.285446
vt 0.453125 0.031250
vt 0.950972 0.285446
vt 0.046875 0.593750
vt 0.550972 0.285446
vt 0.813042 0.285446
vt 0.811303 0.285446
vt 0.453125 0.593750
vt 0.950972 0.285446
vt 0.616858 0.299082
vt 0.365886 0.988764
vt 0.125652 0.988764
vt 0.901447 0.299082
vt 0.656091 0.988764
vt 0.390710 0.988764
vt 0.125000 0.687500
vt 0.365886 0.690923
vt 0.375000 0.656250
vt 0.140625 0.656250
vt 0.634174 0.658687
vt 0.375000 0.656250
vt 0.656250 0.718750
vt 0.390625 0.687500
vt 0.609375 0.687500
vt 0.343750 0.718750
vt 0.343750 0.718750
vt 0.609375 0.687500
vt 0.281250 0.937500
vt 0.532688 0.955151
vt 0.343750 0.937500
vt 0.609375 0.968750
vt 0.532688 0.693059
vt 0.281250 0.718750
vt 0.532688 0.955151
vt 0.281250 0.937500
vt 0.343750 0.937500
vt 0.609375 0.968750
vt 0.532688 0.693059
vt 0.281250 0.718750
vt 0.125000 0.687500
vt 0.365896 0.690923
vt 0.375000 0.656250
vt 0.140625 0.656250
vt 0.634184 0.658687
vt 0.375000 0.656250
vt 0.656250 0.718750
vt 0.390625 0.687500
vt 0.616456 0.253628
vt 0.365484 0.988764
vt 0.875000 1.000000
vt 0.901320 0.253628
vt 0.655964 0.988764
vt 0.608440 0.988764
vt 0.366025 0.691907
vt 0.875000 0.687500
vt 0.375000 0.656250
vt 0.859375 0.656250
vt 0.633560 0.659778
vt 0.625000 0.656250
vt 0.656250 0.718750
vt 0.609375 0.687500
vt 0.366025 0.691907
vt 0.875000 0.687500
vt 0.859375 0.656250
vt 0.375000 0.656250
vt 0.633560 0.659778
vt 0.625000 0.656250
vt 0.656250 0.718750
vt 0.609375 0.687500
vt 0.125000 1.000000
vt 0.140625 0.312500
vt 0.365896 1.000000
vt 0.390625 1.000000
vt 0.406250 0.312500
vt 0.656101 1.000000
vt 0.140625 0.250000
vt 0.365484 1.000000
vt 0.875000 1.000000
vt 0.655964 1.000000
vt 0.406250 0.250000
vt 0.609375 1.000000
vt 0.533140 0.692004
vt 0.718750 0.718750
vt 0.533140 0.955825
vt 0.718750 0.937500
vt 0.609375 0.968750
vt 0.656250 0.937500
vt 0.609375 0.687500
vt 0.656250 0.718750
vt 0.718750 0.718750
vt 0.533140 0.692004
vt 0.718750 0.937500
vt 0.533140 0.955825
vt 0.656250 0.937500
vt 0.609375 0.968750
vt 0.656250 0.718750
vt 0.609375 0.687500
vt 0.233804 0.331580
vt 0.766196 0.331580
vt 0.282545 0.331580
vt 0.717455 0.331580
vt 0.316339 0.364995
vt 0.683661 0.364995
vt 0.332586 0.427967
vt 0.667414 0.427967
vt 0.332586 0.528210
vt 0.667414 0.528210
vt 0.318289 0.591183
vt 0.681711 0.591183
vt 0.283845 0.625882
vt 0.716155 0.625882
vt 0.233154 0.625882
vt 0.766846 0.625882
vt 0.199360 0.592467
vt 0.800640 0.592467
vt 0.183113 0.526924
vt 0.816887 0.526924
vt 0.183113 0.429252
vt 0.816887 0.429252
vt 0.798690 0.362424
vt 0.201310 0.362424
vt 0.233804 0.331580
vt 0.766196 0.331580
vt 0.282545 0.331580
vt 0.717455 0.331580
vt 0.316339 0.364995
vt 0.683661 0.364995
vt 0.332586 0.427967
vt 0.667414 0.427967
vt 0.332586 0.528210
vt 0.667414 0.528210
vt 0.318289 0.591183
vt 0.681711 0.591183
vt 0.283845 0.625882
vt 0.716155 0.625882
vt 0.233154 0.625882
vt 0.766846 0.625882
vt 0.199360 0.592467
vt 0.800640 0.592467
vt 0.183113 0.526924
vt 0.816887 0.526924
vt 0.183113 0.429252
vt 0.816887 0.429252
vt 0.201310 0.362424
vt 0.798690 0.362424
vt 0.988636 0.000000
vt 0.512335 0.253628
vt 0.521774 0.253628
vt 1.000000 0.022472
vt 0.500972 0.253628
vt 0.999047 0.253628
vt 0.500972 0.253628
vt 1.000000 0.966292
vt 0.988636 0.988764
vt 0.512335 0.253628
vt 0.521774 0.253628
vt 0.500000 0.022472
vt 1.000972 0.253628
vt 0.511364 0.000000
vt 0.989608 0.253628
vt 0.521774 0.299082
vt 0.500972 0.299082
vt 0.000000 0.022472
vt 0.011364 0.000000
vt 0.512335 0.299082
vt 0.512335 0.299082
vt 0.011364 0.988764
vt 0.999047 0.299082
vt 0.500972 0.299082
vt 0.000000 0.966292
vt 0.488636 0.000000
vt 0.989608 0.299082
vt 0.521774 0.299082
vt 1.000972 0.299082
vt 0.500000 0.022472
s 0
usemtl floppy_disc_1
f 4/12/1 81/184/1 36/88/1
f 77/173/1 78/176/1 33/82/1 34/84/1
f 77/173/1 64/147/1 53/126/1
f 4/12/1 36/88/1 32/80/1
f 77/173/1 63/146/1 64/147/1
f 15/43/3 13/39/3 86/197/3 7/21/3
f 2/4/4 8/22/4 12/34/4 10/28/4
f 12/35/3 11/31/3 9/25/3 10/29/3
f 8/23/5 7/19/5 11/32/5 12/36/5
f 1/1/6 2/5/6 10/30/6 9/26/6
f 7/20/7 1/2/7 9/27/7 11/33/7
f 17/47/8 18/49/8 30/73/8 29/71/8
f 31/76/9 43/104/9 37/89/9 33/81/9
f 21/55/3 41/97/3 27/67/3 23/60/3
f 16/45/10 17/47/10 29/71/10 28/69/10
f 19/52/3 30/74/3 42/100/3 22/57/3
f 22/57/3 42/100/3 41/97/3 21/55/3
f 15/44/11 16/45/11 28/69/11 27/68/11
f 22/58/12 21/56/12 24/61/12 25/64/12
f 23/59/6 19/51/6 20/54/6 26/65/6
f 21/56/7 23/59/7 26/65/7 24/61/7
f 7/21/3 16/46/3 15/43/3
f 47/114/1 44/108/1 40/96/1 48/116/1
f 80/181/1 31/77/1 79/180/1
f 80/182/6 85/193/6 13/37/6 31/75/6
f 36/87/13 35/85/13 39/93/13 40/95/13
f 32/78/6 14/40/6 5/14/6 3/8/6
f 48/116/1 39/94/1 38/91/1 37/90/1 45/110/1
f 34/83/14 33/81/14 37/89/14 38/92/14
f 40/95/7 44/106/7 32/79/7 36/87/7
f 14/41/15 32/79/15 44/106/15 42/102/15
f 35/85/10 34/83/10 38/92/10 39/93/10
f 1/3/3 83/190/3 84/191/3
f 43/103/6 41/98/6 42/101/6 44/107/6
f 31/76/16 13/38/16 41/99/16 43/104/16
f 14/41/17 42/102/17 30/73/17 18/49/17
f 46/111/10 47/113/10 51/122/10 50/120/10
f 24/62/3 26/66/3 20/53/3 25/63/3
f 51/121/1 52/123/1 49/117/1 50/119/1
f 47/113/4 48/115/4 52/124/4 51/122/4
f 45/109/7 46/111/7 50/120/7 49/118/7
f 48/115/18 45/109/18 49/118/18 52/124/18
f 46/112/1 43/105/1 44/108/1 47/114/1
f 48/116/1 40/96/1 39/94/1
f 43/105/1 46/112/1 45/110/1 37/90/1
f 19/51/4 22/58/4 25/64/4 20/54/4
f 2/6/3 1/3/3 84/191/3 87/198/3
f 19/52/3 29/72/3 30/74/3
f 23/60/3 27/67/3 28/70/3
f 28/70/3 29/72/3 19/52/3 23/60/3
f 88/200/7 81/183/7 4/11/7 6/17/7
f 62/143/19 61/141/19 73/165/19 74/167/19
f 57/134/1 58/136/1 35/86/1
f 68/156/1 75/170/1 74/168/1 69/158/1
f 59/137/20 58/135/20 70/159/20 71/161/20
f 56/131/21 55/129/21 67/153/21 68/155/21
f 63/145/4 62/143/4 74/167/4 75/169/4
f 60/139/6 59/137/6 71/161/6 72/163/6
f 57/133/7 56/131/7 68/155/7 69/157/7
f 64/148/22 63/145/22 75/169/22 76/171/22
f 54/127/10 53/125/10 65/149/10 66/151/10
f 61/141/23 60/139/23 72/163/23 73/165/23
f 58/135/24 57/133/24 69/157/24 70/159/24
f 53/125/25 64/148/25 76/171/25 65/149/25
f 55/129/26 54/127/26 66/151/26 67/153/26
f 35/86/1 56/132/1 57/134/1
f 35/86/1 58/136/1 59/138/1
f 59/138/1 60/140/1 34/84/1 35/86/1
f 34/84/1 60/140/1 61/142/1
f 61/142/1 62/144/1 34/84/1
f 81/184/1 55/130/1 56/132/1
f 81/184/1 56/132/1 35/86/1 36/88/1
f 78/175/4 83/188/4 86/195/4 79/178/4
f 77/173/1 34/84/1 62/144/1 63/146/1
f 81/184/1 82/186/1 54/128/1 55/130/1
f 82/186/1 77/173/1 53/126/1 54/128/1
f 78/176/1 79/180/1 33/82/1
f 2/6/3 87/198/3 88/202/3
f 79/179/27 86/196/27 85/193/27 80/182/27
f 77/174/28 84/192/28 83/189/28 78/177/28
f 81/185/29 88/201/29 87/199/29 82/187/29
f 82/187/10 87/199/10 84/192/10 77/174/10
f 8/24/3 2/6/3 88/202/3 6/18/3
f 1/3/3 7/21/3 86/197/3 83/190/3
f 27/68/30 41/99/30 13/38/30 15/44/30
f 16/46/3 7/21/3 8/24/3 17/48/3
f 17/48/3 8/24/3 18/50/3
f 18/50/3 8/24/3 6/18/3 14/42/3
f 14/42/3 6/18/3 5/15/3
f 3/9/1 4/12/1 32/80/1
f 13/39/3 85/194/3 86/197/3
f 31/77/1 33/82/1 79/180/1
f 69/158/1 74/168/1 73/166/1 70/160/1
f 70/160/1 73/166/1 72/164/1 71/162/1
f 75/170/1 68/156/1 67/154/1 76/172/1
f 76/172/1 67/154/1 66/152/1 65/150/1
usemtl 
f 6/16/2 4/10/2 3/7/2 5/13/2
