# Blender 3.4.0
# www.blender.org
mtllib keycard_1.mtl
o keycard_1
v -0.068400 0.001800 0.038760
v -0.065160 0.001800 0.042000
v -0.067451 0.001800 0.041051
v 0.060360 0.001800 0.042000
v 0.063600 0.001800 0.038760
v 0.062651 0.001800 0.041051
v -0.065160 0.001800 -0.043200
v -0.068400 0.001800 -0.039960
v -0.067451 0.001800 -0.042251
v 0.063600 0.001800 -0.039960
v 0.060360 0.001800 -0.043200
v 0.062651 0.001800 -0.042251
v -0.068400 0.000000 -0.039960
v -0.065160 0.000000 -0.043200
v -0.067451 0.000000 -0.042251
v -0.065160 0.000000 0.042000
v -0.068400 0.000000 0.038760
v -0.067451 0.000000 0.041051
v 0.063600 0.000000 0.038760
v 0.060360 0.000000 0.042000
v 0.062651 0.000000 0.041051
v 0.060360 0.000000 -0.043200
v 0.063600 0.000000 -0.039960
v 0.062651 0.000000 -0.042251
vn -0.0000 -0.0000 1.0000
vn -0.0000 -1.0000 -0.0000
vn 1.0000 -0.0000 -0.0000
vn -0.0000 -0.0000 -1.0000
vn -0.0000 1.0000 -0.0000
vn -0.3827 -0.0000 -0.9239
vn -0.9239 -0.0000 -0.3827
vn 0.3827 -0.0000 -0.9239
vn 0.9239 -0.0000 -0.3827
vn 0.3827 -0.0000 0.9239
vn 0.9239 -0.0000 0.3827
vn -0.3827 -0.0000 0.9239
vn -0.9239 -0.0000 0.3827
vn -1.0000 -0.0000 -0.0000
vt 0.056075 0.162162
vt 0.635514 0.054054
vt 0.065421 0.135135
vt 0.570093 0.054054
vt 0.057017 0.148033
vt 0.560748 0.054054
vt 0.635514 0.054054
vt 0.429907 0.135135
vt 0.943925 0.054054
vt 0.439252 0.162162
vt 0.635514 0.054054
vt 0.435626 0.148033
vt 0.953271 0.054054
vt 0.635514 0.054054
vt 0.065421 0.864865
vt 0.570093 0.054054
vt 0.056075 0.837838
vt 0.878505 0.054054
vt 0.057017 0.854191
vt 0.560748 0.054054
vt 0.878505 0.054054
vt 0.439252 0.837838
vt 0.878505 0.054054
vt 0.429907 0.864865
vt 0.943925 0.054054
vt 0.435626 0.854191
vt 0.953271 0.054054
vt 0.878505 0.054054
vt 0.560748 0.837838
vt 0.878505 0.027027
vt 0.570093 0.864865
vt 0.570093 0.027027
vt 0.563065 0.859873
vt 0.560748 0.027027
vt 0.878505 0.027027
vt 0.570093 0.135135
vt 0.570093 0.027027
vt 0.560748 0.162162
vt 0.635514 0.027027
vt 0.563065 0.149107
vt 0.560748 0.027027
vt 0.635514 0.027027
vt 0.953271 0.162162
vt 0.635514 0.027027
vt 0.943925 0.135135
vt 0.943925 0.027027
vt 0.951631 0.149107
vt 0.953271 0.027027
vt 0.635514 0.027027
vt 0.943925 0.864865
vt 0.943925 0.027027
vt 0.953271 0.837838
vt 0.878505 0.027027
vt 0.951631 0.859873
vt 0.953271 0.027027
vt 0.878505 0.027027
s 0
usemtl keycard_1
f 2/4/1 16/37/1 20/46/1 4/9/1
f 16/36/2 18/40/2 17/38/2 13/29/2 15/33/2 14/31/2 22/50/2 24/54/2 23/52/2 19/43/2 21/47/2 20/45/2
f 5/11/3 19/44/3 23/53/3 10/23/3
f 11/25/4 22/51/4 14/32/4 7/16/4
f 1/1/5 3/5/5 2/3/5 4/8/5 6/12/5 5/10/5 10/22/5 12/26/5 11/24/5 7/15/5 9/19/5 8/17/5
f 7/16/6 14/32/6 15/34/6 9/20/6
f 9/21/7 15/35/7 13/30/7 8/18/7
f 22/51/8 11/25/8 12/27/8 24/55/8
f 24/56/9 12/28/9 10/23/9 23/53/9
f 4/9/10 20/46/10 21/48/10 6/13/10
f 6/14/11 21/49/11 19/44/11 5/11/11
f 16/37/12 2/4/12 3/6/12 18/41/12
f 18/42/13 3/7/13 1/2/13 17/39/13
f 8/18/14 13/30/14 17/39/14 1/2/14
