# Blender 3.4.0
# www.blender.org
mtllib kitchen_knife_1.mtl
o kitchen_knife_1
v -0.021965 0.004600 -0.091758
v -0.047015 0.004600 -0.093968
v -0.075748 0.004600 -0.091021
v -0.131004 0.002514 -0.086600
v -0.142055 0.002514 -0.097652
v -0.150159 0.002514 -0.140383
v -0.156053 0.002514 -0.202269
v -0.158263 0.002514 -0.265629
v -0.158263 0.002514 -0.323095
v -0.148686 0.002514 -0.385718
v -0.139845 0.002514 -0.423292
v -0.130267 0.002514 -0.424766
v -0.079431 0.004600 -0.418872
v 0.001610 0.004600 -0.406347
v 0.008978 0.004600 -0.401190
v 0.009715 0.004600 -0.389402
v 0.012662 0.004600 -0.098388
v -0.021965 -0.003743 -0.091758
v -0.047015 -0.003743 -0.093968
v -0.075748 -0.003743 -0.091021
v -0.131004 -0.001657 -0.086600
v -0.142055 -0.001657 -0.097652
v -0.150159 -0.001657 -0.140383
v -0.156053 -0.001657 -0.202269
v -0.158263 -0.001657 -0.265629
v -0.158263 -0.001657 -0.323095
v -0.148686 -0.001657 -0.385718
v -0.139845 -0.001657 -0.423292
v -0.130267 -0.001657 -0.424766
v -0.079431 -0.003743 -0.418872
v 0.001610 -0.003743 -0.406347
v 0.008978 -0.003743 -0.401190
v 0.009715 -0.003743 -0.389402
v 0.012662 -0.003743 -0.098388
v 0.014536 0.017114 0.068181
v 0.022976 0.008771 0.071063
v 0.008978 0.008771 0.088008
v 0.004027 0.017114 0.080902
v -0.005757 0.008771 0.093166
v -0.006665 0.017114 0.084644
v -0.023439 0.008771 0.090955
v -0.014573 0.017114 0.083656
v -0.020492 0.008771 0.048224
v -0.012161 0.017114 0.048687
v -0.018282 0.008771 -0.001875
v -0.009936 0.017114 -0.001757
v -0.010678 0.017114 -0.048509
v -0.019018 0.008771 -0.048290
v 0.019292 0.008771 -0.093968
v 0.010974 0.017114 -0.092293
v 0.020029 0.008771 -0.045343
v 0.011688 0.017114 -0.045147
v 0.021503 0.008771 0.000336
v 0.013162 0.017114 0.000533
v 0.022239 0.008771 0.048224
v 0.013898 0.017114 0.048398
v 0.022976 -0.007914 0.071063
v 0.014536 -0.016257 0.068181
v 0.004027 -0.016257 0.080902
v 0.008978 -0.007914 0.088008
v -0.006665 -0.016257 0.084644
v -0.005757 -0.007914 0.093166
v -0.014573 -0.016257 0.083656
v -0.023439 -0.007914 0.090955
v -0.012161 -0.016257 0.048687
v -0.020492 -0.007914 0.048224
v -0.009936 -0.016257 -0.001757
v -0.018282 -0.007914 -0.001875
v -0.010678 -0.016257 -0.048509
v -0.019018 -0.007914 -0.048290
v 0.010974 -0.016257 -0.092293
v 0.019292 -0.007914 -0.093968
v 0.011688 -0.016257 -0.045147
v 0.020029 -0.007914 -0.045343
v 0.013162 -0.016257 0.000533
v 0.021503 -0.007914 0.000336
v 0.013898 -0.016257 0.048398
v 0.022239 -0.007914 0.048224
v -0.012208 0.017114 -0.087624
v -0.020492 0.008771 -0.085956
v -0.020492 -0.007914 -0.085956
v -0.012208 -0.016257 -0.087624
vn 0.8797 0.3686 0.3004
vn 0.8797 -0.3686 0.3004
vn 0.9233 -0.3834 -0.0220
vn 0.9233 0.3834 -0.0220
vn -0.9998 -0.0000 0.0174
vn -0.9979 -0.0000 0.0649
vn -0.7113 0.3886 0.5856
vn -0.7113 -0.3886 0.5856
vn 0.0984 -0.3699 0.9238
vn 0.0984 0.3699 0.9238
vn 0.5313 -0.3691 0.7626
vn 0.5313 0.3691 0.7626
vn -0.9971 -0.0000 -0.0758
vn -0.9220 0.3838 -0.0521
vn -0.9220 -0.3838 -0.0521
vn -0.9817 -0.0000 -0.1903
vn -0.9227 0.3854 -0.0130
vn -0.9227 -0.3854 -0.0130
vn -0.9734 -0.0000 -0.2290
vn -0.9231 0.3837 0.0254
vn -0.9231 -0.3837 0.0254
vn -0.0169 -0.0000 -0.9999
vn -0.1521 -0.0000 -0.9884
vn -0.8983 0.4375 -0.0402
vn -0.8983 -0.4375 -0.0402
vn 0.1342 -0.0000 -0.9910
vn 0.7956 0.3694 -0.4802
vn 0.2892 0.2511 -0.9237
vn 0.2479 0.8311 -0.4978
vn 0.3728 -0.0000 -0.9279
vn 0.0071 -0.0000 1.0000
vn -0.9098 -0.2739 0.3119
vn -0.9098 0.2739 0.3119
vn 0.5735 -0.0000 -0.8192
vn 0.0910 -0.0000 0.9958
vn 0.9993 -0.0000 -0.0363
vn 0.9981 -0.0000 -0.0624
vn 0.9999 -0.0000 -0.0101
vn 0.9233 0.3834 -0.0219
vn 0.9233 -0.3834 -0.0219
vn 0.7956 -0.3694 -0.4802
vn -0.7071 -0.0000 0.7071
vn 0.9239 0.3820 -0.0220
vn 0.9239 -0.3820 -0.0220
vn -0.9900 -0.0000 0.1407
vn -0.9825 -0.0000 0.1863
vn -0.3596 0.8333 -0.4199
vn -0.3801 0.9249 0.0104
vn 0.3808 0.9246 -0.0090
vn 0.2479 -0.8311 -0.4978
vn 0.3808 -0.9246 -0.0090
vn -0.3801 -0.9249 0.0104
vn -0.3596 -0.8333 -0.4199
vn -0.0199 0.9998 0.0001
vn -0.0257 0.9997 0.0001
vn -0.0207 0.9998 0.0001
vn -0.0215 0.9998 0.0001
vn -0.0199 -0.9998 0.0001
vn -0.0257 -0.9997 0.0001
vn -0.0000 -1.0000 -0.0000
vn -0.0000 1.0000 -0.0000
vn -0.0215 -0.9998 0.0001
vn -0.0207 -0.9998 0.0001
vn 0.2892 -0.2511 -0.9237
vn 0.4121 0.9002 0.1407
vn 0.2440 0.9043 0.3503
vn 0.0447 0.9067 0.4195
vn -0.3307 0.9036 0.2723
vn -0.3795 0.9250 -0.0215
vn -0.3763 0.9265 -0.0053
vn 0.3843 0.9232 -0.0092
vn 0.3808 0.9246 -0.0091
vn 0.4121 -0.9002 0.1407
vn 0.2440 -0.9043 0.3503
vn 0.0447 -0.9067 0.4195
vn -0.3307 -0.9036 0.2723
vn -0.3795 -0.9250 -0.0215
vn -0.3763 -0.9265 -0.0053
vn 0.3843 -0.9232 -0.0092
vn 0.3808 -0.9246 -0.0091
vn 0.0797 -0.0000 0.9968
vt 0.639932 0.740371
vt 0.618628 0.844581
vt 0.628924 0.722634
vt 0.624868 0.602533
vt 0.630277 0.464770
vt 0.638391 0.199841
vt 0.618106 0.146855
vt 0.539677 0.107999
vt 0.426088 0.079740
vt 0.309796 0.069143
vt 0.204321 0.069143
vt 0.089380 0.115064
vt 0.020416 0.157452
vt 0.017711 0.203373
vt 0.028529 0.447108
vt 0.051518 0.835671
vt 0.060983 0.870995
vt 0.082619 0.874527
vt 0.639932 0.884802
vt 0.653601 0.884802
vt 0.616755 0.888657
vt 0.618628 0.802302
vt 0.640280 0.740371
vt 0.628924 0.722634
vt 0.624868 0.602533
vt 0.630277 0.464770
vt 0.638391 0.199841
vt 0.618106 0.146855
vt 0.539677 0.107999
vt 0.426088 0.079740
vt 0.309796 0.069143
vt 0.204321 0.069143
vt 0.089380 0.115064
vt 0.020416 0.157452
vt 0.017711 0.203373
vt 0.028529 0.447108
vt 0.051518 0.835671
vt 0.060983 0.870995
vt 0.082619 0.874527
vt 0.640280 0.884802
vt 0.616755 0.888657
vt 0.921875 0.918367
vt 0.911225 0.882704
vt 0.917761 0.902779
vt 0.916480 0.842976
vt 0.937500 0.877551
vt 0.906250 0.877551
vt 0.898438 0.918367
vt 0.941485 0.851585
vt 0.882812 0.877551
vt 0.882812 0.918367
vt 0.948464 0.799501
vt 0.851562 0.877551
vt 0.918137 0.850720
vt 0.867188 0.918367
vt 0.903976 0.892999
vt 0.946620 0.760978
vt 0.835239 0.850720
vt 0.836137 0.892999
vt 0.881409 0.772726
vt 0.738049 0.850720
vt 0.793001 0.850720
vt 0.738277 0.892999
vt 0.793229 0.892999
vt 0.787340 0.783566
vt 0.702530 0.892999
vt 0.700155 0.779952
vt 0.702955 0.850720
vt 0.633272 0.912459
vt 0.660262 0.912459
vt 0.615638 0.842976
vt 0.618507 0.885427
vt 0.619951 0.877763
vt 0.618692 0.882704
vt 0.704279 0.842976
vt 0.704635 0.882704
vt 0.706424 0.888907
vt 0.787548 0.842976
vt 0.787906 0.882704
vt 0.791609 0.896085
vt 0.874845 0.842976
vt 0.875162 0.882704
vt 0.880870 0.899671
vt 0.916480 0.763520
vt 0.937500 0.795918
vt 0.921875 0.755102
vt 0.911225 0.723792
vt 0.917761 0.902779
vt 0.898438 0.755102
vt 0.941485 0.851585
vt 0.906250 0.795918
vt 0.882812 0.755102
vt 0.948464 0.799501
vt 0.882812 0.795918
vt 0.867188 0.755102
vt 0.903976 0.723884
vt 0.946620 0.760978
vt 0.851562 0.795918
vt 0.918137 0.766163
vt 0.836137 0.723884
vt 0.881409 0.772726
vt 0.835239 0.766163
vt 0.738277 0.723884
vt 0.793229 0.723884
vt 0.787340 0.783566
vt 0.738049 0.766163
vt 0.793001 0.766163
vt 0.702530 0.723884
vt 0.700155 0.779952
vt 0.702955 0.766163
vt 0.618507 0.885427
vt 0.618692 0.723792
vt 0.620298 0.877763
vt 0.633619 0.912459
vt 0.615638 0.763520
vt 0.704635 0.723792
vt 0.706424 0.888907
vt 0.704279 0.763520
vt 0.787906 0.723792
vt 0.791609 0.896085
vt 0.787548 0.763520
vt 0.875162 0.723792
vt 0.880870 0.899671
vt 0.874845 0.763520
vt 0.627212 0.772498
vt 0.619951 0.781069
vt 0.626647 0.892999
vt 0.626647 0.907999
vt 0.629883 0.850720
vt 0.629883 0.865720
vt 0.629883 0.766163
vt 0.629883 0.781163
vt 0.627212 0.772498
vt 0.626647 0.738884
vt 0.626647 0.723884
vt 0.620298 0.781069
s 1
usemtl kitchen_knife_1
f 36/45/1 57/84/2 78/124/3 55/81/4
f 8/10/5 25/31/5 24/30/6 7/9/6
f 41/53/7 64/98/8 62/94/9 39/50/10
f 39/50/10 62/94/9 60/91/11 37/47/12
f 9/11/13 26/32/13 25/31/5 8/10/5
f 43/58/14 66/102/15 64/99/8 41/54/7
f 10/12/16 27/33/16 26/32/13 9/11/13
f 45/61/17 68/106/18 66/102/15 43/58/14
f 11/13/19 28/34/19 27/33/16 10/12/16
f 48/68/20 70/110/21 68/107/18 45/62/17
f 12/14/22 29/35/22 28/34/23 11/13/23
f 80/129/24 81/131/25 70/110/21 48/68/20
f 13/15/26 30/36/26 29/35/22 12/14/22
f 49/69/27 17/19/28 50/73/29
f 14/16/30 31/37/30 30/36/26 13/15/26
f 2/4/31 19/25/31 18/24/32 1/3/33
f 15/17/34 32/38/34 31/37/30 14/16/30
f 3/5/35 20/26/35 19/25/31 2/4/31
f 16/18/36 33/39/36 32/38/37 15/17/37
f 17/21/38 34/41/38 33/39/36 16/18/36
f 51/75/39 74/118/40 72/115/41 49/71/27
f 5/7/42 22/28/42 21/27/42 4/6/42
f 53/78/43 76/121/44 74/118/40 51/75/39
f 6/8/45 23/29/45 22/28/46 5/7/46
f 55/81/4 78/124/3 76/121/44 53/78/43
f 7/9/6 24/30/6 23/29/45 6/8/45
f 79/125/47 47/67/48 52/77/49 50/72/29
f 71/111/50 73/117/51 69/109/52 82/133/53
f 12/14/54 4/6/55 3/5/56 13/15/57
f 29/35/58 21/27/59 22/28/60 26/32/60 27/33/60
f 11/13/61 10/12/61 12/14/54
f 30/36/62 20/26/63 21/27/59 29/35/58
f 13/15/57 3/5/56 2/4/61 14/16/61
f 30/36/62 31/37/60 19/25/60 20/26/63
f 81/132/25 18/22/32 82/134/53
f 50/73/29 17/19/28 1/1/33 79/126/47
f 34/40/64 17/20/28 49/70/27 72/114/41
f 34/40/64 72/114/41 71/113/50
f 36/46/1 35/42/65 38/48/66 37/47/12
f 37/47/12 38/48/66 40/51/67 39/50/10
f 39/50/10 40/51/67 42/55/68 41/53/7
f 41/54/7 42/56/68 44/59/69 43/58/14
f 43/58/14 44/59/69 46/63/70 45/61/17
f 45/62/17 46/64/70 47/66/48 48/68/20
f 49/71/27 50/74/29 52/76/49 51/75/39
f 51/75/39 52/76/49 54/79/71 53/78/43
f 53/78/43 54/79/71 56/82/72 55/81/4
f 55/81/4 56/82/72 35/43/65 36/45/1
f 58/86/73 57/85/2 60/91/11 59/89/74
f 59/89/74 60/91/11 62/94/9 61/92/75
f 61/92/75 62/94/9 64/98/8 63/95/76
f 63/96/76 64/99/8 66/102/15 65/100/77
f 65/100/77 66/102/15 68/106/18 67/103/78
f 67/104/78 68/107/18 70/110/21 69/108/52
f 71/112/50 72/115/41 74/118/40 73/116/51
f 73/116/51 74/118/40 76/121/44 75/119/79
f 75/119/79 76/121/44 78/124/3 77/122/80
f 77/122/80 78/124/3 57/84/2 58/87/73
f 48/68/20 47/66/48 79/127/47 80/129/24
f 69/108/52 70/110/21 81/131/25 82/135/53
f 37/47/12 60/91/11 57/85/2 36/46/1
f 79/128/47 1/2/33 80/130/24
f 80/130/24 1/2/33 18/22/32 81/132/25
f 18/23/32 34/40/64 71/113/50 82/136/53
f 4/6/81 21/27/81 20/26/35 3/5/35
f 16/18/61 15/17/61 14/16/61
f 2/4/61 1/3/61 16/18/61 14/16/61
f 1/3/61 17/21/61 16/18/61
f 9/11/61 8/10/61 6/8/61 5/7/61
f 10/12/61 9/11/61 5/7/61 4/6/55 12/14/54
f 27/33/60 28/34/60 29/35/58
f 22/28/60 23/29/60 25/31/60 26/32/60
f 31/37/60 32/38/60 33/39/60
f 31/37/60 33/39/60 18/24/60 19/25/60
f 33/39/60 34/41/60 18/24/60
f 47/67/48 46/65/70 54/80/71 52/77/49
f 46/65/70 44/60/69 56/83/72 54/80/71
f 44/60/69 42/57/68 35/44/65 56/83/72
f 77/123/80 58/88/73 63/97/76 65/101/77
f 75/120/79 77/123/80 65/101/77 67/105/78
f 73/117/51 75/120/79 67/105/78 69/109/52
f 58/88/73 59/90/74 61/93/75 63/97/76
f 42/57/68 40/52/67 38/49/66 35/44/65
f 8/10/61 7/9/61 6/8/61
f 23/29/60 24/30/60 25/31/60
