# Blender 3.4.0
# www.blender.org
mtllib painting_1.mtl
o painting_1
v -0.255243 -0.292000 0.000000
v 0.255243 -0.292000 0.000000
v -0.255243 0.292000 -0.000000
v 0.255243 0.292000 -0.000000
v -0.293048 0.329805 0.020520
v -0.293048 -0.329805 0.020520
v 0.293048 -0.329805 0.020520
v 0.293048 0.329805 0.020520
v -0.305243 0.342000 0.020520
v -0.305243 -0.342000 0.020520
v 0.305243 -0.342000 0.020520
v 0.305243 0.342000 0.020520
v -0.270933 0.307690 0.041040
v -0.270933 -0.307690 0.041040
v 0.270933 -0.307690 0.041040
v 0.270933 0.307690 0.041040
v -0.253741 0.290498 0.030780
v -0.253741 -0.290498 0.030780
v 0.253741 -0.290498 0.030780
v 0.253741 0.290498 0.030780
v -0.222705 0.259462 0.061560
v -0.222705 -0.259462 0.061560
v 0.222705 -0.259462 0.061560
v 0.222705 0.259462 0.061560
v -0.163736 0.200493 0.046170
v -0.163736 -0.200493 0.046170
v 0.163736 -0.200493 0.046170
v 0.163736 0.200493 0.046170
v -0.193221 -0.229978 0.051300
v -0.193221 0.229978 0.051300
v 0.193221 -0.229978 0.051300
v 0.193221 0.229978 0.051300
v -0.166236 0.202993 0.051300
v -0.163736 0.200493 0.048800
v -0.163736 -0.200493 0.048800
v -0.166236 -0.202993 0.051300
v 0.166236 -0.202993 0.051300
v 0.163736 -0.200493 0.048800
v 0.163736 0.200493 0.048800
v 0.166236 0.202993 0.051300
v -0.305243 -0.342000 0.000000
v -0.305243 0.342000 -0.000000
v 0.305243 0.342000 -0.000000
v 0.305243 -0.342000 0.000000
v -0.255243 -0.292000 0.005000
v -0.255243 0.292000 0.005000
v 0.255243 0.292000 0.005000
v 0.255243 -0.292000 0.005000
vn 0.8959 -0.0000 0.4444
vn 1.0000 -0.0000 -0.0000
vn -0.0000 -0.0000 1.0000
vn -0.4096 -0.0000 0.9123
vn -0.6802 -0.0000 0.7331
vn -0.0000 -0.4096 0.9123
vn -0.0000 -0.6802 0.7331
vn 0.4096 -0.0000 0.9123
vn 0.6802 -0.0000 0.7331
vn -0.0000 0.4096 0.9123
vn -0.0000 0.6802 0.7331
vn 0.5125 -0.0000 0.8587
vn -0.0000 0.5125 0.8587
vn -0.5125 -0.0000 0.8587
vn -0.0000 -0.5125 0.8587
vn -0.4808 -0.0000 0.8768
vn -0.7042 -0.0000 0.7100
vn -0.0000 -0.4808 0.8768
vn -0.0000 -0.7042 0.7100
vn 0.4808 -0.0000 0.8768
vn 0.7042 -0.0000 0.7100
vn -0.0000 0.4808 0.8768
vn -0.0000 0.7042 0.7100
vn 0.3286 -0.0000 0.9445
vn -0.0000 0.3286 0.9445
vn -0.3286 -0.0000 0.9445
vn -0.0000 -0.3286 0.9445
vn -1.0000 -0.0000 -0.0000
vn -0.0000 1.0000 -0.0000
vn -0.0000 -1.0000 -0.0000
vn -0.8959 -0.0000 0.4444
vn -0.0000 -0.8959 0.4443
vn -0.0000 0.8959 0.4443
vn -0.0000 -0.7071 0.7071
vn -0.0000 0.7071 0.7071
vn -0.7071 -0.0000 0.7071
vn 0.7071 -0.0000 0.7071
vn -0.7071 0.7071 -0.0000
vn 0.7071 0.7071 -0.0000
vn -0.0000 -0.0000 -1.0000
vn 0.7071 -0.7071 -0.0000
vn -0.7071 -0.7071 -0.0000
vt 0.372378 0.498750
vt 0.372378 0.354000
vt 0.354000 0.498750
vt 0.627622 0.498750
vt 0.627622 0.354000
vt 0.354000 0.498750
vt 0.372378 0.646000
vt 0.372378 0.498750
vt 0.646000 0.498750
vt 0.627622 0.646000
vt 0.627622 0.498750
vt 0.646000 0.498750
vt 0.019975 0.982171
vt 0.019975 0.017829
vt 0.980025 0.017829
vt 0.980025 0.982171
vt 0.000000 1.000000
vt 1.000000 0.961778
vt 0.053738 0.961778
vt 0.000000 0.000000
vt 0.000000 0.961778
vt 0.053738 0.961778
vt 1.000000 0.000000
vt 0.000000 0.961778
vt 0.946262 0.961778
vt 1.000000 1.000000
vt 1.000000 0.961778
vt 0.946262 0.961778
vt 0.056201 0.949839
vt 0.056201 0.050161
vt 0.943799 0.050161
vt 0.943799 0.949839
vt 0.084362 0.924705
vt 0.084362 0.075295
vt 0.915638 0.075295
vt 0.915638 0.924705
vt 0.135200 0.879331
vt 0.135200 0.120669
vt 0.864800 0.120669
vt 0.864800 0.879331
vt 0.218750 0.800000
vt 0.218750 0.200000
vt 0.781250 0.200000
vt 0.781250 0.800000
vt 0.183497 0.163775
vt 0.183497 0.836225
vt 0.816503 0.163775
vt 0.816503 0.836225
vt 0.215761 0.803071
vt 0.218750 0.800000
vt 0.218750 0.200000
vt 0.215761 0.196929
vt 0.784239 0.196929
vt 0.781250 0.200000
vt 0.781250 0.800000
vt 0.784239 0.803071
vt 0.000000 0.979628
vt 0.053738 0.979628
vt 0.347378 0.329000
vt 1.000000 0.979628
vt 0.053738 0.979628
vt 0.347378 0.671000
vt 1.000000 0.979628
vt 0.946262 0.979628
vt 0.652622 0.671000
vt 0.000000 0.979628
vt 0.946262 0.979628
vt 0.652622 0.329000
vt 0.372378 0.501250
vt 0.666667 0.937500
vt 0.354000 0.501250
vt 1.000000 0.937500
vt 0.372378 0.501250
vt 0.646000 0.501250
vt 1.000000 0.062500
vt 0.627622 0.501250
vt 0.646000 0.501250
vt 0.627622 0.501250
vt 0.666667 0.062500
vt 0.354000 0.501250
s 1
usemtl painting_1
f 34/50/1 35/51/1 26/42/2 25/41/2
f 6/14/3 5/13/3 9/17/3 10/20/3
f 7/15/3 6/14/3 10/20/3 11/23/3
f 8/16/3 7/15/3 11/23/3 12/26/3
f 5/13/3 8/16/3 12/26/3 9/17/3
f 14/30/4 13/29/4 5/13/5 6/14/5
f 15/31/6 14/30/6 6/14/7 7/15/7
f 16/32/8 15/31/8 7/15/9 8/16/9
f 13/29/10 16/32/10 8/16/11 5/13/11
f 18/34/12 17/33/12 13/29/4 14/30/4
f 19/35/13 18/34/13 14/30/6 15/31/6
f 20/36/14 19/35/14 15/31/8 16/32/8
f 17/33/15 20/36/15 16/32/10 13/29/10
f 22/38/16 21/37/16 17/33/17 18/34/17
f 23/39/18 22/38/18 18/34/19 19/35/19
f 24/40/20 23/39/20 19/35/21 20/36/21
f 21/37/22 24/40/22 20/36/23 17/33/23
f 29/45/24 30/46/24 21/37/16 22/38/16
f 31/47/25 29/45/25 22/38/18 23/39/18
f 32/48/26 31/47/26 23/39/20 24/40/20
f 30/46/27 32/48/27 24/40/22 21/37/22
f 44/66/2 43/63/2 12/27/2 11/24/2
f 42/60/28 41/57/28 10/21/28 9/18/28
f 43/64/29 42/61/29 9/19/29 12/28/29
f 41/58/30 44/67/30 11/25/30 10/22/30
f 26/42/3 27/43/3 28/44/3 25/41/3
f 38/54/31 39/55/31 28/44/28 27/43/28
f 40/56/3 37/53/3 31/47/3 32/48/3
f 36/52/3 33/49/3 30/46/3 29/45/3
f 39/55/32 34/50/32 25/41/30 28/44/30
f 35/51/33 38/54/33 27/43/29 26/42/29
f 37/53/3 36/52/3 29/45/3 31/47/3
f 40/56/34 33/49/34 34/50/32 39/55/32
f 36/52/35 37/53/35 38/54/33 35/51/33
f 37/53/36 40/56/36 39/55/31 38/54/31
f 33/49/37 36/52/37 35/51/1 34/50/1
f 33/49/3 40/56/3 32/48/3 30/46/3
usemtl wood_2
f 2/4/38 1/1/39 45/69/39 48/78/38
f 3/7/40 1/2/40 41/59/40 42/62/40
f 4/10/40 3/7/40 42/62/40 43/65/40
f 2/5/40 4/10/40 43/65/40 44/68/40
f 1/2/40 2/5/40 44/68/40 41/59/40
f 3/8/41 4/11/42 47/76/42 46/73/41
f 4/12/42 2/6/38 48/80/38 47/77/42
f 1/3/39 3/9/41 46/74/41 45/71/39
usemtl cardboard_box_2
f 45/70/40 46/72/40 47/75/40 48/79/40
