# Blender 3.4.0
# www.blender.org
mtllib pipes_holder_1.mtl
o pipes_holder_1
v 0.300002 0.005000 0.025000
v 0.300002 -0.005000 0.025000
v 0.300002 0.005000 -0.025000
v 0.300002 -0.005000 -0.025000
v -0.299998 0.005000 0.025000
v -0.299998 -0.005000 0.025000
v -0.299998 0.005000 -0.025000
v -0.299998 -0.005000 -0.025000
v 0.300002 0.005000 -0.035000
v 0.300002 -0.005000 -0.035000
v -0.299998 0.005000 -0.035000
v -0.299998 -0.005000 -0.035000
v 0.300002 -0.025000 -0.025000
v -0.299998 -0.025000 -0.025000
v 0.300002 -0.025000 -0.035000
v -0.299998 -0.025000 -0.035000
v 0.265488 -0.017098 -0.012201
v 0.261587 -0.017098 0.009922
v 0.266798 -0.004998 -0.008566
v 0.264062 -0.004998 0.006955
v 0.278354 -0.017098 -0.009932
v 0.274453 -0.017098 0.012191
v 0.275878 -0.004998 -0.006965
v 0.273142 -0.004998 0.008556
v 0.257114 -0.017098 -0.002272
v 0.260924 -0.004998 -0.001600
v 0.279016 -0.004998 0.001590
v 0.282826 -0.017098 0.002262
v 0.252952 -0.014598 -0.003006
v 0.258877 -0.014598 0.013149
v 0.286987 -0.014598 0.002996
v 0.281063 -0.014598 -0.013159
v 0.264045 -0.014598 -0.016159
v 0.275895 -0.014598 0.016149
v 0.258170 -0.017098 0.004251
v 0.281770 -0.017098 -0.004261
v 0.272137 -0.017098 -0.012295
v 0.267803 -0.017098 0.012285
v 0.260337 -0.017098 -0.008040
v 0.279603 -0.017098 0.008030
v 0.264045 -0.004998 -0.016159
v 0.252952 -0.004998 -0.003006
v 0.281063 -0.004998 -0.013159
v 0.258877 -0.004998 0.013149
v 0.275895 -0.004998 0.016149
v 0.286987 -0.004998 0.002996
v 0.266798 0.495002 -0.008566
v 0.260924 0.495002 -0.001600
v 0.275878 0.495002 -0.006965
v 0.264062 0.495002 0.006955
v 0.273142 0.495002 0.008556
v 0.279016 0.495002 0.001590
v -0.274513 -0.017098 -0.012201
v -0.278414 -0.017098 0.009922
v -0.273203 -0.004998 -0.008566
v -0.275939 -0.004998 0.006955
v -0.261647 -0.017098 -0.009932
v -0.265548 -0.017098 0.012191
v -0.264123 -0.004998 -0.006965
v -0.266859 -0.004998 0.008556
v -0.282887 -0.017098 -0.002272
v -0.279077 -0.004998 -0.001600
v -0.260985 -0.004998 0.001590
v -0.257175 -0.017098 0.002262
v -0.287048 -0.014598 -0.003006
v -0.281124 -0.014598 0.013149
v -0.253013 -0.014598 0.002996
v -0.258938 -0.014598 -0.013159
v -0.275956 -0.014598 -0.016159
v -0.264106 -0.014598 0.016149
v -0.281831 -0.017098 0.004251
v -0.258231 -0.017098 -0.004261
v -0.267864 -0.017098 -0.012295
v -0.272198 -0.017098 0.012285
v -0.279664 -0.017098 -0.008040
v -0.260398 -0.017098 0.008030
v -0.275956 -0.004998 -0.016159
v -0.287048 -0.004998 -0.003006
v -0.258938 -0.004998 -0.013159
v -0.281124 -0.004998 0.013149
v -0.264106 -0.004998 0.016149
v -0.253014 -0.004998 0.002996
v -0.273203 0.495002 -0.008566
v -0.279077 0.495002 -0.001600
v -0.264123 0.495002 -0.006965
v -0.275939 0.495002 0.006955
v -0.266859 0.495002 0.008556
v -0.260985 0.495002 0.001590
vn 1.0000 -0.0000 -0.0000
vn -0.0000 1.0000 -0.0000
vn -1.0000 -0.0000 -0.0000
vn -0.0000 -0.0000 1.0000
vn -0.0000 -1.0000 -0.0000
vn -0.0000 -0.0000 -1.0000
vn -0.8957 -0.4156 -0.1579
vn -0.5838 -0.4155 0.6975
vn -0.5085 0.6102 0.6075
vn -0.7806 0.6096 -0.1377
vn 0.7806 0.6096 0.1376
vn 0.2701 0.6102 0.7448
vn 0.3100 -0.4155 0.8551
vn 0.8957 -0.4156 0.1579
vn -0.2701 0.6102 -0.7448
vn 0.5085 0.6102 -0.6075
vn 0.5838 -0.4155 -0.6975
vn -0.3100 -0.4155 -0.8551
vn 0.2018 -0.9491 -0.2419
vn 0.3691 -0.9195 -0.1354
vn 0.3099 -0.9492 0.0546
vn 0.3005 -0.9195 0.2534
vn 0.1069 -0.9491 0.2963
vn -0.0683 -0.9195 0.3871
vn -0.2018 -0.9491 0.2418
vn -0.3691 -0.9195 0.1354
vn -0.3098 -0.9492 -0.0546
vn -0.3005 -0.9195 -0.2534
vn -0.1069 -0.9491 -0.2963
vn 0.0683 -0.9195 -0.3871
vn 0.3499 0.8383 -0.4181
vn -0.1858 0.8383 -0.5126
vn -0.5354 0.8393 -0.0944
vn 0.1858 0.8383 0.5125
vn -0.3499 0.8383 0.4181
vn 0.5354 0.8393 0.0944
vn -0.2018 -0.9491 0.2419
vn 0.5355 0.8393 0.0944
vt 0.470000 0.485000
vt 0.200000 0.485000
vt 0.200000 0.470000
vt 0.470000 0.495000
vt 0.200000 0.495000
vt 0.200000 0.470000
vt 0.200000 0.520000
vt 0.520000 0.485000
vt 0.200000 0.520000
vt 0.200000 0.495000
vt 0.520000 0.495000
vt 0.470000 0.485000
vt 0.800000 0.485000
vt 0.800000 0.470000
vt 0.470000 0.495000
vt 0.800000 0.495000
vt 0.800000 0.470000
vt 0.800000 0.520000
vt 0.520000 0.485000
vt 0.800000 0.520000
vt 0.520000 0.495000
vt 0.800000 0.495000
vt 0.200000 0.530000
vt 0.200000 0.485000
vt 0.530000 0.485000
vt 0.200000 0.495000
vt 0.530000 0.495000
vt 0.800000 0.530000
vt 0.800000 0.485000
vt 0.530000 0.485000
vt 0.530000 0.495000
vt 0.800000 0.495000
vt 0.200000 0.520000
vt 0.200000 0.515000
vt 0.520000 0.515000
vt 0.520000 0.515000
vt 0.800000 0.520000
vt 0.800000 0.515000
vt 0.200000 0.530000
vt 0.200000 0.515000
vt 0.530000 0.515000
vt 0.530000 0.515000
vt 0.800000 0.530000
vt 0.800000 0.515000
vt 0.495483 3.035800
vt 0.491582 3.057922
vt 0.496828 0.250000
vt 0.496828 0.491439
vt 0.250000 0.491439
vt 0.494092 0.506960
vt 0.250000 0.506960
vt 0.494092 0.250000
vt 0.508349 3.038068
vt 0.504448 3.060191
vt 0.505908 0.250000
vt 0.505908 0.493040
vt 0.250000 0.493040
vt 0.503172 0.508561
vt 0.503172 0.250000
vt 0.250000 0.508561
vt 0.487109 3.045728
vt 0.490954 0.498405
vt 0.250000 0.498405
vt 0.509046 0.501595
vt 0.250000 0.501595
vt 0.512821 3.050262
vt 1.806402 3.044995
vt 0.482948 3.044995
vt 1.806402 3.061149
vt 0.488873 3.061149
vt 0.488873 1.806402
vt 1.806402 3.050996
vt 0.516983 3.050996
vt 1.806402 3.034842
vt 0.511058 3.034842
vt 0.511058 1.806402
vt 1.806402 3.031841
vt 0.494040 1.806402
vt 0.494040 3.031841
vt 1.806402 3.064149
vt 0.505890 1.806402
vt 0.505890 3.064149
vt 0.488165 3.052251
vt 0.511765 3.043740
vt 0.502132 1.803902
vt 0.502132 3.035705
vt 0.497798 1.803902
vt 0.497798 3.060286
vt 0.490332 3.039960
vt 0.509598 3.056030
vt 0.494040 1.816002
vt 1.816002 3.031841
vt 0.494075 0.483846
vt 1.816002 3.044995
vt 0.482983 0.496999
vt 0.511058 1.816002
vt 1.816002 3.034842
vt 0.511093 0.486846
vt 1.816002 3.061149
vt 0.488872 1.816002
vt 0.488907 0.513154
vt 1.816002 3.064149
vt 0.505890 1.816002
vt 0.505925 0.516154
vt 1.816002 3.050996
vt 0.517017 0.503000
vt 0.496828 0.750000
vt 0.496828 0.491439
vt 0.750000 0.491439
vt 0.490954 0.498405
vt 0.750000 0.498405
vt 0.505908 0.750000
vt 0.505908 0.493040
vt 0.750000 0.493040
vt 0.494092 0.506960
vt 0.750000 0.506960
vt 0.494092 0.750000
vt 0.503172 0.508561
vt 0.503172 0.750000
vt 0.750000 0.508561
vt 0.509046 0.501595
vt 0.750000 0.501595
vt 0.495483 3.035800
vt 0.491582 3.057922
vt 0.496828 0.250000
vt 0.496828 0.491439
vt 0.250000 0.491439
vt 0.494092 0.506960
vt 0.250000 0.506960
vt 0.494092 0.250000
vt 0.508349 3.038068
vt 0.504448 3.060191
vt 0.505908 0.250000
vt 0.505908 0.493040
vt 0.250000 0.493040
vt 0.503172 0.508561
vt 0.503172 0.250000
vt 0.250000 0.508561
vt 0.487109 3.045728
vt 0.490954 0.498405
vt 0.250000 0.498405
vt 0.509046 0.501595
vt 0.250000 0.501595
vt 0.512821 3.050262
vt 1.806402 3.044995
vt 0.482948 3.044995
vt 1.806402 3.061149
vt 0.488873 3.061149
vt 0.488873 1.806402
vt 1.806402 3.050996
vt 0.516983 3.050996
vt 1.806402 3.034842
vt 0.511058 3.034842
vt 0.511058 1.806402
vt 1.806402 3.031841
vt 0.494040 1.806402
vt 0.494040 3.031841
vt 1.806402 3.064149
vt 0.505890 1.806402
vt 0.505890 3.064149
vt 0.488165 3.052251
vt 0.511765 3.043740
vt 0.502132 1.803902
vt 0.502132 3.035705
vt 0.497798 1.803902
vt 0.497798 3.060286
vt 0.490332 3.039960
vt 0.509598 3.056030
vt 0.494040 1.816002
vt 1.816002 3.031841
vt 0.494075 0.483846
vt 1.816002 3.044995
vt 0.482983 0.496999
vt 0.511058 1.816002
vt 1.816002 3.034842
vt 0.511093 0.486846
vt 1.816002 3.061149
vt 0.488872 1.816002
vt 0.488907 0.513154
vt 1.816002 3.064149
vt 0.505890 1.816002
vt 0.505925 0.516154
vt 1.816002 3.050996
vt 0.517017 0.503000
vt 0.496828 0.750000
vt 0.496828 0.491439
vt 0.750000 0.491439
vt 0.490954 0.498405
vt 0.750000 0.498405
vt 0.505908 0.750000
vt 0.505908 0.493040
vt 0.750000 0.493040
vt 0.494092 0.506960
vt 0.750000 0.506960
vt 0.494092 0.750000
vt 0.503172 0.508561
vt 0.503172 0.750000
vt 0.750000 0.508561
vt 0.509046 0.501595
vt 0.750000 0.501595
s 1
usemtl metal_4
f 29/67/7 30/69/8 44/99/9 42/94/10
f 46/105/11 45/102/12 34/80/13 31/72/14
f 41/91/15 43/96/16 32/76/17 33/78/18
f 45/103/12 44/100/9 30/71/8 34/81/13
f 43/97/16 46/105/11 31/72/14 32/74/17
f 33/77/18 29/67/7 42/94/10 41/92/15
f 21/53/19 36/84/20 28/66/21 40/90/22 22/54/23 38/88/24 18/46/25 35/83/26 25/61/27 39/89/28 17/45/29 37/86/30
f 25/61/27 35/83/26 29/68/7
f 28/66/21 36/84/20 31/73/14
f 21/53/19 37/86/30 32/75/17
f 18/46/25 38/88/24 30/70/8
f 17/45/29 39/89/28 33/79/18
f 22/54/23 40/90/22 34/82/13
f 29/68/7 35/83/26 30/70/8
f 30/70/8 35/83/26 18/46/25
f 30/71/8 38/87/24 34/81/13
f 34/82/13 38/88/24 22/54/23
f 34/82/13 40/90/22 31/73/14
f 31/73/14 40/90/22 28/66/21
f 31/73/14 36/84/20 32/75/17
f 32/75/17 36/84/20 21/53/19
f 32/76/17 37/85/30 33/78/18
f 33/79/18 37/86/30 17/45/29
f 33/79/18 39/89/28 29/68/7
f 29/68/7 39/89/28 25/61/27
f 23/55/31 19/47/32 47/107/15 49/112/16
f 26/62/33 19/48/32 41/93/15 42/95/10
f 19/48/32 23/56/31 43/98/16 41/93/15
f 24/58/34 20/50/35 44/101/9 45/104/12
f 23/56/31 27/64/36 46/106/11 43/98/16
f 20/50/35 26/62/33 42/95/10 44/101/9
f 27/64/36 24/58/34 45/104/12 46/106/11
f 47/108/15 48/110/10 50/115/9 51/118/12 52/121/11 49/113/16
f 26/63/33 20/51/35 50/116/9 48/111/10
f 20/52/35 24/59/34 51/119/12 50/117/9
f 19/49/32 26/63/33 48/111/10 47/109/15
f 24/60/34 27/65/36 52/122/11 51/120/12
f 27/65/36 23/57/31 49/114/16 52/122/11
f 65/145/7 66/147/8 80/177/9 78/172/10
f 82/183/11 81/180/12 70/158/13 67/150/14
f 77/169/15 79/174/16 68/154/17 69/156/18
f 81/181/12 80/178/9 66/149/8 70/159/13
f 79/175/16 82/183/11 67/150/14 68/152/17
f 69/155/18 65/145/7 78/172/10 77/170/15
f 57/131/19 72/162/20 64/144/21 76/168/22 58/132/23 74/166/24 54/124/37 71/161/26 61/139/27 75/167/28 53/123/29 73/164/30
f 61/139/27 71/161/26 65/146/7
f 64/144/21 72/162/20 67/151/14
f 57/131/19 73/164/30 68/153/17
f 54/124/37 74/166/24 66/148/8
f 53/123/29 75/167/28 69/157/18
f 58/132/23 76/168/22 70/160/13
f 65/146/7 71/161/26 66/148/8
f 66/148/8 71/161/26 54/124/37
f 66/149/8 74/165/24 70/159/13
f 70/160/13 74/166/24 58/132/23
f 70/160/13 76/168/22 67/151/14
f 67/151/14 76/168/22 64/144/21
f 67/151/14 72/162/20 68/153/17
f 68/153/17 72/162/20 57/131/19
f 68/154/17 73/163/30 69/156/18
f 69/157/18 73/164/30 53/123/29
f 69/157/18 75/167/28 65/146/7
f 65/146/7 75/167/28 61/139/27
f 59/133/31 55/125/32 83/185/15 85/190/16
f 62/140/33 55/126/32 77/171/15 78/173/10
f 55/126/32 59/134/31 79/176/16 77/171/15
f 60/136/34 56/128/35 80/179/9 81/182/12
f 59/134/31 63/142/38 82/184/11 79/176/16
f 56/128/35 62/140/33 78/173/10 80/179/9
f 63/142/38 60/136/34 81/182/12 82/184/11
f 83/186/15 84/188/10 86/193/9 87/196/12 88/199/11 85/191/16
f 62/141/33 56/129/35 86/194/9 84/189/10
f 56/130/35 60/137/34 87/197/12 86/195/9
f 55/127/32 62/141/33 84/189/10 83/187/15
f 60/138/34 63/143/38 88/200/11 87/198/12
f 63/143/38 59/135/31 85/192/16 88/200/11
s 0
usemtl metal_6
f 1/1/1 2/4/1 4/11/1 3/8/1
f 7/18/2 3/7/2 9/23/2 11/28/2
f 7/19/3 8/21/3 6/15/3 5/12/3
f 5/13/4 6/16/4 2/5/4 1/2/4
f 3/7/2 7/18/2 5/14/2 1/3/2
f 8/20/5 4/9/5 2/6/5 6/17/5
f 9/24/6 10/26/6 12/32/6 11/29/6
f 8/21/3 12/31/3 16/42/3 14/36/3
f 3/8/1 4/11/1 10/27/1 9/25/1
f 8/21/3 7/19/3 11/30/3 12/31/3
f 13/33/5 14/37/5 16/43/5 15/39/5
f 4/10/4 8/22/4 14/38/4 13/34/4
f 12/32/6 10/26/6 15/40/6 16/44/6
f 10/27/1 4/11/1 13/35/1 15/41/1
