# Blender 3.4.0
# www.blender.org
mtllib screen_1.mtl
o screen_1
v -0.299973 0.015030 0.319993
v -0.299973 0.614970 0.319993
v 0.299967 0.614970 0.319993
v 0.299967 0.015030 0.319993
v -0.228002 0.087000 0.309993
v -0.228002 0.543000 0.309993
v 0.227998 0.158421 0.289993
v -0.228002 0.543000 0.289993
v -0.228002 0.158421 0.289993
v 0.065230 0.321189 0.338300
v 0.098833 0.287586 0.333338
v 0.134228 0.252192 0.325443
v 0.169003 0.217417 0.315155
v 0.200787 0.185633 0.303174
v 0.227415 0.542417 0.290317
v 0.200787 0.515788 0.303174
v 0.169003 0.484004 0.315155
v 0.134228 0.449230 0.325443
v 0.098833 0.413835 0.333338
v 0.065230 0.380232 0.338300
v -0.200790 0.515788 0.303174
v -0.169006 0.484004 0.315155
v -0.134231 0.449230 0.325443
v -0.098837 0.413835 0.333338
v -0.065234 0.380232 0.338300
v -0.200790 0.185633 0.303174
v -0.169006 0.217417 0.315155
v -0.134231 0.252192 0.325443
v -0.098837 0.287586 0.333338
v -0.065234 0.321189 0.338300
v -0.238002 0.553000 0.319993
v -0.230931 0.545929 0.317064
v -0.238002 0.077000 0.319993
v -0.230931 0.084071 0.317064
v 0.237998 0.077000 0.319993
v 0.227998 0.087000 0.309993
v 0.230927 0.084071 0.317064
v 0.237998 0.553000 0.319993
v 0.227998 0.543000 0.309993
v 0.230927 0.545929 0.317064
v -0.228002 0.148421 0.309993
v -0.228002 0.158421 0.299993
v -0.228002 0.154457 0.306028
v 0.227998 0.148421 0.309993
v 0.227998 0.158421 0.299993
v 0.227998 0.154457 0.306028
v -0.299973 0.015030 0.322478
v -0.302174 0.012829 0.327792
v -0.299973 0.614970 0.322478
v -0.302174 0.617171 0.327792
v 0.299967 0.015030 0.322478
v 0.302169 0.012829 0.327792
v 0.299967 0.614970 0.322478
v 0.302169 0.617171 0.327792
v -0.307488 0.007515 0.329993
v -0.312801 0.002201 0.327792
v 0.307482 0.007515 0.329993
v 0.312796 0.002201 0.327792
v -0.307488 0.622485 0.329993
v -0.312802 0.627799 0.327792
v 0.307482 0.622485 0.329993
v 0.312796 0.627799 0.327792
v -0.275988 0.590985 -0.000007
v -0.312801 0.627799 0.002194
v -0.275988 0.039015 -0.000007
v -0.312801 0.002201 0.002194
v 0.275982 0.039015 -0.000007
v 0.312796 0.002201 0.002194
v 0.275982 0.590985 -0.000007
v 0.312796 0.627799 0.002194
v -0.315003 0.630000 0.322478
v -0.315003 -0.000000 0.322478
v -0.315003 -0.000000 0.007508
v -0.315003 0.630000 0.007508
v 0.314997 0.630000 0.007508
v 0.314997 -0.000000 0.007508
v 0.314997 -0.000000 0.322478
v 0.314997 0.630000 0.322478
v -0.206357 0.104908 0.310000
v -0.210750 0.115515 0.310000
v -0.206357 0.126121 0.310000
v -0.195750 0.100515 0.310000
v -0.185144 0.104908 0.310000
v -0.195750 0.130515 0.310000
v -0.180750 0.115515 0.310000
v -0.185144 0.126121 0.310000
v -0.156357 0.104908 0.310000
v -0.160750 0.115515 0.310000
v -0.156357 0.126121 0.310000
v -0.145750 0.100515 0.310000
v -0.135143 0.104908 0.310000
v -0.145750 0.130515 0.310000
v -0.130750 0.115515 0.310000
v -0.135143 0.126121 0.310000
v 0.042600 0.106320 0.307189
v 0.037383 0.118914 0.307189
v 0.042600 0.131508 0.307189
v 0.055194 0.101104 0.307189
v 0.067788 0.106320 0.307189
v 0.055194 0.136725 0.307189
v 0.073004 0.118914 0.307189
v 0.067788 0.131508 0.307189
v 0.176600 0.106320 0.307189
v 0.171384 0.118914 0.307189
v 0.176600 0.131508 0.307189
v 0.189194 0.101104 0.307189
v 0.201788 0.106320 0.307189
v 0.189194 0.136725 0.307189
v 0.207005 0.118914 0.307189
v 0.201788 0.131508 0.307189
v -0.206357 0.104908 0.335000
v -0.202530 0.108735 0.340000
v -0.205338 0.115515 0.340000
v -0.210750 0.115515 0.335000
v -0.202530 0.122294 0.340000
v -0.206357 0.126121 0.335000
v -0.195750 0.100515 0.335000
v -0.195750 0.105927 0.340000
v -0.188970 0.108735 0.340000
v -0.185144 0.104908 0.335000
v -0.180750 0.115515 0.335000
v -0.186162 0.115515 0.340000
v -0.195750 0.125103 0.340000
v -0.195750 0.130515 0.335000
v -0.188970 0.122294 0.340000
v -0.185144 0.126121 0.335000
v -0.156357 0.104908 0.335000
v -0.152530 0.108735 0.340000
v -0.155338 0.115515 0.340000
v -0.160750 0.115515 0.335000
v -0.152530 0.122294 0.340000
v -0.156357 0.126121 0.335000
v -0.145750 0.100515 0.335000
v -0.145750 0.105927 0.340000
v -0.138970 0.108735 0.340000
v -0.135143 0.104908 0.335000
v -0.130750 0.115515 0.335000
v -0.136162 0.115515 0.340000
v -0.145750 0.125103 0.340000
v -0.145750 0.130515 0.335000
v -0.138970 0.122294 0.340000
v -0.135143 0.126121 0.335000
v 0.042600 0.106320 0.337810
v 0.046427 0.110147 0.342810
v 0.042795 0.118914 0.342810
v 0.037383 0.118914 0.337810
v 0.046427 0.127681 0.342810
v 0.042600 0.131508 0.337810
v 0.055194 0.101104 0.337810
v 0.055194 0.106516 0.342810
v 0.063961 0.110147 0.342810
v 0.067788 0.106320 0.337810
v 0.073004 0.118914 0.337810
v 0.067593 0.118914 0.342810
v 0.055194 0.131313 0.342810
v 0.055194 0.136725 0.337810
v 0.063961 0.127681 0.342810
v 0.067788 0.131508 0.337810
v 0.176600 0.106320 0.337810
v 0.180427 0.110147 0.342810
v 0.176796 0.118914 0.342810
v 0.171384 0.118914 0.337810
v 0.180427 0.127681 0.342810
v 0.176600 0.131508 0.337810
v 0.189194 0.101104 0.337810
v 0.189194 0.106516 0.342810
v 0.197961 0.110147 0.342810
v 0.201788 0.106320 0.337810
v 0.207005 0.118914 0.337810
v 0.201593 0.118914 0.342810
v 0.189194 0.131313 0.342810
v 0.189194 0.136725 0.337810
v 0.197961 0.127681 0.342810
v 0.201788 0.131508 0.337810
v -0.307488 0.622485 -0.000007
v -0.307488 0.007515 -0.000007
v 0.307482 0.007515 -0.000007
v 0.307482 0.622485 -0.000007
v -0.208488 0.196515 0.009993
v 0.208482 0.558485 0.009993
v -0.275988 0.590985 0.009993
v -0.275988 0.039015 0.009993
v 0.275982 0.039015 0.009993
v 0.275982 0.590985 0.009993
v -0.208488 0.558485 0.009993
v -0.172488 0.502485 -0.026007
v -0.172488 0.232515 -0.026007
v 0.172482 0.232515 -0.026007
v 0.208482 0.196515 0.009993
v 0.172482 0.502485 -0.026007
vn 0.6750 0.6750 0.2978
vn -0.6750 0.6750 0.2978
vn -0.7071 0.7071 -0.0000
vn 0.7071 0.7071 -0.0000
vn -0.0000 -1.0000 -0.0000
vn -0.6750 -0.6750 0.2978
vn 0.6750 -0.6750 0.2978
vn 0.7071 -0.7071 -0.0000
vn -0.7071 -0.7071 -0.0000
vn -0.0000 -0.0000 1.0000
vn -0.0000 0.2865 0.9581
vn -1.0000 -0.0004 0.0084
vn -1.0000 -0.0000 -0.0000
vn -0.9998 -0.0010 0.0193
vn -0.0006 -0.9999 0.0147
vn -0.0000 0.9581 0.2865
vn -0.0000 1.0000 -0.0000
vn 1.0000 -0.0000 -0.0000
vn -0.9998 -0.0010 0.0197
vn 0.2286 -0.2294 0.9461
vn 0.2288 0.2287 0.9462
vn 0.2165 0.2165 0.9520
vn 0.2165 -0.2168 0.9519
vn 0.1725 0.1725 0.9698
vn 0.1725 -0.1725 0.9698
vn 0.1360 0.1360 0.9813
vn 0.1360 -0.1360 0.9813
vn 0.1009 0.1009 0.9898
vn 0.1009 -0.1009 0.9898
vn 0.0550 0.0550 0.9970
vn 0.0550 -0.0550 0.9970
vn -0.0550 0.0550 0.9970
vn -0.0550 -0.0550 0.9970
vn -0.2293 0.2286 0.9461
vn -0.2167 0.2165 0.9519
vn -0.1725 0.1725 0.9698
vn -0.1360 0.1360 0.9813
vn -0.1009 0.1009 0.9898
vn -0.2291 -0.2291 0.9460
vn -0.2167 -0.2167 0.9519
vn -0.1725 -0.1725 0.9698
vn -0.1360 -0.1360 0.9813
vn -0.1009 -0.1009 0.9898
vn 0.3377 0.3377 0.8786
vn 0.6101 0.6101 0.5054
vn 0.9239 -0.0000 0.3827
vn 0.6101 -0.6101 0.5055
vn 0.3377 -0.3377 0.8786
vn 0.1988 -0.1988 0.9597
vn 0.1988 0.1988 0.9597
vn -0.1988 0.1988 0.9597
vn -0.1988 -0.1988 0.9597
vn -0.3377 -0.3377 0.8786
vn -0.3377 0.3377 0.8786
vn -0.6101 0.6101 0.5054
vn -0.6101 -0.6101 0.5054
vn -0.9239 -0.0000 0.3827
vn -0.0000 0.7071 0.7071
vn -0.0974 -0.0974 0.9905
vn -0.0974 0.0974 0.9905
vn -0.4975 0.4975 0.7106
vn -0.4975 -0.4975 0.7106
vn -0.6101 0.6101 0.5055
vn -0.6101 -0.6101 0.5055
vn -0.1481 0.1481 -0.9778
vn -0.1481 -0.1481 -0.9778
vn -0.4975 -0.4975 -0.7106
vn -0.4975 0.4975 -0.7106
vn -0.6101 -0.6101 -0.5055
vn -0.6101 0.6101 -0.5054
vn 0.6101 -0.6101 -0.5055
vn 0.4975 -0.4975 -0.7106
vn 0.1481 -0.1481 -0.9778
vn 0.6101 0.6101 -0.5054
vn 0.4975 0.4975 -0.7106
vn 0.1481 0.1481 -0.9778
vn 0.0974 0.0974 0.9905
vn 0.0974 -0.0974 0.9905
vn 0.4975 -0.4975 0.7106
vn 0.4975 0.4975 0.7106
vn 0.6101 0.6101 0.5055
vn -0.0000 -0.9295 0.3689
vn -0.6572 -0.6572 0.3689
vn -0.6572 0.6572 0.3689
vn -0.9295 -0.0000 0.3689
vn -0.0000 -0.4377 0.8991
vn 0.3095 -0.3095 0.8991
vn 0.4377 -0.0000 0.8991
vn 0.3095 0.3095 0.8991
vn -0.0000 0.4377 0.8991
vn -0.3095 0.3095 0.8991
vn -0.4377 -0.0000 0.8991
vn -0.3095 -0.3095 0.8991
vn 0.6572 -0.6572 0.3689
vn -0.0000 0.9295 0.3689
vn 0.9295 -0.0000 0.3689
vn 0.6572 0.6572 0.3689
vn -0.0000 0.9295 0.3688
vn -0.0000 -0.0000 -1.0000
vn -0.3002 -0.3002 -0.9054
vn -0.3144 0.2067 -0.9265
vn 0.3144 0.2067 -0.9265
vn 0.3002 -0.3002 -0.9054
vn -0.4082 -0.4082 -0.8165
vn -0.3209 0.3575 -0.8770
vn 0.4082 -0.4082 -0.8165
vn 0.3209 0.3575 -0.8770
vt 0.994350 0.028369
vt 0.000000 0.000000
vt 0.807910 0.021277
vt 0.994350 0.028369
vt 0.000000 1.000000
vt 0.807910 0.978723
vt 0.994350 0.978723
vt 0.807910 0.978723
vt 0.401130 1.000000
vt 0.994350 0.978723
vt 0.807910 0.021277
vt 0.401130 0.000000
vt 0.048023 0.120567
vt 0.048023 0.879433
vt 0.353107 0.241135
vt 0.048023 0.879433
vt 0.048023 0.241135
vt 0.245763 0.510638
vt 0.265537 0.453901
vt 0.290960 0.390071
vt 0.313559 0.333333
vt 0.336158 0.283688
vt 0.353107 0.879433
vt 0.336158 0.836879
vt 0.313559 0.787234
vt 0.290960 0.723404
vt 0.265537 0.666667
vt 0.245763 0.609929
vt 0.067797 0.836879
vt 0.087571 0.787234
vt 0.110169 0.723404
vt 0.135593 0.666667
vt 0.158192 0.609929
vt 0.067797 0.283688
vt 0.087571 0.333333
vt 0.110169 0.390071
vt 0.135593 0.453901
vt 0.158192 0.510638
vt 0.042373 0.893617
vt 0.048023 0.879433
vt 0.042373 0.106383
vt 0.048023 0.120567
vt 0.358757 0.106383
vt 0.353107 0.120567
vt 0.353107 0.120567
vt 0.358757 0.893617
vt 0.353107 0.879433
vt 0.353107 0.879433
vt 0.048023 0.219858
vt 0.048023 0.241135
vt 0.048023 0.241135
vt 0.353107 0.219858
vt 0.353107 0.241135
vt 0.353107 0.241135
vt 0.997175 0.028369
vt 0.805085 0.021277
vt 0.802260 0.021277
vt 0.412658 0.018149
vt 1.000000 0.021277
vt 0.997175 0.028369
vt 0.805085 0.978723
vt 0.802260 0.978723
vt 0.412658 0.981851
vt 1.000000 0.021277
vt 0.805085 0.021277
vt 0.997175 0.978723
vt 0.802260 0.021277
vt 0.794742 0.018149
vt 1.000000 0.978723
vt 0.805085 0.978723
vt 0.997175 0.978723
vt 0.802260 0.978723
vt 0.794742 0.981851
vt 1.000000 0.978723
vt 0.409299 0.009676
vt 0.802260 0.000000
vt 1.000000 0.007092
vt 0.405939 0.001202
vt 0.798101 0.009676
vt 0.802260 0.000000
vt 1.000000 1.000000
vt 0.801461 0.001202
vt 0.409299 0.990324
vt 0.802260 1.000000
vt 1.000000 0.007092
vt 0.405939 0.998798
vt 0.798101 0.990324
vt 0.802260 1.000000
vt 1.000000 1.000000
vt 0.801461 0.998798
vt 0.423923 0.942412
vt 1.000000 1.000000
vt 0.802260 0.007092
vt 0.398305 1.000000
vt 0.423923 0.057588
vt 1.000000 0.000000
vt 0.802260 0.007092
vt 0.398305 0.000000
vt 0.773817 0.057588
vt 0.802260 1.000000
vt 1.000000 0.000000
vt 0.799435 0.000000
vt 0.773817 0.942412
vt 0.802260 1.000000
vt 1.000000 1.000000
vt 0.799435 1.000000
vt 0.997175 0.000000
vt 0.805085 1.000000
vt 0.997175 0.000000
vt 0.805085 0.000000
vt 0.805085 0.000000
vt 0.997175 0.000000
vt 0.805085 0.000000
vt 0.997175 1.000000
vt 0.805085 1.000000
vt 0.997175 1.000000
vt 0.805085 1.000000
vt 0.997175 0.000000
vt 0.997175 1.000000
vt 0.805085 0.000000
vt 0.997175 1.000000
vt 0.805085 1.000000
vt 0.740291 0.191489
vt 0.720517 0.198582
vt 0.720517 0.177305
vt 0.720517 0.156028
vt 0.740291 0.191489
vt 0.740291 0.170213
vt 0.740291 0.148936
vt 0.720517 0.198582
vt 0.740291 0.170213
vt 0.720517 0.177305
vt 0.720517 0.156028
vt 0.740291 0.148936
vt 0.720517 0.198582
vt 0.740291 0.191489
vt 0.720517 0.177305
vt 0.720517 0.156028
vt 0.740291 0.191489
vt 0.740291 0.170213
vt 0.740291 0.148936
vt 0.720517 0.198582
vt 0.740291 0.170213
vt 0.720517 0.177305
vt 0.720517 0.156028
vt 0.740291 0.148936
vt 0.720517 0.191489
vt 0.740291 0.191489
vt 0.720517 0.170213
vt 0.720517 0.148936
vt 0.740291 0.191489
vt 0.740291 0.170213
vt 0.740291 0.148936
vt 0.720517 0.191489
vt 0.740291 0.170213
vt 0.720517 0.170213
vt 0.720517 0.148936
vt 0.740291 0.148936
vt 0.720517 0.191489
vt 0.740291 0.191489
vt 0.720517 0.170213
vt 0.720517 0.148936
vt 0.740291 0.191489
vt 0.740291 0.170213
vt 0.740291 0.148936
vt 0.720517 0.191489
vt 0.740291 0.170213
vt 0.720517 0.170213
vt 0.720517 0.148936
vt 0.740291 0.148936
vt 0.720517 0.191489
vt 0.696081 0.248015
vt 0.740291 0.198582
vt 0.698622 0.254369
vt 0.696757 0.265625
vt 0.693163 0.265625
vt 0.740291 0.177305
vt 0.698622 0.276881
vt 0.740291 0.156028
vt 0.720517 0.191489
vt 0.696081 0.283235
vt 0.720517 0.170213
vt 0.703125 0.240721
vt 0.703125 0.249706
vt 0.707627 0.254369
vt 0.720517 0.148936
vt 0.740291 0.198582
vt 0.710169 0.248015
vt 0.740291 0.177305
vt 0.713087 0.265625
vt 0.709492 0.265625
vt 0.703125 0.281544
vt 0.720517 0.170213
vt 0.703125 0.290529
vt 0.707627 0.276881
vt 0.740291 0.156028
vt 0.720517 0.148936
vt 0.710169 0.283235
vt 0.740291 0.198582
vt 0.720517 0.191489
vt 0.696081 0.248015
vt 0.698622 0.254369
vt 0.696757 0.265625
vt 0.740291 0.177305
vt 0.693163 0.265625
vt 0.698622 0.276881
vt 0.740291 0.156028
vt 0.720517 0.191489
vt 0.696081 0.283235
vt 0.720517 0.170213
vt 0.703125 0.240721
vt 0.703125 0.249706
vt 0.707627 0.254369
vt 0.720517 0.148936
vt 0.740291 0.198582
vt 0.710169 0.248015
vt 0.740291 0.177305
vt 0.713086 0.265625
vt 0.709493 0.265625
vt 0.703125 0.281544
vt 0.720517 0.170213
vt 0.703125 0.290529
vt 0.707627 0.276881
vt 0.740291 0.156028
vt 0.720517 0.148936
vt 0.710169 0.283235
vt 0.740291 0.191489
vt 0.720517 0.191489
vt 0.694761 0.244716
vt 0.697303 0.251069
vt 0.694891 0.265625
vt 0.740291 0.170213
vt 0.691297 0.265625
vt 0.697303 0.280181
vt 0.740291 0.148936
vt 0.720517 0.191489
vt 0.694761 0.286535
vt 0.720517 0.170213
vt 0.703125 0.236055
vt 0.703125 0.245040
vt 0.708947 0.251069
vt 0.720517 0.148936
vt 0.740291 0.191489
vt 0.711488 0.244716
vt 0.740291 0.170213
vt 0.714953 0.265625
vt 0.711359 0.265625
vt 0.703125 0.286210
vt 0.720517 0.170213
vt 0.703125 0.295195
vt 0.708947 0.280181
vt 0.740291 0.148936
vt 0.720517 0.148936
vt 0.711488 0.286535
vt 0.740291 0.191489
vt 0.720517 0.191489
vt 0.694761 0.244716
vt 0.697303 0.251069
vt 0.694891 0.265625
vt 0.740291 0.170213
vt 0.691297 0.265625
vt 0.697303 0.280181
vt 0.740291 0.148936
vt 0.720517 0.191489
vt 0.694761 0.286535
vt 0.720517 0.170213
vt 0.703125 0.236055
vt 0.703125 0.245040
vt 0.708947 0.251069
vt 0.720517 0.148936
vt 0.740291 0.191489
vt 0.711488 0.244716
vt 0.740291 0.170213
vt 0.714953 0.265625
vt 0.711359 0.265625
vt 0.703125 0.286210
vt 0.720517 0.170213
vt 0.703125 0.295195
vt 0.708947 0.280181
vt 0.740291 0.148936
vt 0.720517 0.148936
vt 0.711488 0.286535
vt 0.403955 0.992908
vt 0.403955 0.007092
vt 0.796610 0.007092
vt 0.793785 0.007092
vt 0.796610 0.992908
vt 0.793785 0.992908
vt 0.730415 0.317427
vt 0.468633 0.887974
vt 0.423923 0.942412
vt 0.772793 0.939202
vt 0.423923 0.057588
vt 0.772793 0.069171
vt 0.773817 0.057588
vt 0.426255 0.069171
vt 0.773817 0.942412
vt 0.426255 0.939202
vt 0.730415 0.887974
vt 0.707813 0.799706
vt 0.707813 0.374171
vt 0.491235 0.374171
vt 0.468633 0.317427
vt 0.491235 0.799706
s 1
usemtl screen_1
f 47/55/1 51/66/2 4/10/3 1/1/4
f 73/111/5 76/117/5 77/119/5 72/109/5
f 53/71/6 49/60/7 2/4/8 3/7/9
f 51/65/2 53/70/6 3/8/9 4/11/3
f 5/13/10 36/44/10 44/52/11 41/49/11
f 31/39/10 38/46/10 3/9/10 2/5/10
f 45/53/12 46/54/13 44/52/13 39/47/14
f 39/47/15 6/14/15 8/16/15 15/23/15
f 42/50/16 45/53/16 7/15/17 9/17/17
f 38/46/10 35/43/10 4/12/10 3/9/10
f 35/43/10 33/41/10 1/2/10 4/12/10
f 33/41/10 31/39/10 2/5/10 1/2/10
f 6/14/18 42/50/18 9/17/18 8/16/18
f 45/53/12 39/47/14 15/23/19 7/15/19
f 7/15/20 15/23/21 16/24/22 14/22/23
f 14/22/23 16/24/22 17/25/24 13/21/25
f 13/21/25 17/25/24 18/26/26 12/20/27
f 12/20/27 18/26/26 19/27/28 11/19/29
f 11/19/29 19/27/28 20/28/30 10/18/31
f 25/33/32 30/38/33 10/18/31 20/28/30
f 15/23/21 8/16/34 21/29/35 16/24/22
f 16/24/22 21/29/35 22/30/36 17/25/24
f 17/25/24 22/30/36 23/31/37 18/26/26
f 18/26/26 23/31/37 24/32/38 19/27/28
f 19/27/28 24/32/38 25/33/32 20/28/30
f 8/16/34 9/17/39 26/34/40 21/29/35
f 21/29/35 26/34/40 27/35/41 22/30/36
f 22/30/36 27/35/41 28/36/42 23/31/37
f 23/31/37 28/36/42 29/37/43 24/32/38
f 24/32/38 29/37/43 30/38/33 25/33/32
f 10/18/31 30/38/33 29/37/43 11/19/29
f 11/19/29 29/37/43 28/36/42 12/20/27
f 12/20/27 28/36/42 27/35/41 13/21/25
f 13/21/25 27/35/41 26/34/40 14/22/23
f 14/22/23 26/34/40 9/17/39 7/15/20
f 34/42/44 5/13/45 41/49/46 6/14/47 32/40/48
f 31/39/49 33/41/50 34/42/44 32/40/48
f 35/43/51 38/46/52 40/48/53 37/45/54
f 41/49/18 43/51/18 42/50/18 6/14/18
f 33/41/50 35/43/51 37/45/54 34/42/44
f 34/42/44 37/45/54 36/44/55 5/13/45
f 40/48/53 39/47/56 44/52/57 36/44/55 37/45/54
f 38/46/52 31/39/49 32/40/48 40/48/53
f 40/48/53 32/40/48 6/14/47 39/47/56
f 45/53/16 42/50/16 43/51/58 46/54/58
f 46/54/58 43/51/58 41/49/11 44/52/11
f 75/115/17 74/113/17 71/107/17 78/121/17
f 65/95/4 63/91/8 181/291/8 182/293/4
f 55/75/59 59/83/60 60/86/61 56/78/62
f 56/76/62 60/84/61 71/108/63 72/110/64
f 175/283/65 176/284/66 66/98/67 64/94/68
f 64/92/68 66/96/67 73/112/69 74/114/70
f 76/117/71 73/111/69 66/97/67 68/100/72
f 68/102/72 66/98/67 176/284/66 177/285/73
f 74/113/70 75/115/74 70/104/75 64/93/68
f 64/94/68 70/106/75 178/287/76 175/283/65
f 75/116/74 76/118/71 68/101/72 70/105/75
f 70/106/75 68/102/72 177/285/73 178/287/76
f 61/87/77 57/79/78 58/82/79 62/90/80
f 62/88/80 58/80/79 77/120/47 78/122/81
f 72/109/64 77/119/47 58/81/79 56/77/62
f 56/78/62 58/82/79 57/79/78 55/75/59
f 78/121/81 71/107/63 60/85/61 62/89/80
f 62/90/80 60/86/61 59/83/60 61/87/77
f 47/56/1 49/61/7 50/62/48 48/57/44
f 48/58/44 50/63/48 59/83/60 55/75/59
f 53/70/6 51/65/2 52/67/54 54/72/53
f 54/73/53 52/68/54 57/79/78 61/87/77
f 55/75/59 57/79/78 52/68/54 48/58/44
f 48/59/44 52/69/54 51/66/2 47/55/1
f 61/87/77 59/83/60 50/63/48 54/73/53
f 54/74/53 50/64/48 49/60/7 53/71/6
f 49/61/7 47/56/1 1/3/4 2/6/8
f 73/112/13 72/110/13 71/108/13 74/114/13
f 77/120/18 76/118/18 75/116/18 78/122/18
f 82/128/5 117/182/82 111/171/83 79/123/9
f 116/179/84 81/126/3 80/125/13 114/177/85
f 118/184/86 119/185/87 122/191/88 125/195/89 123/192/90 115/178/91 113/175/92 112/174/93
f 117/182/82 82/128/5 83/129/8 120/186/94
f 124/193/95 84/131/17 81/127/3 116/180/84
f 120/187/94 83/130/8 85/132/18 121/189/96
f 86/133/4 126/196/97 121/189/96 85/132/18
f 87/135/9 127/199/83 130/204/85 88/137/13
f 84/131/17 124/193/95 126/197/97 86/134/4
f 90/140/5 133/210/82 127/200/83 87/136/9
f 132/207/84 89/138/3 88/137/13 130/204/85
f 134/212/86 135/213/87 138/219/88 141/223/89 139/220/90 131/206/91 129/203/92 128/202/93
f 133/210/82 90/140/5 91/141/8 136/214/94
f 140/221/95 92/143/17 89/139/3 132/208/84
f 136/215/94 91/142/8 93/144/18 137/217/96
f 94/145/4 142/224/97 137/217/96 93/144/18
f 95/147/9 143/227/83 146/232/85 96/149/13
f 92/143/17 140/221/95 142/225/97 94/146/4
f 98/152/5 149/238/82 143/228/83 95/148/9
f 148/235/84 97/150/3 96/149/13 146/232/85
f 150/240/86 151/241/87 154/247/88 157/251/89 155/248/90 147/234/91 145/231/92 144/230/93
f 149/238/82 98/152/5 99/153/8 152/242/94
f 156/249/95 100/155/17 97/151/3 148/236/84
f 152/243/94 99/154/8 101/156/18 153/245/96
f 102/157/4 158/252/97 153/245/96 101/156/18
f 103/159/9 159/255/83 162/260/85 104/161/13
f 100/155/17 156/249/95 158/253/97 102/158/4
f 106/164/5 165/266/82 159/256/83 103/160/9
f 164/263/84 105/162/3 104/161/13 162/260/85
f 166/268/86 167/269/87 170/275/88 173/279/89 171/276/90 163/262/91 161/259/92 160/258/93
f 165/266/82 106/164/5 107/165/8 168/270/94
f 172/277/98 108/167/17 105/163/3 164/264/84
f 168/271/94 107/166/8 109/168/18 169/273/96
f 110/169/4 174/280/97 169/273/96 109/168/18
f 108/167/17 172/277/98 174/281/97 110/170/4
f 122/191/88 119/185/87 120/188/94 121/190/96
f 115/178/91 123/192/90 124/194/95 116/181/84
f 112/174/93 113/175/92 114/176/85 111/172/83
f 118/184/86 112/174/93 111/172/83 117/183/82
f 113/175/92 115/178/91 116/181/84 114/176/85
f 119/185/87 118/184/86 117/183/82 120/188/94
f 123/192/90 125/195/89 126/198/97 124/194/95
f 125/195/89 122/191/88 121/190/96 126/198/97
f 138/219/88 135/213/87 136/216/94 137/218/96
f 131/206/91 139/220/90 140/222/95 132/209/84
f 128/202/93 129/203/92 130/205/85 127/201/83
f 134/212/86 128/202/93 127/201/83 133/211/82
f 129/203/92 131/206/91 132/209/84 130/205/85
f 135/213/87 134/212/86 133/211/82 136/216/94
f 139/220/90 141/223/89 142/226/97 140/222/95
f 141/223/89 138/219/88 137/218/96 142/226/97
f 154/247/88 151/241/87 152/244/94 153/246/96
f 147/234/91 155/248/90 156/250/95 148/237/84
f 144/230/93 145/231/92 146/233/85 143/229/83
f 150/240/86 144/230/93 143/229/83 149/239/82
f 145/231/92 147/234/91 148/237/84 146/233/85
f 151/241/87 150/240/86 149/239/82 152/244/94
f 155/248/90 157/251/89 158/254/97 156/250/95
f 157/251/89 154/247/88 153/246/96 158/254/97
f 170/275/88 167/269/87 168/272/94 169/274/96
f 163/262/91 171/276/90 172/278/98 164/265/84
f 160/258/93 161/259/92 162/261/85 159/257/83
f 166/268/86 160/258/93 159/257/83 165/267/82
f 161/259/92 163/262/91 164/265/84 162/261/85
f 167/269/87 166/268/86 165/267/82 168/272/94
f 171/276/90 173/279/89 174/282/97 172/278/98
f 173/279/89 170/275/88 169/274/96 174/282/97
f 79/124/9 111/173/83 114/177/85 80/125/13
f 63/91/99 65/95/99 176/284/66 175/283/65
f 65/95/99 67/99/99 177/286/73 176/284/66
f 69/103/99 63/91/99 175/283/65 178/288/76
f 67/99/99 69/103/99 178/288/76 177/286/73
f 69/103/9 67/99/3 183/295/3 184/297/9
f 67/99/3 65/95/4 182/293/4 183/295/3
f 63/91/8 69/103/9 184/297/9 181/291/8
f 185/299/99 179/289/99 182/294/99 181/292/99
f 179/289/99 189/303/99 183/296/99 182/294/99
f 180/290/99 185/299/99 181/292/99 184/298/99
f 189/303/99 180/290/99 184/298/99 183/296/99
f 187/301/100 186/300/101 190/304/102 188/302/103
f 186/300/101 187/301/100 179/289/104 185/299/105
f 187/301/100 188/302/103 189/303/106 179/289/104
f 190/304/102 186/300/101 185/299/105 180/290/107
f 188/302/103 190/304/102 180/290/107 189/303/106
