# Blender 3.4.0
# www.blender.org
mtllib table_large_1.mtl
o table_large_1
v -0.720002 0.920000 0.350000
v -0.720002 0.920000 0.330000
v 0.719998 0.920000 0.350000
v 0.719998 0.920000 0.330000
v -0.720002 0.920000 -0.330000
v -0.720002 0.920000 -0.350000
v 0.719998 0.920000 -0.330000
v 0.719998 0.920000 -0.350000
v -0.750000 0.920000 -0.320002
v -0.730000 0.920000 -0.320002
v -0.750000 0.920000 0.319998
v -0.730000 0.920000 0.319998
v 0.730000 0.920000 -0.320002
v 0.750000 0.920000 -0.320002
v 0.730000 0.920000 0.319998
v 0.750000 0.920000 0.319998
v -0.790692 0.920000 0.440000
v -0.799514 0.920000 0.436346
v -0.794852 0.930000 0.450000
v -0.803644 0.930000 0.446358
v -0.793629 0.922929 0.447071
v -0.802437 0.922929 0.443422
v -0.836348 0.920000 0.399512
v -0.840002 0.920000 0.390690
v -0.846360 0.930000 0.403642
v -0.850002 0.930000 0.394850
v -0.843424 0.922929 0.402435
v -0.847073 0.922929 0.393627
v -0.840002 0.970000 0.390690
v -0.836348 0.970000 0.399512
v -0.850002 0.960000 0.394850
v -0.846360 0.960000 0.403642
v -0.847073 0.967071 0.393627
v -0.843424 0.967071 0.402435
v -0.799514 0.970000 0.436346
v -0.790692 0.970000 0.440000
v -0.803644 0.960000 0.446358
v -0.794852 0.960000 0.450000
v -0.802437 0.967071 0.443422
v -0.793629 0.967071 0.447071
v -0.840002 0.920000 -0.390691
v -0.836348 0.920000 -0.399512
v -0.850002 0.930000 -0.394850
v -0.846360 0.930000 -0.403642
v -0.847073 0.922929 -0.393627
v -0.843424 0.922929 -0.402436
v -0.799514 0.920000 -0.436346
v -0.790692 0.920000 -0.440000
v -0.803644 0.930000 -0.446358
v -0.794852 0.930000 -0.450000
v -0.802437 0.922929 -0.443423
v -0.793629 0.922929 -0.447071
v -0.790692 0.970000 -0.440000
v -0.799514 0.970000 -0.436346
v -0.794852 0.960000 -0.450000
v -0.803644 0.960000 -0.446358
v -0.793629 0.967071 -0.447071
v -0.802437 0.967071 -0.443423
v -0.836348 0.970000 -0.399512
v -0.840002 0.970000 -0.390691
v -0.846360 0.960000 -0.403642
v -0.850002 0.960000 -0.394850
v -0.843424 0.967071 -0.402436
v -0.847073 0.967071 -0.393627
v 0.839998 0.920000 0.390690
v 0.836344 0.920000 0.399512
v 0.849998 0.930000 0.394850
v 0.846356 0.930000 0.403642
v 0.847069 0.922929 0.393627
v 0.843420 0.922929 0.402435
v 0.799510 0.920000 0.436346
v 0.790688 0.920000 0.440000
v 0.803640 0.930000 0.446358
v 0.794848 0.930000 0.450000
v 0.802434 0.922929 0.443422
v 0.793625 0.922929 0.447071
v 0.790688 0.970000 0.440000
v 0.799510 0.970000 0.436346
v 0.794848 0.960000 0.450000
v 0.803640 0.960000 0.446358
v 0.793625 0.967071 0.447071
v 0.802434 0.967071 0.443422
v 0.836344 0.970000 0.399512
v 0.839998 0.970000 0.390690
v 0.846356 0.960000 0.403642
v 0.849998 0.960000 0.394850
v 0.843420 0.967071 0.402435
v 0.847069 0.967071 0.393627
v 0.790688 0.920000 -0.440000
v 0.799510 0.920000 -0.436346
v 0.794848 0.930000 -0.450000
v 0.803640 0.930000 -0.446358
v 0.793625 0.922929 -0.447071
v 0.802434 0.922929 -0.443423
v 0.836344 0.920000 -0.399512
v 0.839998 0.920000 -0.390691
v 0.846356 0.930000 -0.403642
v 0.849998 0.930000 -0.394850
v 0.843420 0.922929 -0.402436
v 0.847069 0.922929 -0.393627
v 0.839998 0.970000 -0.390691
v 0.836344 0.970000 -0.399512
v 0.849998 0.960000 -0.394850
v 0.846356 0.960000 -0.403642
v 0.847069 0.967071 -0.393627
v 0.843420 0.967071 -0.402436
v 0.799510 0.970000 -0.436346
v 0.790688 0.970000 -0.440000
v 0.803640 0.960000 -0.446358
v 0.794848 0.960000 -0.450000
v 0.802434 0.967071 -0.443423
v 0.793625 0.967071 -0.447071
v -0.764997 0.000000 -0.330000
v -0.770000 0.000000 -0.335003
v -0.790000 0.920000 -0.315003
v -0.784997 0.920000 -0.310000
v -0.770000 0.000000 -0.364998
v -0.764997 0.000000 -0.370000
v -0.784997 0.920000 -0.390000
v -0.790000 0.920000 -0.384998
v -0.730000 0.000000 -0.335003
v -0.735003 0.000000 -0.330000
v -0.715003 0.920000 -0.310000
v -0.710000 0.920000 -0.315003
v -0.735003 0.000000 -0.370000
v -0.730000 0.000000 -0.364998
v -0.710000 0.920000 -0.384998
v -0.715003 0.920000 -0.390000
v -0.764997 0.000000 0.370000
v -0.770000 0.000000 0.364997
v -0.790000 0.920000 0.384997
v -0.784997 0.920000 0.390000
v -0.770000 0.000000 0.335003
v -0.764997 0.000000 0.330000
v -0.784997 0.920000 0.310000
v -0.790000 0.920000 0.315002
v -0.730000 0.000000 0.364997
v -0.735003 0.000000 0.370000
v -0.715003 0.920000 0.390000
v -0.710000 0.920000 0.384997
v -0.735003 0.000000 0.330000
v -0.730000 0.000000 0.335003
v -0.710000 0.920000 0.315002
v -0.715003 0.920000 0.310000
v 0.735003 0.000000 0.370000
v 0.730000 0.000000 0.364997
v 0.710000 0.920000 0.384997
v 0.715003 0.920000 0.390000
v 0.730000 0.000000 0.335003
v 0.735003 0.000000 0.330000
v 0.715003 0.920000 0.310000
v 0.710000 0.920000 0.315002
v 0.770000 0.000000 0.364997
v 0.764997 0.000000 0.370000
v 0.784997 0.920000 0.390000
v 0.790000 0.920000 0.384997
v 0.764997 0.000000 0.330000
v 0.770000 0.000000 0.335003
v 0.790000 0.920000 0.315002
v 0.784997 0.920000 0.310000
v 0.735003 0.000000 -0.330000
v 0.730000 0.000000 -0.335003
v 0.710000 0.920000 -0.315003
v 0.715003 0.920000 -0.310000
v 0.730000 0.000000 -0.364998
v 0.735003 0.000000 -0.370000
v 0.715003 0.920000 -0.390000
v 0.710000 0.920000 -0.384998
v 0.770000 0.000000 -0.335003
v 0.764997 0.000000 -0.330000
v 0.784997 0.920000 -0.310000
v 0.790000 0.920000 -0.315003
v 0.764997 0.000000 -0.370000
v 0.770000 0.000000 -0.364998
v 0.790000 0.920000 -0.384998
v 0.784997 0.920000 -0.390000
v -0.720002 0.840000 0.345000
v -0.720002 0.845000 0.350000
v -0.720002 0.845000 0.330000
v -0.720002 0.840000 0.335000
v 0.719998 0.845000 0.350000
v 0.719998 0.840000 0.345000
v 0.719998 0.840000 0.335000
v 0.719998 0.845000 0.330000
v -0.720002 0.840000 -0.335000
v -0.720002 0.845000 -0.330000
v -0.720002 0.845000 -0.350000
v -0.720002 0.840000 -0.345000
v 0.719998 0.845000 -0.330000
v 0.719998 0.840000 -0.335000
v 0.719998 0.840000 -0.345000
v 0.719998 0.845000 -0.350000
v 0.735000 0.840000 -0.320002
v 0.730000 0.845000 -0.320002
v 0.750000 0.845000 -0.320002
v 0.745000 0.840000 -0.320002
v 0.730000 0.845000 0.319998
v 0.735000 0.840000 0.319998
v 0.745000 0.840000 0.319998
v 0.750000 0.845000 0.319998
v -0.745000 0.840000 -0.320002
v -0.750000 0.845000 -0.320002
v -0.730000 0.845000 -0.320002
v -0.735000 0.840000 -0.320002
v -0.750000 0.845000 0.319998
v -0.745000 0.840000 0.319998
v -0.735000 0.840000 0.319998
v -0.730000 0.845000 0.319998
vn -0.0000 -0.9239 -0.3827
vn -0.0000 -0.9239 0.3827
vn -0.0000 -0.3827 -0.9239
vn -0.0000 -0.0000 -1.0000
vn -0.0000 -0.3827 0.9239
vn -0.0000 -0.0000 1.0000
vn 0.3827 -0.9239 -0.0000
vn -0.3827 -0.9239 -0.0000
vn 0.9239 -0.3827 -0.0000
vn 1.0000 -0.0000 -0.0000
vn -0.9239 -0.3827 -0.0000
vn -1.0000 -0.0000 -0.0000
vn -0.2112 0.9309 0.2980
vn -0.2980 0.9309 0.2112
vn -0.5933 0.6991 0.3992
vn -0.3992 0.6991 0.5933
vn 0.2112 0.9309 -0.2980
vn 0.2980 0.9309 -0.2112
vn 0.5933 0.6991 -0.3992
vn 0.3992 0.6991 -0.5933
vn -0.1373 -0.6991 -0.7018
vn 0.1373 -0.6991 -0.7018
vn 0.0614 -0.9309 -0.3601
vn -0.0614 -0.9309 -0.3601
vn -0.7018 0.6991 0.1373
vn -0.7018 0.6991 -0.1373
vn -0.9599 0.2011 -0.1953
vn -0.9599 0.2011 0.1953
vn 0.2980 0.9309 0.2112
vn 0.2112 0.9309 0.2980
vn 0.3992 0.6991 0.5933
vn 0.5933 0.6991 0.3992
vn 0.3799 -0.0284 0.9246
vn 0.3851 -0.0284 0.9224
vn -0.3851 -0.0284 0.9224
vn -0.3799 -0.0284 0.9246
vn 0.9246 -0.0284 -0.3799
vn 0.9224 -0.0284 -0.3851
vn 0.9224 -0.0284 0.3851
vn 0.9246 -0.0284 0.3799
vn -0.0000 -1.0000 -0.0000
vn -0.9246 -0.0284 0.3799
vn -0.9224 -0.0284 0.3851
vn -0.9224 -0.0284 -0.3851
vn -0.9246 -0.0284 -0.3799
vn -0.3799 -0.0284 -0.9246
vn -0.3851 -0.0284 -0.9224
vn 0.3851 -0.0284 -0.9224
vn 0.3799 -0.0284 -0.9246
vn -0.5406 -0.2011 0.8169
vn -0.5406 0.2011 0.8169
vn -0.8169 0.2011 0.5407
vn -0.8168 -0.2011 0.5407
vn -0.2980 0.9309 -0.2112
vn -0.2112 0.9309 -0.2980
vn -0.3992 0.6991 -0.5933
vn -0.5933 0.6991 -0.3992
vn 0.5406 0.2011 0.8169
vn 0.5407 -0.2011 0.8169
vn 0.8168 -0.2011 0.5407
vn 0.8169 0.2011 0.5407
vn -0.7018 -0.6991 0.1373
vn -0.7018 -0.6991 -0.1373
vn -0.3601 -0.9309 -0.0614
vn -0.3601 -0.9309 0.0614
vn 0.1373 -0.6991 0.7018
vn -0.1373 -0.6991 0.7018
vn -0.0614 -0.9309 0.3601
vn 0.0614 -0.9309 0.3601
vn 0.1953 -0.2011 0.9599
vn 0.1953 0.2011 0.9599
vn -0.1953 0.2011 0.9599
vn -0.1953 -0.2011 0.9599
vn -0.3601 0.9309 0.0614
vn -0.3601 0.9309 -0.0614
vn 0.0614 0.9309 0.3601
vn -0.0614 0.9309 0.3601
vn -0.1373 0.6991 0.7018
vn 0.1373 0.6991 0.7018
vn 0.1373 0.6991 -0.7018
vn -0.1373 0.6991 -0.7018
vn -0.0614 0.9309 -0.3601
vn 0.0614 0.9309 -0.3601
vn 0.2112 -0.9309 0.2980
vn 0.2980 -0.9309 0.2112
vn 0.5933 -0.6991 0.3992
vn 0.3992 -0.6991 0.5933
vn -0.3992 -0.6991 -0.5933
vn -0.5933 -0.6991 -0.3992
vn -0.8168 -0.2011 -0.5407
vn -0.5407 -0.2011 -0.8169
vn -0.5406 0.2011 -0.8169
vn -0.8168 0.2011 -0.5407
vn 0.8169 0.2011 -0.5407
vn 0.5406 0.2011 -0.8169
vn 0.5933 -0.6991 -0.3992
vn 0.3992 -0.6991 -0.5933
vn 0.5406 -0.2011 -0.8169
vn 0.8168 -0.2011 -0.5407
vn 0.7018 0.6991 0.1373
vn 0.7018 0.6991 -0.1373
vn 0.3601 0.9309 -0.0614
vn 0.3601 0.9309 0.0614
vn 0.7018 -0.6991 -0.1373
vn 0.7018 -0.6991 0.1373
vn 0.3601 -0.9309 0.0614
vn 0.3601 -0.9309 -0.0614
vn 0.9599 -0.2011 -0.1953
vn 0.9599 0.2011 -0.1953
vn 0.9599 0.2011 0.1953
vn 0.9599 -0.2011 0.1953
vn -0.9599 -0.2011 0.1953
vn -0.9599 -0.2011 -0.1953
vn -0.1953 -0.2011 -0.9599
vn -0.1953 0.2011 -0.9599
vn 0.1953 0.2011 -0.9599
vn 0.1953 -0.2011 -0.9599
vn -0.5933 -0.6991 0.3992
vn -0.3992 -0.6991 0.5933
vn -0.0000 1.0000 -0.0000
vn -0.2112 -0.9309 -0.2980
vn -0.2980 -0.9309 -0.2112
vn 0.2980 -0.9309 -0.2112
vn 0.2112 -0.9309 -0.2980
vn -0.2980 -0.9309 0.2112
vn -0.2112 -0.9309 0.2980
vt 0.260000 0.645000
vt 0.260000 0.645000
vt 0.740000 0.645000
vt 0.740000 0.645000
vt 0.260000 0.645000
vt 0.260000 0.645000
vt 0.740000 0.645000
vt 0.740000 0.645000
vt 0.645000 0.393333
vt 0.645000 0.393333
vt 0.645000 0.606666
vt 0.645000 0.606666
vt 0.645000 0.393333
vt 0.645000 0.393333
vt 0.645000 0.606666
vt 0.645000 0.606666
vt 0.236437 0.646667
vt 0.233496 0.645449
vt 0.235050 0.648333
vt 0.648333 0.648786
vt 0.232119 0.648333
vt 0.235458 0.649024
vt 0.235458 0.645976
vt 0.645976 0.647807
vt 0.232522 0.647807
vt 0.232522 0.645976
vt 0.221218 0.633171
vt 0.220000 0.630230
vt 0.648333 0.634547
vt 0.648333 0.631617
vt 0.218859 0.634145
vt 0.645976 0.634145
vt 0.217643 0.631209
vt 0.645976 0.631209
vt 0.220000 0.630230
vt 0.221218 0.633171
vt 0.658333 0.631617
vt 0.658333 0.634547
vt 0.217643 0.631209
vt 0.660690 0.631209
vt 0.218859 0.634145
vt 0.660690 0.634145
vt 0.233496 0.645449
vt 0.236437 0.646667
vt 0.658333 0.648786
vt 0.232119 0.658333
vt 0.235050 0.658333
vt 0.660690 0.647807
vt 0.232522 0.647807
vt 0.232522 0.660690
vt 0.235458 0.649024
vt 0.235458 0.660690
vt 0.220000 0.369770
vt 0.221218 0.366829
vt 0.648333 0.368383
vt 0.648333 0.365453
vt 0.217643 0.368791
vt 0.645976 0.368791
vt 0.218859 0.365855
vt 0.645976 0.365855
vt 0.233496 0.354551
vt 0.236437 0.353333
vt 0.648333 0.351214
vt 0.232119 0.648333
vt 0.235050 0.648333
vt 0.645976 0.352193
vt 0.232522 0.352193
vt 0.232522 0.645976
vt 0.235458 0.350976
vt 0.235458 0.645976
vt 0.236437 0.353333
vt 0.233496 0.354551
vt 0.235050 0.658333
vt 0.658333 0.351214
vt 0.232119 0.658333
vt 0.235458 0.350976
vt 0.235458 0.660690
vt 0.660690 0.352193
vt 0.232522 0.352193
vt 0.232522 0.660690
vt 0.221218 0.366829
vt 0.220000 0.369770
vt 0.658333 0.365453
vt 0.658333 0.368383
vt 0.218859 0.365855
vt 0.660690 0.365855
vt 0.217643 0.368791
vt 0.660690 0.368791
vt 0.780000 0.630230
vt 0.778782 0.633171
vt 0.648333 0.631617
vt 0.648333 0.634547
vt 0.782357 0.631209
vt 0.645976 0.631209
vt 0.781141 0.634145
vt 0.645976 0.634145
vt 0.766504 0.645449
vt 0.763563 0.646667
vt 0.648333 0.648786
vt 0.767881 0.648333
vt 0.764950 0.648333
vt 0.645976 0.647807
vt 0.767478 0.647807
vt 0.767478 0.645976
vt 0.764542 0.649024
vt 0.764542 0.645976
vt 0.763563 0.646667
vt 0.766504 0.645449
vt 0.764950 0.658333
vt 0.658333 0.648786
vt 0.767881 0.658333
vt 0.764542 0.649024
vt 0.764542 0.660690
vt 0.660690 0.647807
vt 0.767478 0.647807
vt 0.767478 0.660690
vt 0.778782 0.633171
vt 0.780000 0.630230
vt 0.658333 0.634547
vt 0.658333 0.631617
vt 0.781141 0.634145
vt 0.660690 0.634145
vt 0.782357 0.631209
vt 0.660690 0.631209
vt 0.763563 0.353333
vt 0.766504 0.354551
vt 0.764950 0.648333
vt 0.648333 0.351214
vt 0.767881 0.648333
vt 0.764542 0.350976
vt 0.764542 0.645976
vt 0.645976 0.352193
vt 0.767478 0.352193
vt 0.767478 0.645976
vt 0.778782 0.366829
vt 0.780000 0.369770
vt 0.648333 0.365453
vt 0.648333 0.368383
vt 0.781141 0.365855
vt 0.645976 0.365855
vt 0.782357 0.368791
vt 0.645976 0.368791
vt 0.780000 0.369770
vt 0.778782 0.366829
vt 0.658333 0.368383
vt 0.658333 0.365453
vt 0.782357 0.368791
vt 0.660690 0.368791
vt 0.781141 0.365855
vt 0.660690 0.365855
vt 0.766504 0.354551
vt 0.763563 0.353333
vt 0.658333 0.351214
vt 0.767881 0.658333
vt 0.764950 0.658333
vt 0.660690 0.352193
vt 0.767478 0.352193
vt 0.767478 0.660690
vt 0.764542 0.350976
vt 0.764542 0.660690
vt 0.245002 0.338333
vt 0.245002 0.390000
vt 0.338333 0.388332
vt 0.243334 0.338333
vt 0.243334 0.388332
vt 0.645000 0.394999
vt 0.236667 0.645000
vt 0.238335 0.645000
vt 0.338333 0.378334
vt 0.243334 0.338333
vt 0.243334 0.378334
vt 0.245002 0.338333
vt 0.245002 0.376667
vt 0.238335 0.645000
vt 0.645000 0.371668
vt 0.236667 0.645000
vt 0.338333 0.388332
vt 0.256667 0.338333
vt 0.256667 0.388332
vt 0.255000 0.338333
vt 0.255000 0.390000
vt 0.261666 0.645000
vt 0.645000 0.394999
vt 0.263334 0.645000
vt 0.255000 0.338333
vt 0.255000 0.376667
vt 0.338333 0.378334
vt 0.256667 0.338333
vt 0.256667 0.378334
vt 0.645000 0.371668
vt 0.263334 0.645000
vt 0.261666 0.645000
vt 0.245002 0.623333
vt 0.245002 0.338333
vt 0.243334 0.621666
vt 0.338333 0.621666
vt 0.243334 0.338333
vt 0.645000 0.628332
vt 0.236667 0.645000
vt 0.238335 0.645000
vt 0.243334 0.611668
vt 0.338333 0.611668
vt 0.243334 0.338333
vt 0.245002 0.610000
vt 0.245002 0.338333
vt 0.238335 0.645000
vt 0.645000 0.605001
vt 0.236667 0.645000
vt 0.256667 0.621666
vt 0.338333 0.621666
vt 0.256667 0.338333
vt 0.255000 0.623333
vt 0.255000 0.338333
vt 0.261666 0.645000
vt 0.645000 0.628332
vt 0.263334 0.645000
vt 0.255000 0.610000
vt 0.255000 0.338333
vt 0.256667 0.611668
vt 0.338333 0.611668
vt 0.256667 0.338333
vt 0.645000 0.605001
vt 0.263334 0.645000
vt 0.261666 0.645000
vt 0.745001 0.623333
vt 0.745001 0.338333
vt 0.743334 0.621666
vt 0.338333 0.621666
vt 0.743334 0.338333
vt 0.645000 0.628332
vt 0.736667 0.645000
vt 0.738335 0.645000
vt 0.743334 0.611668
vt 0.338333 0.611668
vt 0.743334 0.338333
vt 0.745001 0.610000
vt 0.745001 0.338333
vt 0.738335 0.645000
vt 0.645000 0.605001
vt 0.736667 0.645000
vt 0.756667 0.621666
vt 0.338333 0.621666
vt 0.756667 0.338333
vt 0.755000 0.623333
vt 0.755000 0.338333
vt 0.761666 0.645000
vt 0.645000 0.628332
vt 0.763334 0.645000
vt 0.755000 0.610000
vt 0.755000 0.338333
vt 0.756667 0.611668
vt 0.338333 0.611668
vt 0.756667 0.338333
vt 0.645000 0.605001
vt 0.763334 0.645000
vt 0.761666 0.645000
vt 0.745001 0.390000
vt 0.745001 0.338333
vt 0.743334 0.388332
vt 0.338333 0.388332
vt 0.743334 0.338333
vt 0.645000 0.394999
vt 0.736667 0.645000
vt 0.738335 0.645000
vt 0.743334 0.378334
vt 0.338333 0.378334
vt 0.743334 0.338333
vt 0.745001 0.376667
vt 0.745001 0.338333
vt 0.738335 0.645000
vt 0.645000 0.371668
vt 0.736667 0.645000
vt 0.756667 0.388332
vt 0.338333 0.388332
vt 0.756667 0.338333
vt 0.755000 0.390000
vt 0.755000 0.338333
vt 0.761666 0.645000
vt 0.645000 0.394999
vt 0.763334 0.645000
vt 0.755000 0.376667
vt 0.755000 0.338333
vt 0.756667 0.378334
vt 0.338333 0.378334
vt 0.756667 0.338333
vt 0.645000 0.371668
vt 0.763334 0.645000
vt 0.761666 0.645000
vt 0.260000 0.618333
vt 0.260000 0.615000
vt 0.260000 0.620000
vt 0.260000 0.620000
vt 0.260000 0.618333
vt 0.260000 0.611667
vt 0.740000 0.620000
vt 0.740000 0.618333
vt 0.740000 0.615000
vt 0.740000 0.618333
vt 0.740000 0.611667
vt 0.740000 0.620000
vt 0.260000 0.388333
vt 0.260000 0.618333
vt 0.260000 0.620000
vt 0.260000 0.620000
vt 0.260000 0.385000
vt 0.260000 0.618333
vt 0.740000 0.620000
vt 0.740000 0.388333
vt 0.740000 0.618333
vt 0.740000 0.385000
vt 0.740000 0.618333
vt 0.740000 0.620000
vt 0.745001 0.393333
vt 0.620000 0.393333
vt 0.743334 0.393333
vt 0.620000 0.393333
vt 0.750001 0.393333
vt 0.748334 0.393333
vt 0.620000 0.606666
vt 0.743334 0.606666
vt 0.745001 0.606666
vt 0.748334 0.606666
vt 0.620000 0.606666
vt 0.750001 0.606666
vt 0.618333 0.393333
vt 0.251667 0.393333
vt 0.620000 0.393333
vt 0.620000 0.393333
vt 0.618333 0.393333
vt 0.255001 0.393333
vt 0.620000 0.606666
vt 0.618333 0.606666
vt 0.251667 0.606666
vt 0.618333 0.606666
vt 0.255001 0.606666
vt 0.620000 0.606666
s 1
usemtl wood_3
f 188/305/1 191/310/1 190/308/2 185/301/2
f 179/292/3 2/2/4 4/4/4 184/300/3
f 181/295/5 3/3/6 1/1/6 178/291/5
f 196/318/7 199/322/7 198/321/8 193/313/8
f 187/304/3 6/6/4 8/8/4 192/312/3
f 189/307/5 7/7/6 5/5/6 186/303/5
f 203/328/9 10/10/10 12/12/10 208/336/9
f 205/331/11 11/11/12 9/9/12 202/327/11
f 195/316/9 14/14/10 16/16/10 200/323/9
f 197/319/11 15/15/12 13/13/12 194/314/11
f 35/43/13 30/36/14 34/41/15 39/49/16
f 107/151/17 102/144/18 106/149/19 111/157/20
f 52/69/21 93/130/22 89/125/23 48/62/24
f 33/40/25 64/88/26 62/84/27 31/37/28
f 83/117/29 78/108/30 82/115/31 87/121/32
f 122/180/33 123/182/34 116/168/35 113/161/36
f 126/187/37 127/190/38 124/183/39 121/177/40
f 133/201/41 134/204/41 141/217/41 142/219/41 137/209/41 138/212/41 129/193/41 130/195/41
f 114/163/42 115/166/43 120/175/44 117/169/45
f 118/172/46 119/174/47 128/192/48 125/185/49
f 138/213/33 139/214/34 132/200/35 129/194/36
f 142/220/37 143/222/38 140/215/39 137/210/40
f 149/233/41 150/236/41 157/249/41 158/251/41 153/241/41 154/244/41 145/225/41 146/227/41
f 130/196/42 131/198/43 136/207/44 133/202/45
f 134/205/46 135/206/47 144/224/48 141/218/49
f 154/245/33 155/246/34 148/232/35 145/226/36
f 158/252/37 159/254/38 156/247/39 153/242/40
f 165/265/41 166/268/41 173/281/41 174/283/41 169/273/41 170/276/41 161/257/41 162/259/41
f 146/228/42 147/230/43 152/239/44 149/234/45
f 150/237/46 151/238/47 160/256/48 157/250/49
f 170/277/33 171/278/34 164/264/35 161/258/36
f 174/284/37 175/286/38 172/279/39 169/274/40
f 162/260/42 163/262/43 168/271/44 165/266/45
f 166/269/46 167/270/47 176/288/48 173/282/49
f 20/20/50 37/45/51 32/38/52 25/29/53
f 59/81/54 54/72/55 58/79/56 63/85/57
f 80/110/58 73/99/59 68/92/60 85/119/61
f 28/33/62 45/57/63 41/53/64 24/28/65
f 76/105/66 21/22/67 17/17/68 72/98/69
f 74/101/70 79/109/71 38/47/72 19/19/73
f 29/35/74 60/82/75 64/87/26 33/39/25
f 77/107/76 36/44/77 40/51/78 81/112/79
f 112/159/80 57/76/81 53/71/82 108/152/83
f 71/97/84 66/90/85 70/95/86 75/103/87
f 51/66/88 46/60/89 44/56/90 49/63/91
f 56/74/92 49/63/91 44/56/90 61/83/93
f 111/156/20 106/150/19 104/146/94 109/153/95
f 99/140/96 94/132/97 92/128/98 97/137/99
f 104/146/94 97/137/99 92/128/98 109/153/95
f 87/122/32 82/114/31 80/110/58 85/119/61
f 88/123/100 105/147/101 101/143/102 84/118/103
f 100/141/104 69/93/105 65/89/106 96/136/107
f 98/138/108 103/145/109 86/120/110 67/91/111
f 26/30/112 31/37/28 62/84/27 43/55/113
f 26/30/112 43/55/113 45/58/63 28/34/62
f 50/65/114 55/73/115 110/155/116 91/127/117
f 50/65/114 91/127/117 93/131/22 52/70/21
f 75/102/87 70/96/86 68/92/60 73/99/59
f 98/138/108 67/91/111 69/94/105 100/142/104
f 27/32/118 22/24/119 20/20/50 25/29/53
f 74/101/70 19/19/73 21/23/67 76/106/66
f 101/143/120 102/144/120 107/151/120 108/152/120 53/71/120 54/72/120 59/81/120 60/82/120 29/35/120 30/36/120 35/43/120 36/44/120 77/107/120 78/108/120 83/117/120 84/118/120
f 39/48/16 34/42/15 32/38/52 37/45/51
f 81/113/79 40/52/78 38/47/72 79/109/71
f 47/61/121 42/54/122 46/59/89 51/67/88
f 95/135/123 90/126/124 94/133/97 99/139/96
f 86/120/110 103/145/109 105/148/101 88/124/100
f 63/86/57 58/78/56 56/74/92 61/83/93
f 110/155/116 55/73/115 57/77/81 112/160/80
f 23/27/125 18/18/126 22/25/119 27/31/118
f 28/33/62 24/28/65 23/27/125 27/31/118
f 17/17/68 21/22/67 22/25/119 18/18/126
f 26/30/112 28/34/62 27/32/118 25/29/53
f 21/23/67 19/19/73 20/21/50 22/26/119
f 40/51/78 36/44/77 35/43/13 39/49/16
f 29/35/74 33/39/25 34/41/15 30/36/14
f 38/47/72 40/52/78 39/50/16 37/46/51
f 33/40/25 31/37/28 32/38/52 34/42/15
f 64/87/26 60/82/75 59/81/54 63/85/57
f 53/71/82 57/76/81 58/79/56 54/72/55
f 62/84/27 64/88/26 63/86/57 61/83/93
f 57/77/81 55/73/115 56/75/92 58/80/56
f 52/69/21 48/62/24 47/61/121 51/67/88
f 41/53/64 45/57/63 46/59/89 42/54/122
f 50/65/114 52/70/21 51/68/88 49/64/91
f 45/58/63 43/55/113 44/56/90 46/60/89
f 112/159/80 108/152/83 107/151/17 111/157/20
f 101/143/102 105/147/101 106/149/19 102/144/18
f 110/155/116 112/160/80 111/158/20 109/154/95
f 105/148/101 103/145/109 104/146/94 106/150/19
f 100/141/104 96/136/107 95/135/123 99/139/96
f 89/125/23 93/130/22 94/133/97 90/126/124
f 98/138/108 100/142/104 99/140/96 97/137/99
f 93/131/22 91/127/117 92/129/98 94/134/97
f 88/123/100 84/118/103 83/117/29 87/121/32
f 77/107/76 81/112/79 82/115/31 78/108/30
f 86/120/110 88/124/100 87/122/32 85/119/61
f 81/113/79 79/109/71 80/111/58 82/116/31
f 76/105/66 72/98/69 71/97/84 75/103/87
f 65/89/106 69/93/105 70/95/86 66/90/85
f 74/101/70 76/106/66 75/104/87 73/100/59
f 69/94/105 67/91/111 68/92/60 70/96/86
f 19/19/73 38/47/72 37/46/51 20/21/50
f 31/37/28 26/30/112 25/29/53 32/38/52
f 73/100/59 80/111/58 79/109/71 74/101/70
f 61/83/93 44/56/90 43/55/113 62/84/27
f 55/73/115 50/65/114 49/64/91 56/75/92
f 109/154/95 92/129/98 91/127/117 110/155/116
f 67/91/111 86/120/110 85/119/61 68/92/60
f 97/137/99 104/146/94 103/145/109 98/138/108
f 41/53/41 42/54/41 47/61/41 48/62/41 89/125/41 90/126/41 95/135/41 96/136/41 65/89/41 66/90/41 71/97/41 72/98/41 17/17/41 18/18/41 23/27/41 24/28/41
f 113/161/36 116/168/35 115/167/43 114/164/42
f 119/174/47 118/172/46 117/170/45 120/176/44
f 127/191/38 126/188/37 125/185/49 128/192/48
f 123/182/34 122/180/33 121/178/40 124/184/39
f 129/194/36 132/200/35 131/199/43 130/197/42
f 135/206/47 134/205/46 133/203/45 136/208/44
f 143/223/38 142/221/37 141/218/49 144/224/48
f 139/214/34 138/213/33 137/211/40 140/216/39
f 145/226/36 148/232/35 147/231/43 146/229/42
f 151/238/47 150/237/46 149/235/45 152/240/44
f 159/255/38 158/253/37 157/250/49 160/256/48
f 155/246/34 154/245/33 153/243/40 156/248/39
f 161/258/36 164/264/35 163/263/43 162/261/42
f 167/270/47 166/269/46 165/267/45 168/272/44
f 175/287/38 174/285/37 173/282/49 176/288/48
f 171/278/34 170/277/33 169/275/40 172/280/39
f 117/171/41 118/173/41 125/186/41 126/189/41 121/179/41 122/181/41 113/162/41 114/165/41
f 183/298/1 180/293/1 179/292/3 184/300/3
f 177/289/2 182/296/2 181/295/5 178/291/5
f 191/311/1 188/306/1 187/304/3 192/312/3
f 185/302/2 190/309/2 189/307/5 186/303/5
f 199/322/7 196/318/7 195/317/9 200/324/9
f 193/313/8 198/321/8 197/320/11 194/315/11
f 180/294/1 183/299/1 182/297/2 177/290/2
f 207/334/7 204/329/7 203/328/9 208/336/9
f 201/325/8 206/332/8 205/331/11 202/327/11
f 204/330/7 207/335/7 206/333/8 201/326/8
