# Blender 3.4.0
# www.blender.org
mtllib vent_3.mtl
o vent_3
v -0.409589 -0.400000 -0.000000
v 0.409589 -0.400000 -0.000000
v -0.409589 0.400000 0.000000
v 0.409589 0.400000 0.000000
v -0.340789 0.331200 0.005000
v -0.340789 -0.331200 0.005000
v 0.340789 -0.331200 0.005000
v 0.340789 0.331200 0.005000
v -0.340789 0.331200 0.026000
v -0.344789 0.335200 0.030000
v -0.344789 -0.335200 0.030000
v -0.340789 -0.331200 0.026000
v 0.344789 -0.335200 0.030000
v 0.340789 -0.331200 0.026000
v 0.344789 0.335200 0.030000
v 0.340789 0.331200 0.026000
v -0.405589 0.396000 0.030000
v -0.409589 0.400000 0.026000
v -0.409589 -0.400000 0.026000
v -0.405589 -0.396000 0.030000
v 0.409589 -0.400000 0.026000
v 0.405589 -0.396000 0.030000
v 0.409589 0.400000 0.026000
v 0.405589 0.396000 0.030000
vn -0.0000 -0.0000 1.0000
vn -0.0000 1.0000 -0.0000
vn -0.0000 -1.0000 -0.0000
vn 1.0000 -0.0000 -0.0000
vn -1.0000 -0.0000 -0.0000
vn -0.7071 -0.0000 0.7071
vn -0.0000 -0.7071 0.7071
vn 0.7071 -0.0000 0.7071
vn -0.0000 0.7071 0.7071
vt 0.000000 0.981689
vt 0.000000 0.979021
vt 1.000000 0.981689
vt 0.000000 0.979021
vt 0.000000 0.981689
vt 1.000000 0.979021
vt 1.000000 0.981689
vt 1.000000 0.979021
vt 0.083916 0.034965
vt 0.083987 0.914000
vt 0.916084 0.034965
vt 0.083987 0.086000
vt 0.083916 0.034965
vt 0.083916 0.034965
vt 0.916084 0.034965
vt 0.916013 0.086000
vt 0.916084 0.034965
vt 0.916013 0.914000
vt 0.083916 0.058462
vt 0.916084 0.058462
vt 0.083987 0.914000
vt 0.079104 0.919000
vt 0.079104 0.081000
vt 0.083916 0.058462
vt 0.083987 0.086000
vt 0.920896 0.081000
vt 0.083916 0.058462
vt 0.916084 0.058462
vt 0.916013 0.086000
vt 0.920896 0.919000
vt 0.916084 0.058462
vt 0.916013 0.914000
vt 0.004883 0.995000
vt 0.000000 1.013428
vt 1.000000 1.015385
vt 0.000000 1.000000
vt 0.000000 1.013428
vt 0.000000 1.015385
vt 0.000000 0.000000
vt 0.004883 0.005000
vt 1.000000 1.013428
vt 0.000000 1.015385
vt 1.000000 0.000000
vt 0.995117 0.005000
vt 1.000000 1.013428
vt 1.000000 1.015385
vt 1.000000 1.000000
vt 0.995117 0.995000
s 0
usemtl vent_3
f 10/22/1 15/30/1 24/48/1 17/33/1
f 4/7/2 3/5/2 18/34/2 23/45/2
f 1/1/3 2/3/3 21/41/3 19/37/3
f 2/4/4 4/8/4 23/46/4 21/42/4
f 16/31/3 9/19/3 5/9/3 8/17/3
f 14/27/5 16/31/5 8/17/5 7/14/5
f 3/6/5 1/2/5 19/38/5 18/35/5
f 12/24/2 14/28/2 7/15/2 6/13/2
f 6/12/1 7/16/1 8/18/1 5/10/1
f 9/20/4 12/24/4 6/13/4 5/11/4
f 13/26/1 11/23/1 20/40/1 22/44/1
f 15/30/1 13/26/1 22/44/1 24/48/1
f 18/36/6 19/39/6 20/40/6 17/33/6
f 19/39/7 21/43/7 22/44/7 20/40/7
f 21/43/8 23/47/8 24/48/8 22/44/8
f 23/47/9 18/36/9 17/33/9 24/48/9
f 10/22/8 11/23/8 12/25/8 9/21/8
f 11/23/9 13/26/9 14/29/9 12/25/9
f 13/26/6 15/30/6 16/32/6 14/29/6
f 15/30/7 10/22/7 9/21/7 16/32/7
f 11/23/1 10/22/1 17/33/1 20/40/1
