# Blender 3.4.0
# www.blender.org
mtllib vent_1.mtl
o vent_1
v -0.409589 -0.400000 -0.000000
v 0.409589 -0.400000 -0.000000
v -0.409589 0.400000 0.000000
v 0.409589 0.400000 0.000000
v -0.369589 0.360000 0.005000
v -0.369589 -0.360000 0.005000
v 0.369589 -0.360000 0.005000
v 0.369589 0.360000 0.005000
v -0.369589 0.238666 0.005000
v -0.369589 0.154286 0.005000
v -0.369589 0.051429 0.005000
v -0.369589 -0.051429 0.005000
v -0.369589 -0.154286 0.005000
v -0.369589 -0.257143 0.005000
v 0.369589 -0.257143 0.005000
v 0.369589 -0.154286 0.005000
v 0.369589 -0.051429 0.005000
v 0.369589 0.051429 0.005000
v 0.369589 0.154286 0.005000
v 0.369589 0.238666 0.005000
v -0.369589 -0.308571 0.020000
v 0.369589 0.308571 0.020000
v -0.369589 0.308571 0.020000
v -0.369589 0.205714 0.020000
v -0.369589 0.102857 0.020000
v -0.369589 -0.000000 0.020000
v -0.369589 -0.102857 0.020000
v -0.369589 -0.205714 0.020000
v 0.369589 -0.308571 0.020000
v 0.369589 -0.205714 0.020000
v 0.369589 -0.102857 0.020000
v 0.369589 0.000000 0.020000
v 0.369589 0.102857 0.020000
v 0.369589 0.205714 0.020000
v -0.369589 0.360000 0.022000
v -0.377589 0.368000 0.030000
v -0.370661 0.361072 0.026000
v -0.373589 0.364000 0.028928
v -0.377589 -0.368000 0.030000
v -0.369589 -0.360000 0.022000
v -0.373589 -0.364000 0.028928
v -0.370661 -0.361072 0.026000
v 0.377589 -0.368000 0.030000
v 0.369589 -0.360000 0.022000
v 0.373589 -0.364000 0.028928
v 0.370661 -0.361072 0.026000
v 0.377589 0.368000 0.030000
v 0.369589 0.360000 0.022000
v 0.373589 0.364000 0.028928
v 0.370661 0.361072 0.026000
v -0.401589 0.392000 0.030000
v -0.409589 0.400000 0.022000
v -0.405589 0.396000 0.028928
v -0.408517 0.398928 0.026000
v -0.409589 -0.400000 0.022000
v -0.401589 -0.392000 0.030000
v -0.408517 -0.398928 0.026000
v -0.405589 -0.396000 0.028928
v 0.409589 -0.400000 0.022000
v 0.401589 -0.392000 0.030000
v 0.408517 -0.398928 0.026000
v 0.405589 -0.396000 0.028928
v 0.409589 0.400000 0.022000
v 0.401589 0.392000 0.030000
v 0.408517 0.398928 0.026000
v 0.405589 0.396000 0.028928
vn -1.0000 -0.0000 -0.0000
vn -0.0000 1.0000 -0.0000
vn -0.0000 -1.0000 -0.0000
vn 1.0000 -0.0000 -0.0000
vn -0.0000 -0.0000 1.0000
vn -0.0000 0.2800 0.9600
vn -0.0000 -0.2800 0.9600
vn -0.0000 0.4143 0.9101
vn -0.0000 -0.2098 0.9777
vn -0.9659 -0.0000 0.2588
vn -0.7071 -0.0000 0.7071
vn -0.2588 -0.0000 0.9659
vn -0.0000 -0.9659 0.2588
vn -0.0000 -0.7071 0.7071
vn -0.0000 -0.2588 0.9659
vn 0.9659 -0.0000 0.2588
vn 0.7071 -0.0000 0.7071
vn 0.2588 -0.0000 0.9659
vn -0.0000 0.9659 0.2588
vn -0.0000 0.7071 0.7071
vn -0.0000 0.2588 0.9659
vt 0.000000 0.809814
vt 0.011706 0.809814
vt 1.000000 0.809814
vt 0.011706 0.809814
vt 0.000000 0.809814
vt 0.988294 0.809814
vt 1.000000 0.809814
vt 0.988294 0.809814
vt 0.048829 0.815918
vt 0.048951 0.951049
vt 0.939465 0.815918
vt 0.048829 0.815918
vt 0.048951 0.048951
vt 0.060535 0.815918
vt 0.060535 0.815918
vt 0.951171 0.815918
vt 0.951049 0.048951
vt 0.939465 0.815918
vt 0.951171 0.815918
vt 0.951049 0.951049
vt 0.048951 0.797203
vt 0.791348 0.815918
vt 0.048951 0.692308
vt 0.688342 0.815918
vt 0.048951 0.566434
vt 0.562781 0.815918
vt 0.048951 0.433566
vt 0.437219 0.815918
vt 0.048951 0.307692
vt 0.311658 0.815918
vt 0.048951 0.174825
vt 0.186097 0.815918
vt 0.186097 0.815918
vt 0.951049 0.174825
vt 0.311658 0.815918
vt 0.951049 0.307692
vt 0.437219 0.815918
vt 0.951049 0.433566
vt 0.562781 0.815918
vt 0.951049 0.566434
vt 0.688342 0.815918
vt 0.951049 0.692308
vt 0.791348 0.815918
vt 0.951049 0.797203
vt 0.048951 0.111888
vt 0.123316 0.834229
vt 0.876684 0.834229
vt 0.951049 0.888112
vt 0.048951 0.888112
vt 0.876684 0.834229
vt 0.048951 0.755245
vt 0.751123 0.834229
vt 0.048951 0.629371
vt 0.625561 0.834229
vt 0.048951 0.496504
vt 0.500000 0.834229
vt 0.048951 0.370629
vt 0.374439 0.834229
vt 0.048951 0.244755
vt 0.248877 0.834229
vt 0.123316 0.834229
vt 0.951049 0.111888
vt 0.248877 0.834229
vt 0.951049 0.244755
vt 0.374439 0.834229
vt 0.951049 0.370629
vt 0.500000 0.834229
vt 0.951049 0.496504
vt 0.625561 0.834229
vt 0.951049 0.629371
vt 0.751123 0.834229
vt 0.951049 0.755245
vt 0.048829 0.836670
vt 0.939465 0.836670
vt 0.039161 0.960839
vt 0.939465 0.846436
vt 0.048951 0.951049
vt 0.048829 0.846436
vt 0.044056 0.955944
vt 0.039161 0.039161
vt 0.048829 0.836670
vt 0.060535 0.836670
vt 0.044056 0.044056
vt 0.060535 0.846436
vt 0.048951 0.048951
vt 0.048829 0.846436
vt 0.960839 0.039161
vt 0.951171 0.836670
vt 0.060535 0.836670
vt 0.955944 0.044056
vt 0.951171 0.846436
vt 0.951049 0.048951
vt 0.060535 0.846436
vt 0.960839 0.960839
vt 0.939465 0.836670
vt 0.951171 0.836670
vt 0.955944 0.955944
vt 0.939465 0.846436
vt 0.951049 0.951049
vt 0.951171 0.846436
vt 0.009790 0.990210
vt 0.988294 0.836670
vt 0.000000 0.836670
vt 0.004895 0.995105
vt 0.986986 0.846436
vt 0.000000 0.998660
vt 0.001309 0.846436
vt 0.001309 1.000000
vt 0.011706 0.836670
vt 0.000000 0.836670
vt 0.009790 0.009790
vt 0.013014 0.846436
vt 0.000000 0.001340
vt 0.001309 0.846436
vt 0.001308 0.000000
vt 0.004895 0.004895
vt 1.000000 0.836670
vt 0.011706 0.836670
vt 0.990210 0.009790
vt 0.998691 0.846436
vt 0.998691 0.000000
vt 0.013014 0.846436
vt 1.000000 0.001340
vt 0.995105 0.004895
vt 0.988294 0.836670
vt 1.000000 0.836670
vt 0.990210 0.990210
vt 0.986986 0.846436
vt 1.000000 0.998660
vt 0.998691 0.846436
vt 0.998692 1.000000
vt 0.995105 0.995105
s 0
usemtl vent_1
f 44/89/1 48/95/1 8/18/1 22/47/1 20/43/1 34/71/1 19/41/1 33/69/1 18/39/1 32/67/1 17/37/1 31/65/1 16/35/1 30/63/1 15/33/1 29/61/1 7/15/1
f 4/7/2 3/5/2 52/103/2 63/126/2
f 1/1/3 2/3/3 59/117/3 55/110/3
f 2/4/4 4/8/4 63/125/4 59/118/4
f 48/96/3 35/73/3 5/9/3 8/19/3
f 40/81/2 44/88/2 7/16/2 6/12/2
f 3/6/1 1/2/1 55/109/1 52/102/1
f 39/80/5 36/75/5 51/101/5 56/111/5
f 21/45/6 29/62/6 15/34/6 14/31/6
f 47/94/5 43/87/5 60/119/5 64/127/5
f 36/75/5 47/94/5 64/127/5 51/101/5
f 43/87/5 39/80/5 56/111/5 60/119/5
f 23/49/6 22/48/6 8/20/6 5/10/6
f 34/72/7 24/51/7 10/23/7 19/42/7
f 33/70/7 25/53/7 11/25/7 18/40/7
f 32/68/7 26/55/7 12/27/7 17/38/7
f 31/66/7 27/57/7 13/29/7 16/36/7
f 30/64/7 28/59/7 14/31/7 15/34/7
f 16/36/6 13/29/6 28/59/6 30/64/6
f 17/38/6 12/27/6 27/57/6 31/66/6
f 18/40/6 11/25/6 26/55/6 32/68/6
f 19/42/6 10/23/6 25/53/6 33/70/6
f 20/44/8 9/21/8 24/51/8 34/72/8
f 9/21/9 20/44/9 22/48/9 23/49/9
f 6/13/7 7/17/7 29/62/7 21/45/7
f 52/102/10 55/109/10 57/112/10 54/105/10
f 54/106/11 57/113/11 58/116/11 53/104/11
f 53/104/12 58/116/12 56/111/12 51/101/12
f 55/110/13 59/117/13 61/120/13 57/114/13
f 57/115/14 61/121/14 62/124/14 58/116/14
f 58/116/15 62/124/15 60/119/15 56/111/15
f 59/118/16 63/125/16 65/128/16 61/122/16
f 61/123/17 65/129/17 66/132/17 62/124/17
f 62/124/18 66/132/18 64/127/18 60/119/18
f 63/126/19 52/103/19 54/107/19 65/130/19
f 65/131/20 54/108/20 53/104/20 66/132/20
f 66/132/21 53/104/21 51/101/21 64/127/21
f 36/75/18 39/80/18 41/83/18 38/79/18
f 38/79/17 41/83/17 42/85/17 37/77/17
f 37/76/16 42/84/16 40/82/16 35/74/16
f 39/80/21 43/87/21 45/90/21 41/83/21
f 41/83/20 45/90/20 46/92/20 42/85/20
f 42/86/19 46/91/19 44/88/19 40/81/19
f 43/87/12 47/94/12 49/97/12 45/90/12
f 45/90/11 49/97/11 50/99/11 46/92/11
f 46/93/10 50/98/10 48/95/10 44/89/10
f 47/94/15 36/75/15 38/79/15 49/97/15
f 49/97/14 38/79/14 37/77/14 50/99/14
f 50/100/13 37/78/13 35/73/13 48/96/13
f 35/74/4 40/82/4 6/14/4 21/46/4 14/32/4 28/60/4 13/30/4 27/58/4 12/28/4 26/56/4 11/26/4 25/54/4 10/24/4 24/52/4 9/22/4 23/50/4 5/11/4
