# Blender 3.4.0
# www.blender.org
mtllib wall_element_2.mtl
o wall_element_2
v 0.500000 0.000000 0.060000
v -0.500000 0.000000 0.060000
v -0.500000 3.000000 0.060000
v 0.500000 3.000000 0.060000
v -0.050000 0.000000 0.500000
v -0.067071 0.000000 0.492929
v -0.067071 3.000000 0.492929
v -0.050000 3.000000 0.500000
v 0.067071 0.000000 0.492929
v 0.050000 0.000000 0.500000
v 0.050000 3.000000 0.500000
v 0.067071 3.000000 0.492929
vn -0.0000 1.0000 -0.0000
vn 0.7071 -0.0000 0.7071
vn -0.0000 -0.0000 1.0000
vn -0.7071 -0.0000 0.7071
vn -0.3827 -0.0000 0.9239
vn 0.3827 -0.0000 0.9239
vn -0.0000 -1.0000 -0.0000
vt 0.666667 0.000000
vt 0.666667 0.573333
vt 0.333333 0.000000
vt 0.333333 0.573333
vt 0.333333 0.573333
vt 0.333333 1.000000
vt 0.666667 0.573333
vt 0.666667 1.000000
vt 0.483333 0.000000
vt 0.483333 0.426667
vt 0.477643 0.000000
vt 0.477643 0.429024
vt 0.477643 0.429024
vt 0.477643 1.000000
vt 0.483333 0.426667
vt 0.483333 1.000000
vt 0.522357 0.000000
vt 0.522357 0.429024
vt 0.516667 0.000000
vt 0.516667 0.426667
vt 0.516667 0.426667
vt 0.516667 1.000000
vt 0.522357 0.429024
vt 0.522357 1.000000
s 1
usemtl concrete_2
f 4/7/1 3/5/1 7/13/1 8/15/1 11/21/1 12/23/1
f 12/24/2 9/17/2 1/1/2 4/8/2
f 10/19/3 11/22/3 8/16/3 5/9/3
f 6/11/4 7/14/4 3/6/4 2/3/4
f 5/9/5 8/16/5 7/14/5 6/11/5
f 11/22/6 10/19/6 9/17/6 12/24/6
f 2/4/7 1/2/7 9/18/7 10/20/7 5/10/7 6/12/7
