# Blender 3.4.0
# www.blender.org
mtllib wall_element_1.mtl
o wall_element_1
v -0.500000 0.000000 0.060000
v -0.500000 3.000000 0.060000
v 0.500000 0.000000 0.060000
v 0.500000 3.000000 0.060000
v -0.450000 0.000000 0.500000
v -0.500000 -0.000000 0.450000
v -0.475000 0.000000 0.493301
v -0.493301 -0.000000 0.475000
v -0.500000 3.000000 0.450000
v -0.450000 3.000000 0.500000
v -0.493301 3.000000 0.475000
v -0.475000 3.000000 0.493301
v 0.500000 -0.000000 0.450000
v 0.450000 0.000000 0.500000
v 0.493301 -0.000000 0.475000
v 0.475000 0.000000 0.493301
v 0.450000 3.000000 0.500000
v 0.500000 3.000000 0.450000
v 0.475000 3.000000 0.493301
v 0.493301 3.000000 0.475000
vn 0.1305 -0.0000 0.9914
vn -0.1305 -0.0000 0.9914
vn -0.0000 1.0000 -0.0000
vn -0.9914 -0.0000 0.1305
vn -1.0000 -0.0000 -0.0000
vn 1.0000 -0.0000 -0.0000
vn 0.9914 -0.0000 0.1305
vn -0.5000 -0.0000 0.8660
vn -0.8660 -0.0000 0.5000
vn 0.5000 -0.0000 0.8660
vn 0.8660 -0.0000 0.5000
vn -0.0000 -1.0000 -0.0000
vt 0.573333 0.000000
vt 0.333333 0.573333
vt 0.333333 0.573333
vt 0.573333 1.000000
vt 0.573333 0.000000
vt 0.666667 0.573333
vt 0.666667 0.573333
vt 0.573333 1.000000
vt 0.350000 0.000000
vt 0.350000 0.426667
vt 0.443333 0.000000
vt 0.333333 0.443333
vt 0.341667 0.000000
vt 0.341667 0.428900
vt 0.333333 0.000000
vt 0.426667 0.000000
vt 0.335566 0.435000
vt 0.333333 0.443333
vt 0.443333 1.000000
vt 0.350000 0.426667
vt 0.350000 1.000000
vt 0.335566 0.435000
vt 0.333333 1.000000
vt 0.426667 1.000000
vt 0.341667 0.428900
vt 0.341667 1.000000
vt 0.443333 0.000000
vt 0.666667 0.443333
vt 0.650000 0.000000
vt 0.650000 0.426667
vt 0.666667 0.000000
vt 0.426667 0.000000
vt 0.664434 0.435000
vt 0.658333 0.000000
vt 0.658333 0.428900
vt 0.650000 0.426667
vt 0.650000 1.000000
vt 0.666667 0.443333
vt 0.443333 1.000000
vt 0.658333 0.428900
vt 0.658333 1.000000
vt 0.664434 0.435000
vt 0.666667 1.000000
vt 0.426667 1.000000
s 1
usemtl concrete_2
f 14/29/1 17/37/1 10/21/2 5/9/2
f 4/7/3 2/3/3 9/18/3 11/22/3 12/25/3 10/20/3 17/36/3 19/40/3 20/42/3 18/38/3
f 6/11/4 9/19/4 2/4/5 1/1/5
f 3/5/6 4/8/6 18/39/7 13/27/7
f 5/9/2 10/21/2 12/26/8 7/13/8
f 7/13/8 12/26/8 11/23/9 8/15/9
f 8/16/9 11/24/9 9/19/4 6/11/4
f 17/37/1 14/29/1 16/34/10 19/41/10
f 19/41/10 16/34/10 15/31/11 20/43/11
f 20/44/11 15/32/11 13/27/7 18/39/7
f 1/2/12 3/6/12 13/28/12 15/33/12 16/35/12 14/30/12 5/10/12 7/14/12 8/17/12 6/12/12
