# Blender 3.4.0
# www.blender.org
mtllib wall_1_plain.mtl
o wall_1_plain
v 2.000000 0.000000 0.060000
v 2.000000 3.000000 0.060000
v 2.000000 0.000000 -0.060000
v 2.000000 3.000000 -0.060000
v 2.030000 0.000000 0.030000
v 2.030000 3.000000 0.030000
v 2.030000 0.000000 -0.030000
v 2.030000 3.000000 -0.030000
v -2.000000 0.000000 -0.060000
v -2.000000 3.000000 -0.060000
v -2.000000 0.000000 0.060001
v -2.000000 3.000000 0.060000
v -2.030000 0.000000 -0.030000
v -2.030000 3.000000 -0.030000
v -2.030000 0.000000 0.030001
v -2.030000 3.000000 0.030000
vn -0.0000 -0.0000 -1.0000
vn 0.7071 -0.0000 -0.7071
vn 0.7071 -0.0000 0.7071
vn -0.7071 -0.0000 0.7071
vn -0.7071 -0.0000 -0.7071
vn -0.0000 -0.0000 1.0000
vt 1.000000 0.000000
vt 1.000000 1.000000
vt 1.000000 0.000000
vt -0.000000 0.000000
vt 1.000000 1.000000
vt -0.000000 1.000000
vt 1.009766 0.000000
vt 1.009766 1.000000
vt -0.009766 0.000000
vt -0.009766 1.000000
vt -0.000000 0.000000
vt 1.009766 0.000000
vt -0.000000 1.000000
vt 1.009766 1.000000
vt -0.009766 0.000000
vt -0.000000 0.000000
vt -0.009766 1.000000
vt -0.000000 1.000000
vt 1.000000 0.000000
vt 1.000000 1.000000
vt -0.000000 0.000000
vt -0.000000 1.000000
s 0
usemtl wall_4
f 3/3/1 9/11/1 10/13/1 4/5/1
f 3/4/2 4/6/2 8/10/2 7/9/2
f 10/14/5 9/12/5 13/19/5 14/20/5
usemtl wall_4
f 2/2/3 1/1/3 5/7/3 6/8/3
f 11/15/4 12/17/4 16/22/4 15/21/4
f 11/16/6 1/1/6 2/2/6 12/18/6
