# Blender 3.4.0
# www.blender.org
mtllib wall_element_1_bottom.mtl
o wall_element_1_bottom
v -0.500000 -0.000000 0.060000
v -0.500000 3.000000 0.060000
v 0.500000 3.000000 0.060000
v 0.500000 -0.000000 0.060000
v -0.500000 3.000000 0.450000
v -0.450000 3.000000 0.500000
v -0.493301 3.000000 0.475000
v -0.475000 3.000000 0.493301
v 0.450000 3.000000 0.500000
v 0.500000 3.000000 0.450000
v 0.475000 3.000000 0.493301
v 0.493301 3.000000 0.475000
v -0.450000 -0.000000 0.160000
v -0.500000 -0.000000 0.109283
v -0.475000 -0.000000 0.153205
v -0.493301 -0.000000 0.134641
v -0.500000 2.004220 0.450000
v -0.450000 2.000000 0.500000
v -0.493301 2.002110 0.475000
v -0.475000 2.000565 0.493301
v 0.500000 2.004220 0.450000
v 0.450000 2.000000 0.500000
v 0.493301 2.002110 0.475000
v 0.475000 2.000565 0.493301
v 0.500000 -0.000000 0.109283
v 0.450000 -0.000000 0.160000
v 0.493301 -0.000000 0.134641
v 0.475000 -0.000000 0.153205
vn -0.9914 -0.0000 0.1305
vn -1.0000 -0.0000 -0.0000
vn -0.9932 -0.0196 0.1151
vn -0.9906 -0.0115 0.1364
vn 0.9914 -0.0000 0.1305
vn 0.9906 -0.0115 0.1364
vn 0.9932 -0.0196 0.1151
vn 1.0000 -0.0000 -0.0000
vn 0.1301 -0.0834 0.9880
vn 0.1305 -0.0000 0.9914
vn -0.1305 -0.0000 0.9914
vn -0.1301 -0.0834 0.9880
vn -0.0000 -1.0000 -0.0000
vn -0.1323 -0.1661 0.9772
vn 0.1323 -0.1661 0.9772
vn -0.7230 -0.1158 0.6811
vn -0.8607 -0.0428 0.5073
vn -0.5118 -0.1440 0.8470
vn -0.4952 -0.0731 0.8657
vn 0.8607 -0.0428 0.5073
vn 0.7230 -0.1158 0.6811
vn 0.7036 -0.0598 0.7081
vn 0.2716 -0.1613 0.9488
vn -0.2888 -0.1294 0.9486
vn -0.8660 -0.0000 0.5000
vn 0.8660 -0.0000 0.5000
vn 0.2888 0.1294 0.9486
vn -0.0000 1.0000 -0.0000
vt 0.000000 0.426667
vt 0.333333 0.426667
vt 1.000000 0.426667
vt 0.333333 0.426667
vt 1.000000 0.426667
vt 0.666667 0.426667
vt 0.000000 0.426667
vt 0.666667 0.426667
vt 1.000000 0.556667
vt 0.333333 0.556667
vt 0.350000 1.000000
vt 0.350000 0.573333
vt 0.333333 1.000000
vt 1.000000 0.573333
vt 0.335566 0.565000
vt 0.341667 1.000000
vt 0.341667 0.571100
vt 0.650000 1.000000
vt 0.650000 0.573333
vt 1.000000 0.556667
vt 0.666667 0.556667
vt 0.658333 1.000000
vt 0.658333 0.571100
vt 1.000000 0.573333
vt 0.666667 1.000000
vt 0.664434 0.565000
vt 0.350000 0.460000
vt 0.350000 0.000000
vt 0.333333 0.443094
vt 0.000000 0.443094
vt 0.341667 0.457735
vt 0.341667 -0.000374
vt 0.335566 0.451547
vt 0.000000 0.460000
vt 0.333333 0.000000
vt 0.668073 0.556667
vt 0.350000 0.666667
vt 0.665973 0.573215
vt 0.333333 0.665973
vt 0.333333 0.667370
vt 0.667370 0.573333
vt 0.341667 0.666481
vt 0.341667 0.666855
vt 0.668073 0.556667
vt 0.650000 0.666667
vt 0.665973 0.573215
vt 0.666667 0.665973
vt 0.667370 0.573333
vt 0.666667 0.667370
vt 0.658333 0.666481
vt 0.658333 0.666855
vt 0.666667 0.443094
vt 0.000000 0.443094
vt 0.650000 0.460000
vt 0.650000 0.000000
vt 0.664434 0.451547
vt 0.000000 0.460000
vt 0.666667 0.000000
vt 0.658333 0.457735
vt 0.658333 -0.000374
s 1
usemtl concrete_2
f 5/9/1 2/3/2 1/1/2 14/30/3 17/36/4
f 10/20/5 21/44/6 25/53/7 4/7/8 3/5/8
f 22/45/9 9/18/10 6/11/11 18/37/12
f 25/52/13 27/56/13 28/59/13 26/54/13 13/27/13 15/31/13 16/33/13 14/29/13 1/2/13 4/8/13
f 13/28/14 26/55/15 22/45/9 18/37/12
f 17/36/4 14/30/3 16/34/16 19/38/17
f 19/39/17 16/35/16 15/32/18 20/42/19
f 20/42/19 15/32/18 13/28/14 18/37/12
f 25/53/7 21/44/6 23/46/20 27/57/21
f 27/58/21 23/47/20 24/50/22 28/60/23
f 28/60/23 24/50/22 22/45/9 26/55/15
f 18/37/12 6/11/11 8/16/24 20/43/19
f 20/43/19 8/16/24 7/13/25 19/40/17
f 19/41/17 7/14/25 5/9/1 17/36/4
f 21/44/6 10/20/5 12/24/26 23/48/20
f 23/49/20 12/25/26 11/22/27 24/51/22
f 24/51/22 11/22/27 9/18/10 22/45/9
f 9/19/28 11/23/28 12/26/28 10/21/28 3/6/28 2/4/28 5/10/28 7/15/28 8/17/28 6/12/28
