# Blender 3.4.0
# www.blender.org
mtllib wall_element_1_bottom_short.mtl
o wall_element_1_bottom_short
v -0.500000 -0.000000 0.060000
v -0.500000 2.000000 0.060000
v 0.500000 -0.000000 0.060000
v 0.500000 2.000000 0.060000
v -0.500000 2.000000 0.449283
v -0.450000 2.000000 0.500000
v -0.493301 2.000000 0.474641
v -0.475000 2.000000 0.493205
v -0.450000 -0.000000 0.160000
v -0.500000 -0.000000 0.109283
v -0.475000 -0.000000 0.153205
v -0.493301 -0.000000 0.134641
v 0.500000 -0.000000 0.109283
v 0.450000 -0.000000 0.160000
v 0.493301 -0.000000 0.134641
v 0.475000 -0.000000 0.153205
v 0.450000 2.000000 0.500000
v 0.500000 2.000000 0.449283
v 0.475000 2.000000 0.493205
v 0.493301 2.000000 0.474641
vn -0.0000 -1.0000 -0.0000
vn -0.9895 -0.0242 0.1423
vn -1.0000 -0.0000 -0.0000
vn -0.9932 -0.0196 0.1151
vn 0.9895 -0.0242 0.1423
vn 0.9932 -0.0196 0.1151
vn 1.0000 -0.0000 -0.0000
vn -0.0000 1.0000 -0.0000
vn -0.8777 -0.0803 0.4725
vn -0.8536 -0.0873 0.5136
vn -0.5118 -0.1440 0.8470
vn -0.4876 -0.1463 0.8607
vn -0.1323 -0.1661 0.9772
vn -0.1287 -0.1662 0.9777
vn 0.8536 -0.0873 0.5136
vn 0.8777 -0.0803 0.4725
vn 0.4876 -0.1463 0.8607
vn 0.5118 -0.1440 0.8470
vn 0.1287 -0.1662 0.9777
vn 0.1323 -0.1661 0.9772
vt 0.335938 0.257812
vt 0.169922 0.257812
vt 0.830078 0.257812
vt 0.335938 0.257812
vt 0.664062 0.257812
vt 0.169922 0.257812
vt 0.830078 0.257812
vt 0.664062 0.257812
vt 0.335938 0.385684
vt 0.830078 0.385684
vt 0.352344 0.402344
vt 0.352344 0.660156
vt 0.338136 0.394014
vt 0.828695 0.402111
vt 0.335938 0.658773
vt 0.344141 0.400112
vt 0.344141 0.659786
vt 0.352344 0.291016
vt 0.352344 0.000000
vt 0.335938 0.274176
vt 0.169922 0.274176
vt 0.344141 0.288760
vt 0.344141 -0.000371
vt 0.338136 0.282596
vt 0.169922 0.291016
vt 0.335938 0.000000
vt 0.664062 0.274176
vt 0.169922 0.274176
vt 0.647656 0.291016
vt 0.647656 0.000000
vt 0.661864 0.282596
vt 0.169922 0.291016
vt 0.664062 0.000000
vt 0.655859 0.288760
vt 0.655859 -0.000371
vt 0.647656 0.402344
vt 0.647656 0.660156
vt 0.664062 0.385684
vt 0.830078 0.385684
vt 0.655859 0.400112
vt 0.655859 0.659786
vt 0.661865 0.394014
vt 0.828695 0.402111
vt 0.664062 0.658773
s 1
usemtl concrete_2
f 13/27/1 15/31/1 16/34/1 14/29/1 9/18/1 11/22/1 12/24/1 10/20/1 1/1/1 3/5/1
f 5/10/2 2/3/3 1/2/3 10/21/4
f 18/39/5 13/28/6 3/6/7 4/7/7
f 17/36/8 19/40/8 20/42/8 18/38/8 4/8/8 2/4/8 5/9/8 7/13/8 8/16/8 6/11/8
f 5/10/2 10/21/4 12/25/9 7/14/10
f 7/15/10 12/26/9 11/23/11 8/17/12
f 8/17/12 11/23/11 9/19/13 6/12/14
f 13/28/6 18/39/5 20/43/15 15/32/16
f 15/33/16 20/44/15 19/41/17 16/35/18
f 16/35/18 19/41/17 17/37/19 14/30/20
f 9/19/13 14/30/20 17/37/19 6/12/14
