# Blender 3.4.0
# www.blender.org
mtllib wall_element_2_bottom.mtl
o wall_element_2_bottom
v -0.500000 3.000000 0.060000
v 0.500000 3.000000 0.060000
v -0.067071 3.000000 0.492929
v -0.050000 3.000000 0.500000
v 0.050000 3.000000 0.500000
v 0.067071 3.000000 0.492929
v -0.051920 1.990234 0.497851
v -0.050000 2.010000 0.500000
v -0.067071 2.001520 0.492929
v -0.489772 0.000000 0.060000
v -0.500000 0.033661 0.060000
v 0.500000 0.033661 0.060000
v 0.489772 0.000000 0.060000
v 0.051920 1.990234 0.497851
v 0.067071 2.001520 0.492929
v 0.050000 2.010000 0.500000
vn 0.7071 -0.0000 0.7071
vn -0.0000 1.0000 -0.0000
vn -0.0000 -0.2149 0.9766
vn -0.0000 -0.0000 1.0000
vn -0.2543 -0.1036 0.9616
vn -0.2443 -0.0540 0.9682
vn -0.3748 -0.0627 0.9250
vn 0.2543 -0.1036 0.9616
vn 0.3748 -0.0627 0.9250
vn 0.2443 -0.0540 0.9682
vn -0.3845 -0.1168 0.9157
vn -0.3827 -0.0000 0.9239
vn 0.3845 -0.1168 0.9157
vn 0.3827 -0.0000 0.9239
vn -0.7071 -0.0000 0.7071
vt 0.333333 0.573333
vt 0.573333 1.000000
vt 0.666667 1.000000
vt 0.666667 0.573333
vt 0.477643 0.429024
vt 0.480000 1.000000
vt 0.429024 1.000000
vt 0.483333 0.426667
vt 0.483333 1.000000
vt 0.516667 0.426667
vt 0.516667 1.000000
vt 0.522357 0.429024
vt 0.522357 1.000000
vt 0.482693 0.663411
vt 0.483333 0.666667
vt 0.483333 0.670000
vt 0.479894 0.666183
vt 0.480000 0.667173
vt 0.429024 0.667173
vt 0.336743 0.000000
vt 0.335584 0.010230
vt 0.573333 0.011221
vt 0.666667 0.011220
vt 0.663257 0.000000
vt 0.517307 0.663411
vt 0.522357 0.667173
vt 0.516667 0.670000
s 1
usemtl concrete_2
f 12/23/1 2/3/1 6/13/1 15/26/1
f 2/4/2 1/1/2 3/5/2 4/8/2 5/10/2 6/12/2
f 9/19/15 3/7/15 1/2/15 11/22/15
usemtl 
f 10/20/3 13/24/3 14/25/3 7/14/3
f 16/27/4 5/11/4 4/9/4 8/16/4
f 7/14/5 8/15/6 9/17/7
f 14/25/8 15/26/9 16/27/10
f 10/20/11 7/14/5 9/17/7 11/21/11
f 8/16/6 4/9/12 3/6/12 9/18/7
f 14/25/8 13/24/13 12/23/13 15/26/9
f 5/11/14 16/27/10 15/26/9 6/13/14
f 7/14/5 14/25/8 16/27/10 8/16/6
