# Blender 3.4.0
# www.blender.org
mtllib wooden_crate_3.mtl
o wooden_crate_3
v 0.469800 -0.000000 -0.469800
v -0.469800 0.000000 -0.469800
v 0.469800 -0.000000 0.469800
v -0.469800 0.000000 0.469800
v 0.540000 -0.000000 -0.540000
v 0.540000 -0.000000 0.540000
v 0.469800 0.037800 -0.469800
v -0.469800 0.037800 -0.469800
v -0.469800 0.037800 0.469800
v 0.469800 0.037800 0.469800
v 0.469800 0.027000 -0.160071
v 0.469800 0.037800 -0.147343
v 0.469800 0.027000 -0.134614
v 0.469800 0.027000 0.134614
v 0.469800 0.037800 0.147343
v 0.469800 0.027000 0.160071
v -0.469800 0.027000 0.160071
v -0.469800 0.037800 0.147343
v -0.469800 0.027000 0.134614
v -0.469800 0.027000 -0.134614
v -0.469800 0.037800 -0.147343
v -0.469800 0.027000 -0.160071
v 0.469800 0.027000 0.452636
v -0.469800 0.027000 -0.452259
v 0.469800 0.027000 -0.452259
v -0.469800 0.027000 0.452636
v -0.469800 1.080000 -0.469800
v 0.469800 1.080000 -0.469800
v -0.469800 1.080000 0.469800
v 0.469800 1.080000 0.469800
v -0.540000 1.080000 -0.540000
v 0.540000 1.080000 -0.540000
v -0.540000 1.080000 0.540000
v -0.469800 1.042200 -0.469800
v 0.469800 1.042200 -0.469800
v 0.469800 1.042200 0.469800
v -0.469800 1.042200 0.469800
v -0.469800 1.053000 -0.160071
v -0.469800 1.042200 -0.147343
v -0.469800 1.053000 -0.134614
v -0.469800 1.053000 0.134614
v -0.469800 1.042200 0.147343
v -0.469800 1.053000 0.160071
v 0.469800 1.053000 0.160071
v 0.469800 1.042200 0.147343
v 0.469800 1.053000 0.134614
v 0.469800 1.053000 -0.134614
v 0.469800 1.042200 -0.147343
v 0.469800 1.053000 -0.160071
v -0.469800 1.053000 0.452636
v 0.469800 1.053000 -0.452259
v -0.469800 1.053000 -0.452259
v 0.469800 1.053000 0.452636
v -0.469800 0.070200 0.540000
v -0.469800 1.009800 0.540000
v 0.469800 0.070200 0.540000
v 0.469800 1.009800 0.540000
v -0.469800 0.070200 0.502200
v -0.469800 1.009800 0.502200
v 0.469800 1.009800 0.502200
v 0.469800 0.070200 0.502200
v -0.160071 0.070200 0.513000
v -0.147343 0.070200 0.502200
v -0.134614 0.070200 0.513000
v 0.134614 0.070200 0.513000
v 0.147343 0.070200 0.502200
v 0.160071 0.070200 0.513000
v 0.160071 1.009800 0.513000
v 0.147343 1.009800 0.502200
v 0.134614 1.009800 0.513000
v -0.134614 1.009800 0.513000
v -0.147343 1.009800 0.502200
v -0.160071 1.009800 0.513000
v 0.452636 0.070200 0.513000
v -0.452259 1.009800 0.513000
v -0.452259 0.070200 0.513000
v 0.452636 1.009800 0.513000
v -0.469800 1.009800 -0.540000
v -0.469800 0.070200 -0.540000
v 0.469800 1.009800 -0.540000
v 0.469800 0.070200 -0.540000
v -0.469800 1.009800 -0.502200
v -0.469800 0.070200 -0.502200
v 0.469800 0.070200 -0.502200
v 0.469800 1.009800 -0.502200
v -0.160071 1.009800 -0.513000
v -0.147343 1.009800 -0.502200
v -0.134614 1.009800 -0.513000
v 0.134614 1.009800 -0.513000
v 0.147343 1.009800 -0.502200
v 0.160071 1.009800 -0.513000
v 0.160071 0.070200 -0.513000
v 0.147343 0.070200 -0.502200
v -0.147343 0.070200 -0.502200
v -0.160071 0.070200 -0.513000
v 0.452636 1.009800 -0.513000
v -0.452259 0.070200 -0.513000
v -0.452259 1.009800 -0.513000
v 0.452636 0.070200 -0.513000
v -0.540000 0.070200 -0.469800
v -0.540000 1.009800 -0.469800
v -0.540000 0.070200 0.469800
v -0.540000 1.009800 0.469800
v -0.540000 0.000000 -0.540000
v -0.540000 -0.000000 0.540000
v -0.502200 0.070200 -0.469800
v -0.502200 1.009800 -0.469800
v -0.502200 1.009800 0.469800
v -0.502200 0.070200 0.469800
v -0.513000 0.070200 -0.160071
v -0.502200 0.070200 -0.147343
v -0.513000 0.070200 -0.134614
v -0.513000 0.070200 0.134614
v -0.502200 0.070200 0.147343
v -0.513000 0.070200 0.160071
v -0.513000 1.009800 0.160071
v -0.502200 1.009800 0.147343
v -0.513000 1.009800 0.134614
v -0.513000 1.009800 -0.134614
v -0.502200 1.009800 -0.147343
v -0.513000 1.009800 -0.160071
v -0.513000 0.070200 0.452636
v -0.513000 1.009800 -0.452259
v -0.513000 0.070200 -0.452259
v -0.513000 1.009800 0.452636
v 0.540000 1.009800 -0.469800
v 0.540000 0.070200 -0.469800
v 0.540000 1.009800 0.469800
v 0.540000 0.070200 0.469800
v 0.540000 1.080000 0.540000
v 0.533436 0.410494 0.526323
v 0.502200 1.009800 -0.469800
v 0.502200 0.070200 -0.469800
v 0.502200 0.070200 0.469800
v 0.502200 1.009800 0.469800
v 0.513000 1.009800 -0.160071
v 0.502200 1.009800 -0.147343
v 0.513000 1.009800 -0.134614
v 0.513000 1.009800 0.134614
v 0.502200 1.009800 0.147343
v 0.513000 1.009800 0.160071
v 0.513000 0.070200 0.160071
v 0.502200 0.070200 0.147343
v 0.513000 0.070200 0.134614
v 0.513000 0.070200 -0.134614
v 0.502200 0.070200 -0.147343
v 0.513000 0.070200 -0.160072
v 0.513000 1.009800 0.452636
v 0.513000 0.070200 -0.452259
v 0.513000 1.009800 -0.452259
v 0.513000 0.070200 0.452636
v -0.528452 0.649199 0.525441
v 0.336769 1.080000 0.540000
v 0.130503 1.080000 0.540000
v 0.287045 1.057003 0.540000
v 0.193285 1.044487 0.540000
v 0.149213 1.063592 0.540000
v 0.185108 1.080000 0.507362
v 0.235588 1.080000 0.508138
v 0.286258 1.080000 0.515445
v 0.042864 0.711435 -0.513000
v 0.068911 0.643979 -0.513000
v 0.061701 0.571707 -0.513000
v 0.043320 0.490545 -0.513000
v 0.059431 0.414973 -0.513000
v 0.013462 0.460607 -0.513000
v -0.000936 0.559519 -0.513000
v 0.030687 0.637054 -0.513000
v 0.024703 0.706789 -0.513000
v 0.032300 0.778816 -0.513000
v 0.034741 0.708404 -0.487800
v 0.050343 0.640548 -0.487800
v 0.032448 0.566155 -0.487800
v 0.027924 0.477070 -0.487800
v 0.134615 0.070200 -0.513000
v -0.134614 0.070200 -0.513000
v 0.164435 1.060677 0.520181
v 0.286590 1.060430 0.519820
v 0.219519 1.056637 0.514263
vn -0.0000 -0.0000 1.0000
vn -0.0000 -1.0000 -0.0000
vn -0.0000 -0.8515 -0.5243
vn 1.0000 -0.0000 -0.0000
vn -0.0000 -0.0000 -1.0000
vn -1.0000 -0.0000 -0.0000
vn -0.0000 -0.7625 -0.6470
vn -0.0000 -0.7625 0.6470
vn -0.0000 -0.8464 0.5326
vn -0.0000 1.0000 -0.0000
vn -0.0000 0.8515 -0.5243
vn -1.0000 -0.0001 -0.0000
vn -0.0000 0.7625 -0.6470
vn -0.0000 0.7625 0.6470
vn -0.0000 0.8464 0.5326
vn -0.1456 0.0101 0.9893
vn 0.1288 -0.0090 0.9916
vn -0.5243 -0.0000 0.8515
vn -0.0000 -1.0000 0.0003
vn -0.6470 -0.0000 0.7625
vn 0.6470 -0.0000 0.7625
vn 0.5326 -0.0000 0.8464
vn -0.5243 -0.0000 -0.8515
vn -0.0000 1.0000 -0.0001
vn -0.0000 -1.0000 0.0001
vn -0.6470 -0.0000 -0.7625
vn 0.6470 -0.0000 -0.7625
vn 0.5326 -0.0000 -0.8464
vn -0.9992 -0.0277 0.0277
vn -0.8515 -0.0000 -0.5243
vn -0.0003 -1.0000 -0.0000
vn -0.7625 -0.0000 -0.6470
vn -0.7625 -0.0000 0.6470
vn -0.8464 -0.0000 0.5326
vn 0.9997 0.0165 0.0165
vn 0.8515 -0.0000 -0.5243
vn 0.7625 -0.0000 -0.6470
vn 0.7625 -0.0000 0.6470
vn 0.8464 -0.0000 0.5326
vn 0.9978 -0.0046 0.0667
vn 0.0338 0.0338 0.9989
vn -0.0347 -0.0347 0.9988
vn -0.9928 0.0083 0.1196
vn 0.6131 0.6991 0.3681
vn -0.4292 0.1901 0.8830
vn 0.2313 0.8908 0.3911
vn -0.1063 0.9583 0.2654
vn -0.7308 0.1251 -0.6711
vn 0.9267 -0.0977 -0.3629
vn 0.6934 -0.2260 -0.6842
vn -0.8396 -0.2584 -0.4778
vn -0.9362 -0.1468 -0.3194
vn 0.8480 0.1330 -0.5131
vn -0.7635 0.1027 -0.6376
vn 0.7161 0.0376 -0.6970
vn -0.7978 -0.1701 -0.5784
vn 0.5321 0.5360 -0.6555
vn 0.0592 0.3620 0.9303
vn -0.1132 0.2750 0.9548
vn 0.5129 0.0206 0.8582
vn -0.4143 0.8957 0.1615
vt 0.919119 0.006585
vt 0.065000 0.065000
vt 0.932185 0.006585
vt 0.081364 0.006585
vt 0.065000 0.935000
vt 0.932185 0.006585
vt 0.935000 0.065000
vt 0.919119 0.006585
vt 0.094430 0.006585
vt 0.935000 0.935000
vt 0.081364 0.006585
vt 0.094430 0.006585
vt 0.000000 0.000000
vt 1.000000 1.000000
vt 0.000000 1.000000
vt 1.000000 1.000000
vt 1.000000 0.000000
vt 0.919119 0.040288
vt 0.088799 0.082236
vt 0.932185 0.040288
vt 0.081364 0.040288
vt 0.088799 0.917763
vt 0.932185 0.040288
vt 0.081364 0.040288
vt 0.924326 0.917763
vt 0.094430 0.040288
vt 0.919119 0.040288
vt 0.924326 0.082236
vt 0.094430 0.040288
vt 0.656028 0.030658
vt 0.364221 0.082237
vt 0.644679 0.040288
vt 0.375540 0.082237
vt 0.633331 0.030658
vt 0.386858 0.082237
vt 0.393284 0.030658
vt 0.626266 0.082237
vt 0.381935 0.040288
vt 0.637585 0.082237
vt 0.370587 0.030658
vt 0.648904 0.082237
vt 0.370587 0.030658
vt 0.648904 0.917763
vt 0.381936 0.040288
vt 0.637585 0.917763
vt 0.393284 0.030658
vt 0.626266 0.917763
vt 0.633331 0.030658
vt 0.386858 0.917763
vt 0.644680 0.040288
vt 0.375540 0.917763
vt 0.656029 0.030658
vt 0.364221 0.917763
vt 0.909062 0.082236
vt 0.109734 0.030658
vt 0.916545 0.030658
vt 0.104397 0.917763
vt 0.916545 0.030658
vt 0.104396 0.082236
vt 0.909063 0.917763
vt 0.109734 0.030658
vt 0.081364 0.969521
vt 0.065000 0.065000
vt 0.932185 0.969521
vt 0.919119 0.969521
vt 0.065000 0.935000
vt 0.932185 0.969521
vt 0.081364 0.969521
vt 0.094430 0.969521
vt 0.935000 0.065000
vt 0.919119 0.969521
vt 0.094430 0.969521
vt 0.935000 0.935000
vt 0.000000 0.000000
vt 0.000000 1.000000
vt 0.000000 1.000000
vt 1.000000 0.000000
vt 0.000000 0.000000
vt 1.000000 1.000000
vt 0.000000 1.000000
vt 1.000000 0.000000
vt 0.081364 0.935818
vt 0.088799 0.917763
vt 0.932185 0.935818
vt 0.919119 0.935818
vt 0.088799 0.082237
vt 0.932185 0.935818
vt 0.919119 0.935818
vt 0.924326 0.082236
vt 0.094430 0.935818
vt 0.081364 0.935818
vt 0.924326 0.917763
vt 0.094430 0.935818
vt 0.656028 0.945448
vt 0.364221 0.917763
vt 0.644680 0.935818
vt 0.375540 0.917763
vt 0.633331 0.945448
vt 0.386858 0.917763
vt 0.393284 0.945448
vt 0.626266 0.917763
vt 0.381935 0.935818
vt 0.637585 0.917763
vt 0.370587 0.945448
vt 0.648904 0.917763
vt 0.370587 0.945448
vt 0.648904 0.082237
vt 0.381935 0.935818
vt 0.637585 0.082237
vt 0.393284 0.945448
vt 0.626266 0.082237
vt 0.633331 0.945448
vt 0.386858 0.082237
vt 0.644680 0.935818
vt 0.375539 0.082237
vt 0.656028 0.945448
vt 0.364221 0.082237
vt 0.909063 0.917763
vt 0.109734 0.945448
vt 0.916545 0.945448
vt 0.104396 0.082237
vt 0.916545 0.945448
vt 0.104397 0.917763
vt 0.909062 0.082236
vt 0.109734 0.945448
vt 0.031839 0.069176
vt 0.065000 0.065000
vt 0.081364 0.031609
vt 0.031839 0.906930
vt 0.081364 0.031609
vt 0.065000 0.935000
vt 0.031839 0.069176
vt 0.919119 0.031609
vt 0.935000 0.065000
vt 0.031839 0.906930
vt 0.919119 0.031609
vt 0.935000 0.935000
vt 0.065542 0.069176
vt 0.088799 0.082236
vt 0.081364 0.065312
vt 0.065542 0.906930
vt 0.088799 0.917763
vt 0.081364 0.065312
vt 0.065542 0.906930
vt 0.924326 0.917763
vt 0.919119 0.065312
vt 0.065542 0.069176
vt 0.924326 0.082236
vt 0.919119 0.065312
vt 0.357521 0.055683
vt 0.364221 0.082236
vt 0.368869 0.065312
vt 0.375539 0.082236
vt 0.380218 0.055683
vt 0.386858 0.082236
vt 0.620265 0.055683
vt 0.626266 0.082236
vt 0.631614 0.065312
vt 0.637585 0.082236
vt 0.642962 0.055683
vt 0.648904 0.082236
vt 0.642962 0.055683
vt 0.648903 0.917763
vt 0.631613 0.065312
vt 0.637585 0.917763
vt 0.620265 0.055683
vt 0.626266 0.917763
vt 0.380218 0.055683
vt 0.386858 0.917763
vt 0.368869 0.065312
vt 0.375539 0.917763
vt 0.357521 0.055683
vt 0.364221 0.917763
vt 0.909063 0.082236
vt 0.903815 0.055683
vt 0.097004 0.055683
vt 0.104397 0.917763
vt 0.097004 0.055683
vt 0.104397 0.082236
vt 0.909062 0.917763
vt 0.903815 0.055683
vt 0.994776 0.906930
vt 0.065000 0.065000
vt 0.081364 0.994545
vt 0.994776 0.069176
vt 0.065000 0.935000
vt 0.081364 0.994546
vt 0.935000 0.065000
vt 0.994776 0.906930
vt 0.919119 0.994546
vt 0.935000 0.935000
vt 0.994776 0.069176
vt 0.919119 0.994546
vt 0.961073 0.906930
vt 0.088799 0.917764
vt 0.081364 0.960843
vt 0.961073 0.069176
vt 0.088799 0.082237
vt 0.081364 0.960843
vt 0.961073 0.069176
vt 0.924326 0.082237
vt 0.919119 0.960843
vt 0.961073 0.906930
vt 0.924326 0.917764
vt 0.919119 0.960843
vt 0.357521 0.970472
vt 0.364221 0.917764
vt 0.368869 0.960843
vt 0.375540 0.917764
vt 0.380218 0.970472
vt 0.386858 0.917764
vt 0.620265 0.970472
vt 0.626266 0.917764
vt 0.631614 0.960843
vt 0.637585 0.917764
vt 0.642962 0.970472
vt 0.648904 0.917764
vt 0.810714 0.935000
vt 0.648903 0.082237
vt 0.686428 0.935000
vt 0.637585 0.082237
vt 0.375539 0.082237
vt 0.313571 0.935000
vt 0.364221 0.082237
vt 0.189286 0.935000
vt 0.909062 0.917764
vt 0.903815 0.970472
vt 0.097004 0.970472
vt 0.104397 0.082237
vt 0.127143 0.935000
vt 0.097004 0.970472
vt 0.104396 0.917764
vt 0.872857 0.935000
vt 0.909062 0.082237
vt 0.903815 0.970472
vt 0.018773 0.069176
vt 0.065000 0.065000
vt 0.018773 0.931955
vt 0.018773 0.906930
vt 0.065000 0.935000
vt 0.018773 0.931955
vt 0.018773 0.069176
vt 0.018773 0.094200
vt 0.935000 0.065000
vt 0.018773 0.906930
vt 0.018773 0.094200
vt 0.935000 0.935000
vt 0.000000 1.000000
vt 0.000000 0.000000
vt 1.000000 1.000000
vt 0.000000 0.000000
vt 1.000000 0.000000
vt 0.052476 0.069176
vt 0.905118 0.082237
vt 0.052476 0.931955
vt 0.052476 0.906930
vt 0.905118 0.917764
vt 0.052476 0.931955
vt 0.052476 0.906930
vt 0.069591 0.917763
vt 0.052476 0.094200
vt 0.052476 0.069176
vt 0.069591 0.082236
vt 0.052476 0.094200
vt 0.042847 0.655798
vt 0.629696 0.082237
vt 0.052476 0.644449
vt 0.618377 0.082237
vt 0.042847 0.633101
vt 0.607059 0.082237
vt 0.042847 0.393054
vt 0.367651 0.082236
vt 0.052476 0.381705
vt 0.356332 0.082236
vt 0.042847 0.370356
vt 0.345013 0.082236
vt 0.042847 0.370356
vt 0.345013 0.917763
vt 0.052476 0.381705
vt 0.356332 0.917763
vt 0.042847 0.393054
vt 0.367651 0.917763
vt 0.042847 0.633100
vt 0.607059 0.917763
vt 0.052476 0.644449
vt 0.618377 0.917763
vt 0.042847 0.655798
vt 0.629696 0.917763
vt 0.084854 0.082236
vt 0.042847 0.109504
vt 0.042847 0.916315
vt 0.889520 0.917764
vt 0.042847 0.916315
vt 0.889520 0.082237
vt 0.084854 0.917763
vt 0.042847 0.109504
vt 0.981710 0.906930
vt 0.065000 0.065000
vt 0.981710 0.931955
vt 0.981710 0.069176
vt 0.065000 0.935000
vt 0.981710 0.931955
vt 0.981710 0.906930
vt 0.981710 0.094200
vt 0.935000 0.065000
vt 0.981710 0.069176
vt 0.981710 0.094200
vt 0.935000 0.935000
vt 1.000000 0.000000
vt 1.000000 1.000000
vt 1.000000 0.619913
vt 1.000000 0.380087
vt 0.948007 0.906930
vt 0.920174 0.920174
vt 0.948007 0.931955
vt 0.948007 0.069176
vt 0.920174 0.079826
vt 0.948007 0.931955
vt 0.948007 0.069176
vt 0.079826 0.079826
vt 0.948007 0.094200
vt 0.948007 0.906930
vt 0.079826 0.920174
vt 0.948007 0.094200
vt 0.957636 0.655798
vt 0.643163 0.920174
vt 0.948007 0.644449
vt 0.631779 0.920174
vt 0.957636 0.633101
vt 0.620395 0.920174
vt 0.957636 0.393054
vt 0.379605 0.920174
vt 0.948007 0.381705
vt 0.368221 0.920174
vt 0.957636 0.370356
vt 0.356837 0.920174
vt 0.957636 0.370357
vt 0.356837 0.079826
vt 0.948007 0.381705
vt 0.368221 0.079826
vt 0.957636 0.393054
vt 0.379605 0.079826
vt 0.957636 0.633101
vt 0.620395 0.079826
vt 0.948007 0.644449
vt 0.631779 0.079826
vt 0.957636 0.655798
vt 0.643163 0.079826
vt 0.095177 0.920174
vt 0.957636 0.109504
vt 0.957636 0.916315
vt 0.904486 0.079826
vt 0.957636 0.916315
vt 0.904486 0.920174
vt 0.095177 0.079826
vt 0.957636 0.109504
vt 0.000000 0.601110
vt 1.000000 0.601110
vt 1.000000 0.811824
vt 0.811824 1.000000
vt 0.883188 0.113756
vt 0.620836 1.000000
vt 1.000000 0.620836
vt 0.688159 0.115647
vt 0.765782 0.978706
vt 0.834412 0.098957
vt 0.749629 0.091966
vt 0.678968 0.967117
vt 0.707916 0.104490
vt 0.638160 0.984807
vt 0.969780 0.671396
vt 0.743184 0.135199
vt 0.970498 0.718137
vt 0.787896 0.134343
vt 0.977264 0.765054
vt 0.833469 0.129625
vt 0.943533 0.652446
vt 0.544678 0.652446
vt 0.943533 0.592462
vt 0.567840 0.592462
vt 0.943533 0.528195
vt 0.561429 0.528195
vt 0.943533 0.456023
vt 0.545084 0.456023
vt 0.943533 0.388822
vt 0.559411 0.388822
vt 0.943533 0.429401
vt 0.518533 0.429401
vt 0.943533 0.517357
vt 0.505730 0.517357
vt 0.943533 0.586304
vt 0.533850 0.586304
vt 0.943533 0.648315
vt 0.528529 0.648315
vt 0.943533 0.712364
vt 0.535285 0.712364
vt 0.921124 0.649751
vt 0.921124 0.589411
vt 0.921124 0.523258
vt 0.921124 0.444040
vt 0.531394 0.444040
vt 0.562143 0.935000
vt 0.620265 0.970472
vt 0.626266 0.082237
vt 0.380219 0.970472
vt 0.386858 0.082237
vt 0.388911 0.935000
vt 0.722872 0.117513
vt 0.833866 0.116695
vt 0.773360 0.118245
s 0
usemtl wooden_crate_3
f 2/4/1 1/1/1 7/18/1 8/21/1
f 1/2/2 2/5/2 104/248/2 5/13/2
f 4/10/2 3/7/2 6/17/2 105/250/2
f 3/7/2 1/2/2 5/13/2 6/17/2
f 2/5/2 4/10/2 105/250/2 104/248/2
f 25/59/3 24/57/3 8/22/3 7/19/3
f 26/61/4 24/56/4 22/52/4 21/50/4 20/48/4 19/46/4 18/44/4 17/42/4
f 3/8/5 4/11/5 9/24/5 10/27/5
f 25/58/6 23/55/6 16/40/6 15/38/6 14/36/6 13/34/6 12/32/6 11/30/6
f 23/54/2 26/60/2 17/43/2 16/41/2
f 16/41/7 17/43/7 18/45/7 15/39/7
f 15/39/8 18/45/8 19/47/8 14/37/8
f 14/37/2 19/47/2 20/49/2 13/35/2
f 13/35/7 20/49/7 21/51/7 12/33/7
f 12/33/8 21/51/8 22/53/8 11/31/8
f 10/28/9 9/25/9 26/60/9 23/54/9
f 1/3/6 3/9/6 10/29/6 23/55/6 25/58/6 7/20/6
f 4/12/4 2/6/4 8/23/4 24/56/4 26/61/4 9/26/4
f 11/31/2 22/53/2 24/57/2 25/59/2
f 28/65/1 27/62/1 34/82/1 35/85/1
f 27/63/10 28/66/10 32/76/10 31/74/10
f 30/73/10 160/375/10 153/359/10 130/310/10
f 29/70/10 27/63/10 31/74/10 33/81/10
f 28/66/10 30/73/10 130/310/10 32/76/10
f 52/123/11 51/121/11 35/86/11 34/83/11
f 53/125/12 51/120/12 49/116/12 48/114/12 47/112/12 46/110/12 45/108/12 44/106/12
f 29/68/5 30/71/5 36/88/5 37/91/5
f 52/122/4 50/119/4 43/104/4 42/102/4 41/100/4 40/98/4 39/96/4 38/94/4
f 50/118/10 53/124/10 44/107/10 43/105/10
f 43/105/13 44/107/13 45/109/13 42/103/13
f 42/103/14 45/109/14 46/111/14 41/101/14
f 41/101/10 46/111/10 47/113/10 40/99/10
f 40/99/13 47/113/13 48/115/13 39/97/13
f 39/97/14 48/115/14 49/117/14 38/95/14
f 37/92/15 36/89/15 53/124/15 50/118/15
f 27/64/4 29/69/4 37/93/4 50/119/4 52/122/4 34/84/4
f 30/72/6 28/67/6 35/87/6 51/120/6 53/125/6 36/90/6
f 38/95/10 49/117/10 51/121/10 52/123/10
f 55/129/4 54/126/4 58/138/4 59/141/4
f 54/127/16 55/131/16 152/357/16 105/251/16
f 57/137/17 56/134/17 131/312/17 130/310/17
f 56/134/1 54/127/1 105/251/1 6/17/1
f 55/131/1 156/368/1 157/370/1 33/80/1
f 76/179/18 75/177/18 59/142/18 58/139/18
f 77/181/19 75/176/19 73/172/19 72/170/19 71/168/19 70/166/19 69/164/19 68/162/19
f 56/132/6 57/135/6 60/144/6 61/147/6
f 76/178/10 74/175/10 67/160/10 66/158/10 65/156/10 64/154/10 63/152/10 62/150/10
f 74/174/1 77/180/1 68/163/1 67/161/1
f 67/161/20 68/163/20 69/165/20 66/159/20
f 66/159/21 69/165/21 70/167/21 65/157/21
f 65/157/1 70/167/1 71/169/1 64/155/1
f 64/155/20 71/169/20 72/171/20 63/153/20
f 63/153/21 72/171/21 73/173/21 62/151/21
f 61/148/22 60/145/22 77/180/22 74/174/22
f 54/128/10 56/133/10 61/149/10 74/175/10 76/178/10 58/140/10
f 57/136/2 55/130/2 59/143/2 75/176/2 77/181/2 60/146/2
f 62/151/1 73/173/1 75/177/1 76/179/1
f 79/185/4 78/182/4 82/194/4 83/197/4
f 78/183/5 79/186/5 104/248/5 31/74/5
f 81/191/5 80/188/5 32/77/5 5/14/5
f 80/188/5 78/183/5 31/74/5 32/77/5
f 79/186/5 81/191/5 5/14/5 104/248/5
f 98/232/23 97/229/23 83/198/23 82/195/23
f 99/233/24 175/402/24 93/220/24 92/218/24
f 80/189/6 81/192/6 84/200/6 85/203/6
f 98/231/25 96/227/25 91/216/25 90/214/25 89/212/25 88/210/25 87/208/25 86/206/25
f 96/226/5 99/234/5 92/219/5 91/217/5
f 91/217/26 92/219/26 93/221/26 90/215/26
f 90/215/27 93/221/27 175/404/27 89/213/27
f 89/213/5 175/404/5 162/380/5
f 88/211/26 176/406/26 94/222/26 87/209/26
f 87/209/27 94/222/27 95/224/27 86/207/27
f 85/204/28 84/201/28 99/234/28 96/226/28
f 78/184/2 80/190/2 85/205/2 96/227/2 98/231/2 82/196/2
f 81/193/10 79/187/10 83/199/10 97/228/10 176/405/10 175/403/10 99/235/10 84/202/10
f 86/207/5 95/224/5 97/229/5 98/232/5
f 101/239/1 100/236/1 106/253/1 107/256/1
f 100/237/6 101/240/6 31/75/6 104/249/6
f 103/247/29 152/358/29 33/79/29
f 102/244/6 100/237/6 104/249/6 105/252/6
f 101/240/6 103/247/6 33/79/6 31/75/6
f 124/294/30 123/292/30 107/257/30 106/254/30
f 125/296/31 123/291/31 121/287/31 120/285/31 119/283/31 118/281/31 117/279/31 116/277/31
f 102/242/5 103/245/5 108/259/5 109/262/5
f 124/293/10 122/290/10 115/275/10 114/273/10 113/271/10 112/269/10 111/267/10 110/265/10
f 122/289/6 125/295/6 116/278/6 115/276/6
f 115/276/32 116/278/32 117/280/32 114/274/32
f 114/274/33 117/280/33 118/282/33 113/272/33
f 113/272/6 118/282/6 119/284/6 112/270/6
f 112/270/32 119/284/32 120/286/32 111/268/32
f 111/268/33 120/286/33 121/288/33 110/266/33
f 109/263/34 108/260/34 125/295/34 122/289/34
f 100/238/10 102/243/10 109/264/10 122/290/10 124/293/10 106/255/10
f 103/246/2 101/241/2 107/258/2 123/291/2 125/296/2 108/261/2
f 110/266/6 121/288/6 123/292/6 124/294/6
f 127/300/1 126/297/1 132/313/1 133/316/1
f 126/298/4 127/301/4 5/15/4 32/78/4
f 129/308/35 131/311/35 6/16/35
f 128/305/4 126/298/4 32/78/4 130/309/4
f 127/301/4 129/308/4 6/16/4 5/15/4
f 150/354/36 149/352/36 133/317/36 132/314/36
f 151/356/10 149/351/10 147/347/10 146/345/10 145/343/10 144/341/10 143/339/10 142/337/10
f 128/303/5 129/306/5 134/319/5 135/322/5
f 150/353/2 148/350/2 141/335/2 140/333/2 139/331/2 138/329/2 137/327/2 136/325/2
f 148/349/4 151/355/4 142/338/4 141/336/4
f 141/336/37 142/338/37 143/340/37 140/334/37
f 140/334/38 143/340/38 144/342/38 139/332/38
f 139/332/4 144/342/4 145/344/4 138/330/4
f 138/330/37 145/344/37 146/346/37 137/328/37
f 137/328/38 146/346/38 147/348/38 136/326/38
f 135/323/39 134/320/39 151/355/39 148/349/39
f 126/299/2 128/304/2 135/324/2 148/350/2 150/353/2 132/315/2
f 129/307/10 127/302/10 133/318/10 149/351/10 151/356/10 134/321/10
f 136/326/4 147/348/4 149/352/4 150/354/4
f 131/311/40 129/308/40 128/305/40 130/309/40
f 131/312/41 56/134/41 6/17/41
f 152/357/42 55/131/42 33/80/42
f 152/358/43 103/247/43 102/244/43 105/252/43
f 157/369/44 177/408/44 154/364/44
f 153/361/45 160/376/45 178/409/45
f 156/367/46 179/410/46 177/408/46 157/369/46
f 155/366/47 178/409/47 179/410/47 156/367/47
f 162/379/48 163/381/48 173/399/48 172/398/48
f 161/378/5 170/396/5 89/213/5
f 170/395/49 171/397/49 169/393/49
f 168/391/50 172/398/50 173/399/50 167/389/50
f 172/398/51 171/397/51 161/377/51 162/379/51
f 161/377/52 171/397/52 170/395/52
f 169/393/53 171/397/53 172/398/53 168/391/53
f 173/399/54 163/381/54 164/383/54 174/400/54
f 167/389/55 173/399/55 174/400/55 166/387/55
f 174/400/56 164/383/56 165/385/56
f 166/388/57 174/401/57 165/386/57
f 165/386/5 175/404/5 176/406/5 166/388/5
f 166/388/5 176/406/5 88/211/5 167/390/5
f 176/407/10 97/230/10 95/225/10 94/223/10
f 163/382/5 165/386/5 164/384/5
f 162/380/5 175/404/5 165/386/5 163/382/5
f 88/211/5 169/394/5 168/392/5 167/390/5
f 88/211/5 170/396/5 169/394/5
f 89/213/5 170/396/5 88/211/5
f 89/213/5 162/380/5 161/378/5
f 155/365/1 57/137/1 130/310/1 153/360/1
f 156/368/1 55/131/1 57/137/1 155/365/1
f 33/80/1 157/370/1 154/362/1
f 160/375/10 30/73/10 159/373/10
f 159/373/10 30/73/10 29/70/10 158/371/10
f 158/371/10 29/70/10 33/81/10 154/363/10
f 177/408/58 179/410/58 159/374/58 158/372/58
f 179/410/59 178/409/59 160/376/59 159/374/59
f 154/364/60 177/408/60 158/372/60
f 178/409/61 155/366/61 153/361/61
