# Blender 3.4.0
# www.blender.org
mtllib fern_3.mtl
o fern_3
v -0.277446 -0.146364 -1.061749
v 0.097329 -0.146364 0.477756
v -0.277446 1.317279 -1.061749
v 0.097329 1.317279 0.477756
v 0.931793 -0.143006 0.534824
v -0.410874 -0.143007 -0.235831
v 0.931793 1.287058 0.534824
v -0.410874 1.287058 -0.235831
v 0.683083 0.215092 -1.031520
v -0.314500 -0.358118 0.404826
v 0.258349 1.824156 -0.684372
v -0.739234 1.250947 0.751974
vn -0.9716 -0.0000 0.2365
vn 0.4978 -0.0000 -0.8673
vn -0.8023 -0.0843 -0.5909
vt 0.000000 0.000000
vt 1.000000 0.000000
vt 0.000000 1.000000
vt 1.000000 1.000000
vt 0.000000 0.000000
vt 1.000000 0.000000
vt 0.000000 1.000000
vt 1.000000 1.000000
vt 0.000000 0.000000
vt 1.000000 0.000000
vt 0.000000 1.000000
vt 1.000000 1.000000
s 1
usemtl fern_3
f 1/1/1 2/2/1 4/4/1 3/3/1
f 5/5/2 6/6/2 8/8/2 7/7/2
f 9/9/3 10/10/3 12/12/3 11/11/3
