# Blender 3.4.0
# www.blender.org
mtllib grass_3.mtl
o grass_3
v -0.219368 -0.052539 -0.383350
v -0.152894 -0.087351 0.587149
v -0.412961 0.950331 -0.334117
v -0.346487 0.915519 0.636382
v -0.298122 0.615178 -0.354005
v -0.212860 0.280532 -0.371849
v -0.146385 0.245720 0.598651
v -0.231648 0.580366 0.616494
v 0.342709 -0.070000 0.227327
v -0.555438 -0.070000 -0.147948
v 0.425081 0.930000 0.030185
v -0.473066 0.930000 -0.345089
v 0.378179 0.596667 0.142436
v 0.342709 0.263333 0.227327
v -0.555438 0.263333 -0.147948
v -0.519968 0.596667 -0.232838
v 0.549079 -0.070000 -0.072921
v -0.337126 -0.070000 0.329745
v 0.637463 0.930000 0.121599
v -0.248742 0.930000 0.524265
v 0.587138 0.596667 0.010841
v 0.549079 0.263333 -0.072921
v -0.337126 0.263333 0.329745
v -0.299067 0.596667 0.413507
v 0.173422 -0.070000 0.439077
v 0.303452 -0.070000 -0.525595
v 0.385166 0.930000 0.467618
v 0.515195 0.930000 -0.497054
v 0.264601 0.596667 0.451367
v 0.173422 0.263333 0.439076
v 0.303452 0.263333 -0.525595
v 0.394630 0.596667 -0.513305
v 0.389029 -0.070000 -0.305823
v -0.550932 -0.070000 -0.052894
v 0.333512 0.930000 -0.512142
v -0.606449 0.930000 -0.259213
v 0.365123 0.596667 -0.394666
v 0.389029 0.263333 -0.305823
v -0.550932 0.263333 -0.052894
v -0.574838 0.596667 -0.141737
vn -0.9560 -0.2882 0.0551
vn -0.9437 -0.3265 0.0529
vn -0.9975 0.0171 0.0689
vn -0.9911 -0.1172 0.0637
vn 0.3672 -0.3047 -0.8788
vn 0.3622 -0.3428 -0.8668
vn 0.3855 -0.0000 -0.9227
vn 0.3820 -0.1342 -0.9143
vn -0.3940 0.3047 -0.8671
vn -0.3886 0.3428 -0.8552
vn -0.4137 -0.0000 -0.9104
vn -0.4099 0.1342 -0.9022
vn 0.9439 -0.3047 0.1272
vn 0.9310 -0.3428 0.1255
vn 0.9910 -0.0000 0.1336
vn 0.9821 -0.1342 0.1324
vn -0.2475 -0.3047 -0.9197
vn -0.2441 -0.3428 -0.9071
vn -0.2598 -0.0000 -0.9657
vn -0.2575 -0.1342 -0.9569
vt 0.000000 0.000000
vt 1.000000 0.000000
vt 0.000000 1.000000
vt 1.000000 1.000000
vt 0.000000 0.666667
vt 0.000000 0.333333
vt 1.000000 0.333333
vt 1.000000 0.666667
vt 0.000000 0.000000
vt 1.000000 0.000000
vt 0.000000 1.000000
vt 1.000000 1.000000
vt 0.000000 0.666667
vt 0.000000 0.333333
vt 1.000000 0.333333
vt 1.000000 0.666667
vt 0.000000 0.000000
vt 1.000000 0.000000
vt 0.000000 1.000000
vt 1.000000 1.000000
vt 0.000000 0.666667
vt 0.000000 0.333333
vt 1.000000 0.333333
vt 1.000000 0.666667
vt 0.000000 0.000000
vt 1.000000 0.000000
vt 0.000000 1.000000
vt 1.000000 1.000000
vt 0.000000 0.666667
vt 0.000000 0.333333
vt 1.000000 0.333333
vt 1.000000 0.666667
vt 0.000000 0.000000
vt 1.000000 0.000000
vt 0.000000 1.000000
vt 1.000000 1.000000
vt 0.000000 0.666667
vt 0.000000 0.333333
vt 1.000000 0.333333
vt 1.000000 0.666667
s 1
usemtl grass_3
f 5/5/1 8/8/1 4/4/2 3/3/2
f 1/1/3 2/2/3 7/7/4 6/6/4
f 6/6/4 7/7/4 8/8/1 5/5/1
f 13/13/5 16/16/5 12/12/6 11/11/6
f 9/9/7 10/10/7 15/15/8 14/14/8
f 14/14/8 15/15/8 16/16/5 13/13/5
f 21/21/9 24/24/9 20/20/10 19/19/10
f 17/17/11 18/18/11 23/23/12 22/22/12
f 22/22/12 23/23/12 24/24/9 21/21/9
f 29/29/13 32/32/13 28/28/14 27/27/14
f 25/25/15 26/26/15 31/31/16 30/30/16
f 30/30/16 31/31/16 32/32/13 29/29/13
f 37/37/17 40/40/17 36/36/18 35/35/18
f 33/33/19 34/34/19 39/39/20 38/38/20
f 38/38/20 39/39/20 40/40/17 37/37/17
