# Blender 3.4.0
# www.blender.org
mtllib flashlight_2.mtl
o flashlight_2
v 0.168999 0.025739 0.025739
v 0.168999 0.000000 0.036400
v 0.168999 0.025739 -0.025739
v 0.168999 0.036400 0.000000
v 0.168999 -0.025739 -0.025739
v 0.168999 0.000000 -0.036400
v 0.130000 -0.018385 0.018385
v 0.130000 0.026000 0.000000
v 0.130000 0.000000 0.026000
v 0.130000 0.018385 0.018385
v 0.130000 -0.026000 0.000000
v 0.168999 -0.025739 0.025739
v 0.130000 -0.018385 -0.018385
v 0.130000 0.000000 -0.026000
v 0.168999 -0.036400 0.000000
v 0.130000 0.018385 -0.018385
v -0.117000 -0.015400 0.015400
v -0.113100 -0.018385 0.018385
v -0.113100 0.000000 0.026000
v -0.117000 0.000000 0.021779
v -0.117000 0.015400 0.015400
v -0.113100 0.018385 0.018385
v -0.117000 -0.021779 0.000000
v -0.113100 -0.026000 0.000000
v -0.113100 -0.018385 -0.018385
v -0.117000 -0.015400 -0.015400
v -0.117000 0.021779 -0.000000
v -0.113100 0.026000 0.000000
v -0.117000 -0.000000 -0.021779
v -0.113100 0.000000 -0.026000
v -0.117000 0.015400 -0.015400
v -0.113100 0.018385 -0.018385
v 0.191749 -0.020764 0.020764
v 0.194999 -0.023251 0.023251
v 0.194999 -0.032882 0.000000
v 0.191749 -0.029364 0.000000
v 0.191749 -0.020764 -0.020764
v 0.194999 -0.023251 -0.023251
v 0.191749 0.000000 -0.029364
v 0.191749 0.020764 -0.020764
v 0.194999 0.023251 -0.023251
v 0.194999 0.032882 0.000000
v 0.191749 0.029364 0.000000
v 0.194999 0.023251 0.023251
v 0.191749 0.020764 0.020764
v 0.191749 0.000000 0.029364
v 0.194999 0.000000 0.032882
v 0.191749 -0.036400 0.000000
v 0.191749 -0.025739 0.025739
v 0.191749 0.000000 -0.036400
v 0.194999 0.000000 -0.032882
v 0.191749 -0.025739 -0.025739
v 0.191749 0.036400 0.000000
v 0.191749 0.025739 -0.025739
v 0.191749 0.000000 0.036400
v 0.191749 0.025739 0.025739
v 0.189799 -0.029364 0.000000
v 0.189799 -0.020764 0.020764
v 0.189799 0.000000 -0.029364
v 0.189799 -0.020764 -0.020764
v 0.189799 0.029364 0.000000
v 0.189799 0.020764 -0.020764
v 0.189799 0.000000 0.029364
v 0.189799 0.020764 0.020764
v 0.189799 -0.029364 0.000000
v 0.196299 0.000000 0.000000
v 0.194395 -0.016166 0.000000
v 0.189799 -0.020764 0.020764
v 0.194395 -0.011431 0.011431
v 0.189799 0.000000 -0.029364
v 0.194395 0.000000 -0.016166
v 0.189799 -0.020764 -0.020764
v 0.194395 -0.011431 -0.011431
v 0.189799 0.029364 0.000000
v 0.194395 0.016166 0.000000
v 0.189799 0.020764 -0.020764
v 0.194395 0.011431 -0.011431
v 0.189799 0.000000 0.029364
v 0.194395 0.000000 0.016166
v 0.189799 0.020764 0.020764
v 0.194395 0.011431 0.011431
v -0.095550 -0.017466 0.017466
v -0.095550 0.000000 0.024700
v -0.095550 -0.024700 0.000000
v -0.095550 0.017466 0.017466
v -0.095550 0.024700 0.000000
v -0.095550 -0.017466 -0.017466
v -0.095550 0.000000 -0.024700
v -0.095550 0.017466 -0.017466
v -0.093275 -0.018385 0.018385
v -0.093275 -0.026000 0.000000
v -0.093275 -0.018385 -0.018385
v -0.093275 0.000000 -0.026000
v -0.093275 0.000000 0.026000
v -0.093275 0.018385 0.018385
v -0.093275 0.026000 0.000000
v -0.093275 0.018385 -0.018385
v -0.097825 0.000000 0.026000
v -0.097825 0.018385 0.018385
v -0.097825 0.026000 0.000000
v -0.097825 0.018385 -0.018385
v -0.097825 -0.018385 0.018385
v -0.097825 -0.026000 0.000000
v -0.097825 -0.018385 -0.018385
v -0.097825 0.000000 -0.026000
v 0.094810 0.020800 0.009192
v 0.091002 0.020800 0.000000
v 0.094810 0.020800 -0.009192
v 0.104002 0.020800 0.013000
v 0.113195 0.020800 0.009192
v 0.104002 0.020800 -0.013000
v 0.117002 0.020800 0.000000
v 0.113195 0.020800 -0.009192
v 0.094810 0.026000 0.009192
v 0.099785 0.030500 0.004218
v 0.096267 0.028596 0.007735
v 0.098038 0.030500 0.000000
v 0.091002 0.026000 0.000000
v 0.093063 0.028596 0.000000
v 0.099785 0.030500 -0.004218
v 0.094810 0.026000 -0.009192
v 0.096267 0.028596 -0.007735
v 0.104002 0.026000 0.013000
v 0.104002 0.030500 0.005964
v 0.104002 0.028596 0.010939
v 0.108220 0.030500 0.004218
v 0.113195 0.026000 0.009192
v 0.111738 0.028596 0.007735
v 0.117002 0.026000 0.000000
v 0.109967 0.030500 0.000000
v 0.114942 0.028596 0.000000
v 0.104002 0.030500 -0.005964
v 0.104002 0.026000 -0.013000
v 0.104002 0.028596 -0.010939
v 0.108220 0.030500 -0.004218
v 0.113195 0.026000 -0.009192
v 0.111738 0.028596 -0.007735
v 0.149499 0.033557 0.000000
v 0.149499 0.023728 -0.023728
v 0.149499 -0.023728 0.023728
v 0.149499 0.023728 0.023728
v 0.149499 0.000000 0.033557
v 0.149499 0.000000 -0.033557
v 0.149499 -0.033557 0.000000
v 0.149499 -0.023728 -0.023728
vn -0.2479 -0.6850 0.6850
vn -0.2479 -0.9688 -0.0000
vn -0.1443 -0.9895 -0.0000
vn -0.1443 -0.6997 0.6997
vn -0.2479 -0.6850 -0.6850
vn -0.1443 -0.6997 -0.6997
vn -0.2479 -0.0000 -0.9688
vn -0.2479 0.6850 -0.6850
vn -0.1443 0.6997 -0.6997
vn -0.1443 -0.0000 -0.9895
vn -0.2479 0.6850 0.6850
vn -0.2479 -0.0000 0.9688
vn -0.1443 -0.0000 0.9895
vn -0.1443 0.6997 0.6997
vn -0.2424 -0.9702 -0.0000
vn -0.0000 -1.0000 -0.0000
vn -0.0000 -0.7071 0.7071
vn -0.2424 -0.6860 0.6860
vn 0.2424 -0.6860 -0.6860
vn -0.0000 -0.7071 -0.7071
vn -0.0000 -0.0000 -1.0000
vn 0.2424 -0.0000 -0.9702
vn -0.2424 0.9702 -0.0000
vn -0.0000 1.0000 -0.0000
vn -0.0000 0.7071 -0.7071
vn -0.2424 0.6860 -0.6860
vn -0.2424 -0.0000 -0.9702
vn 0.2424 0.6860 0.6860
vn -0.0000 0.7071 0.7071
vn -0.0000 -0.0000 1.0000
vn 0.2424 -0.0000 0.9702
vn -0.8991 -0.3095 -0.3095
vn -0.8991 0.4377 -0.0000
vn -0.8991 0.3095 -0.3095
vn -0.8991 -0.0000 -0.4377
vn 0.2424 -0.9702 -0.0000
vn 0.2424 0.9702 -0.0000
vn -0.2479 0.9688 -0.0000
vn -0.1443 0.9895 -0.0000
vn -0.0000 -0.8833 0.4688
vn -0.0000 -0.6786 0.7345
vn -0.8991 0.3095 0.3095
vn -0.7345 0.4798 0.4798
vn -0.7345 0.6786 -0.0000
vn -0.8991 -0.0000 0.4377
vn -0.8991 -0.3095 0.3095
vn -0.7345 -0.4798 0.4798
vn -0.7345 -0.0000 0.6786
vn -0.8991 -0.4377 -0.0000
vn -0.7345 -0.6786 -0.0000
vn -0.7345 -0.0000 -0.6786
vn -0.7345 -0.4798 -0.4798
vn -0.7345 0.4798 -0.4798
vn -0.2424 -0.0000 0.9702
vn -0.0000 0.8833 0.4688
vn -0.0000 -0.3675 0.9300
vn -0.0000 0.3675 0.9300
vn 0.6726 0.4694 0.5721
vn 0.9310 0.2630 0.2533
vn -0.0000 0.6786 0.7345
vn 0.7345 -0.6786 -0.0000
vn 0.7345 -0.4798 0.4798
vn 0.7345 -0.0000 -0.6786
vn 0.7345 -0.4798 -0.4798
vn 0.7345 0.6786 -0.0000
vn 0.7345 0.4798 -0.4798
vn 0.7345 -0.0000 0.6786
vn 0.7345 0.4798 0.4798
vn 0.5778 0.8007 0.1584
vn 0.3065 -0.8562 0.4159
vn -0.0000 0.9417 0.3366
vn -0.8526 -0.1449 -0.5021
vn -0.0000 0.7868 -0.6172
vn -0.0000 0.9891 -0.1472
vn 1.0000 -0.0000 -0.0000
vn 0.9683 -0.1766 0.1766
vn 0.9683 -0.2497 -0.0000
vn 0.9444 -0.2326 0.2326
vn 0.9444 -0.3289 -0.0000
vn 0.9683 -0.1766 -0.1766
vn 0.9683 -0.0000 -0.2497
vn 0.9444 -0.2326 -0.2326
vn 0.9444 -0.0000 -0.3289
vn 0.9683 0.1766 -0.1766
vn 0.9683 0.2497 -0.0000
vn 0.9444 0.2326 -0.2326
vn 0.9444 0.3289 -0.0000
vn 0.9683 -0.0000 0.2497
vn 0.9444 -0.0000 0.3289
vn 0.9683 0.1766 0.1766
vn 0.9444 0.2326 0.2326
vn 0.2424 -0.6860 0.6860
vn -0.2424 0.6860 0.6860
vn -0.2424 -0.6860 -0.6860
vn 0.2424 0.6860 -0.6860
vn -0.7071 -0.0000 0.7071
vn -0.7071 -0.0000 -0.7071
vn -1.0000 -0.0000 -0.0000
vn -0.0000 0.9744 -0.2248
vn -0.1590 0.9744 -0.1590
vn -0.2248 0.9744 -0.0000
vn -0.1590 0.9744 0.1590
vn 0.7071 -0.0000 0.7071
vn 0.7071 -0.0000 -0.7071
vn 0.2248 0.9744 -0.0000
vn 0.1590 0.9744 0.1590
vn 0.2527 0.9339 0.2527
vn 0.3574 0.9339 -0.0000
vn 0.7833 0.6217 -0.0000
vn 0.5538 0.6217 0.5538
vn -0.0000 0.9339 -0.3574
vn -0.2527 0.9339 -0.2527
vn -0.5538 0.6217 -0.5538
vn -0.0000 0.6217 -0.7833
vn -0.3574 0.9339 -0.0000
vn -0.2527 0.9339 0.2527
vn -0.5538 0.6217 0.5538
vn -0.7833 0.6217 -0.0000
vn -0.0000 0.9744 0.2248
vn -0.0000 0.9339 0.3574
vn -0.0000 0.6217 0.7833
vn 0.1590 0.9744 -0.1590
vn 0.2527 0.9339 -0.2527
vn 0.5538 0.6217 -0.5538
vn -0.3614 0.6593 -0.6593
vn -0.3614 0.9324 -0.0000
vn -0.3614 -0.0000 0.9324
vn -0.3614 -0.6593 0.6593
vn -0.3614 0.6593 0.6593
vn -0.3614 -0.6593 -0.6593
vn -0.3614 -0.0000 -0.9324
vn -0.3614 -0.9324 -0.0000
vt 0.263001 0.080170
vt 0.186077 0.084441
vt 0.414690 0.084074
vt 0.339213 0.080149
vt 0.563625 0.104809
vt 0.489429 0.092076
vt 0.129997 0.219558
vt 0.335228 0.207942
vt 0.197348 0.212563
vt 0.266068 0.208786
vt 0.599338 0.231120
vt 0.065419 0.229851
vt 0.108227 0.093556
vt 0.538159 0.221022
vt 0.471994 0.214179
vt 0.638658 0.123315
vt 0.026614 0.109034
vt 0.404098 0.209796
vt 0.827267 0.536053
vt 0.844477 0.529523
vt 0.151754 0.983287
vt 0.842563 0.594134
vt 0.212013 0.982518
vt 0.825088 0.586925
vt 0.788693 0.623062
vt 0.272227 0.981828
vt 0.796382 0.640479
vt 0.792666 0.497867
vt 0.574124 0.984116
vt 0.802317 0.482352
vt 0.797860 0.479283
vt 0.091628 0.984116
vt 0.513215 0.983125
vt 0.732377 0.480720
vt 0.740264 0.498107
vt 0.737937 0.622762
vt 0.730885 0.640479
vt 0.332375 0.981489
vt 0.703686 0.534415
vt 0.685870 0.527378
vt 0.452745 0.982201
vt 0.702851 0.585875
vt 0.685230 0.593294
vt 0.392515 0.981616
vt 0.830970 0.045489
vt 0.910055 0.737863
vt 0.836793 0.030905
vt 0.893484 0.088301
vt 0.921503 0.274926
vt 0.878994 0.094498
vt 0.921503 0.807672
vt 0.909844 0.347259
vt 0.878678 0.163644
vt 0.893381 0.169334
vt 0.902688 0.413113
vt 0.830846 0.212769
vt 0.898326 0.478835
vt 0.762706 0.212527
vt 0.756882 0.227112
vt 0.700192 0.169715
vt 0.896894 0.544296
vt 0.714682 0.163519
vt 0.700295 0.088683
vt 0.898360 0.609376
vt 0.714998 0.094372
vt 0.902690 0.673947
vt 0.762830 0.045248
vt 0.756457 0.030912
vt 0.653461 0.059294
vt 0.015884 0.041669
vt 0.908446 0.082009
vt 0.098379 0.028529
vt 0.842899 0.015884
vt 0.497444 0.029420
vt 0.843684 0.241976
vt 0.837219 0.227105
vt 0.575381 0.042163
vt 0.908446 0.175296
vt 0.340476 0.016485
vt 0.685230 0.176008
vt 0.419243 0.020989
vt 0.750776 0.242132
vt 0.180068 0.019664
vt 0.749992 0.016041
vt 0.260822 0.015884
vt 0.685230 0.082721
vt 0.915227 0.273915
vt 0.914294 0.808786
vt 0.903693 0.738761
vt 0.896428 0.412610
vt 0.903857 0.346497
vt 0.890684 0.544336
vt 0.892085 0.478598
vt 0.896580 0.674540
vt 0.892195 0.609691
vt 0.915140 0.273901
vt 0.807993 0.447514
vt 0.914224 0.808797
vt 0.772037 0.360708
vt 0.790844 0.406974
vt 0.858843 0.396664
vt 0.903626 0.738770
vt 0.818050 0.380124
vt 0.896355 0.412604
vt 0.685230 0.396664
vt 0.725771 0.379515
vt 0.903781 0.346487
vt 0.736080 0.447514
vt 0.752620 0.406721
vt 0.890612 0.544336
vt 0.736080 0.273901
vt 0.753230 0.314442
vt 0.892012 0.478595
vt 0.685230 0.324751
vt 0.726023 0.341291
vt 0.896509 0.674547
vt 0.858843 0.324751
vt 0.818303 0.341901
vt 0.892123 0.609694
vt 0.807993 0.273901
vt 0.791453 0.314694
vt 0.151525 0.928912
vt 0.211992 0.928077
vt 0.092505 0.929651
vt 0.573358 0.929588
vt 0.272461 0.927312
vt 0.332977 0.926966
vt 0.514648 0.928580
vt 0.454052 0.927562
vt 0.393508 0.927066
vt 0.151339 0.921282
vt 0.575112 0.921370
vt 0.091013 0.922663
vt 0.514710 0.920320
vt 0.454067 0.919657
vt 0.211809 0.920195
vt 0.272326 0.919424
vt 0.332899 0.919074
vt 0.393485 0.919172
vt 0.212176 0.935960
vt 0.272592 0.935193
vt 0.333052 0.934851
vt 0.393528 0.934954
vt 0.151715 0.937185
vt 0.090992 0.937962
vt 0.574629 0.936578
vt 0.514611 0.936203
vt 0.454031 0.935456
vt 0.766993 0.787915
vt 0.800855 0.754036
vt 0.800858 0.706136
vt 0.719090 0.787915
vt 0.685230 0.754027
vt 0.766998 0.672248
vt 0.685234 0.706127
vt 0.719095 0.672248
vt 0.759080 0.766942
vt 0.747810 0.742620
vt 0.752556 0.753810
vt 0.755241 0.735559
vt 0.780429 0.744802
vt 0.766525 0.740127
vt 0.755513 0.725289
vt 0.779881 0.714044
vt 0.766739 0.720562
vt 0.728334 0.767492
vt 0.737585 0.742342
vt 0.733015 0.753597
vt 0.730576 0.734874
vt 0.706207 0.746119
vt 0.719350 0.739601
vt 0.705660 0.715361
vt 0.730847 0.724604
vt 0.719563 0.720036
vt 0.748504 0.717821
vt 0.757755 0.692671
vt 0.753074 0.706566
vt 0.738278 0.717543
vt 0.727009 0.693221
vt 0.733532 0.706353
vt 0.337221 0.144045
vt 0.409394 0.146935
vt 0.119112 0.156557
vt 0.264535 0.144478
vt 0.191712 0.148502
vt 0.480712 0.153128
vt 0.618998 0.177217
vt 0.046017 0.169442
vt 0.550892 0.162916
s 1
usemtl flashlight_2
f 140/183/1 144/188/2 15/17/3 12/13/4
f 144/187/2 145/189/5 5/5/6 15/16/3
f 143/186/7 139/182/8 3/3/9 6/6/10
f 141/184/11 142/185/12 2/2/13 1/1/14
f 91/133/15 11/12/16 7/7/17 90/131/18
f 145/189/5 143/186/7 6/6/10 5/5/6
f 104/147/19 25/33/20 30/41/21 105/148/22
f 96/138/23 8/8/24 16/18/25 97/139/26
f 97/139/26 16/18/25 14/15/21 93/135/27
f 99/141/28 22/26/29 19/23/30 98/140/31
f 26/35/32 27/36/33 31/42/34 29/39/35
f 103/146/36 24/29/16 25/33/20 104/147/19
f 100/142/37 28/38/24 22/26/29 99/141/28
f 4/4/24 1/1/29 56/85/29 53/79/24
f 138/181/38 141/184/11 1/1/14 4/4/39
f 142/185/12 140/183/1 12/13/4 2/2/13
f 139/182/8 138/181/38 4/4/39 3/3/9
f 43/61/16 45/64/20 64/95/40 61/92/41
f 2/2/30 12/13/17 49/72/17 55/83/30
f 1/1/29 2/2/30 55/83/30 56/85/29
f 6/6/21 3/3/25 54/81/25 50/74/21
f 5/5/20 6/6/21 50/74/21 52/77/20
f 3/3/25 4/4/24 53/79/24 54/81/25
f 15/16/16 5/5/20 52/77/20 48/69/16
f 27/36/33 21/25/42 22/27/43 28/37/44
f 20/24/45 17/19/46 18/20/47 19/22/48
f 17/19/46 23/28/49 24/30/50 18/20/47
f 26/35/32 29/39/35 30/40/51 25/34/52
f 23/28/49 26/35/32 25/34/52 24/31/50
f 31/42/34 27/36/33 28/37/44 32/43/53
f 29/39/35 31/42/34 32/43/53 30/40/51
f 21/25/42 20/24/45 19/22/48 22/27/43
f 90/131/18 7/7/17 9/9/30 94/136/54
f 46/66/21 33/46/25 58/89/55 63/94/30
f 39/55/30 40/57/17 62/93/56 59/90/30
f 40/57/17 43/61/16 61/92/41 62/93/56
f 37/52/29 39/55/30 59/90/30 60/91/57
f 45/64/20 46/66/21 63/94/30 64/95/40
f 12/13/17 15/17/16 48/70/16 49/72/17
f 72/107/58 65/96/59 57/87/60 60/91/57
f 36/49/24 37/52/29 60/91/57 57/87/60
f 35/48/61 34/47/62 49/73/62 48/71/61
f 51/76/63 38/54/64 52/78/64 50/75/63
f 42/60/65 41/59/66 54/82/66 53/80/65
f 34/47/62 47/68/67 55/84/67 49/73/62
f 38/54/64 35/48/61 48/71/61 52/78/64
f 41/59/66 51/76/63 50/75/63 54/82/66
f 44/63/68 42/60/65 53/80/65 56/86/68
f 47/68/67 44/63/68 56/86/68 55/84/67
f 36/50/65 33/45/66 34/47/66 35/48/65
f 39/56/67 37/53/68 38/54/68 51/76/67
f 43/62/61 40/58/62 41/59/62 42/60/61
f 33/45/66 46/67/63 47/68/63 34/47/66
f 37/53/68 36/50/65 35/48/65 38/54/68
f 40/58/62 39/56/67 51/76/67 41/59/62
f 45/65/64 43/62/61 42/60/61 44/63/64
f 46/67/63 45/65/64 44/63/64 47/68/63
f 33/46/25 36/51/24 57/88/60 58/89/55
f 76/113/69 70/104/70 59/90/30 62/93/56
f 80/119/71 74/110/72 61/92/41 64/95/40
f 70/104/70 72/107/58 60/91/57 59/90/30
f 68/102/73 78/116/74 63/94/30 58/89/55
f 74/110/72 76/113/69 62/93/56 61/92/41
f 78/116/74 80/119/71 64/95/40 63/94/30
f 66/99/75 69/103/76 67/100/77
f 67/100/77 69/103/76 68/101/78 65/97/79
f 66/99/75 73/109/80 71/106/81
f 71/106/81 73/109/80 72/108/82 70/105/83
f 66/99/75 77/115/84 75/112/85
f 75/112/85 77/115/84 76/114/86 74/111/87
f 66/99/75 79/118/88 69/103/76
f 69/103/76 79/118/88 78/117/89 68/101/78
f 66/99/75 67/100/77 73/109/80
f 73/109/80 67/100/77 65/97/79 72/108/82
f 66/99/75 71/106/81 77/115/84
f 77/115/84 71/106/81 70/105/83 76/114/86
f 66/99/75 75/112/85 81/121/90
f 81/121/90 75/112/85 74/111/87 80/120/91
f 66/99/75 81/121/90 79/118/88
f 79/118/88 81/121/90 80/120/91 78/117/89
f 65/98/59 68/102/73 58/89/55 57/88/60
f 20/24/45 21/25/42 23/28/49 17/19/46
f 21/25/42 27/36/33 26/35/32 23/28/49
f 102/144/92 82/122/17 83/123/30 98/140/31
f 96/138/23 86/127/24 85/126/29 95/137/93
f 91/132/15 84/125/16 87/128/20 92/134/94
f 95/137/93 85/126/29 83/123/30 94/136/54
f 101/143/95 89/130/25 88/129/21 105/148/22
f 100/142/37 86/127/24 89/130/25 101/143/95
f 92/134/94 87/128/20 88/129/21 93/135/27
f 103/145/36 84/124/16 82/122/17 102/144/92
f 13/14/20 92/134/94 93/135/27 14/15/21
f 10/10/29 95/137/93 94/136/54 9/9/30
f 11/11/16 91/132/15 92/134/94 13/14/20
f 8/8/24 96/138/23 95/137/93 10/10/29
f 82/122/17 90/131/18 94/136/54 83/123/30
f 89/130/25 97/139/26 93/135/27 88/129/21
f 86/127/24 96/138/23 97/139/26 89/130/25
f 84/124/16 91/133/15 90/131/18 82/122/17
f 24/32/16 103/145/36 102/144/92 18/21/17
f 28/38/24 100/142/37 101/143/95 32/44/25
f 32/44/25 101/143/95 105/148/22 30/41/21
f 18/21/17 102/144/92 98/140/31 19/23/30
f 86/127/24 100/142/37 99/141/28 85/126/29
f 84/125/16 103/146/36 104/147/19 87/128/20
f 85/126/29 99/141/28 98/140/31 83/123/30
f 87/128/20 104/147/19 105/148/22 88/129/21
f 109/152/30 123/166/30 114/157/96 106/149/96
f 121/164/97 108/151/97 107/150/98 118/161/98
f 132/175/99 120/163/100 117/160/101 115/158/102
f 123/166/30 109/152/30 110/153/103 127/170/103
f 133/176/21 111/154/21 108/151/97 121/164/97
f 136/179/104 113/156/104 111/154/21 133/176/21
f 127/170/103 110/153/103 112/155/75 129/172/75
f 129/172/75 112/155/75 113/156/104 136/179/104
f 130/173/105 126/169/106 128/171/107 131/174/108
f 131/174/109 128/171/110 127/170/110 129/172/109
f 120/163/100 132/175/99 134/177/111 122/165/112
f 122/165/113 134/177/114 133/176/114 121/164/113
f 115/158/102 117/160/101 119/162/115 116/159/116
f 116/159/117 119/162/118 118/161/118 114/157/117
f 124/167/119 115/158/102 116/159/116 125/168/120
f 125/168/121 116/159/117 114/157/117 123/166/121
f 117/160/101 120/163/100 122/165/112 119/162/115
f 119/162/118 122/165/113 121/164/113 118/161/118
f 135/178/122 130/173/105 131/174/108 137/180/123
f 137/180/124 131/174/109 129/172/109 136/179/124
f 132/175/99 135/178/122 137/180/123 134/177/111
f 134/177/114 137/180/124 136/179/124 133/176/114
f 126/169/106 124/167/119 125/168/120 128/171/107
f 128/171/110 125/168/121 123/166/121 127/170/110
f 106/149/96 114/157/96 118/161/98 107/150/98
f 16/18/125 8/8/126 138/181/38 139/182/8
f 9/9/127 7/7/128 140/183/1 142/185/12
f 8/8/126 10/10/129 141/184/11 138/181/38
f 13/14/130 14/15/131 143/186/7 145/189/5
f 10/10/129 9/9/127 142/185/12 141/184/11
f 14/15/131 16/18/125 139/182/8 143/186/7
f 11/11/132 13/14/130 145/189/5 144/187/2
f 7/7/128 11/12/132 144/188/2 140/183/1
f 130/173/105 135/178/122 124/167/119 126/169/106
f 135/178/122 132/175/99 115/158/102 124/167/119
